<?xml version="1.0" encoding="UTF-8"?>
<svg id="Layer_1" data-name="Layer 1" xmlns="http://www.w3.org/2000/svg" viewBox="0 0 20 20">
  <defs>
    <style>
      .cls-1 {
        fill: #333;
      }
    </style>
  </defs>
  <g id="Dictionary">
    <polygon class="cls-1" points="5.1 4.47 4.5 5.83 5.69 5.83 5.1 4.47"/>
    <rect class="cls-1" x="5.4" y="10" width="6.74" height="1.84"/>
    <path class="cls-1" d="M17.05,2.03h-.31v-.92c0-.34-.28-.61-.61-.61H3.26C1.91.5.81,1.6.81,2.95v13.48c0,1.14.78,2.1,1.84,2.38v-1.31c-.37-.21-.61-.61-.61-1.06,0-.68.55-1.23,1.23-1.23h10.75c-.21.36-.33.78-.33,1.23s.12.86.33,1.23H4.48v-1.23c0-.34-.27-.61-.61-.61s-.61.27-.61.61v2.45c0,.34.27.61.61.61s.61-.27.61-.61h11.25s.09,0,.13-.02c.09,0,.18.02.27.02.34,0,.61-.28.61-.61v-6.13h1.23c.68,0,1.23-.55,1.23-1.23v-6.74c0-1.18-.96-2.15-2.15-2.15ZM17.05,3.26c.51,0,.92.41.92.92v2.05c-.28-.13-.59-.21-.92-.21h-.31v-2.76h.31ZM8.16,4.79h1.23c.34,0,.61.28.61.61s-.28.61-.61.61h-1.23c-.34,0-.61-.28-.61-.61s.28-.61.61-.61ZM3.34,7.82c-.32-.12-.47-.48-.35-.79l1.53-3.98c.09-.24.32-.39.57-.39s.48.16.57.39l1.53,3.98c.12.32-.04.67-.35.79-.07.03-.15.04-.22.04-.25,0-.48-.15-.57-.39l-.2-.53h-1.51l-.2.53c-.12.32-.48.47-.79.35ZM13.37,12.15c0,.51-.41.92-.92.92h-7.35c-.51,0-.92-.41-.92-.92v-2.45c0-.51.41-.92.92-.92h7.35c.51,0,.92.41.92.92v2.45ZM13.98,7.55h-3.06c-.24,0-.45-.14-.55-.35s-.07-.47.08-.65l2.23-2.67h-1.76c-.34,0-.61-.28-.61-.61s.28-.61.61-.61h3.06c.24,0,.45.14.55.35s.07.47-.08.65l-2.23,2.67h1.76c.34,0,.61.28.61.61s-.28.61-.61.61ZM16.74,10.92v-3.68h.31c.51,0,.92.41.92.92v2.76s-1.23,0-1.23,0Z"/>
  </g>
</svg>