<?xml version="1.0" standalone="no"?>
<!DOCTYPE svg PUBLIC "-//W3C//DTD SVG 1.1//EN" "http://www.w3.org/Graphics/SVG/1.1/DTD/svg11.dtd" >
<svg xmlns="http://www.w3.org/2000/svg" xmlns:xlink="http://www.w3.org/1999/xlink" version="1.1">
<defs><font id="DIN-Condensed-Bold" horiz-adv-x="396" >
<font-face font-family="DIN-Condensed-Bold" font-weight="700" font-stretch="condensed" units-per-em="1000" panose-1="2 11 8 6 2 2 1 1 1 4" ascent="800" descent="-200" x-height="527" cap-height="712" bbox="-70 -194 1004 962" underline-thickness="50" underline-position="-125" unicode-range="U+0020-2122"/>
<missing-glyph horiz-adv-x="417" d="M365 0h-313v712h313v-712zM129 638v-564h159v564h-159z"/>
<glyph glyph-name=".notdef" horiz-adv-x="417" d="M365 0h-313v712h313v-712zM129 638v-564h159v564h-159z"/>
<glyph glyph-name="glyph1" horiz-adv-x="0"/>
<glyph glyph-name="glyph1" horiz-adv-x="0"/>
<glyph glyph-name="glyph2" horiz-adv-x="179"/>
<glyph glyph-name="space" unicode=" " horiz-adv-x="179"/>
<glyph glyph-name="exclam" unicode="!" horiz-adv-x="257" d="M193 200h-106v512h106v-512zM202 0h-124v123h124v-123z"/>
<glyph glyph-name="quotedbl" unicode="&#x22;" horiz-adv-x="388" d="M340 511h-102v201h102v-201zM150 511h-102v201h102v-201z"/>
<glyph glyph-name="numbersign" unicode="#" horiz-adv-x="596" d="M487 529h68v-101h-84l-18 -127h71v-100h-87l-29 -201h-111l29 201h-107l-29 -201h-110l29 201h-68v100h84l18 127h-71v101h87l26 183h111l-27 -183h107l27 183h110zM254 428l-19 -127h107l19 127h-107z"/>
<glyph glyph-name="dollar" unicode="$" horiz-adv-x="442" d="M273 713q48 -9 79 -38q28 -27 39 -65.5t11 -89.5h-112q0 24 -3 43t-14 33q-16 21 -50 21q-17 0 -28.5 -5.5t-19.5 -14.5q-19 -22 -19 -70q0 -22 2 -37t8.5 -25.5t18 -18.5t30.5 -15l84 -34q32 -13 53 -29t33 -39t17 -55t5 -77q0 -55 -9.5 -93t-36.5 -64q-15 -15 -37 -26 t-51 -16v-112h-99v111q-57 9 -91 43q-26 26 -35.5 61t-9.5 92h112q0 -29 4 -47.5t16 -32.5q8 -8 20.5 -13.5t31.5 -5.5q20 0 32.5 5t20.5 15q11 13 15.5 31.5t4.5 47.5q0 28 -2.5 47t-10 31.5t-20.5 21.5t-34 17l-85 35q-27 11 -46 25t-30.5 34.5t-17 49.5t-5.5 70 q0 48 14.5 86.5t43.5 64.5q31 28 72 37v94h99v-93z"/>
<glyph glyph-name="percent" unicode="%" horiz-adv-x="732" d="M286 0h-82l246 712h82zM174 719q25 0 48.5 -7.5t40.5 -22.5t27.5 -37.5t10.5 -52.5v-133q0 -30 -10.5 -52.5t-27.5 -37.5t-40.5 -22.5t-48.5 -7.5q-26 0 -49 7.5t-40 22.5t-27.5 37.5t-10.5 52.5v133q0 30 10.5 52.5t27.5 37.5t40 22.5t49 7.5zM174 642q-18 0 -29 -11 t-11 -34v-129q0 -23 11 -34t29 -11t29 11t11 34v129q0 23 -11 34t-29 11zM558 365q25 0 48.5 -7.5t40.5 -22.5t27.5 -37.5t10.5 -52.5v-133q0 -30 -10.5 -52.5t-27.5 -37.5t-40.5 -22.5t-48.5 -7.5q-26 0 -49 7.5t-40 22.5t-27.5 37.5t-10.5 52.5v133q0 30 10.5 52.5 t27.5 37.5t40 22.5t49 7.5zM558 288q-18 0 -29 -11t-11 -34v-129q0 -23 11 -34t29 -11t29 11t11 34v129q0 23 -11 34t-29 11z"/>
<glyph glyph-name="ampersand" unicode="&#x26;" horiz-adv-x="506" d="M207 719q36 0 63 -11.5t45 -32t27 -47.5t9 -58q0 -63 -24.5 -108t-66.5 -88l85 -131q12 26 19.5 61t9.5 70h91q-1 -30 -6 -61t-13.5 -60t-19 -56t-22.5 -48l93 -149h-111l-39 63q-29 -33 -63 -52t-83 -19q-36 0 -67 12.5t-53 36t-34.5 57.5t-12.5 77q0 61 27.5 112 t78.5 103q-35 47 -55 86t-20 84q0 39 11 69t30.5 50t45 30t55.5 10zM192 304q-31 -32 -45 -62t-14 -60q0 -42 21.5 -68.5t55.5 -26.5q24 0 44.5 14.5t40.5 42.5zM208 624q-23 0 -35.5 -16t-12.5 -44q0 -23 12 -49t35 -56q24 26 36.5 49.5t12.5 59.5q0 26 -14 41t-34 15z"/>
<glyph glyph-name="quotesingle" unicode="'" horiz-adv-x="198" d="M150 511h-102v201h102v-201z"/>
<glyph glyph-name="parenleft" unicode="(" horiz-adv-x="269" d="M228 735q-17 -17 -31 -32.5t-25 -34.5q-8 -14 -11 -34.5t-3 -47.5v-460q0 -27 3 -47.5t11 -34.5q11 -19 25 -34.5t31 -32.5l-71 -71q-24 24 -45 47t-36 49q-16 28 -20 58t-4 60v472q0 30 4 60t20 58q16 27 36.5 49.5t44.5 46.5z"/>
<glyph glyph-name="parenright" unicode=")" horiz-adv-x="269" d="M41 -23q17 17 31 32.5t25 34.5q8 14 11 34.5t3 47.5v460q0 27 -3 47.5t-11 34.5q-11 19 -25 34.5t-31 32.5l71 71q24 -24 45 -47t36 -49q16 -28 20 -58t4 -60v-472q0 -30 -4 -60t-20 -58q-16 -27 -36.5 -49.5t-44.5 -46.5z"/>
<glyph glyph-name="asterisk" unicode="*" horiz-adv-x="413" d="M241 587l93 59l38 -66l-98 -51l98 -51l-38 -65l-93 58l4 -126h-77l4 126l-94 -58l-37 65l98 51l-98 51l37 66l94 -59l-4 126h77z"/>
<glyph glyph-name="plus" unicode="+" horiz-adv-x="457" d="M279 339h134v-101h-134v-134h-101v134h-134v101h134v134h101v-134z"/>
<glyph glyph-name="comma" unicode="," horiz-adv-x="211" d="M164 -65l-115 -85v274h115v-189z"/>
<glyph glyph-name="hyphen" unicode="-" horiz-adv-x="296" d="M249 238h-202v101h202v-101z"/>
<glyph glyph-name="period" unicode="." horiz-adv-x="219" d="M171 0h-123v123h123v-123z"/>
<glyph glyph-name="slash" unicode="/" horiz-adv-x="298" d="M106 -74h-100l185 860h100z"/>
<glyph glyph-name="zero" unicode="0" horiz-adv-x="402" d="M201 720q33 0 62.5 -11t50.5 -31t33 -47.5t12 -70.5v-408q0 -43 -12 -70.5t-33 -47.5t-50.5 -31t-62.5 -11t-63 11t-51 31t-33 47.5t-12 70.5v408q0 43 12 70.5t33 47.5t51 31t63 11zM201 625q-22 0 -37.5 -15t-15.5 -46v-416q0 -31 15.5 -46t37.5 -15t37 15t15 46v416 q0 31 -15 46t-37 15z"/>
<glyph glyph-name="one" unicode="1" horiz-adv-x="402" d="M283 0h-106v588l-107 -82v120l107 86h106v-712z"/>
<glyph glyph-name="two" unicode="2" horiz-adv-x="402" d="M203 720q32 0 60 -9t50 -29q21 -20 34 -50t13 -73q0 -39 -11 -81t-28 -75l-161 -308h200v-95h-313v90l178 346q12 23 20.5 55.5t8.5 71.5q0 31 -14.5 46.5t-36.5 15.5t-37.5 -15t-15.5 -46v-46h-106v42q0 43 11.5 70.5t32.5 47.5t52 31t63 11z"/>
<glyph glyph-name="three" unicode="3" horiz-adv-x="402" d="M200 720q35 0 62.5 -10.5t46.5 -29.5q46 -45 46 -148q0 -37 -3 -63.5t-15 -49.5q-7 -13 -16.5 -23.5t-22.5 -18.5q14 -10 24 -20t17 -23q15 -26 18.5 -55.5t3.5 -75.5q0 -32 -1.5 -56.5t-6.5 -45t-14 -37t-25 -31.5q-21 -20 -51.5 -30.5t-62.5 -10.5t-63 10.5t-52 31.5 q-21 20 -32.5 47t-11.5 71v42h106v-46q0 -31 15 -46t38 -15q11 0 20 3.5t17 13.5q9 11 13.5 32t4.5 67q0 28 -1 47t-2.5 31.5t-5 19.5t-7.5 13q-13 18 -40 18h-35v89h35q22 0 34 14q11 13 13.5 32t2.5 58q0 38 -3 55.5t-11 28.5q-13 16 -35 16q-21 0 -34.5 -14t-13.5 -43 v-50h-106v43q0 42 11.5 69.5t32.5 48.5t49.5 31t60.5 10z"/>
<glyph glyph-name="four" unicode="4" horiz-adv-x="402" d="M133 206h89v127h106v-127h49v-95h-49v-111h-106v111h-198v95l183 506h103z"/>
<glyph glyph-name="five" unicode="5" horiz-adv-x="402" d="M354 617h-210v-191q14 20 37 34q11 7 24.5 10t26.5 3q35 0 57 -11t39 -32q9 -11 15.5 -26t10.5 -38t6 -55.5t2 -79.5q0 -34 -1 -62t-5.5 -51.5t-14 -43.5t-27.5 -38q-20 -21 -50.5 -32.5t-62.5 -11.5q-33 0 -63 10.5t-51 30.5q-22 20 -33.5 47.5t-11.5 71.5v35h106v-37 q0 -32 15 -47.5t38 -15.5q11 0 20.5 4t17.5 14q4 6 7.5 14.5t5.5 22.5t3 35.5t1 53.5q0 57 -2.5 84t-11.5 41q-15 22 -41 22q-23 0 -38 -15.5t-15 -45.5v-15h-101v410h307v-95z"/>
<glyph glyph-name="six" unicode="6" horiz-adv-x="402" d="M187 424q9 7 21 9.5t23 2.5q28 0 52.5 -10.5t41.5 -33.5q10 -12 16.5 -26.5t11 -34.5t6.5 -48t2 -67q0 -36 -2 -61.5t-6.5 -45t-10.5 -34t-15 -26.5q-21 -30 -55 -43.5t-72 -13.5q-43 0 -74.5 15t-50.5 42q-10 15 -17 31t-11 35.5t-5.5 44t-1.5 56.5q0 48 7.5 90.5 t21.5 77.5l125 328h110zM201 349q-11 0 -21.5 -4.5t-17.5 -13.5q-11 -14 -13.5 -42.5t-2.5 -70.5t2.5 -70.5t13.5 -42.5q7 -9 17.5 -13.5t21.5 -4.5q24 0 38 18q11 14 13.5 42.5t2.5 70.5t-2.5 70.5t-13.5 42.5q-14 18 -38 18z"/>
<glyph glyph-name="seven" unicode="7" horiz-adv-x="402" d="M365 624l-187 -624h-106l187 617h-124v-95h-102v190h332v-88z"/>
<glyph glyph-name="eight" unicode="8" horiz-adv-x="402" d="M200 720q32 0 61 -10t49 -31q27 -27 36.5 -63t9.5 -89q0 -36 -4 -62t-15 -49q-13 -24 -39 -44q14 -10 24 -20.5t18 -24.5q13 -23 17 -52t4 -74q0 -29 -1.5 -53t-6.5 -44t-14 -37t-25 -33q-20 -20 -50.5 -31t-62.5 -11q-33 0 -63 11t-51 31q-16 16 -25 33t-14 37t-6.5 44 t-1.5 53q0 45 4 74t17 52q8 14 18 24.5t24 20.5q-26 20 -39 44q-11 23 -15 49t-4 62q0 53 9.5 89t36.5 63q21 21 49 31t60 10zM201 328q-25 0 -39 -17q-11 -14 -13.5 -36.5t-2.5 -67.5q0 -42 2.5 -65.5t13.5 -37.5q14 -17 39 -17q24 0 38 17q11 14 13.5 37.5t2.5 65.5 q0 45 -2.5 67.5t-13.5 36.5q-14 17 -38 17zM201 625q-21 0 -33 -12q-9 -10 -13 -28t-4 -64t4.5 -64t13.5 -28q12 -12 32 -12t32 12q9 10 13 28t4 64t-4 64t-13 28q-12 12 -32 12z"/>
<glyph glyph-name="nine" unicode="9" horiz-adv-x="402" d="M201 720q43 0 74.5 -15t50.5 -42q10 -15 17 -31t11 -35.5t5.5 -44t1.5 -56.5q0 -48 -7.5 -90.5t-21.5 -77.5l-125 -328h-110l117 288q-9 -7 -21 -9.5t-23 -2.5q-28 0 -52.5 10.5t-41.5 33.5q-10 12 -16.5 26.5t-11 34.5t-6.5 48t-2 67q0 36 2 61.5t6.5 45t10.5 34 t15 26.5q21 30 55 43.5t72 13.5zM200 625q-25 0 -38 -18q-11 -14 -13.5 -42.5t-2.5 -70.5t2.5 -70.5t13.5 -42.5q13 -18 38 -18t39 18q11 14 13.5 42.5t2.5 70.5t-2.5 70.5t-13.5 42.5q-14 18 -39 18z"/>
<glyph glyph-name="colon" unicode=":" horiz-adv-x="257" d="M202 313h-124v123h124v-123zM202 0h-124v123h124v-123z"/>
<glyph glyph-name="semicolon" unicode=";" horiz-adv-x="257" d="M197 -65l-116 -85v274h116v-189zM202 313h-124v123h124v-123z"/>
<glyph glyph-name="less" unicode="&#x3c;" horiz-adv-x="401" d="M367 407l-203 -115l203 -115v-117l-333 195v74l333 194v-116z"/>
<glyph glyph-name="equal" unicode="=" horiz-adv-x="457" d="M413 326h-369v101h369v-101zM413 145h-369v101h369v-101z"/>
<glyph glyph-name="greater" unicode="&#x3e;" horiz-adv-x="401" d="M34 523l333 -194v-74l-333 -195v117l203 115l-203 115v116z"/>
<glyph glyph-name="question" unicode="?" horiz-adv-x="426" d="M223 718q79 0 122 -45q26 -26 37 -61t11 -88q0 -42 -8 -70.5t-26 -52.5l-59 -79q-23 -31 -23 -65v-57h-106v69q0 24 8.5 46t22.5 40l59 79q17 22 21.5 43t4.5 50q0 26 -4 44.5t-16 32.5q-17 19 -43 19q-27 0 -43 -18q-14 -15 -16.5 -36t-2.5 -42h-106q0 45 10.5 82 t36.5 62q21 20 50 33.5t70 13.5zM286 0h-124v123h124v-123z"/>
<glyph glyph-name="at" unicode="@" horiz-adv-x="602" d="M383 712q75 0 118 -43q22 -21 34.5 -49t12.5 -72v-548h-102v40q-7 -9 -16 -18.5t-19 -14.5q-11 -7 -25.5 -11t-28.5 -4q-32 0 -54.5 10t-40.5 31q-16 18 -23 43t-7 71v188q0 46 7 71t23 43q18 21 40.5 31t54.5 10q29 0 54 -14q19 -10 31 -27v83q0 89 -83 89h-130 q-82 0 -82 -89v-396q0 -26 6.5 -42t22.5 -31l-77 -76q-16 15 -27 30t-18 32t-10 37t-3 45v417q0 44 12 72t34 49q43 43 118 43h178zM390 396q-22 0 -37 -15.5t-15 -46.5v-186q0 -31 15 -46t37 -15t37 15t15 46v186q0 31 -15 46.5t-37 15.5z"/>
<glyph glyph-name="A" unicode="A" horiz-adv-x="467" d="M462 0h-117l-29 141h-165l-28 -141h-118l175 712h109zM173 242h122l-61 298z"/>
<glyph glyph-name="B" unicode="B" horiz-adv-x="472" d="M238 712q50 0 83 -10.5t55 -33.5q25 -25 35 -56.5t10 -89.5q0 -38 -8 -68t-33 -56q-8 -8 -17 -14t-20 -11q24 -11 39 -26q25 -26 33 -59.5t8 -83.5q0 -63 -10 -98t-36 -61q-23 -23 -56 -34t-84 -11h-177v712h178zM172 323v-222h54q45 0 65 24.5t20 86.5q0 60 -20 85.5 t-65 25.5h-54zM172 611v-193h56q44 0 62.5 23t18.5 74q0 53 -18.5 74.5t-62.5 21.5h-56z"/>
<glyph glyph-name="C" unicode="C" horiz-adv-x="447" d="M231 720q41 0 71 -11.5t54 -34.5q27 -25 41 -63.5t16 -86.5h-112q-1 20 -4.5 38t-12.5 31q-8 12 -20.5 19t-32.5 7t-32.5 -7.5t-20.5 -19.5q-17 -26 -21 -82t-4 -154t4 -154t21 -82q8 -12 20.5 -19.5t32.5 -7.5t32.5 7t20.5 19q9 14 12.5 32t4.5 38h112q-2 -48 -17 -87.5 t-42 -64.5q-24 -23 -53 -34t-70 -11q-50 0 -83 17.5t-55 43.5q-18 21 -28 47t-15.5 62t-7 83.5t-1.5 110.5t1.5 110.5t7 83.5t15.5 62t28 47q22 26 55 43.5t83 17.5z"/>
<glyph glyph-name="D" unicode="D" horiz-adv-x="472" d="M241 712q51 0 83.5 -17t54.5 -42q18 -20 28.5 -45.5t15.5 -61t6.5 -82t1.5 -107.5q0 -62 -1.5 -108.5t-6.5 -82t-15.5 -61.5t-28.5 -46q-22 -25 -54.5 -42t-83.5 -17h-181v712h181zM172 611v-510h66q20 0 34.5 8t22.5 21q17 25 20.5 79t3.5 148t-3.5 147t-20.5 78 q-8 13 -22.5 21t-34.5 8h-66z"/>
<glyph glyph-name="E" unicode="E" d="M359 611h-187v-199h161v-101h-161v-210h187v-101h-299v712h299v-101z"/>
<glyph glyph-name="F" unicode="F" horiz-adv-x="390" d="M359 611h-187v-202h161v-101h-161v-308h-112v712h299v-101z"/>
<glyph glyph-name="G" unicode="G" horiz-adv-x="455" d="M231 720q42 0 73 -12.5t54 -35.5q26 -27 39.5 -65t15.5 -84h-112q0 15 -2.5 31.5t-10 31t-21 24t-36.5 9.5q-20 0 -32.5 -7.5t-20.5 -19.5q-17 -26 -21 -82t-4 -154t4 -154t21 -82q8 -12 20.5 -19.5t32.5 -7.5q37 0 53.5 27t16.5 64v111h-70v92h182v-197q0 -49 -13.5 -86 t-37.5 -62t-57.5 -37.5t-73.5 -12.5q-50 0 -83 17.5t-55 43.5q-18 21 -28 47t-15.5 62t-7 83.5t-1.5 110.5t1.5 110.5t7 83.5t15.5 62t28 47q22 26 55 43.5t83 17.5z"/>
<glyph glyph-name="H" unicode="H" horiz-adv-x="483" d="M423 0h-112v311h-139v-311h-112v712h112v-300h139v300h112v-712z"/>
<glyph glyph-name="I" unicode="I" horiz-adv-x="232" d="M172 0h-112v712h112v-712z"/>
<glyph glyph-name="J" unicode="J" horiz-adv-x="389" d="M335 186q0 -43 -12 -78.5t-37 -61.5q-51 -54 -143 -54q-44 0 -79 15t-61 42l78 75q9 -13 25.5 -22t36.5 -9q35 0 57.5 23.5t22.5 69.5v526h112v-526z"/>
<glyph glyph-name="K" unicode="K" horiz-adv-x="473" d="M297 417l165 -417h-121l-115 293l-54 -110v-183h-112v712h112v-335l155 335h113z"/>
<glyph glyph-name="L" unicode="L" horiz-adv-x="383" d="M172 101h187v-101h-299v712h112v-611z"/>
<glyph glyph-name="M" unicode="M" horiz-adv-x="598" d="M538 0h-112v444l-97 -292h-62l-95 287v-439h-112v712h101l138 -374l137 374h102v-712z"/>
<glyph glyph-name="N" unicode="N" horiz-adv-x="499" d="M439 0h-99l-168 423v-423h-112v712h100l167 -423v423h112v-712z"/>
<glyph glyph-name="O" unicode="O" horiz-adv-x="462" d="M231 -8q-50 0 -83 17.5t-55 43.5q-18 21 -28 47.5t-15.5 62t-7 83t-1.5 110.5t1.5 110.5t7 83t15.5 62t28 47.5q22 26 55 43.5t83 17.5t83 -17.5t55 -43.5q18 -21 28.5 -47t15.5 -62t6.5 -83.5t1.5 -110.5t-1.5 -110.5t-6.5 -83.5t-15.5 -62t-28.5 -47q-22 -26 -55 -43.5 t-83 -17.5zM231 93q20 0 33 7.5t21 19.5q16 26 20 82t4 154t-4 154t-20 82q-8 12 -21 19.5t-33 7.5t-32.5 -7.5t-20.5 -19.5q-16 -26 -20.5 -82t-4.5 -154t4.5 -154t20.5 -82q8 -12 20.5 -19.5t32.5 -7.5z"/>
<glyph glyph-name="P" unicode="P" horiz-adv-x="459" d="M239 712q97 0 140 -52.5t43 -164.5t-43 -164t-140 -52h-67v-279h-112v712h179zM172 611v-231h63q45 0 60 30.5t15 84.5t-15 85t-60 31h-63z"/>
<glyph glyph-name="Q" unicode="Q" horiz-adv-x="462" d="M231 720q50 0 83 -17.5t55 -43.5q18 -21 28.5 -47t15.5 -62t6.5 -83.5t1.5 -110.5q0 -51 -1 -91.5t-4 -73t-8.5 -57.5t-15.5 -46l59 -49l-51 -62l-59 49q-20 -16 -47 -25t-63 -9q-50 0 -83 17.5t-55 43.5q-18 21 -28 47.5t-15.5 62t-7 83t-1.5 110.5t1.5 110.5t7 83 t15.5 62t28 47.5q22 26 55 43.5t83 17.5zM231 619q-20 0 -32.5 -7.5t-20.5 -19.5q-16 -26 -20.5 -82t-4.5 -154t4.5 -154t20.5 -82q8 -12 20.5 -19.5t32.5 -7.5q16 0 25 4l-38 32l52 62l30 -25q6 31 7.5 77.5t1.5 112.5q0 98 -4 154t-20 82q-8 12 -21 19.5t-33 7.5z"/>
<glyph glyph-name="R" unicode="R" horiz-adv-x="478" d="M240 712q98 0 140 -49.5t42 -160.5q0 -66 -17 -113t-66 -73l106 -316h-117l-93 292h-63v-292h-112v712h180zM172 611v-218h69q22 0 36 8.5t21 23.5t9.5 35t2.5 42t-2.5 42t-9.5 35t-21 23.5t-36 8.5h-69z"/>
<glyph glyph-name="S" unicode="S" horiz-adv-x="442" d="M221 718q83 0 128 -43q28 -27 39 -65.5t11 -89.5h-112q0 24 -3 43t-14 33q-16 21 -50 21q-17 0 -28.5 -5.5t-19.5 -14.5q-19 -22 -19 -70q0 -22 2 -37t8.5 -25.5t18 -18.5t30.5 -15l84 -34q32 -13 53 -29t33 -39t17 -55t5 -77q0 -55 -9.5 -93t-36.5 -64 q-22 -21 -56.5 -34t-82.5 -13q-91 0 -138 47q-26 26 -36 61t-10 92h112q0 -29 4 -47.5t16 -32.5q8 -8 20.5 -13.5t31.5 -5.5q37 0 54 20q11 13 15 31.5t4 47.5q0 28 -2.5 47t-10 31.5t-20.5 21.5t-34 17l-85 35q-27 11 -46 25t-30.5 34.5t-17 49.5t-5.5 70q0 48 14.5 86.5 t43.5 64.5q23 20 53.5 31.5t68.5 11.5z"/>
<glyph glyph-name="T" unicode="T" horiz-adv-x="393" d="M372 611h-120v-611h-112v611h-119v101h351v-101z"/>
<glyph glyph-name="U" unicode="U" horiz-adv-x="471" d="M417 176q0 -82 -49 -131q-51 -53 -132 -53q-82 0 -133 53q-49 49 -49 131v536h112v-532q0 -45 18 -66t52 -21q33 0 51 21t18 66v532h112v-536z"/>
<glyph glyph-name="V" unicode="V" horiz-adv-x="430" d="M127 712l88 -540l89 540h122l-153 -712h-116l-153 712h123z"/>
<glyph glyph-name="W" unicode="W" horiz-adv-x="714" d="M127 712l71 -540l98 540h122l99 -540l70 540h123l-135 -712h-115l-103 541l-102 -541h-116l-135 712h123z"/>
<glyph glyph-name="X" unicode="X" horiz-adv-x="432" d="M22 712h123l71 -238l71 238h123l-133 -343l144 -369h-123l-82 257l-82 -257h-123l141 369z"/>
<glyph glyph-name="Y" unicode="Y" horiz-adv-x="388" d="M250 279v-279h-112v279l-138 433h124l70 -282l71 282h123z"/>
<glyph glyph-name="Z" unicode="Z" horiz-adv-x="372" d="M341 628l-193 -527h193v-101h-310v84l194 527h-182v101h298v-84z"/>
<glyph glyph-name="bracketleft" unicode="[" horiz-adv-x="281" d="M252 692h-94v-672h94v-94h-200v860h200v-94z"/>
<glyph glyph-name="backslash" unicode="\" horiz-adv-x="298" d="M291 -74h-100l-185 860h100z"/>
<glyph glyph-name="bracketright" unicode="]" horiz-adv-x="281" d="M29 20h94v672h-94v94h200v-860h-200v94z"/>
<glyph glyph-name="asciicircum" unicode="^" horiz-adv-x="457" d="M415 434h-103l-83 177l-83 -177h-104l140 283h93z"/>
<glyph glyph-name="underscore" unicode="_" horiz-adv-x="457" d="M457 -153h-457v77h457v-77z"/>
<glyph glyph-name="grave" unicode="`" d="M245 587h-74l-88 139h90z"/>
<glyph glyph-name="a" unicode="a" horiz-adv-x="399" d="M250 0v45q-7 -10 -15 -19.5t-17 -15.5q-12 -8 -26 -13t-34 -5q-33 0 -56 10.5t-43 33.5q-32 38 -32 118q0 36 12.5 66.5t36.5 51.5q20 17 47.5 26.5t73.5 9.5h47v73q0 61 -51 61q-22 0 -35 -15q-16 -17 -16 -49h-106q0 32 10 60.5t35 53.5q19 19 49 31t62 12 q33 0 62.5 -9t49.5 -30q21 -21 33.5 -51t12.5 -73v-372h-100zM244 233h-35q-17 0 -30.5 -2.5t-24.5 -13.5q-10 -9 -15.5 -26t-5.5 -33q0 -73 55 -73q24 0 40 19t16 51v78z"/>
<glyph glyph-name="b" unicode="b" horiz-adv-x="408" d="M158 493q14 17 31 28q23 14 53 14t52.5 -9t40.5 -32q26 -32 31.5 -87.5t5.5 -142.5t-5.5 -143t-31.5 -88q-19 -23 -41 -32t-52 -9t-53 14q-8 5 -19 15t-16 18v-39h-102v712h106v-219zM210 441q-23 0 -36 -15q-8 -8 -12 -20t-4 -29v-227q0 -33 16 -49q14 -14 36 -14 q25 0 39 20q5 7 8.5 18t5.5 29.5t2.5 45t0.5 64.5q0 37 -0.5 64t-2.5 45t-5.5 29t-8.5 18q-15 21 -39 21z"/>
<glyph glyph-name="c" unicode="c" horiz-adv-x="384" d="M198 535q34 0 61 -8t50 -30q25 -24 35 -56.5t12 -67.5h-105q-1 13 -3.5 25.5t-10.5 23.5q-13 19 -39 19q-12 0 -23 -5.5t-18 -16.5q-11 -18 -13 -57t-2 -98t2 -98t13 -58q7 -11 18 -16t23 -5q26 0 39 18q8 11 10.5 23.5t3.5 26.5h105q-2 -38 -13 -70t-33 -54 q-39 -39 -112 -39q-38 0 -70 12t-55 44q-25 34 -31 91.5t-6 124.5t6 124t31 92q23 32 55 43.5t70 11.5z"/>
<glyph glyph-name="d" unicode="d" horiz-adv-x="408" d="M250 712h106v-712h-102v39q-5 -8 -16 -18t-19 -15q-23 -14 -53 -14t-52 9t-41 32q-26 32 -31.5 88t-5.5 143t5.5 142.5t31.5 87.5q18 23 40.5 32t52.5 9t53 -14q17 -11 31 -28v219zM198 441q-24 0 -39 -21q-5 -7 -8.5 -18t-5.5 -29t-2.5 -45t-0.5 -64q0 -75 3 -109.5 t14 -47.5q14 -20 39 -20q22 0 36 14q16 16 16 49v227q0 17 -4 29t-12 20q-14 15 -36 15z"/>
<glyph glyph-name="e" unicode="e" d="M198 535q33 0 60.5 -8.5t52.5 -33.5q32 -32 40.5 -98.5t8.5 -161.5h-218q0 -45 3 -77.5t13 -47.5q6 -9 16.5 -15t24.5 -6q26 0 40 20q7 8 10 21t3 27h106q-2 -35 -11.5 -65t-33.5 -56q-21 -23 -49 -32.5t-65 -9.5q-35 0 -62.5 9t-51.5 34q-17 17 -26.5 41.5t-14.5 54 t-6.5 63.5t-1.5 70q0 72 8 133t41 96q24 25 52.5 33.5t60.5 8.5zM198 441q-15 0 -24.5 -5.5t-16.5 -15.5q-8 -12 -11.5 -37t-3.5 -72h112q0 47 -3.5 72t-11.5 37q-7 10 -16.5 15.5t-24.5 5.5z"/>
<glyph glyph-name="f" unicode="f" horiz-adv-x="271" d="M252 623q-73 0 -73 -71v-39h73v-81h-73v-432h-106v432h-54v81h54v45q0 47 14 77t39 50q27 20 58 26.5t68 6.5v-95z"/>
<glyph glyph-name="g" unicode="g" horiz-adv-x="408" d="M168 535q34 0 55 -14q17 -11 32 -28v34h101v-540q0 -51 -11.5 -83t-33.5 -54q-20 -20 -51 -31.5t-63 -11.5q-33 0 -62.5 10t-51.5 31q-25 24 -34.5 54t-9.5 62h105q0 -32 14 -50q15 -16 39 -16q23 0 38 17q15 16 15 65v80q-13 -17 -29 -28q-23 -15 -53 -15q-28 0 -50 9.5 t-40 30.5q-13 15 -21 34t-12.5 45t-6.5 60.5t-2 79.5q0 46 2 80.5t6.5 60.5t12.5 45t21 34q18 20 39 29.5t51 9.5zM198 441q-24 0 -39 -21q-5 -7 -8.5 -17t-5.5 -26.5t-2.5 -41t-0.5 -60.5q0 -35 0.5 -59.5t2.5 -41.5t5.5 -27t8.5 -17q14 -20 39 -20q23 0 36 14q16 16 16 49 v204q0 17 -4 29t-12 20q-14 15 -36 15z"/>
<glyph glyph-name="h" unicode="h" horiz-adv-x="417" d="M158 493q13 18 31 28q23 14 53 14q32 0 55 -10t41 -31q16 -18 23 -43t7 -71v-380h-106v379q0 31 -15 46t-37 15t-37 -15t-15 -46v-379h-106v712h106v-219z"/>
<glyph glyph-name="i" unicode="i" horiz-adv-x="209" d="M158 0h-106v513h106v-513zM163 594h-117v117h117v-117z"/>
<glyph glyph-name="j" unicode="j" horiz-adv-x="210" d="M158 -25q0 -48 -14.5 -78t-39.5 -49q-26 -20 -56.5 -26.5t-67.5 -6.5v95q36 0 54 15.5t18 55.5v532h106v-538zM163 594h-117v117h117v-117z"/>
<glyph glyph-name="k" unicode="k" horiz-adv-x="418" d="M158 302l133 225h111l-131 -209l138 -318h-117l-89 222l-45 -71v-151h-106v712h106v-410z"/>
<glyph glyph-name="l" unicode="l" horiz-adv-x="244" d="M155 166q0 -71 72 -71v-95q-37 0 -68 6t-57 26q-25 19 -39 49.5t-14 78.5v552h106v-546z"/>
<glyph glyph-name="m" unicode="m" horiz-adv-x="627" d="M447 535q37 0 59.5 -10t40.5 -31q16 -18 23.5 -43t7.5 -71v-380h-106v379q0 31 -15.5 46t-37.5 15t-36.5 -15t-14.5 -46v-379h-106v379q0 31 -15 46t-37 15t-37 -15t-15 -46v-379h-106v527h102v-39q7 9 16 18.5t19 14.5q23 14 53 14q32 0 59 -14.5t44 -39.5 q10 11 21.5 21.5t24.5 18.5q12 7 28 10.5t28 3.5z"/>
<glyph glyph-name="n" unicode="n" horiz-adv-x="417" d="M242 535q32 0 55 -10t41 -31q16 -18 23 -43t7 -71v-380h-106v379q0 31 -15 46t-37 15t-37 -15t-15 -46v-379h-106v527h102v-39q7 9 16 18.5t19 14.5q23 14 53 14z"/>
<glyph glyph-name="o" unicode="o" d="M198 535q38 0 70 -11.5t55 -43.5q25 -35 31 -92t6 -124t-6 -124t-31 -92q-23 -32 -55 -44t-70 -12t-70 12t-55 44q-25 35 -31 92t-6 124t6 124t31 92q23 32 55 43.5t70 11.5zM198 441q-12 0 -23 -5.5t-18 -16.5q-11 -18 -13 -57t-2 -98t2 -98.5t13 -57.5q7 -11 18 -16 t23 -5t23 5t18 16q11 18 13 57.5t2 98.5t-2 98t-13 57q-7 11 -18 16.5t-23 5.5z"/>
<glyph glyph-name="p" unicode="p" horiz-adv-x="408" d="M242 535q30 0 52.5 -9t40.5 -32q26 -32 31.5 -88t5.5 -142t-5.5 -142.5t-31.5 -88.5q-18 -23 -40.5 -32t-52.5 -9t-53 14q-17 11 -31 28v-219h-106v712h102v-39q4 8 15.5 18t19.5 15q23 14 53 14zM210 441q-23 0 -36 -15q-8 -8 -12 -20t-4 -29v-227q0 -33 16 -49 q14 -14 36 -14q25 0 39 20q5 7 8.5 18t5.5 29.5t2.5 45t0.5 64.5q0 37 -0.5 64t-2.5 45t-5.5 29t-8.5 18q-15 21 -39 21z"/>
<glyph glyph-name="q" unicode="q" horiz-adv-x="408" d="M166 535q30 0 53 -14q8 -5 19 -15t16 -18v39h102v-712h-106v219q-14 -17 -31 -28q-23 -14 -53 -14t-52.5 9t-40.5 32q-26 32 -31.5 87.5t-5.5 142.5t5.5 143t31.5 88q19 23 41 32t52 9zM198 440q-25 0 -39 -20q-5 -7 -8.5 -18t-5.5 -29.5t-2.5 -45.5t-0.5 -64 q0 -38 0.5 -64.5t2.5 -44.5t5.5 -29t8.5 -18q15 -21 39 -21q22 0 36 15q8 8 12 20t4 29v227q0 33 -16 49q-14 14 -36 14z"/>
<glyph glyph-name="r" unicode="r" horiz-adv-x="299" d="M282 432h-36q-38 0 -63 -24t-25 -67v-341h-106v527h102v-56q8 12 20 23t26 19q36 22 82 22v-103z"/>
<glyph glyph-name="s" unicode="s" horiz-adv-x="381" d="M190 535q33 0 62 -10t49 -30q21 -20 33 -48.5t12 -68.5h-104q0 17 -3.5 28.5t-11.5 19.5q-15 16 -37 16q-24 0 -39 -15t-15 -40q0 -19 8 -31q11 -18 39 -30l70 -30q27 -12 45.5 -25.5t31.5 -32.5q22 -31 22 -86q0 -39 -13.5 -68t-33.5 -49q-24 -24 -52.5 -33.5 t-62.5 -9.5t-65 11t-51 32q-23 24 -35 52.5t-12 66.5h105q0 -32 18 -50q8 -8 18.5 -12t21.5 -4q25 0 41 15q8 7 11.5 18t3.5 24q0 22 -11 39q-12 18 -41 30l-70 31q-54 24 -77 61q-17 27 -17 72q0 38 12.5 64.5t33.5 48.5q22 22 51.5 33t62.5 11z"/>
<glyph glyph-name="t" unicode="t" horiz-adv-x="274" d="M179 513h73v-81h-73v-266q0 -71 75 -71v-95q-38 0 -69.5 5.5t-58.5 26.5q-25 20 -39 50.5t-14 77.5v272h-54v81h54v149h106v-149z"/>
<glyph glyph-name="u" unicode="u" horiz-adv-x="417" d="M264 0v40q-7 -9 -16.5 -18.5t-19.5 -14.5q-11 -7 -25 -11t-28 -4q-32 0 -55 10t-41 31q-16 18 -23 43t-7 71v380h106v-379q0 -31 15 -46t37 -15t37 15t15 46v379h106v-527h-101z"/>
<glyph glyph-name="v" unicode="v" horiz-adv-x="381" d="M121 527l70 -357l70 357h116l-130 -527h-112l-131 527h117z"/>
<glyph glyph-name="w" unicode="w" horiz-adv-x="577" d="M121 527l55 -356l67 356h89l68 -356l56 356h117l-118 -527h-103l-65 340l-64 -340h-103l-116 527h117z"/>
<glyph glyph-name="x" unicode="x" horiz-adv-x="391" d="M132 268l-117 259h117l63 -158l64 158h117l-119 -259l125 -268h-117l-70 163l-69 -163h-117z"/>
<glyph glyph-name="y" unicode="y" horiz-adv-x="381" d="M229 -67q-10 -40 -28.5 -63.5t-44 -35.5t-57 -15.5t-67.5 -3.5v94q17 0 32 2t27 7.5t21 16t14 29.5l9 37l-131 526h117l70 -359l69 359h117z"/>
<glyph glyph-name="z" unicode="z" horiz-adv-x="325" d="M299 448l-154 -353h154v-95h-273v80l154 353h-142v94h261v-79z"/>
<glyph glyph-name="braceleft" unicode="{" horiz-adv-x="336" d="M307 691h-39q-21 0 -34.5 -14.5t-13.5 -37.5v-180q0 -30 -8 -50t-19 -31q-16 -16 -40 -22q24 -6 40 -22q11 -11 19 -31t8 -50v-180q0 -23 13.5 -37.5t34.5 -14.5h39v-95h-61q-55 0 -94 36q-17 17 -27.5 42t-10.5 62v190q0 23 -13 38t-33 15h-39v94h39q20 0 33 15t13 38 v190q0 37 10.5 62t27.5 42q39 36 94 36h61v-95z"/>
<glyph glyph-name="bar" unicode="|" horiz-adv-x="330" d="M218 -72h-106v858h106v-858z"/>
<glyph glyph-name="braceright" unicode="}" horiz-adv-x="336" d="M29 21h39q21 0 34.5 14.5t13.5 37.5v180q0 30 8 50t19 31q9 9 18.5 14t21.5 8q-24 6 -40 22q-11 11 -19 31t-8 50v180q0 23 -13.5 37.5t-34.5 14.5h-39v95h61q55 0 94 -36q17 -17 27.5 -42t10.5 -62v-190q0 -23 13 -38t33 -15h39v-94h-39q-20 0 -33 -15t-13 -38v-190 q0 -37 -10.5 -62t-27.5 -42q-39 -36 -94 -36h-61v95z"/>
<glyph glyph-name="asciitilde" unicode="~" horiz-adv-x="457" d="M149 363q27 0 47.5 -7t41.5 -18q16 -8 30.5 -14t34.5 -6t34.5 8t31.5 25l65 -64q-35 -35 -64 -50.5t-62 -15.5q-27 0 -47 7t-41 18q-16 8 -31 14t-35 6t-34.5 -8t-31.5 -25l-65 64q35 35 64 50.5t62 15.5z"/>
<glyph glyph-name="uni00A0" unicode="&#xa0;" horiz-adv-x="179"/>
<glyph glyph-name="exclamdown" unicode="&#xa1;" horiz-adv-x="257" d="M64 327h106v-512h-106v512zM55 527h124v-123h-124v123z"/>
<glyph glyph-name="cent" unicode="&#xa2;" horiz-adv-x="392" d="M244 619q40 -6 70 -33q25 -23 34.5 -55t11.5 -64h-105q0 12 -2.5 24t-10.5 23q-14 17 -39 17q-12 0 -23 -4.5t-18 -15.5q-11 -17 -13 -54.5t-2 -93.5t2 -93.5t13 -54.5q7 -11 18 -16t23 -5q24 0 39 18q8 10 10.5 22t2.5 25h105q-2 -35 -12.5 -66t-32.5 -52 q-14 -14 -31.5 -21.5t-39.5 -12.5v-107h-81v107q-26 5 -47 16.5t-38 33.5q-25 33 -31 87.5t-6 118.5t6 118.5t31 87.5q17 22 38 33.5t47 16.5v93h81v-93z"/>
<glyph glyph-name="sterling" unicode="&#xa3;" horiz-adv-x="460" d="M286 720q43 0 79 -15t62 -42l-77 -75q-11 13 -25.5 22t-38.5 9q-32 0 -55.5 -23.5t-23.5 -67.5v-123h80v-81h-80v-223h220v-101h-332v324h-63v81h63v122q0 44 14.5 79.5t40.5 61t60.5 39t75.5 13.5z"/>
<glyph glyph-name="currency" unicode="&#xa4;" horiz-adv-x="505" d="M464 434l-53 -52q29 -46 29 -93q0 -48 -29 -94l53 -52l-66 -66l-55 55q-15 -11 -40.5 -17.5t-49.5 -6.5q-25 0 -50.5 6.5t-40.5 17.5l-55 -55l-66 66l53 53q-29 44 -29 93q0 47 29 93l-53 52l66 66l55 -55q15 11 40.5 17.5t50.5 6.5q24 0 49.5 -6.5t40.5 -17.5l55 55z M253 379q-37 0 -63.5 -26t-26.5 -64q0 -19 7 -35.5t19.5 -29t29 -19.5t34.5 -7q37 0 63 26.5t26 64.5q0 37 -26 63.5t-63 26.5z"/>
<glyph glyph-name="yen" unicode="&#xa5;" horiz-adv-x="388" d="M42 162v80h96v37l-13 44h-83v80h57l-99 309h123l71 -282l71 282h123l-98 -309h56v-80h-82l-14 -44v-37h96v-80h-96v-162h-112v162h-96z"/>
<glyph glyph-name="brokenbar" unicode="&#xa6;" horiz-adv-x="330" d="M218 438h-106v346h106v-346zM218 -72h-106v346h106v-346z"/>
<glyph glyph-name="section" unicode="&#xa7;" horiz-adv-x="429" d="M215 712q63 0 106 -35q25 -20 38.5 -50t13.5 -68h-106q0 13 -3.5 24.5t-11.5 19.5q-15 16 -37 16q-23 0 -38 -15t-15 -39q0 -21 8 -35q5 -8 15.5 -16.5t23.5 -13.5l72 -31q15 -6 31.5 -15.5t27.5 -20.5q14 -14 22.5 -28.5t13.5 -33t6.5 -43t1.5 -58.5q0 -27 -1.5 -49 t-6.5 -40t-15 -33t-26 -29q-5 -5 -11.5 -9t-14.5 -6q16 -10 28 -21t21 -27q10 -17 14.5 -36.5t4.5 -39.5q0 -39 -12 -67t-35 -51q-22 -23 -53 -32.5t-65 -9.5t-64.5 11.5t-51.5 32.5q-23 23 -35 50.5t-12 62.5h108q0 -28 16 -45q8 -8 18 -12t21 -4q27 0 41 14q15 15 15 41 q0 21 -11 37q-14 20 -41 31l-73 31q-14 6 -26.5 14t-23.5 18q-17 17 -27 35t-14.5 38t-5.5 43.5t-1 51.5q0 27 1.5 48t7 38.5t15 31.5t25.5 28q6 5 13 9t15 7q-16 10 -29.5 22.5t-21.5 26.5q-18 28 -18 75q0 36 12.5 63.5t33.5 48.5q22 22 52.5 33t63.5 11zM215 386 q-22 0 -40 -15q-13 -11 -18.5 -31t-5.5 -70q0 -48 5 -68.5t19 -32.5q16 -15 40 -15q23 0 40 15q13 11 18 32t5 69t-4.5 68.5t-18.5 32.5q-17 15 -40 15z"/>
<glyph glyph-name="dieresis" unicode="&#xa8;" d="M336 598h-100v100h100v-100zM160 598h-100v100h100v-100z"/>
<glyph glyph-name="copyright" unicode="&#xa9;" horiz-adv-x="844" d="M422 718q75 0 141 -28.5t115 -77.5t77.5 -115t28.5 -141t-28.5 -141t-77.5 -115t-115 -77.5t-141 -28.5t-141 28.5t-115 77.5t-77.5 115t-28.5 141t28.5 141t77.5 115t115 77.5t141 28.5zM424 557q44 0 71 -27q29 -30 31 -88h-64q0 13 -2 24.5t-8 18.5q-11 12 -28 12 q-11 0 -17.5 -4.5t-11.5 -10.5q-9 -14 -11 -47.5t-2 -79.5t2 -79t11 -47q5 -6 11.5 -10.5t17.5 -4.5q17 0 28 12q6 7 8 18t2 24h64q-2 -58 -31 -87q-27 -27 -71 -27q-25 0 -43.5 8t-33.5 27q-19 23 -24 61.5t-5 104.5t5 105t24 62q15 19 33.5 27t43.5 8zM422 653 q-62 0 -115 -22.5t-92 -62.5t-61.5 -94t-22.5 -118t22.5 -118.5t61.5 -94t92 -62t115 -22.5q61 0 114.5 22.5t92.5 62t61.5 94t22.5 118.5t-22.5 118t-61.5 94t-92.5 62.5t-114.5 22.5z"/>
<glyph glyph-name="ordfeminine" unicode="&#xaa;" horiz-adv-x="331" d="M160 717q26 0 50 -8t42 -25q17 -17 27 -40.5t10 -58.5v-291h-82v33q-15 -18 -28 -25q-9 -5 -21 -8.5t-26 -3.5q-26 0 -45 7.5t-36 26.5q-26 29 -26 92q0 59 41 94q16 14 38.5 21.5t59.5 7.5h37v54q0 22 -10.5 34.5t-30.5 12.5q-10 0 -17 -4t-12 -9q-7 -7 -9 -17t-2 -21 h-88q0 26 8 49.5t28 43.5q16 15 40.5 25t51.5 10zM173 477q-11 0 -23 -2t-20 -10t-12.5 -20.5t-4.5 -24.5q0 -25 10.5 -40.5t33.5 -15.5q19 0 31.5 15t12.5 41v57h-28z"/>
<glyph glyph-name="guillemotleft" unicode="&#xab;" horiz-adv-x="413" d="M185 366l-61 -90l61 -92v-157l-161 249l161 248v-158zM367 366l-62 -90l62 -92v-157l-160 249l160 248v-158z"/>
<glyph glyph-name="logicalnot" unicode="&#xac;" horiz-adv-x="457" d="M407 142h-101v110h-255v101h356v-211z"/>
<glyph glyph-name="uni00AD" unicode="&#xad;" horiz-adv-x="296" d="M249 238h-202v101h202v-101z"/>
<glyph glyph-name="registered" unicode="&#xae;" horiz-adv-x="844" d="M422 718q75 0 141 -28.5t115 -77.5t77.5 -115t28.5 -141t-28.5 -141t-77.5 -115t-115 -77.5t-141 -28.5t-141 28.5t-115 77.5t-77.5 115t-28.5 141t28.5 141t77.5 115t115 77.5t141 28.5zM422 653q-62 0 -115 -22.5t-92 -62.5t-61.5 -94t-22.5 -118t22.5 -118.5t61.5 -94 t92 -62t115 -22.5q61 0 114.5 22.5t92.5 62t61.5 94t22.5 118.5t-22.5 118t-61.5 94t-92.5 62.5t-114.5 22.5zM433 553q48 0 73 -25q15 -16 20.5 -38.5t5.5 -54.5q0 -29 -4.5 -50t-20.5 -38q-4 -4 -9 -7.5t-10 -7.5l58 -174h-68l-49 160h-36v-160h-65v395h105zM393 492v-114 h39q15 0 25 10q7 8 9 20t2 27q0 16 -2 27.5t-9 19.5q-10 10 -25 10h-39z"/>
<glyph glyph-name="macron" unicode="&#xaf;" d="M321 604h-246v71h246v-71z"/>
<glyph glyph-name="degree" unicode="&#xb0;" horiz-adv-x="410" d="M205 726q33 0 62.5 -13t51.5 -35t35 -51.5t13 -62.5t-13 -62.5t-35 -51.5t-51.5 -35t-62.5 -13t-62.5 13t-51.5 35t-35 51.5t-13 62.5t13 62.5t35 51.5t51.5 35t62.5 13zM205 634q-29 0 -49 -20.5t-20 -49.5t20 -49t49 -20t49 20t20 49t-20 49.5t-49 20.5z"/>
<glyph glyph-name="plusminus" unicode="&#xb1;" horiz-adv-x="457" d="M279 412h134v-101h-134v-134h-101v134h-134v101h134v134h101v-134zM413 8h-369v101h369v-101z"/>
<glyph glyph-name="uni00B2" unicode="&#xb2;" horiz-adv-x="183" d="M101 606q7 12 11 22.5t4 21.5q0 25 -23 25q-25 0 -25 -26v-16h-50v16q0 35 20 53t55 18q36 0 54 -18q20 -17 20 -52q0 -17 -6 -29.5t-17 -30.5l-66 -111h89v-45h-145v43z"/>
<glyph glyph-name="uni00B3" unicode="&#xb3;" horiz-adv-x="185" d="M40 447q-22 20 -22 52v13h51v-14q0 -24 25 -24q13 0 20 8q3 4 4.5 11t1.5 24q0 21 -2 28.5t-5 11.5q-6 7 -17 7h-16v38h16q12 0 17 7q3 5 4 10.5t1 18.5q0 21 -5 29t-18 8q-23 0 -23 -26v-15h-51v14q0 34 21 55q16 17 53 17q36 0 53 -17q11 -10 16 -25.5t5 -39.5 q0 -15 -2 -23.5t-7 -16.5q-8 -11 -18 -15q14 -7 21 -17q8 -13 8 -49q0 -29 -6 -45t-17 -26q-17 -17 -54 -17q-36 0 -54 18z"/>
<glyph glyph-name="acute" unicode="&#xb4;" d="M221 587h-74l72 139h90z"/>
<glyph glyph-name="mu" unicode="&#xb5;" horiz-adv-x="420" d="M368 0h-102v40q-9 -17 -21 -27q-18 -15 -40 -15q-30 0 -51 27v-210h-102v712h106v-379q0 -31 14.5 -46t37.5 -15t37.5 15t14.5 46v379h106v-527z"/>
<glyph glyph-name="paragraph" unicode="&#xb6;" horiz-adv-x="602" d="M549 -185h-106v796h-101v-796h-106v471h-52q-69 0 -108.5 49t-39.5 164t39.5 164t108.5 49h365v-897z"/>
<glyph glyph-name="periodcentered" unicode="&#xb7;" horiz-adv-x="272" d="M198 227h-123v123h123v-123z"/>
<glyph glyph-name="cedilla" unicode="&#xb8;" d="M188 -194h-76l61 154h68z"/>
<glyph glyph-name="uni00B9" unicode="&#xb9;" horiz-adv-x="179" d="M132 434h-50v220l-54 -43v63l53 42h51v-282z"/>
<glyph glyph-name="ordmasculine" unicode="&#xba;" horiz-adv-x="321" d="M157 288q-31 0 -57 9t-44 35q-20 27 -25.5 72.5t-5.5 97.5q0 53 5.5 98t25.5 72q18 26 44 35t57 9t57 -9t44 -35q20 -27 25.5 -72t5.5 -98q0 -52 -5.5 -97.5t-25.5 -72.5q-18 -26 -44 -35t-57 -9zM157 365q9 0 17.5 4t13.5 13q8 13 10.5 42.5t2.5 77.5t-2.5 77.5 t-10.5 42.5q-5 9 -13.5 13t-17.5 4t-17.5 -4t-13.5 -13q-8 -13 -10.5 -42.5t-2.5 -77.5t2.5 -77.5t10.5 -42.5q5 -9 13.5 -13t17.5 -4z"/>
<glyph glyph-name="guillemotright" unicode="&#xbb;" horiz-adv-x="413" d="M228 188l61 90l-61 92v157l161 -249l-161 -248v158zM46 188l62 90l-62 92v157l160 -249l-160 -248v158z"/>
<glyph glyph-name="onequarter" unicode="&#xbc;" horiz-adv-x="698" d="M263 0h-82l246 712h82zM453 63v61l110 303h73l-110 -303h61v77h66v-77h32v-61h-32v-63h-66v63h-134zM180 285h-66v350l-72 -55v76l72 56h66v-427z"/>
<glyph glyph-name="onehalf" unicode="&#xbd;" horiz-adv-x="697" d="M263 0h-82l246 712h82zM582 267q12 22 18 37.5t6 30.5q0 17 -10.5 26.5t-27.5 9.5q-36 0 -36 -43v-23h-67v25q0 26 8 45t24 34q13 11 30 17t41 6q25 0 42.5 -6t29.5 -17q32 -27 32 -77q0 -21 -8 -41.5t-22 -45.5l-101 -184h131v-61h-204v57zM180 285h-66v350l-72 -55v76 l72 56h66v-427z"/>
<glyph glyph-name="threequarters" unicode="&#xbe;" horiz-adv-x="704" d="M269 0h-82l246 712h82zM459 63v61l110 303h73l-110 -303h61v77h66v-77h32v-61h-32v-63h-66v63h-134zM56 305q-15 14 -23 34t-8 42v20h67v-22q0 -19 10.5 -28.5t27.5 -9.5q19 0 28 12q5 7 7 18t2 37q0 33 -2.5 45t-7.5 19q-8 11 -25 11h-21v56h21q14 0 23 9q5 6 7 16t2 32 q0 40 -10 50t-25 10t-24.5 -9.5t-9.5 -27.5v-27h-67v24q0 23 7.5 42t21.5 33q28 26 71 26q24 0 40.5 -6.5t30.5 -18.5q18 -17 24.5 -36.5t6.5 -54.5q0 -48 -11 -67q-5 -8 -11.5 -13t-16.5 -10q19 -8 30 -26q7 -11 9.5 -30t2.5 -47q0 -41 -5.5 -63t-24.5 -40q-27 -25 -73 -25 t-74 25z"/>
<glyph glyph-name="questiondown" unicode="&#xbf;" horiz-adv-x="426" d="M203 -191q-79 0 -122 45q-26 26 -37 61t-11 88q0 42 8 70.5t26 52.5l59 79q23 31 23 65v57h106v-69q0 -24 -8.5 -46t-22.5 -40l-59 -79q-17 -22 -21.5 -43t-4.5 -50q0 -26 4 -44.5t16 -32.5q17 -19 43 -19t43 18q14 15 16.5 36t2.5 42h106q0 -45 -10.5 -82t-36.5 -62 q-21 -20 -50 -33.5t-70 -13.5zM140 527h124v-123h-124v123z"/>
<glyph glyph-name="Agrave" unicode="&#xc0;" horiz-adv-x="467" d="M462 0h-117l-29 141h-165l-28 -141h-118l175 712h109zM173 242h122l-61 298zM280 760h-74l-88 139h90z"/>
<glyph glyph-name="Aacute" unicode="&#xc1;" horiz-adv-x="467" d="M462 0h-117l-29 141h-165l-28 -141h-118l175 712h109zM173 242h122l-61 298zM263 760h-74l72 139h89z"/>
<glyph glyph-name="Acircumflex" unicode="&#xc2;" horiz-adv-x="467" d="M462 0h-117l-29 141h-165l-28 -141h-118l175 712h109zM173 242h122l-61 298zM375 760h-82l-59 82l-59 -82h-82l99 139h84z"/>
<glyph glyph-name="Atilde" unicode="&#xc3;" horiz-adv-x="467" d="M462 0h-117l-29 141h-165l-28 -141h-118l175 712h109zM173 242h122l-61 298zM183 870q17 0 31 -3.5t31 -13.5q11 -7 21.5 -11t22.5 -4q10 0 20 3.5t25 19.5l47 -47q-26 -26 -46.5 -36t-43.5 -10q-17 0 -30.5 4t-30.5 13q-11 7 -21.5 11t-22.5 4q-11 0 -20.5 -3.5 t-25.5 -19.5l-46 46q26 26 46 36.5t43 10.5z"/>
<glyph glyph-name="Adieresis" unicode="&#xc4;" horiz-adv-x="467" d="M462 0h-117l-29 141h-165l-28 -141h-118l175 712h109zM173 242h122l-61 298zM372 770h-100v100h100v-100zM197 770h-100v100h100v-100z"/>
<glyph glyph-name="Aring" unicode="&#xc5;" horiz-adv-x="467" d="M462 0h-117l-29 141h-165l-28 -141h-118l175 712h109zM173 242h122l-61 298zM234 962q22 0 41 -8t33 -22t22.5 -33t8.5 -41t-8.5 -41t-22.5 -33t-33 -22t-41 -8q-21 0 -40 8t-33.5 22t-22.5 33t-8 41t8 41t22.5 33t33.5 22t40 8zM234 904q-19 0 -32 -13.5t-13 -32.5 t13 -32.5t32 -13.5t32.5 13.5t13.5 32.5t-13.5 32.5t-32.5 13.5z"/>
<glyph glyph-name="AE" unicode="&#xc6;" horiz-adv-x="674" d="M637 611h-187v-199h161v-101h-161v-210h187v-101h-299v148h-158l-52 -148h-123l261 712h371v-101zM213 249h125v362z"/>
<glyph glyph-name="Ccedilla" unicode="&#xc7;" horiz-adv-x="447" d="M231 720q41 0 71 -11.5t54 -34.5q27 -25 41 -63.5t16 -86.5h-112q-1 20 -4.5 38t-12.5 31q-8 12 -20.5 19t-32.5 7t-32.5 -7.5t-20.5 -19.5q-17 -26 -21 -82t-4 -154t4 -154t21 -82q8 -12 20.5 -19.5t32.5 -7.5t32.5 7t20.5 19q9 14 12.5 32t4.5 38h112q-2 -48 -17 -87.5 t-42 -64.5q-24 -23 -53 -34t-70 -11q-50 0 -83 17.5t-55 43.5q-18 21 -28 47t-15.5 62t-7 83.5t-1.5 110.5t1.5 110.5t7 83.5t15.5 62t28 47q22 26 55 43.5t83 17.5zM211 -194h-76l61 154h68z"/>
<glyph glyph-name="Egrave" unicode="&#xc8;" d="M359 611h-187v-199h161v-101h-161v-210h187v-101h-299v712h299v-101zM262 760h-74l-88 139h90z"/>
<glyph glyph-name="Eacute" unicode="&#xc9;" d="M359 611h-187v-199h161v-101h-161v-210h187v-101h-299v712h299v-101zM245 760h-74l72 139h89z"/>
<glyph glyph-name="Ecircumflex" unicode="&#xca;" d="M359 611h-187v-199h161v-101h-161v-210h187v-101h-299v712h299v-101zM357 760h-82l-59 82l-59 -82h-82l99 139h84z"/>
<glyph glyph-name="Edieresis" unicode="&#xcb;" d="M359 611h-187v-199h161v-101h-161v-210h187v-101h-299v712h299v-101zM354 770h-100v100h100v-100zM179 770h-100v100h100v-100z"/>
<glyph glyph-name="Igrave" unicode="&#xcc;" horiz-adv-x="232" d="M172 0h-112v712h112v-712zM163 760h-74l-88 139h90z"/>
<glyph glyph-name="Iacute" unicode="&#xcd;" horiz-adv-x="232" d="M172 0h-112v712h112v-712zM146 760h-74l72 139h89z"/>
<glyph glyph-name="Icircumflex" unicode="&#xce;" horiz-adv-x="232" d="M172 0h-112v712h112v-712zM258 760h-82l-59 82l-59 -82h-82l99 139h84z"/>
<glyph glyph-name="Idieresis" unicode="&#xcf;" horiz-adv-x="232" d="M172 0h-112v712h112v-712zM255 770h-100v100h100v-100zM80 770h-100v100h100v-100z"/>
<glyph glyph-name="Eth" unicode="&#xd0;" horiz-adv-x="489" d="M258 712q51 0 83.5 -17t54.5 -42q18 -20 28.5 -45.5t15.5 -61t6.5 -82t1.5 -107.5q0 -62 -1.5 -108.5t-6.5 -82t-15.5 -61.5t-28.5 -46q-22 -25 -54.5 -42t-83.5 -17h-181v318h-51v88h51v306h181zM189 611v-205h70v-88h-70v-217h66q20 0 34.5 8t22.5 21q17 25 20.5 79 t3.5 148t-3.5 147t-20.5 78q-8 13 -22.5 21t-34.5 8h-66z"/>
<glyph glyph-name="Ntilde" unicode="&#xd1;" horiz-adv-x="499" d="M439 0h-99l-168 423v-423h-112v712h100l167 -423v423h112v-712zM198 870q17 0 31 -3.5t31 -13.5q11 -7 21.5 -11t22.5 -4q10 0 20 3.5t25 19.5l47 -47q-26 -26 -46.5 -36t-43.5 -10q-17 0 -30.5 4t-30.5 13q-11 7 -21.5 11t-22.5 4q-11 0 -20.5 -3.5t-25.5 -19.5l-46 46 q26 26 46 36.5t43 10.5z"/>
<glyph glyph-name="Ograve" unicode="&#xd2;" horiz-adv-x="462" d="M231 -8q-50 0 -83 17.5t-55 43.5q-18 21 -28 47.5t-15.5 62t-7 83t-1.5 110.5t1.5 110.5t7 83t15.5 62t28 47.5q22 26 55 43.5t83 17.5t83 -17.5t55 -43.5q18 -21 28.5 -47t15.5 -62t6.5 -83.5t1.5 -110.5t-1.5 -110.5t-6.5 -83.5t-15.5 -62t-28.5 -47q-22 -26 -55 -43.5 t-83 -17.5zM231 93q20 0 33 7.5t21 19.5q16 26 20 82t4 154t-4 154t-20 82q-8 12 -21 19.5t-33 7.5t-32.5 -7.5t-20.5 -19.5q-16 -26 -20.5 -82t-4.5 -154t4.5 -154t20.5 -82q8 -12 20.5 -19.5t32.5 -7.5zM277 760h-74l-88 139h90z"/>
<glyph glyph-name="Oacute" unicode="&#xd3;" horiz-adv-x="462" d="M231 -8q-50 0 -83 17.5t-55 43.5q-18 21 -28 47.5t-15.5 62t-7 83t-1.5 110.5t1.5 110.5t7 83t15.5 62t28 47.5q22 26 55 43.5t83 17.5t83 -17.5t55 -43.5q18 -21 28.5 -47t15.5 -62t6.5 -83.5t1.5 -110.5t-1.5 -110.5t-6.5 -83.5t-15.5 -62t-28.5 -47q-22 -26 -55 -43.5 t-83 -17.5zM231 93q20 0 33 7.5t21 19.5q16 26 20 82t4 154t-4 154t-20 82q-8 12 -21 19.5t-33 7.5t-32.5 -7.5t-20.5 -19.5q-16 -26 -20.5 -82t-4.5 -154t4.5 -154t20.5 -82q8 -12 20.5 -19.5t32.5 -7.5zM260 760h-74l72 139h89z"/>
<glyph glyph-name="Ocircumflex" unicode="&#xd4;" horiz-adv-x="462" d="M231 -8q-50 0 -83 17.5t-55 43.5q-18 21 -28 47.5t-15.5 62t-7 83t-1.5 110.5t1.5 110.5t7 83t15.5 62t28 47.5q22 26 55 43.5t83 17.5t83 -17.5t55 -43.5q18 -21 28.5 -47t15.5 -62t6.5 -83.5t1.5 -110.5t-1.5 -110.5t-6.5 -83.5t-15.5 -62t-28.5 -47q-22 -26 -55 -43.5 t-83 -17.5zM231 93q20 0 33 7.5t21 19.5q16 26 20 82t4 154t-4 154t-20 82q-8 12 -21 19.5t-33 7.5t-32.5 -7.5t-20.5 -19.5q-16 -26 -20.5 -82t-4.5 -154t4.5 -154t20.5 -82q8 -12 20.5 -19.5t32.5 -7.5zM372 760h-82l-59 82l-59 -82h-82l99 139h84z"/>
<glyph glyph-name="Otilde" unicode="&#xd5;" horiz-adv-x="462" d="M231 -8q-50 0 -83 17.5t-55 43.5q-18 21 -28 47.5t-15.5 62t-7 83t-1.5 110.5t1.5 110.5t7 83t15.5 62t28 47.5q22 26 55 43.5t83 17.5t83 -17.5t55 -43.5q18 -21 28.5 -47t15.5 -62t6.5 -83.5t1.5 -110.5t-1.5 -110.5t-6.5 -83.5t-15.5 -62t-28.5 -47q-22 -26 -55 -43.5 t-83 -17.5zM231 93q20 0 33 7.5t21 19.5q16 26 20 82t4 154t-4 154t-20 82q-8 12 -21 19.5t-33 7.5t-32.5 -7.5t-20.5 -19.5q-16 -26 -20.5 -82t-4.5 -154t4.5 -154t20.5 -82q8 -12 20.5 -19.5t32.5 -7.5zM180 870q17 0 31 -3.5t31 -13.5q11 -7 21.5 -11t22.5 -4 q10 0 20 3.5t25 19.5l47 -47q-26 -26 -46.5 -36t-43.5 -10q-17 0 -30.5 4t-30.5 13q-11 7 -21.5 11t-22.5 4q-11 0 -20.5 -3.5t-25.5 -19.5l-46 46q26 26 46 36.5t43 10.5z"/>
<glyph glyph-name="Odieresis" unicode="&#xd6;" horiz-adv-x="462" d="M231 -8q-50 0 -83 17.5t-55 43.5q-18 21 -28 47.5t-15.5 62t-7 83t-1.5 110.5t1.5 110.5t7 83t15.5 62t28 47.5q22 26 55 43.5t83 17.5t83 -17.5t55 -43.5q18 -21 28.5 -47t15.5 -62t6.5 -83.5t1.5 -110.5t-1.5 -110.5t-6.5 -83.5t-15.5 -62t-28.5 -47q-22 -26 -55 -43.5 t-83 -17.5zM231 93q20 0 33 7.5t21 19.5q16 26 20 82t4 154t-4 154t-20 82q-8 12 -21 19.5t-33 7.5t-32.5 -7.5t-20.5 -19.5q-16 -26 -20.5 -82t-4.5 -154t4.5 -154t20.5 -82q8 -12 20.5 -19.5t32.5 -7.5zM369 770h-100v100h100v-100zM194 770h-100v100h100v-100z"/>
<glyph glyph-name="multiply" unicode="&#xd7;" horiz-adv-x="457" d="M413 402l-116 -116l116 -116l-68 -68l-116 116l-116 -116l-68 68l116 116l-116 116l68 68l116 -115l116 115z"/>
<glyph glyph-name="Oslash" unicode="&#xd8;" horiz-adv-x="462" d="M421 356q0 -63 -1.5 -110.5t-6.5 -83.5t-15.5 -62t-28.5 -47q-22 -26 -55 -43.5t-83 -17.5q-26 0 -48 5.5t-39 13.5l-19 -55h-74l37 103q-16 21 -25.5 47t-14 61t-6 81t-1.5 108q0 63 1.5 110.5t7 83t15.5 62t28 47.5q22 26 55 43.5t83 17.5q26 0 48 -5.5t39 -14.5l20 56 h74l-37 -105q16 -20 25 -45.5t13.5 -61t6 -81.5t1.5 -107zM153 356q0 -41 0.5 -73t2.5 -59l125 374q-18 21 -50 21q-20 0 -32.5 -7.5t-20.5 -19.5q-16 -26 -20.5 -82t-4.5 -154zM309 356q0 77 -3 130l-124 -371q14 -22 49 -22q20 0 33 7.5t21 19.5q16 26 20 82t4 154z"/>
<glyph glyph-name="Ugrave" unicode="&#xd9;" horiz-adv-x="471" d="M417 176q0 -82 -49 -131q-51 -53 -132 -53q-82 0 -133 53q-49 49 -49 131v536h112v-532q0 -45 18 -66t52 -21q33 0 51 21t18 66v532h112v-536zM281 760h-74l-88 139h90z"/>
<glyph glyph-name="Uacute" unicode="&#xda;" horiz-adv-x="471" d="M417 176q0 -82 -49 -131q-51 -53 -132 -53q-82 0 -133 53q-49 49 -49 131v536h112v-532q0 -45 18 -66t52 -21q33 0 51 21t18 66v532h112v-536zM264 760h-74l72 139h89z"/>
<glyph glyph-name="Ucircumflex" unicode="&#xdb;" horiz-adv-x="471" d="M417 176q0 -82 -49 -131q-51 -53 -132 -53q-82 0 -133 53q-49 49 -49 131v536h112v-532q0 -45 18 -66t52 -21q33 0 51 21t18 66v532h112v-536zM376 760h-82l-59 82l-59 -82h-82l99 139h84z"/>
<glyph glyph-name="Udieresis" unicode="&#xdc;" horiz-adv-x="471" d="M417 176q0 -82 -49 -131q-51 -53 -132 -53q-82 0 -133 53q-49 49 -49 131v536h112v-532q0 -45 18 -66t52 -21q33 0 51 21t18 66v532h112v-536zM373 770h-100v100h100v-100zM198 770h-100v100h100v-100z"/>
<glyph glyph-name="Yacute" unicode="&#xdd;" horiz-adv-x="388" d="M250 279v-279h-112v279l-138 433h124l70 -282l71 282h123zM223 760h-74l72 139h89z"/>
<glyph glyph-name="Thorn" unicode="&#xde;" horiz-adv-x="459" d="M172 577h67q97 0 140 -52t43 -164t-43 -165t-140 -53h-67v-143h-112v712h112v-135zM172 476v-232h67q42 0 56.5 31t14.5 85t-14.5 85t-56.5 31h-67z"/>
<glyph glyph-name="germandbls" unicode="&#xdf;" horiz-adv-x="416" d="M211 720q33 0 63 -9t53 -32q30 -30 38.5 -64.5t8.5 -76.5q0 -26 -2.5 -51.5t-14.5 -49.5q-7 -12 -16.5 -23.5t-21.5 -19.5q26 -18 39 -41q16 -26 19.5 -57t3.5 -81q0 -27 -1 -51.5t-5.5 -46t-14 -41t-26.5 -36.5q-25 -24 -57 -32t-65 -8v95q12 0 24.5 3t20.5 14 q12 14 15 39t3 73q0 45 -3 68t-12 37q-14 19 -40 19h-8v89h8q12 0 20 4.5t14 12.5q9 13 11.5 29.5t2.5 45.5q0 37 -3.5 52t-11.5 26q-6 8 -16.5 13t-24.5 5q-23 0 -38.5 -16t-15.5 -48v-561h-106v558q0 45 11.5 71.5t33.5 47.5q23 22 52 32.5t62 10.5z"/>
<glyph glyph-name="agrave" unicode="&#xe0;" horiz-adv-x="399" d="M250 0v45q-7 -10 -15 -19.5t-17 -15.5q-12 -8 -26 -13t-34 -5q-33 0 -56 10.5t-43 33.5q-32 38 -32 118q0 36 12.5 66.5t36.5 51.5q20 17 47.5 26.5t73.5 9.5h47v73q0 61 -51 61q-22 0 -35 -15q-16 -17 -16 -49h-106q0 32 10 60.5t35 53.5q19 19 49 31t62 12 q33 0 62.5 -9t49.5 -30q21 -21 33.5 -51t12.5 -73v-372h-100zM244 233h-35q-17 0 -30.5 -2.5t-24.5 -13.5q-10 -9 -15.5 -26t-5.5 -33q0 -73 55 -73q24 0 40 19t16 51v78zM243 587h-74l-88 139h90z"/>
<glyph glyph-name="aacute" unicode="&#xe1;" horiz-adv-x="399" d="M250 0v45q-7 -10 -15 -19.5t-17 -15.5q-12 -8 -26 -13t-34 -5q-33 0 -56 10.5t-43 33.5q-32 38 -32 118q0 36 12.5 66.5t36.5 51.5q20 17 47.5 26.5t73.5 9.5h47v73q0 61 -51 61q-22 0 -35 -15q-16 -17 -16 -49h-106q0 32 10 60.5t35 53.5q19 19 49 31t62 12 q33 0 62.5 -9t49.5 -30q21 -21 33.5 -51t12.5 -73v-372h-100zM244 233h-35q-17 0 -30.5 -2.5t-24.5 -13.5q-10 -9 -15.5 -26t-5.5 -33q0 -73 55 -73q24 0 40 19t16 51v78zM219 587h-74l72 139h90z"/>
<glyph glyph-name="acircumflex" unicode="&#xe2;" horiz-adv-x="399" d="M250 0v45q-7 -10 -15 -19.5t-17 -15.5q-12 -8 -26 -13t-34 -5q-33 0 -56 10.5t-43 33.5q-32 38 -32 118q0 36 12.5 66.5t36.5 51.5q20 17 47.5 26.5t73.5 9.5h47v73q0 61 -51 61q-22 0 -35 -15q-16 -17 -16 -49h-106q0 32 10 60.5t35 53.5q19 19 49 31t62 12 q33 0 62.5 -9t49.5 -30q21 -21 33.5 -51t12.5 -73v-372h-100zM244 233h-35q-17 0 -30.5 -2.5t-24.5 -13.5q-10 -9 -15.5 -26t-5.5 -33q0 -73 55 -73q24 0 40 19t16 51v78zM337 587h-82l-59 82l-59 -82h-82l99 139h84z"/>
<glyph glyph-name="atilde" unicode="&#xe3;" horiz-adv-x="399" d="M250 0v45q-7 -10 -15 -19.5t-17 -15.5q-12 -8 -26 -13t-34 -5q-33 0 -56 10.5t-43 33.5q-32 38 -32 118q0 36 12.5 66.5t36.5 51.5q20 17 47.5 26.5t73.5 9.5h47v73q0 61 -51 61q-22 0 -35 -15q-16 -17 -16 -49h-106q0 32 10 60.5t35 53.5q19 19 49 31t62 12 q33 0 62.5 -9t49.5 -30q21 -21 33.5 -51t12.5 -73v-372h-100zM244 233h-35q-17 0 -30.5 -2.5t-24.5 -13.5q-10 -9 -15.5 -26t-5.5 -33q0 -73 55 -73q24 0 40 19t16 51v78zM145 697q17 0 31 -3.5t31 -13.5q11 -7 21.5 -11t22.5 -4q10 0 20 3.5t25 19.5l47 -46 q-26 -26 -46.5 -36.5t-43.5 -10.5q-17 0 -30.5 4t-30.5 13q-11 7 -21.5 11t-22.5 4q-11 0 -20.5 -3.5t-25.5 -19.5l-46 46q26 26 46 36.5t43 10.5z"/>
<glyph glyph-name="adieresis" unicode="&#xe4;" horiz-adv-x="399" d="M250 0v45q-7 -10 -15 -19.5t-17 -15.5q-12 -8 -26 -13t-34 -5q-33 0 -56 10.5t-43 33.5q-32 38 -32 118q0 36 12.5 66.5t36.5 51.5q20 17 47.5 26.5t73.5 9.5h47v73q0 61 -51 61q-22 0 -35 -15q-16 -17 -16 -49h-106q0 32 10 60.5t35 53.5q19 19 49 31t62 12 q33 0 62.5 -9t49.5 -30q21 -21 33.5 -51t12.5 -73v-372h-100zM244 233h-35q-17 0 -30.5 -2.5t-24.5 -13.5q-10 -9 -15.5 -26t-5.5 -33q0 -73 55 -73q24 0 40 19t16 51v78zM334 598h-100v100h100v-100zM158 598h-100v100h100v-100z"/>
<glyph glyph-name="aring" unicode="&#xe5;" horiz-adv-x="399" d="M250 0v45q-7 -10 -15 -19.5t-17 -15.5q-12 -8 -26 -13t-34 -5q-33 0 -56 10.5t-43 33.5q-32 38 -32 118q0 36 12.5 66.5t36.5 51.5q20 17 47.5 26.5t73.5 9.5h47v73q0 61 -51 61q-22 0 -35 -15q-16 -17 -16 -49h-106q0 32 10 60.5t35 53.5q19 19 49 31t62 12 q33 0 62.5 -9t49.5 -30q21 -21 33.5 -51t12.5 -73v-372h-100zM244 233h-35q-17 0 -30.5 -2.5t-24.5 -13.5q-10 -9 -15.5 -26t-5.5 -33q0 -73 55 -73q24 0 40 19t16 51v78zM196 794q22 0 41 -8t33 -22.5t22.5 -33.5t8.5 -41q0 -21 -8.5 -40t-22.5 -33.5t-33 -22.5t-41 -8 t-41 8t-33 22.5t-22 33.5t-8 40q0 22 8 41t22 33t33 22.5t41 8.5zM196 735q-19 0 -32.5 -13.5t-13.5 -32.5t13.5 -32t32.5 -13t32.5 13t13.5 32t-13.5 32.5t-32.5 13.5z"/>
<glyph glyph-name="ae" unicode="&#xe6;" horiz-adv-x="604" d="M159 -8q-34 0 -57 10.5t-43 33.5q-32 40 -32 118q0 36 12.5 66.5t36.5 51.5q23 20 51 28t77 8h40v73q0 61 -51 61q-22 0 -35 -15q-16 -17 -16 -49h-106q0 32 10 60.5t35 53.5q19 19 49 31t62 12q25 0 48 -5.5t40 -18.5q9 -8 19 -21q6 9 16 17q19 14 42 21t49 7 q33 0 60.5 -8.5t52.5 -33.5q32 -32 40.5 -98.5t8.5 -161.5h-218q0 -45 2.5 -77.5t13.5 -47.5q6 -9 16 -15t24 -6q26 0 41 21q6 8 9.5 21t3.5 26h105q-2 -34 -11.5 -65t-32.5 -56q-21 -23 -50.5 -32.5t-64.5 -9.5q-54 0 -89 26q-12 8 -22.5 19.5t-18.5 24.5 q-10 -15 -20.5 -27.5t-21.5 -20.5q-15 -11 -32.5 -16.5t-42.5 -5.5zM188 85q26 0 41 19.5t15 50.5v78h-35q-20 0 -32.5 -3.5t-22.5 -12.5q-9 -8 -15 -25t-6 -34q0 -73 55 -73zM461 311q0 47 -3.5 72t-11.5 37q-7 10 -16.5 15.5t-24.5 5.5t-24.5 -5.5t-16.5 -15.5 q-8 -12 -11.5 -37t-3.5 -72h112z"/>
<glyph glyph-name="ccedilla" unicode="&#xe7;" horiz-adv-x="384" d="M198 535q34 0 61 -8t50 -30q25 -24 35 -56.5t12 -67.5h-105q-1 13 -3.5 25.5t-10.5 23.5q-13 19 -39 19q-12 0 -23 -5.5t-18 -16.5q-11 -18 -13 -57t-2 -98t2 -98t13 -58q7 -11 18 -16t23 -5q26 0 39 18q8 11 10.5 23.5t3.5 26.5h105q-2 -38 -13 -70t-33 -54 q-39 -39 -112 -39q-38 0 -70 12t-55 44q-25 34 -31 91.5t-6 124.5t6 124t31 92q23 32 55 43.5t70 11.5zM188 -194h-76l61 154h68z"/>
<glyph glyph-name="egrave" unicode="&#xe8;" d="M198 535q33 0 60.5 -8.5t52.5 -33.5q32 -32 40.5 -98.5t8.5 -161.5h-218q0 -45 3 -77.5t13 -47.5q6 -9 16.5 -15t24.5 -6q26 0 40 20q7 8 10 21t3 27h106q-2 -35 -11.5 -65t-33.5 -56q-21 -23 -49 -32.5t-65 -9.5q-35 0 -62.5 9t-51.5 34q-17 17 -26.5 41.5t-14.5 54 t-6.5 63.5t-1.5 70q0 72 8 133t41 96q24 25 52.5 33.5t60.5 8.5zM198 441q-15 0 -24.5 -5.5t-16.5 -15.5q-8 -12 -11.5 -37t-3.5 -72h112q0 47 -3.5 72t-11.5 37q-7 10 -16.5 15.5t-24.5 5.5zM245 587h-74l-88 139h90z"/>
<glyph glyph-name="eacute" unicode="&#xe9;" d="M198 535q33 0 60.5 -8.5t52.5 -33.5q32 -32 40.5 -98.5t8.5 -161.5h-218q0 -45 3 -77.5t13 -47.5q6 -9 16.5 -15t24.5 -6q26 0 40 20q7 8 10 21t3 27h106q-2 -35 -11.5 -65t-33.5 -56q-21 -23 -49 -32.5t-65 -9.5q-35 0 -62.5 9t-51.5 34q-17 17 -26.5 41.5t-14.5 54 t-6.5 63.5t-1.5 70q0 72 8 133t41 96q24 25 52.5 33.5t60.5 8.5zM198 441q-15 0 -24.5 -5.5t-16.5 -15.5q-8 -12 -11.5 -37t-3.5 -72h112q0 47 -3.5 72t-11.5 37q-7 10 -16.5 15.5t-24.5 5.5zM221 587h-74l72 139h90z"/>
<glyph glyph-name="ecircumflex" unicode="&#xea;" d="M198 535q33 0 60.5 -8.5t52.5 -33.5q32 -32 40.5 -98.5t8.5 -161.5h-218q0 -45 3 -77.5t13 -47.5q6 -9 16.5 -15t24.5 -6q26 0 40 20q7 8 10 21t3 27h106q-2 -35 -11.5 -65t-33.5 -56q-21 -23 -49 -32.5t-65 -9.5q-35 0 -62.5 9t-51.5 34q-17 17 -26.5 41.5t-14.5 54 t-6.5 63.5t-1.5 70q0 72 8 133t41 96q24 25 52.5 33.5t60.5 8.5zM198 441q-15 0 -24.5 -5.5t-16.5 -15.5q-8 -12 -11.5 -37t-3.5 -72h112q0 47 -3.5 72t-11.5 37q-7 10 -16.5 15.5t-24.5 5.5zM339 587h-82l-59 82l-59 -82h-82l99 139h84z"/>
<glyph glyph-name="edieresis" unicode="&#xeb;" d="M198 535q33 0 60.5 -8.5t52.5 -33.5q32 -32 40.5 -98.5t8.5 -161.5h-218q0 -45 3 -77.5t13 -47.5q6 -9 16.5 -15t24.5 -6q26 0 40 20q7 8 10 21t3 27h106q-2 -35 -11.5 -65t-33.5 -56q-21 -23 -49 -32.5t-65 -9.5q-35 0 -62.5 9t-51.5 34q-17 17 -26.5 41.5t-14.5 54 t-6.5 63.5t-1.5 70q0 72 8 133t41 96q24 25 52.5 33.5t60.5 8.5zM198 441q-15 0 -24.5 -5.5t-16.5 -15.5q-8 -12 -11.5 -37t-3.5 -72h112q0 47 -3.5 72t-11.5 37q-7 10 -16.5 15.5t-24.5 5.5zM336 598h-100v100h100v-100zM160 598h-100v100h100v-100z"/>
<glyph glyph-name="igrave" unicode="&#xec;" horiz-adv-x="209" d="M158 0h-106v513h106v-513zM153 587h-74l-88 139h90z"/>
<glyph glyph-name="iacute" unicode="&#xed;" horiz-adv-x="209" d="M158 0h-106v513h106v-513zM129 587h-74l72 139h90z"/>
<glyph glyph-name="icircumflex" unicode="&#xee;" horiz-adv-x="209" d="M158 0h-106v513h106v-513zM247 587h-82l-59 82l-59 -82h-82l99 139h84z"/>
<glyph glyph-name="idieresis" unicode="&#xef;" horiz-adv-x="209" d="M158 0h-106v513h106v-513zM244 598h-100v100h100v-100zM68 598h-100v100h100v-100z"/>
<glyph glyph-name="eth" unicode="&#xf0;" horiz-adv-x="397" d="M280 647h70v-78h-47l31 -101q7 -23 12 -45.5t8.5 -48.5t5 -58t1.5 -73q0 -63 -7 -115t-32 -84q-23 -29 -54.5 -40.5t-69.5 -11.5t-69 11.5t-54 40.5q-25 32 -32 84t-7 115q0 80 6 132t32 81q18 20 40.5 29t53.5 9q14 0 31 -4.5t29 -12.5l-30 92h-75v78h51l-23 65h107z M198 404q-12 0 -23 -5t-17 -15q-11 -17 -13.5 -51t-2.5 -88t2.5 -87.5t13.5 -50.5q6 -10 17 -15t23 -5t23.5 5t17.5 15q11 17 13.5 50.5t2.5 87.5t-2.5 88t-13.5 51q-6 10 -17.5 15t-23.5 5z"/>
<glyph glyph-name="ntilde" unicode="&#xf1;" horiz-adv-x="417" d="M242 535q32 0 55 -10t41 -31q16 -18 23 -43t7 -71v-380h-106v379q0 31 -15 46t-37 15t-37 -15t-15 -46v-379h-106v527h102v-39q7 9 16 18.5t19 14.5q23 14 53 14zM159 697q17 0 31 -3.5t31 -13.5q11 -7 21.5 -11t22.5 -4q10 0 20 3.5t25 19.5l47 -46q-26 -26 -46.5 -36.5 t-43.5 -10.5q-17 0 -30.5 4t-30.5 13q-11 7 -21.5 11t-22.5 4q-11 0 -20.5 -3.5t-25.5 -19.5l-46 46q26 26 46 36.5t43 10.5z"/>
<glyph glyph-name="ograve" unicode="&#xf2;" d="M198 535q38 0 70 -11.5t55 -43.5q25 -35 31 -92t6 -124t-6 -124t-31 -92q-23 -32 -55 -44t-70 -12t-70 12t-55 44q-25 35 -31 92t-6 124t6 124t31 92q23 32 55 43.5t70 11.5zM198 441q-12 0 -23 -5.5t-18 -16.5q-11 -18 -13 -57t-2 -98t2 -98.5t13 -57.5q7 -11 18 -16 t23 -5t23 5t18 16q11 18 13 57.5t2 98.5t-2 98t-13 57q-7 11 -18 16.5t-23 5.5zM245 587h-74l-88 139h90z"/>
<glyph glyph-name="oacute" unicode="&#xf3;" d="M198 535q38 0 70 -11.5t55 -43.5q25 -35 31 -92t6 -124t-6 -124t-31 -92q-23 -32 -55 -44t-70 -12t-70 12t-55 44q-25 35 -31 92t-6 124t6 124t31 92q23 32 55 43.5t70 11.5zM198 441q-12 0 -23 -5.5t-18 -16.5q-11 -18 -13 -57t-2 -98t2 -98.5t13 -57.5q7 -11 18 -16 t23 -5t23 5t18 16q11 18 13 57.5t2 98.5t-2 98t-13 57q-7 11 -18 16.5t-23 5.5zM221 587h-74l72 139h90z"/>
<glyph glyph-name="ocircumflex" unicode="&#xf4;" d="M198 535q38 0 70 -11.5t55 -43.5q25 -35 31 -92t6 -124t-6 -124t-31 -92q-23 -32 -55 -44t-70 -12t-70 12t-55 44q-25 35 -31 92t-6 124t6 124t31 92q23 32 55 43.5t70 11.5zM198 441q-12 0 -23 -5.5t-18 -16.5q-11 -18 -13 -57t-2 -98t2 -98.5t13 -57.5q7 -11 18 -16 t23 -5t23 5t18 16q11 18 13 57.5t2 98.5t-2 98t-13 57q-7 11 -18 16.5t-23 5.5zM339 587h-82l-59 82l-59 -82h-82l99 139h84z"/>
<glyph glyph-name="otilde" unicode="&#xf5;" d="M198 535q38 0 70 -11.5t55 -43.5q25 -35 31 -92t6 -124t-6 -124t-31 -92q-23 -32 -55 -44t-70 -12t-70 12t-55 44q-25 35 -31 92t-6 124t6 124t31 92q23 32 55 43.5t70 11.5zM198 441q-12 0 -23 -5.5t-18 -16.5q-11 -18 -13 -57t-2 -98t2 -98.5t13 -57.5q7 -11 18 -16 t23 -5t23 5t18 16q11 18 13 57.5t2 98.5t-2 98t-13 57q-7 11 -18 16.5t-23 5.5zM147 697q17 0 31 -3.5t31 -13.5q11 -7 21.5 -11t22.5 -4q10 0 20 3.5t25 19.5l47 -46q-26 -26 -46.5 -36.5t-43.5 -10.5q-17 0 -30.5 4t-30.5 13q-11 7 -21.5 11t-22.5 4q-11 0 -20.5 -3.5 t-25.5 -19.5l-46 46q26 26 46 36.5t43 10.5z"/>
<glyph glyph-name="odieresis" unicode="&#xf6;" d="M198 535q38 0 70 -11.5t55 -43.5q25 -35 31 -92t6 -124t-6 -124t-31 -92q-23 -32 -55 -44t-70 -12t-70 12t-55 44q-25 35 -31 92t-6 124t6 124t31 92q23 32 55 43.5t70 11.5zM198 441q-12 0 -23 -5.5t-18 -16.5q-11 -18 -13 -57t-2 -98t2 -98.5t13 -57.5q7 -11 18 -16 t23 -5t23 5t18 16q11 18 13 57.5t2 98.5t-2 98t-13 57q-7 11 -18 16.5t-23 5.5zM336 598h-100v100h100v-100zM160 598h-100v100h100v-100z"/>
<glyph glyph-name="divide" unicode="&#xf7;" horiz-adv-x="457" d="M413 238h-369v101h369v-101zM291 41h-124v123h124v-123zM291 412h-124v123h124v-123z"/>
<glyph glyph-name="oslash" unicode="&#xf8;" d="M326 476q23 -35 28.5 -91.5t5.5 -120.5q0 -67 -6 -124t-31 -92q-23 -32 -55 -44t-70 -12q-22 0 -41 3.5t-36 11.5l-21 -51h-71l41 96q-23 35 -28.5 91.5t-5.5 120.5q0 67 6 124t31 92q23 32 55 43.5t70 11.5q22 0 41 -3.5t36 -11.5l21 51h71zM235 429q-14 16 -37 16 q-12 0 -23 -5.5t-18 -16.5q-11 -19 -13.5 -59t-2.5 -100q0 -17 0.5 -34.5t2.5 -25.5zM255 264q0 17 -0.5 34t-2.5 25l-91 -225q14 -16 37 -16q12 0 23 6t18 17q11 19 13.5 59t2.5 100z"/>
<glyph glyph-name="ugrave" unicode="&#xf9;" horiz-adv-x="417" d="M264 0v40q-7 -9 -16.5 -18.5t-19.5 -14.5q-11 -7 -25 -11t-28 -4q-32 0 -55 10t-41 31q-16 18 -23 43t-7 71v380h106v-379q0 -31 15 -46t37 -15t37 15t15 46v379h106v-527h-101zM254 587h-74l-88 139h90z"/>
<glyph glyph-name="uacute" unicode="&#xfa;" horiz-adv-x="417" d="M264 0v40q-7 -9 -16.5 -18.5t-19.5 -14.5q-11 -7 -25 -11t-28 -4q-32 0 -55 10t-41 31q-16 18 -23 43t-7 71v380h106v-379q0 -31 15 -46t37 -15t37 15t15 46v379h106v-527h-101zM230 587h-74l72 139h90z"/>
<glyph glyph-name="ucircumflex" unicode="&#xfb;" horiz-adv-x="417" d="M264 0v40q-7 -9 -16.5 -18.5t-19.5 -14.5q-11 -7 -25 -11t-28 -4q-32 0 -55 10t-41 31q-16 18 -23 43t-7 71v380h106v-379q0 -31 15 -46t37 -15t37 15t15 46v379h106v-527h-101zM348 587h-82l-59 82l-59 -82h-82l99 139h84z"/>
<glyph glyph-name="udieresis" unicode="&#xfc;" horiz-adv-x="417" d="M264 0v40q-7 -9 -16.5 -18.5t-19.5 -14.5q-11 -7 -25 -11t-28 -4q-32 0 -55 10t-41 31q-16 18 -23 43t-7 71v380h106v-379q0 -31 15 -46t37 -15t37 15t15 46v379h106v-527h-101zM345 598h-100v100h100v-100zM169 598h-100v100h100v-100z"/>
<glyph glyph-name="yacute" unicode="&#xfd;" horiz-adv-x="381" d="M229 -67q-10 -40 -28.5 -63.5t-44 -35.5t-57 -15.5t-67.5 -3.5v94q17 0 32 2t27 7.5t21 16t14 29.5l9 37l-131 526h117l70 -359l69 359h117zM216 587h-74l72 139h90z"/>
<glyph glyph-name="thorn" unicode="&#xfe;" horiz-adv-x="408" d="M242 535q30 0 52.5 -9t40.5 -32q26 -32 31.5 -88t5.5 -142t-5.5 -142.5t-31.5 -88.5q-18 -23 -40.5 -32t-52.5 -9t-53 14q-17 11 -31 28v-219h-106v897h106v-224q4 8 13.5 18t17.5 15q23 14 53 14zM210 441q-23 0 -36 -15q-8 -8 -12 -20t-4 -29v-227q0 -33 16 -49 q14 -14 36 -14q25 0 39 20q5 7 8.5 18t5.5 29.5t2.5 45t0.5 64.5q0 37 -0.5 64t-2.5 45t-5.5 29t-8.5 18q-15 21 -39 21z"/>
<glyph glyph-name="ydieresis" unicode="&#xff;" horiz-adv-x="381" d="M229 -67q-10 -40 -28.5 -63.5t-44 -35.5t-57 -15.5t-67.5 -3.5v94q17 0 32 2t27 7.5t21 16t14 29.5l9 37l-131 526h117l70 -359l69 359h117zM331 598h-100v100h100v-100zM155 598h-100v100h100v-100z"/>
<glyph glyph-name="dotlessi" unicode="&#x131;" horiz-adv-x="209" d="M158 0h-106v513h106v-513z"/>
<glyph glyph-name="OE" unicode="&#x152;" horiz-adv-x="645" d="M228 720q29 0 51.5 -10t36.5 -25v27h292v-101h-187v-199h161v-101h-161v-210h187v-101h-292v27q-16 -16 -39.5 -25.5t-48.5 -9.5q-48 0 -80.5 17.5t-54.5 43.5q-18 21 -28 47.5t-15.5 62t-7 83t-1.5 110.5t1.5 110.5t7 83t15.5 62t28 47.5q22 26 53 43.5t82 17.5z M231 619q-20 0 -32.5 -7.5t-20.5 -19.5q-16 -26 -20.5 -82t-4.5 -154t4.5 -154t20.5 -82q8 -12 20.5 -19.5t32.5 -7.5t33 7.5t21 19.5q16 26 20 82t4 154t-4 154t-20 82q-8 12 -21 19.5t-33 7.5z"/>
<glyph glyph-name="oe" unicode="&#x153;" horiz-adv-x="614" d="M416 535q33 0 60.5 -8.5t52.5 -33.5q32 -32 40.5 -98.5t8.5 -161.5h-218q0 -45 3 -77.5t13 -47.5q6 -9 16.5 -15t24.5 -6q27 0 41 20q6 8 9 21t3 27h106q-2 -35 -11.5 -65t-33.5 -56q-20 -23 -48.5 -32.5t-65.5 -9.5q-28 0 -51 8.5t-40 22.5q-5 4 -9 9l-8 10 q-4 -6 -7.5 -10.5t-10.5 -9.5q-17 -14 -41.5 -22t-51.5 -8q-38 0 -70 12t-55 44q-25 34 -31 91.5t-6 124.5t6 124t31 92q23 32 55 43.5t70 11.5q27 0 52 -8t43 -23q9 -8 16 -19q6 11 18 20q39 30 89 30zM198 441q-12 0 -23 -5.5t-18 -16.5q-11 -18 -13 -57t-2 -98t2 -98 t13 -58q7 -11 18 -16t23 -5t23 5t18 16q11 19 13 58t2 98t-2 98t-13 57q-7 11 -18 16.5t-23 5.5zM416 441q-15 0 -24 -5.5t-16 -15.5q-8 -13 -12 -37.5t-4 -71.5h112q0 47 -3.5 72t-11.5 37q-7 10 -16.5 15.5t-24.5 5.5z"/>
<glyph glyph-name="Scaron" unicode="&#x160;" horiz-adv-x="442" d="M221 718q83 0 128 -43q28 -27 39 -65.5t11 -89.5h-112q0 24 -3 43t-14 33q-16 21 -50 21q-17 0 -28.5 -5.5t-19.5 -14.5q-19 -22 -19 -70q0 -22 2 -37t8.5 -25.5t18 -18.5t30.5 -15l84 -34q32 -13 53 -29t33 -39t17 -55t5 -77q0 -55 -9.5 -93t-36.5 -64 q-22 -21 -56.5 -34t-82.5 -13q-91 0 -138 47q-26 26 -36 61t-10 92h112q0 -29 4 -47.5t16 -32.5q8 -8 20.5 -13.5t31.5 -5.5q37 0 54 20q11 13 15 31.5t4 47.5q0 28 -2.5 47t-10 31.5t-20.5 21.5t-34 17l-85 35q-27 11 -46 25t-30.5 34.5t-17 49.5t-5.5 70q0 48 14.5 86.5 t43.5 64.5q23 20 53.5 31.5t68.5 11.5zM269 757h-84l-99 140h82l59 -82l59 82h82z"/>
<glyph glyph-name="scaron" unicode="&#x161;" horiz-adv-x="381" d="M190 535q33 0 62 -10t49 -30q21 -20 33 -48.5t12 -68.5h-104q0 17 -3.5 28.5t-11.5 19.5q-15 16 -37 16q-24 0 -39 -15t-15 -40q0 -19 8 -31q11 -18 39 -30l70 -30q27 -12 45.5 -25.5t31.5 -32.5q22 -31 22 -86q0 -39 -13.5 -68t-33.5 -49q-24 -24 -52.5 -33.5 t-62.5 -9.5t-65 11t-51 32q-23 24 -35 52.5t-12 66.5h105q0 -32 18 -50q8 -8 18.5 -12t21.5 -4q25 0 41 15q8 7 11.5 18t3.5 24q0 22 -11 39q-12 18 -41 30l-70 31q-54 24 -77 61q-17 27 -17 72q0 38 12.5 64.5t33.5 48.5q22 22 51.5 33t62.5 11zM236 584h-84l-99 140h82 l59 -82l59 82h82z"/>
<glyph glyph-name="Ydieresis" unicode="&#x178;" horiz-adv-x="388" d="M250 279v-279h-112v279l-138 433h124l70 -282l71 282h123zM332 770h-100v100h100v-100zM157 770h-100v100h100v-100z"/>
<glyph glyph-name="Zcaron" unicode="&#x17d;" horiz-adv-x="372" d="M341 628l-193 -527h193v-101h-310v84l194 527h-182v101h298v-84zM237 757h-84l-99 140h82l59 -82l59 82h82z"/>
<glyph glyph-name="zcaron" unicode="&#x17e;" horiz-adv-x="325" d="M299 448l-154 -353h154v-95h-273v80l154 353h-142v94h261v-79zM214 584h-84l-99 140h82l59 -82l59 82h82z"/>
<glyph glyph-name="florin" unicode="&#x192;" horiz-adv-x="365" d="M342 624h-41q-23 0 -39 -13.5t-20 -36.5l-33 -186h73v-80h-88l-89 -493h-105l89 493h-54v80h69l33 192q6 36 22 62.5t37.5 43.5t48 25t53.5 8h44v-95z"/>
<glyph glyph-name="uni0237" unicode="&#x237;" horiz-adv-x="210" d="M158 -25q0 -48 -14.5 -78t-39.5 -49q-26 -20 -56.5 -26.5t-67.5 -6.5v95q36 0 54 15.5t18 55.5v532h106v-538z"/>
<glyph glyph-name="circumflex" unicode="&#x2c6;" d="M339 587h-82l-59 82l-59 -82h-82l99 139h84z"/>
<glyph glyph-name="tilde" unicode="&#x2dc;" d="M144 697q17 0 31 -3.5t31 -13.5q11 -7 21.5 -11t22.5 -4q10 0 20 3.5t25 19.5l47 -46q-26 -26 -46.5 -36.5t-43.5 -10.5q-17 0 -30.5 4t-30.5 13q-11 7 -21.5 11t-22.5 4q-11 0 -20.5 -3.5t-25.5 -19.5l-46 46q26 26 46 36.5t43 10.5z"/>
<glyph glyph-name="endash" unicode="&#x2013;" horiz-adv-x="463" d="M416 238h-369v101h369v-101z"/>
<glyph glyph-name="emdash" unicode="&#x2014;" horiz-adv-x="712" d="M665 238h-618v101h618v-101z"/>
<glyph glyph-name="quoteleft" unicode="&#x2018;" horiz-adv-x="211" d="M163 586h-115v125l115 85v-210z"/>
<glyph glyph-name="quoteright" unicode="&#x2019;" horiz-adv-x="211" d="M163 587l-115 -85v210h115v-125z"/>
<glyph glyph-name="quotesinglbase" unicode="&#x201a;" horiz-adv-x="211" d="M163 -7l-115 -85v210h115v-125z"/>
<glyph glyph-name="quotedblleft" unicode="&#x201c;" horiz-adv-x="400" d="M352 586h-115v125l115 85v-210zM163 586h-115v125l115 85v-210z"/>
<glyph glyph-name="quotedblright" unicode="&#x201d;" horiz-adv-x="401" d="M353 587l-115 -85v210h115v-125zM163 587l-115 -85v210h115v-125z"/>
<glyph glyph-name="quotedblbase" unicode="&#x201e;" horiz-adv-x="400" d="M352 -8l-116 -85v211h116v-126zM163 -8l-115 -85v211h115v-126z"/>
<glyph glyph-name="dagger" unicode="&#x2020;" horiz-adv-x="449" d="M274 527h131v-88h-131v-439h-99v439h-131v88h131v185h99v-185z"/>
<glyph glyph-name="daggerdbl" unicode="&#x2021;" horiz-adv-x="449" d="M274 527h131v-88h-131v-350h131v-89h-131v-185h-99v185h-131v89h131v350h-131v88h131v185h99v-185z"/>
<glyph glyph-name="bullet" unicode="&#x2022;" horiz-adv-x="446" d="M60 289q0 34 13 63.5t35 51.5t51.5 35t63.5 13t63.5 -13t51.5 -35t35 -51.5t13 -63.5t-13 -63.5t-35 -51.5t-51.5 -35t-63.5 -13t-63.5 13t-51.5 35t-35 51.5t-13 63.5z"/>
<glyph glyph-name="ellipsis" unicode="&#x2026;" horiz-adv-x="639" d="M591 0h-123v123h123v-123zM171 0h-123v123h123v-123zM381 0h-123v123h123v-123z"/>
<glyph glyph-name="perthousand" unicode="&#x2030;" horiz-adv-x="1051" d="M286 0h-82l246 712h82zM174 719q25 0 48.5 -7.5t40.5 -22.5t27.5 -37.5t10.5 -52.5v-133q0 -30 -10.5 -52.5t-27.5 -37.5t-40.5 -22.5t-48.5 -7.5q-26 0 -49 7.5t-40 22.5t-27.5 37.5t-10.5 52.5v133q0 30 10.5 52.5t27.5 37.5t40 22.5t49 7.5zM174 642q-18 0 -29 -11 t-11 -34v-129q0 -23 11 -34t29 -11t29 11t11 34v129q0 23 -11 34t-29 11zM558 365q25 0 48.5 -7.5t40.5 -22.5t27.5 -37.5t10.5 -52.5v-133q0 -30 -10.5 -52.5t-27.5 -37.5t-40.5 -22.5t-48.5 -7.5q-26 0 -49 7.5t-40 22.5t-27.5 37.5t-10.5 52.5v133q0 30 10.5 52.5 t27.5 37.5t40 22.5t49 7.5zM558 288q-18 0 -29 -11t-11 -34v-129q0 -23 11 -34t29 -11t29 11t11 34v129q0 23 -11 34t-29 11zM877 365q25 0 48.5 -7.5t40.5 -22.5t27.5 -37.5t10.5 -52.5v-133q0 -30 -10.5 -52.5t-27.5 -37.5t-40.5 -22.5t-48.5 -7.5q-26 0 -49 7.5t-40 22.5 t-27.5 37.5t-10.5 52.5v133q0 30 10.5 52.5t27.5 37.5t40 22.5t49 7.5zM877 288q-18 0 -29 -11t-11 -34v-129q0 -23 11 -34t29 -11t29 11t11 34v129q0 23 -11 34t-29 11z"/>
<glyph glyph-name="guilsinglleft" unicode="&#x2039;" horiz-adv-x="231" d="M185 366l-61 -90l61 -92v-157l-161 249l161 248v-158z"/>
<glyph glyph-name="guilsinglright" unicode="&#x203a;" horiz-adv-x="231" d="M46 186l61 90l-61 92v157l161 -249l-161 -248v158z"/>
<glyph glyph-name="fraction" unicode="&#x2044;" horiz-adv-x="188" d="M12 0h-82l246 712h82z"/>
<glyph glyph-name="Euro" unicode="&#x20ac;" horiz-adv-x="498" d="M277 720q41 0 71 -11.5t54 -34.5q26 -25 40.5 -63.5t16.5 -86.5h-112q-1 19 -4 37t-12 32q-8 12 -21 19t-33 7t-33.5 -7.5t-21.5 -19.5q-5 -8 -8.5 -17.5t-6 -23t-3.5 -31.5t-1 -43h106v-81h-109v-80h109v-81h-106q1 -50 5 -74.5t15 -40.5q8 -11 21 -19t33 -8t33 7t21 19 q9 14 12 32.5t4 37.5h112q-2 -48 -17 -87.5t-42 -64.5q-24 -22 -53.5 -33.5t-69.5 -11.5q-51 0 -82.5 17t-54.5 43q-26 29 -37 72.5t-13 110.5h-58v81h56v80h-56v81h58q2 67 13.5 110.5t36.5 72.5q23 26 54.5 43t82.5 17z"/>
<glyph glyph-name="trademark" unicode="&#x2122;" horiz-adv-x="630" d="M353 712l83 -228l83 228h61v-437h-69v266l-57 -167h-37l-57 166v-265h-68v437h61zM25 648v64h213v-64h-73v-373h-68v373h-72z"/>
<glyph glyph-name="glyph224" horiz-adv-x="179" d="M132 0h-50v220l-54 -43v63l53 42h51v-282z"/>
<glyph glyph-name="glyph225" horiz-adv-x="183" d="M101 172q7 12 11 22.5t4 21.5q0 25 -23 25q-25 0 -25 -26v-16h-50v16q0 35 20 53t55 18q36 0 54 -18q20 -17 20 -52q0 -17 -6 -29.5t-17 -30.5l-66 -111h89v-45h-145v43z"/>
<glyph glyph-name="glyph226" horiz-adv-x="185" d="M38 13q-22 20 -22 52v13h51v-14q0 -24 25 -24q13 0 20 8q3 4 4.5 11t1.5 24q0 21 -2 28.5t-5 11.5q-6 7 -17 7h-16v38h16q12 0 17 7q3 5 4 10.5t1 18.5q0 21 -5 29t-18 8q-23 0 -23 -26v-15h-51v14q0 34 21 55q16 17 53 17q36 0 53 -17q11 -10 16 -25.5t5 -39.5 q0 -15 -2 -23.5t-7 -16.5q-8 -11 -18 -15q14 -7 21 -17q8 -13 8 -49q0 -29 -6 -45t-17 -26q-17 -17 -54 -17q-36 0 -54 18z"/>
<glyph glyph-name="glyph227" horiz-adv-x="251" d="M180 0h-66v350l-72 -55v76l72 56h66v-427z"/>
<glyph glyph-name="glyph228" horiz-adv-x="258" d="M143 267q12 22 18 37.5t6 30.5q0 17 -10.5 26.5t-27.5 9.5q-36 0 -36 -43v-23h-67v25q0 26 8 45t24 34q13 11 30 17t41 6q25 0 42.5 -6t29.5 -17q32 -27 32 -77q0 -21 -8 -41.5t-22 -45.5l-101 -184h131v-61h-204v57z"/>
<glyph glyph-name="glyph229" horiz-adv-x="257" d="M56 20q-15 14 -23 34t-8 42v20h67v-22q0 -19 10.5 -28.5t27.5 -9.5q19 0 28 12q5 7 7 18t2 37q0 33 -2.5 45t-7.5 19q-8 11 -25 11h-21v56h21q14 0 23 9q5 6 7 16t2 32q0 40 -10 50t-25 10t-24.5 -9.5t-9.5 -27.5v-27h-67v24q0 23 7.5 42t21.5 33q28 26 71 26 q24 0 40.5 -6.5t30.5 -18.5q18 -17 24.5 -36.5t6.5 -54.5q0 -48 -11 -67q-5 -8 -11.5 -13t-16.5 -10q19 -8 30 -26q7 -11 9.5 -30t2.5 -47q0 -41 -5.5 -63t-24.5 -40q-27 -25 -73 -25t-74 25z"/>
<glyph glyph-name="glyph230" horiz-adv-x="260" d="M14 63v61l110 303h73l-110 -303h61v77h66v-77h32v-61h-32v-63h-66v63h-134z"/>
<glyph glyph-name="glyph231" d="M245 587h-74l-88 139h90z"/>
<glyph glyph-name="glyph232" d="M336 598h-100v100h100v-100zM160 598h-100v100h100v-100z"/>
<glyph glyph-name="glyph233" d="M321 604h-246v71h246v-71z"/>
<glyph glyph-name="glyph234" d="M221 587h-74l72 139h90z"/>
<glyph glyph-name="glyph235" d="M188 -194h-76l61 154h68z"/>
<glyph glyph-name="glyph236" d="M339 587h-82l-59 82l-59 -82h-82l99 139h84z"/>
<glyph glyph-name="glyph237" d="M240 584h-84l-99 140h82l59 -82l59 82h82z"/>
<glyph glyph-name="glyph238" d="M198 794q22 0 41 -8t33 -22.5t22.5 -33.5t8.5 -41q0 -21 -8.5 -40t-22.5 -33.5t-33 -22.5t-41 -8t-41 8t-33 22.5t-22 33.5t-8 40q0 22 8 41t22 33t33 22.5t41 8.5zM198 735q-19 0 -32.5 -13.5t-13.5 -32.5t13.5 -32t32.5 -13t32.5 13t13.5 32t-13.5 32.5t-32.5 13.5z"/>
<glyph glyph-name="glyph239" d="M147 697q17 0 31 -3.5t31 -13.5q11 -7 21.5 -11t22.5 -4q10 0 20 3.5t25 19.5l47 -46q-26 -26 -46.5 -36.5t-43.5 -10.5q-17 0 -30.5 4t-30.5 13q-11 7 -21.5 11t-22.5 4q-11 0 -20.5 -3.5t-25.5 -19.5l-46 46q26 26 46 36.5t43 10.5z"/>
<glyph glyph-name="glyph240" horiz-adv-x="462" d="M277 760h-74l-88 139h90z"/>
<glyph glyph-name="glyph241" horiz-adv-x="462" d="M369 770h-100v100h100v-100zM194 770h-100v100h100v-100z"/>
<glyph glyph-name="glyph242" horiz-adv-x="462" d="M260 760h-74l72 139h89z"/>
<glyph glyph-name="glyph243" horiz-adv-x="462" d="M211 -194h-76l61 154h68z"/>
<glyph glyph-name="glyph244" horiz-adv-x="462" d="M372 760h-82l-59 82l-59 -82h-82l99 139h84z"/>
<glyph glyph-name="glyph245" horiz-adv-x="462" d="M273 757h-84l-99 140h82l59 -82l59 82h82z"/>
<glyph glyph-name="glyph246" horiz-adv-x="462" d="M231 962q22 0 41 -8t33 -22t22.5 -33t8.5 -41t-8.5 -41t-22.5 -33t-33 -22t-41 -8q-21 0 -40 8t-33.5 22t-22.5 33t-8 41t8 41t22.5 33t33.5 22t40 8zM231 904q-19 0 -32 -13.5t-13 -32.5t13 -32.5t32 -13.5t32.5 13.5t13.5 32.5t-13.5 32.5t-32.5 13.5z"/>
<glyph glyph-name="glyph247" horiz-adv-x="462" d="M180 870q17 0 31 -3.5t31 -13.5q11 -7 21.5 -11t22.5 -4q10 0 20 3.5t25 19.5l47 -47q-26 -26 -46.5 -36t-43.5 -10q-17 0 -30.5 4t-30.5 13q-11 7 -21.5 11t-22.5 4q-11 0 -20.5 -3.5t-25.5 -19.5l-46 46q26 26 46 36.5t43 10.5z"/>
</font>
</defs>
</svg>
