<svg xmlns="http://www.w3.org/2000/svg" xmlns:xlink="http://www.w3.org/1999/xlink" viewBox="0 0 150 150"><circle cx="75" cy="75" r="75" fill-rule="evenodd" clip-rule="evenodd" fill="#719669"/><defs><path id="a" d="M89.4 74.9l32 28.8V46.1z"/></defs><use xlink:href="#a" overflow="visible" fill-rule="evenodd" clip-rule="evenodd" fill="#fff"/><clipPath id="b"><use xlink:href="#a" overflow="visible"/></clipPath><g clip-path="url(#b)"><defs><path id="c" d="M-190.4-1641.7h2065v2987h-2065z"/></defs><use xlink:href="#c" overflow="visible" fill="#fff"/></g><defs><path id="d" d="M74.2 87.9l-9.1-8.2-31.7 28.8H115L83.3 79.7z"/></defs><use xlink:href="#d" overflow="visible" fill-rule="evenodd" clip-rule="evenodd" fill="#fff"/><clipPath id="e"><use xlink:href="#d" overflow="visible"/></clipPath><g clip-path="url(#e)"><defs><path id="f" d="M-190.4-1641.7h2065v2987h-2065z"/></defs><use xlink:href="#f" overflow="visible" fill="#fff"/></g><g><defs><path id="g" d="M28.6 103.7l32-28.8-32-28.8z"/></defs><use xlink:href="#g" overflow="visible" fill-rule="evenodd" clip-rule="evenodd" fill="#fff"/><clipPath id="h"><use xlink:href="#g" overflow="visible"/></clipPath><g clip-path="url(#h)"><defs><path id="i" d="M-190.4-1641.7h2065v2987h-2065z"/></defs><use xlink:href="#i" overflow="visible" fill="#fff"/></g></g><g><defs><path id="j" d="M33.7 41.5L75 78l41.3-36.5H33.7zm46.8 22.8c-1.4 0-2.4-.5-3.1-1.6-.9 1.1-2.1 1.6-3.4 1.6-1.5 0-2.7-.6-3.8-1.8-1.1-1.2-1.6-2.8-1.6-4.8s.6-3.7 1.8-5c1.2-1.3 2.6-1.9 4.3-1.9 1 0 2 .4 2.9 1.1l.2-.8h3.4l-1 8c-.1.6-.1 1-.1 1.4 0 .5.2.8.7.8.9 0 1.7-.5 2.5-1.6s1.2-2.5 1.2-4.1c0-2.4-.9-4.4-2.7-6-1.8-1.6-4-2.4-6.5-2.4-2.8 0-5.2 1-7.1 2.9-1.9 1.9-2.9 4.3-2.9 7.2 0 2.6.9 4.9 2.7 6.9 1.8 2 4.3 2.9 7.6 2.9 2.1 0 4.2-.5 6.3-1.4.8-.3 1.8 0 2.1.9.3.8-.1 1.7-.9 2-2.5 1-5 1.6-7.6 1.6-4.3 0-7.7-1.3-10.2-3.8-2.5-2.6-3.8-5.6-3.8-9.1 0-3.7 1.3-6.8 4-9.3 2.6-2.5 5.9-3.7 9.6-3.7 3.6 0 6.6 1.1 9 3.3 2.4 2.2 3.6 4.8 3.6 7.9 0 2.4-.7 4.5-2.2 6.2-1.3 1.8-3 2.6-5 2.6z"/></defs><use xlink:href="#j" overflow="visible" fill-rule="evenodd" clip-rule="evenodd" fill="#fff"/><clipPath id="k"><use xlink:href="#j" overflow="visible"/></clipPath><g clip-path="url(#k)"><defs><path id="l" d="M-190.4-1641.7h2065v2987h-2065z"/></defs><use xlink:href="#l" overflow="visible" fill="#fff"/></g></g><g><defs><path id="m" d="M74.8 54.2c-.7 0-1.3.3-1.8 1s-.7 1.5-.7 2.6c0 .9.2 1.6.5 2.2.4.6.8.9 1.4.9.8 0 1.6-.4 2.2-1.2.6-.7.9-1.7.9-2.7 0-.8-.2-1.5-.7-2-.6-.5-1.1-.8-1.8-.8"/></defs><use xlink:href="#m" overflow="visible" fill-rule="evenodd" clip-rule="evenodd" fill="#fff"/><clipPath id="n"><use xlink:href="#m" overflow="visible"/></clipPath><g clip-path="url(#n)"><defs><path id="o" d="M-190.4-1641.7h2065v2987h-2065z"/></defs><use xlink:href="#o" overflow="visible" fill="#fff"/></g></g></svg>