<?xml version="1.0" encoding="utf-8"?>
<!-- Generator: Adobe Illustrator 26.3.1, SVG Export Plug-In . SVG Version: 6.00 Build 0)  -->
<svg version="1.1" id="Layer_1" xmlns="http://www.w3.org/2000/svg" xmlns:xlink="http://www.w3.org/1999/xlink" x="0px" y="0px"
	 viewBox="0 0 398.6 54.6" style="enable-background:new 0 0 398.6 54.6;" xml:space="preserve">
<style type="text/css">
	.st0{fill:#606060;}
	.st1{fill:#BB0E3D;}
	.st2{fill:#FFFFFF;}
</style>
<g id="CCG">
	<g>
		<path class="st0" d="M107.2,43.4c1.6,0,2.9-0.6,3.9-1.9l2.1,2.2c-1.7,1.9-3.6,2.8-5.9,2.8s-4.1-0.7-5.6-2.1s-2.2-3.2-2.2-5.4
			s0.7-4,2.2-5.4s3.3-2.2,5.5-2.2c2.4,0,4.4,0.9,6,2.8l-2,2.3c-1-1.3-2.3-1.9-3.9-1.9c-1.2,0-2.3,0.4-3.2,1.2
			c-0.9,0.8-1.3,1.9-1.3,3.3c0,1.4,0.4,2.5,1.2,3.3S106.1,43.4,107.2,43.4z"/>
		<path class="st0" d="M125.3,44.7c-1.3,1.2-2.8,1.8-4.5,1.8s-3.1-0.5-4.3-1.6c-1.1-1.1-1.7-2.5-1.7-4.3s0.6-3.2,1.7-4.2
			s2.5-1.6,4-1.6s2.9,0.5,4,1.4s1.6,2.2,1.6,3.9v1.7h-8.2c0.1,0.6,0.4,1.1,1,1.5c0.5,0.4,1.2,0.6,1.8,0.6c1.1,0,2-0.4,2.7-1.1
			L125.3,44.7z M122.3,38c-0.4-0.4-1-0.5-1.6-0.5s-1.2,0.2-1.7,0.6c-0.5,0.4-0.8,0.9-0.9,1.5h5C123,38.9,122.8,38.3,122.3,38z"/>
		<path class="st0" d="M131.7,40v6.3h-3.2V35h3.1v1.3c1-1,2-1.4,3.2-1.4s2.2,0.4,3,1.3c0.8,0.8,1.2,2,1.2,3.4v6.7h-3.1v-6.4
			c0-1.7-0.6-2.6-1.9-2.6c-0.6,0-1.2,0.2-1.6,0.7C131.9,38.5,131.7,39.1,131.7,40z"/>
		<path class="st0" d="M145.5,37.3v5.1c0,0.4,0.1,0.8,0.3,1s0.5,0.4,0.8,0.4c0.6,0,1.1-0.3,1.5-0.8l1.2,2.2c-1,0.9-2,1.3-3.1,1.3
			s-2-0.4-2.8-1.1c-0.7-0.7-1.1-1.7-1.1-2.9v-5.2H141V35h1.3v-3.4h3.2V35h2.7v2.3H145.5z"/>
		<path class="st0" d="M160.8,44.7c-1.3,1.2-2.8,1.8-4.5,1.8s-3.1-0.5-4.3-1.6c-1.1-1.1-1.7-2.5-1.7-4.3s0.6-3.2,1.7-4.2
			s2.5-1.6,4-1.6s2.9,0.5,4,1.4s1.6,2.2,1.6,3.9v1.7h-8.1c0.1,0.6,0.4,1.1,1,1.5c0.5,0.4,1.2,0.6,1.8,0.6c1.1,0,2-0.4,2.7-1.1
			L160.8,44.7z M157.8,38c-0.4-0.4-1-0.5-1.6-0.5s-1.2,0.2-1.7,0.6c-0.5,0.4-0.8,0.9-0.9,1.5h5C158.5,38.9,158.2,38.3,157.8,38z"/>
		<path class="st0" d="M169.9,37.8c-0.9,0-1.6,0.3-2.1,1s-0.7,1.5-0.7,2.6v4.9H164V35h3.1v1.5c0.4-0.5,0.9-0.9,1.5-1.2
			s1.2-0.5,1.9-0.5v3H169.9L169.9,37.8z"/>
		<path class="st0" d="M181.9,34.4v0.8h2.7v2.3h-2.7v8.8h-3.2v-8.9h-1.3v-2.3h1.3v-0.7c0-1.2,0.4-2.2,1.1-2.9s1.7-1.1,2.8-1.1
			s2.1,0.4,3,1.3l-1.1,2.1c-0.5-0.5-1-0.8-1.5-0.8c-0.3,0-0.6,0.1-0.8,0.3C182,33.6,181.9,33.9,181.9,34.4z"/>
		<path class="st0" d="M197.6,40.7c0,1.6-0.6,3-1.7,4.1c-1.1,1.1-2.6,1.7-4.3,1.7s-3.1-0.6-4.3-1.7s-1.7-2.5-1.7-4.1s0.6-3,1.7-4.1
			c1.1-1.1,2.6-1.7,4.3-1.7s3.1,0.6,4.3,1.7C197.1,37.7,197.6,39,197.6,40.7z M188.9,40.7c0,0.9,0.3,1.7,0.8,2.3
			c0.5,0.6,1.2,0.9,2,0.9s1.5-0.3,2-0.9s0.8-1.3,0.8-2.3c0-0.9-0.3-1.7-0.8-2.3s-1.2-0.9-2-0.9s-1.5,0.3-2,0.9
			C189.1,39,188.9,39.7,188.9,40.7z"/>
		<path class="st0" d="M205.9,37.8c-0.9,0-1.6,0.3-2.1,1s-0.7,1.5-0.7,2.6v4.9H200V35h3.1v1.5c0.4-0.5,0.9-0.9,1.5-1.2
			s1.2-0.5,1.9-0.5v3H205.9L205.9,37.8z"/>
		<path class="st0" d="M221.2,43.4c1.6,0,2.9-0.6,3.9-1.9l2.1,2.2c-1.7,1.9-3.6,2.8-5.9,2.8s-4.1-0.7-5.6-2.1s-2.2-3.2-2.2-5.4
			s0.7-4,2.2-5.4s3.3-2.2,5.5-2.2c2.4,0,4.4,0.9,6,2.8l-2,2.3c-1-1.3-2.3-1.9-3.9-1.9c-1.2,0-2.3,0.4-3.2,1.2s-1.3,1.9-1.3,3.3
			c0,1.4,0.4,2.5,1.2,3.3S220,43.4,221.2,43.4z"/>
		<path class="st0" d="M239,46.3h-3v-1.4c-0.8,1-1.8,1.5-3,1.5c-1.2,0-2.2-0.3-3-1s-1.2-1.6-1.2-2.8s0.4-2,1.3-2.6
			c0.8-0.6,2-0.9,3.4-0.9h2.4V39c0-1.2-0.6-1.8-1.9-1.8c-0.5,0-1.1,0.1-1.7,0.3c-0.6,0.2-1.1,0.5-1.5,0.8l-1.4-2
			c1.5-1.1,3.2-1.6,5.1-1.6c1.4,0,2.5,0.3,3.4,1s1.3,1.8,1.3,3.3L239,46.3L239,46.3z M235.8,42v-0.5h-2c-1.3,0-1.9,0.4-1.9,1.2
			c0,0.4,0.1,0.7,0.5,0.9c0.3,0.2,0.7,0.3,1.3,0.3c0.6,0,1.1-0.2,1.5-0.5C235.6,43,235.8,42.6,235.8,42z"/>
		<path class="st0" d="M245,40v6.3h-3.1V35h3.1v1.3c1-1,2-1.4,3.2-1.4s2.2,0.4,3,1.3c0.8,0.8,1.2,2,1.2,3.4v6.7h-3.1v-6.4
			c0-1.7-0.6-2.6-1.9-2.6c-0.6,0-1.2,0.2-1.6,0.7C245.3,38.5,245,39.1,245,40z"/>
		<path class="st0" d="M260.7,43.7c1,0,2-0.5,2.8-1.6l1.9,2.1c-1.5,1.5-3,2.3-4.7,2.3s-3.1-0.5-4.3-1.6s-1.8-2.5-1.8-4.2
			s0.6-3.1,1.8-4.2s2.6-1.6,4.2-1.6c0.8,0,1.6,0.2,2.5,0.5s1.6,0.8,2.2,1.5l-1.6,2.1c-0.4-0.4-0.8-0.8-1.3-1s-1-0.4-1.6-0.4
			c-0.8,0-1.5,0.3-2.1,0.8s-0.9,1.3-0.9,2.2c0,1,0.3,1.7,0.9,2.2S259.9,43.7,260.7,43.7z"/>
		<path class="st0" d="M277.3,44.7c-1.3,1.2-2.8,1.8-4.5,1.8s-3.1-0.5-4.3-1.6c-1.1-1.1-1.7-2.5-1.7-4.3s0.6-3.2,1.7-4.2
			s2.5-1.6,4-1.6s2.9,0.5,4,1.4s1.6,2.2,1.6,3.9v1.7h-8.2c0.1,0.6,0.4,1.1,1,1.5c0.5,0.4,1.2,0.6,1.8,0.6c1.1,0,2-0.4,2.7-1.1
			L277.3,44.7z M274.3,38c-0.4-0.4-1-0.5-1.6-0.5s-1.2,0.2-1.7,0.6c-0.5,0.4-0.8,0.9-0.9,1.5h5C275,38.9,274.7,38.3,274.3,38z"/>
		<path class="st0" d="M286.4,37.8c-0.9,0-1.6,0.3-2.1,1s-0.7,1.5-0.7,2.6v4.9h-3.1V35h3.1v1.5c0.4-0.5,0.9-0.9,1.5-1.2
			s1.2-0.5,1.9-0.5v3H286.4L286.4,37.8z"/>
		<path class="st0" d="M304.5,38.8h3.3V44c-1.5,1.6-3.5,2.4-6,2.4c-2.2,0-4-0.7-5.4-2.1c-1.5-1.4-2.2-3.2-2.2-5.4s0.7-4,2.2-5.4
			s3.3-2.2,5.4-2.2s3.9,0.7,5.5,2.1l-1.7,2.5c-0.7-0.6-1.3-1-1.8-1.2c-0.6-0.2-1.2-0.3-1.8-0.3c-1.2,0-2.3,0.4-3.1,1.3
			c-0.9,0.8-1.3,2-1.3,3.3s0.4,2.5,1.2,3.3c0.8,0.8,1.8,1.2,2.9,1.2s2.1-0.2,2.8-0.7V38.8L304.5,38.8z"/>
		<path class="st0" d="M320.2,44.7c-1.3,1.2-2.8,1.8-4.5,1.8s-3.1-0.5-4.3-1.6c-1.1-1.1-1.7-2.5-1.7-4.3s0.6-3.2,1.7-4.2
			s2.5-1.6,4-1.6s2.9,0.5,4,1.4s1.6,2.2,1.6,3.9v1.7h-8.2c0.1,0.6,0.4,1.1,1,1.5c0.5,0.4,1.2,0.6,1.8,0.6c1.1,0,2-0.4,2.7-1.1
			L320.2,44.7z M317.2,38c-0.4-0.4-1-0.5-1.6-0.5s-1.2,0.2-1.7,0.6c-0.5,0.4-0.8,0.9-0.9,1.5h5C317.9,38.9,317.6,38.3,317.2,38z"/>
		<path class="st0" d="M326.5,40v6.3h-3.1V35h3.1v1.3c1-1,2-1.4,3.2-1.4s2.2,0.4,3,1.3c0.8,0.8,1.2,2,1.2,3.4v6.7h-3.1v-6.4
			c0-1.7-0.6-2.6-1.9-2.6c-0.6,0-1.2,0.2-1.6,0.7C326.8,38.5,326.5,39.1,326.5,40z"/>
		<path class="st0" d="M348.1,40.7c0,1.6-0.6,3-1.7,4.1s-2.6,1.7-4.3,1.7s-3.1-0.6-4.3-1.7s-1.7-2.5-1.7-4.1s0.6-3,1.7-4.1
			s2.6-1.7,4.3-1.7s3.1,0.6,4.3,1.7C347.5,37.7,348.1,39,348.1,40.7z M339.3,40.7c0,0.9,0.3,1.7,0.8,2.3s1.2,0.9,2,0.9
			s1.5-0.3,2-0.9s0.8-1.3,0.8-2.3c0-0.9-0.3-1.7-0.8-2.3s-1.2-0.9-2-0.9s-1.5,0.3-2,0.9C339.6,39,339.3,39.7,339.3,40.7z"/>
		<path class="st0" d="M360.8,40.2v6.1h-3.2v-6.2c0-0.9-0.1-1.6-0.4-2s-0.7-0.6-1.3-0.6s-1.1,0.2-1.6,0.7s-0.7,1.1-0.7,2v6.1h-3.1
			V35h3.1v1.3c0.9-1,1.9-1.5,3-1.5c0.7,0,1.4,0.2,1.9,0.6c0.6,0.4,1,0.9,1.3,1.5c0.4-0.7,1-1.2,1.8-1.6c0.7-0.4,1.5-0.6,2.2-0.6
			c1.3,0,2.4,0.4,3.2,1.2s1.2,1.9,1.2,3.4v7H365v-6.2c0-1.7-0.6-2.6-1.9-2.6c-0.6,0-1.2,0.2-1.6,0.7C361,38.7,360.8,39.3,360.8,40.2
			z"/>
		<path class="st0" d="M371.3,33.6c-0.4-0.4-0.5-0.8-0.5-1.3s0.2-1,0.5-1.3c0.4-0.4,0.8-0.5,1.3-0.5s1,0.2,1.3,0.5
			c0.4,0.4,0.5,0.8,0.5,1.3s-0.2,1-0.5,1.3c-0.4,0.4-0.8,0.5-1.3,0.5C372.1,34.1,371.7,33.9,371.3,33.6z M374.2,46.3h-3.1V35h3.1
			V46.3z"/>
		<path class="st0" d="M382.6,43.7c1,0,2-0.5,2.8-1.6l1.9,2.1c-1.5,1.5-3,2.3-4.7,2.3s-3.1-0.5-4.3-1.6s-1.8-2.5-1.8-4.2
			s0.6-3.1,1.8-4.2c1.2-1.1,2.6-1.6,4.2-1.6c0.8,0,1.6,0.2,2.5,0.5c0.8,0.3,1.6,0.8,2.2,1.5l-1.6,2.1c-0.4-0.4-0.8-0.8-1.3-1
			s-1-0.4-1.6-0.4c-0.8,0-1.5,0.3-2.1,0.8s-0.9,1.3-0.9,2.2c0,1,0.3,1.7,0.9,2.2S381.8,43.7,382.6,43.7z"/>
		<path class="st0" d="M397.9,42.8c0,1.1-0.4,2-1.2,2.7s-1.9,1-3.1,1c-0.8,0-1.7-0.2-2.6-0.5s-1.7-0.7-2.5-1.3l1.4-2
			c1.2,0.9,2.4,1.4,3.8,1.4c0.4,0,0.7-0.1,1-0.2c0.2-0.2,0.4-0.4,0.4-0.6c0-0.3-0.2-0.5-0.5-0.7s-0.8-0.4-1.4-0.6s-1.1-0.4-1.4-0.5
			s-0.7-0.3-1.1-0.6c-0.9-0.5-1.3-1.3-1.3-2.4s0.4-1.9,1.3-2.6s1.9-1,3.3-1s2.7,0.4,4,1.3l-1.2,2.1c-1-0.7-2-1-2.9-1
			c-1,0-1.5,0.3-1.5,0.8c0,0.3,0.2,0.5,0.5,0.7s0.8,0.4,1.5,0.6s1.2,0.4,1.5,0.5s0.7,0.3,1.1,0.6C397.5,40.9,397.9,41.7,397.9,42.8z
			"/>
	</g>
</g>
<g id="National_Cancer_Institute">
	<g>
		<path class="st1" d="M108.4,8.3h2.5v11.2h-2.5l-5.3-7v7h-2.6V8.3h2.3l5.5,7.2L108.4,8.3L108.4,8.3z"/>
		<path class="st1" d="M121.6,19.5l-1-2.4h-4.7l-1,2.4h-2.7L117,8.3h2.4l4.8,11.2H121.6L121.6,19.5z M118.2,11.6l-1.4,3.2h2.8
			L118.2,11.6z"/>
		<path class="st1" d="M129.4,10.5v9h-2.5v-9h-3.2V8.3h8.8v2.2H129.4z"/>
		<path class="st1" d="M134.4,8.3h2.5v11.2h-2.5V8.3z"/>
		<path class="st1" d="M149.1,17.9c-1.1,1.1-2.5,1.7-4.2,1.7s-3-0.6-4.2-1.7c-1.1-1.1-1.7-2.5-1.7-4.1s0.6-3,1.7-4.1
			c1.1-1.1,2.5-1.7,4.2-1.7s3,0.6,4.2,1.7c1.1,1.1,1.7,2.5,1.7,4.1S150.2,16.8,149.1,17.9z M148.2,13.8c0-1-0.3-1.8-1-2.6
			s-1.4-1.1-2.4-1.1c-0.9,0-1.7,0.4-2.4,1.1s-1,1.6-1,2.6s0.3,1.8,1,2.5c0.6,0.7,1.4,1,2.4,1s1.7-0.3,2.4-1
			C147.9,15.7,148.2,14.8,148.2,13.8z"/>
		<path class="st1" d="M160.7,8.3h2.5v11.2h-2.5l-5.3-7v7h-2.5V8.3h2.3l5.5,7.2V8.3z"/>
		<path class="st1" d="M173.9,19.5l-1-2.4h-4.7l-1,2.4h-2.7l4.8-11.2h2.4l4.8,11.2H173.9L173.9,19.5z M170.6,11.6l-1.4,3.2h2.8
			L170.6,11.6z"/>
		<path class="st1" d="M177.9,19.5V8.3h2.5v9h4.8v2.2H177.9L177.9,19.5z"/>
		<path class="st1" d="M196.3,17.3c1.2,0,2.2-0.5,3-1.5l1.6,1.6c-1.3,1.4-2.8,2.1-4.5,2.1s-3.1-0.5-4.3-1.6s-1.7-2.5-1.7-4.1
			c0-1.7,0.6-3,1.7-4.2c1.1-1.1,2.5-1.7,4.2-1.7c1.8,0,3.4,0.7,4.6,2.1l-1.6,1.8c-0.8-1-1.8-1.5-2.9-1.5c-0.9,0-1.7,0.3-2.4,0.9
			s-1,1.4-1,2.5s0.3,1.9,0.9,2.5C194.7,17,195.4,17.3,196.3,17.3z"/>
		<path class="st1" d="M210.8,19.5l-1-2.4h-4.7l-1,2.4h-2.7l4.8-11.2h2.4l4.8,11.2H210.8L210.8,19.5z M207.4,11.6l-1.4,3.2h2.8
			L207.4,11.6z"/>
		<path class="st1" d="M222.6,8.3h2.5v11.2h-2.5l-5.3-7v7h-2.5V8.3h2.3l5.5,7.2V8.3z"/>
		<path class="st1" d="M233,17.3c1.2,0,2.2-0.5,3-1.5l1.6,1.6c-1.3,1.4-2.8,2.1-4.5,2.1s-3.1-0.5-4.3-1.6s-1.7-2.5-1.7-4.1
			c0-1.7,0.6-3,1.7-4.2c1.1-1.1,2.5-1.7,4.2-1.7c1.8,0,3.4,0.7,4.6,2.1l-1.6,1.8c-0.8-1-1.8-1.5-2.9-1.5c-0.9,0-1.7,0.3-2.4,0.9
			s-1,1.4-1,2.5s0.3,1.9,0.9,2.5C231.3,17,232.1,17.3,233,17.3z"/>
		<path class="st1" d="M247.6,8.3v2.2H242v2.3h5v2.1h-5v2.4h5.7v2.2h-8.2V8.3H247.6z"/>
		<path class="st1" d="M259.1,12c0,1.8-0.7,2.9-2.1,3.5l2.8,4h-3.1l-2.5-3.6h-1.7v3.6H250V8.3h4.2c1.7,0,3,0.3,3.7,0.9
			S259.1,10.7,259.1,12z M256.1,13.3c0.3-0.3,0.5-0.7,0.5-1.3s-0.2-1-0.5-1.2s-0.9-0.3-1.7-0.3h-1.9v3.3h1.8
			C255.2,13.8,255.8,13.6,256.1,13.3z"/>
		<path class="st1" d="M265.9,8.3h2.5v11.2h-2.5V8.3z"/>
		<path class="st1" d="M278.9,8.3h2.5v11.2h-2.5l-5.3-7v7h-2.5V8.3h2.3l5.5,7.2V8.3z"/>
		<path class="st1" d="M286.8,10.5c-0.2,0.2-0.4,0.5-0.4,0.8s0.1,0.6,0.4,0.8s1,0.4,2,0.7s1.9,0.7,2.5,1.2s0.9,1.3,0.9,2.3
			s-0.4,1.8-1.1,2.4s-1.7,0.9-3,0.9c-1.8,0-3.4-0.7-4.8-2l1.5-1.8c1.2,1.1,2.3,1.6,3.3,1.6c0.5,0,0.8-0.1,1.1-0.3s0.4-0.5,0.4-0.8
			s-0.1-0.6-0.4-0.8s-0.8-0.4-1.6-0.6c-1.3-0.3-2.3-0.7-2.9-1.2s-0.9-1.3-0.9-2.3s0.4-1.9,1.1-2.5c0.8-0.6,1.7-0.9,2.9-0.9
			c0.7,0,1.5,0.1,2.2,0.4s1.4,0.6,2,1.1l-1.3,1.8c-1-0.7-2-1.1-3-1.1C287.4,10.2,287,10.3,286.8,10.5z"/>
		<path class="st1" d="M299,10.5v9h-2.5v-9h-3.2V8.3h8.8v2.2H299z"/>
		<path class="st1" d="M304,8.3h2.5v11.2H304V8.3z"/>
		<path class="st1" d="M314,10.5v9h-2.5v-9h-3.2V8.3h8.8v2.2H314z"/>
		<path class="st1" d="M322,16.6c0.4,0.5,1,0.8,1.7,0.8s1.3-0.3,1.7-0.8s0.6-1.2,0.6-2.1V8.3h2.5v6.3c0,1.6-0.4,2.9-1.3,3.7
			c-0.9,0.9-2,1.3-3.4,1.3s-2.5-0.4-3.4-1.3s-1.4-2.1-1.4-3.7V8.3h2.5v6.2C321.3,15.4,321.5,16.1,322,16.6z"/>
		<path class="st1" d="M335.7,10.5v9h-2.5v-9H330V8.3h8.8v2.2H335.7z"/>
		<path class="st1" d="M348.8,8.3v2.2h-5.6v2.3h5v2.1h-5v2.4h5.7v2.2h-8.2V8.3H348.8z"/>
	</g>
</g>
<g id="Luggage_Tag">
	<g>
		<path class="st0" d="M75.5,27.3l-15-27H6.3c-3.2,0-5.8,2.6-5.8,5.8v42.4c0,3.2,2.6,5.8,5.8,5.8h54.2L75.5,27.3z"/>
		<path class="st1" d="M74,3.1c-1.1-1.7-3-2.8-5-2.8h-4.5l15.2,27l-15.2,27H69c2.1,0,4-1.1,5-2.8l13.5-24.2L74,3.1z"/>
	</g>
	<g>
		<rect x="32.5" y="15.3" class="st2" width="4" height="24"/>
		<polygon class="st2" points="24.5,15.3 24.5,32.9 13.5,15.3 9.5,15.3 9.5,39.3 13.5,39.3 13.5,21.7 24.5,39.3 28.5,39.3 
			28.5,15.3 		"/>
		<polygon class="st2" points="55.5,15.3 55.5,25.3 44.5,25.3 44.5,15.3 40.5,15.3 40.5,39.3 44.5,39.3 44.5,29.3 55.5,29.3 
			55.5,39.3 59.5,39.3 59.5,15.3 		"/>
	</g>
</g>
</svg>
