<?xml version="1.0" encoding="utf-8"?>
<!-- Generator: Adobe Illustrator 24.0.1, SVG Export Plug-In . SVG Version: 6.00 Build 0)  -->
<svg version="1.1" id="Layer_1" xmlns="http://www.w3.org/2000/svg" xmlns:xlink="http://www.w3.org/1999/xlink" x="0px" y="0px"
	 viewBox="0 0 471.1 54" style="enable-background:new 0 0 471.1 54;" xml:space="preserve">
<style type="text/css">
	.st0{fill:#606061;}
	.st1{fill:#BA1F40;}
	.st2{fill:#FFFFFF;}
	.st3{enable-background:new    ;}
	.st4{fill:#606060;}
	.st5{fill:#BB0E3D;}
</style>
<g>
	<g>
		<g>
			<path class="st0" d="M75,27L60,0H5.8C2.6,0,0,2.6,0,5.8v42.4C0,51.4,2.6,54,5.8,54H60L75,27z"/>
			<path class="st1" d="M73.5,2.8c-1.1-1.7-3-2.8-5-2.8H64l15.2,27L64,54h4.5c2.1,0,4-1.1,5-2.8L87,27L73.5,2.8z"/>
		</g>
		<g>
			<rect x="32" y="15" class="st2" width="4" height="24"/>
			<polygon class="st2" points="24,15 24,32.6 13,15 9,15 9,39 13,39 13,21.4 24,39 28,39 28,15 			"/>
			<polygon class="st2" points="55,15 55,25 44,25 44,15 40,15 40,39 44,39 44,29 55,29 55,39 59,39 59,15 			"/>
		</g>
	</g>
	<g class="st3">
		<path class="st4" d="M106.6,43c1.6,0,2.9-0.6,3.9-1.9l2.1,2.2c-1.7,1.9-3.6,2.8-5.9,2.8c-2.3,0-4.1-0.7-5.6-2.1s-2.2-3.2-2.2-5.4
			s0.7-4,2.2-5.4c1.5-1.5,3.3-2.2,5.5-2.2c2.4,0,4.4,0.9,6,2.8l-2,2.3c-1-1.3-2.3-1.9-3.9-1.9c-1.2,0-2.3,0.4-3.2,1.2
			c-0.9,0.8-1.3,1.9-1.3,3.3c0,1.4,0.4,2.5,1.2,3.3S105.4,43,106.6,43z"/>
		<path class="st4" d="M124.7,44.3c-1.3,1.2-2.8,1.8-4.5,1.8s-3.1-0.5-4.3-1.6c-1.1-1.1-1.7-2.5-1.7-4.3s0.6-3.2,1.7-4.2
			s2.5-1.6,4-1.6c1.6,0,2.9,0.5,4,1.4s1.6,2.2,1.6,3.9v1.7h-8.2c0.1,0.6,0.4,1.1,1,1.5c0.5,0.4,1.2,0.6,1.8,0.6c1.1,0,2-0.4,2.7-1.1
			L124.7,44.3z M121.6,37.6c-0.4-0.4-1-0.5-1.6-0.5s-1.2,0.2-1.7,0.6c-0.5,0.4-0.8,0.9-0.9,1.5h5C122.3,38.5,122.1,38,121.6,37.6z"
			/>
		<path class="st4" d="M131,39.6v6.3h-3.1V34.6h3.1v1.3c1-1,2-1.4,3.2-1.4s2.2,0.4,3,1.3c0.8,0.8,1.2,2,1.2,3.4v6.9h-3.2v-6.4
			c0-1.7-0.6-2.6-1.9-2.6c-0.6,0-1.2,0.2-1.6,0.7C131.2,38.1,131,38.8,131,39.6z"/>
		<path class="st4" d="M144.9,36.9V42c0,0.4,0.1,0.8,0.3,1s0.5,0.4,0.8,0.4c0.6,0,1.1-0.3,1.5-0.8l1.2,2.2c-1,0.9-2,1.3-3.1,1.3
			s-2-0.4-2.8-1.1c-0.7-0.7-1.1-1.7-1.1-2.9v-5.2h-1.3v-2.3h1.3v-3.4h3.2v3.4h2.7v2.3C147.6,36.9,144.9,36.9,144.9,36.9z"/>
		<path class="st4" d="M156.3,37.4c-0.9,0-1.6,0.3-2.1,1s-0.7,1.5-0.7,2.6v4.9h-3.1V34.6h3.1v1.5c0.4-0.5,0.9-0.9,1.5-1.2
			s1.2-0.5,1.9-0.5v3C156.9,37.4,156.3,37.4,156.3,37.4z"/>
		<path class="st4" d="M170.1,40.3c0,1.6-0.6,3-1.7,4.1c-1.1,1.1-2.6,1.7-4.3,1.7s-3.1-0.6-4.3-1.7s-1.7-2.5-1.7-4.1s0.6-3,1.7-4.1
			c1.1-1.1,2.6-1.7,4.3-1.7s3.1,0.6,4.3,1.7C169.5,37.3,170.1,38.7,170.1,40.3z M161.3,40.3c0,0.9,0.3,1.7,0.8,2.3s1.2,0.9,2,0.9
			s1.5-0.3,2-0.9s0.8-1.3,0.8-2.3c0-0.9-0.3-1.7-0.8-2.3s-1.2-0.9-2-0.9s-1.5,0.3-2,0.9C161.6,38.6,161.3,39.4,161.3,40.3z"/>
		<path class="st4" d="M182.5,46.1c-1.3,0-2.5-0.6-3.6-1.7s-1.6-2.5-1.6-4.2s0.5-3.1,1.5-4.1c1-1.1,2.2-1.6,3.6-1.6s2.5,0.5,3.4,1.4
			v-5.5h3.1V46h-3.1v-1.5C185,45.6,183.9,46.1,182.5,46.1z M180.5,40.3c0,0.9,0.3,1.7,0.8,2.2s1.2,0.9,1.9,0.9s1.3-0.3,1.9-0.9
			c0.5-0.6,0.8-1.3,0.8-2.2s-0.3-1.7-0.8-2.3s-1.1-0.9-1.9-0.9c-0.7,0-1.4,0.3-1.9,0.9C180.8,38.6,180.5,39.4,180.5,40.3z"/>
		<path class="st4" d="M201.8,44.3c-1.3,1.2-2.8,1.8-4.5,1.8s-3.1-0.5-4.3-1.6c-1.1-1.1-1.7-2.5-1.7-4.3s0.6-3.2,1.7-4.2
			s2.5-1.6,4-1.6c1.6,0,2.9,0.5,4,1.4s1.6,2.2,1.6,3.9v1.7h-8.2c0.1,0.6,0.4,1.1,1,1.5c0.5,0.4,1.2,0.6,1.8,0.6c1.1,0,2-0.4,2.7-1.1
			L201.8,44.3z M198.7,37.6c-0.4-0.4-1-0.5-1.6-0.5s-1.2,0.2-1.7,0.6c-0.5,0.4-0.8,0.9-0.9,1.5h5C199.4,38.5,199.2,38,198.7,37.6z"
			/>
		<path class="st4" d="M210.8,31.3h3.3V46h-3.3V31.3z"/>
		<path class="st4" d="M220.4,39.6v6.3h-3.1V34.6h3.1v1.3c1-1,2-1.4,3.2-1.4s2.2,0.4,3,1.3c0.8,0.8,1.2,2,1.2,3.4v6.9h-3.2v-6.4
			c0-1.7-0.6-2.6-1.9-2.6c-0.6,0-1.2,0.2-1.6,0.7C220.7,38.1,220.4,38.8,220.4,39.6z"/>
		<path class="st4" d="M233.6,45.9l-4.5-11.3h3.3l2.8,7.1l2.8-7.1h3.3l-4.5,11.3C236.8,45.9,233.6,45.9,233.6,45.9z"/>
		<path class="st4" d="M252.6,44.3c-1.3,1.2-2.8,1.8-4.5,1.8s-3.1-0.5-4.3-1.6c-1.1-1.1-1.7-2.5-1.7-4.3s0.6-3.2,1.7-4.2
			s2.5-1.6,4-1.6s2.9,0.5,4,1.4s1.6,2.2,1.6,3.9v1.7h-8.2c0.1,0.6,0.4,1.1,1,1.5c0.5,0.4,1.2,0.6,1.8,0.6c1.1,0,2-0.4,2.7-1.1
			L252.6,44.3z M249.6,37.6c-0.4-0.4-1-0.5-1.6-0.5s-1.2,0.2-1.7,0.6s-0.8,0.9-0.9,1.5h5C250.3,38.5,250,38,249.6,37.6z"/>
		<path class="st4" d="M264.3,42.4c0,1.1-0.4,2-1.2,2.7s-1.9,1-3.1,1c-0.8,0-1.7-0.2-2.6-0.5s-1.7-0.7-2.5-1.3l1.4-2
			c1.2,0.9,2.4,1.4,3.8,1.4c0.4,0,0.7-0.1,1-0.2c0.2-0.2,0.4-0.4,0.4-0.6c0-0.3-0.2-0.5-0.5-0.7s-0.8-0.4-1.4-0.6s-1.1-0.4-1.4-0.5
			s-0.7-0.3-1.1-0.6c-0.9-0.5-1.3-1.3-1.3-2.4s0.4-1.9,1.3-2.6s1.9-1,3.3-1s2.7,0.4,4,1.3l-1.2,2.1c-1-0.7-2-1-2.9-1
			c-1,0-1.5,0.3-1.5,0.8c0,0.3,0.2,0.5,0.5,0.7s0.8,0.4,1.5,0.6s1.2,0.4,1.5,0.5s0.7,0.3,1.1,0.6C263.9,40.5,264.3,41.3,264.3,42.4z
			"/>
		<path class="st4" d="M270.4,36.9V42c0,0.4,0.1,0.8,0.3,1c0.2,0.2,0.5,0.4,0.8,0.4c0.6,0,1.1-0.3,1.5-0.8l1.2,2.2
			c-1,0.9-2,1.3-3.1,1.3s-2-0.4-2.8-1.1s-1.1-1.7-1.1-2.9v-5.2h-1.3v-2.3h1.3v-3.4h3.2v3.4h2.7v2.3
			C273.1,36.9,270.4,36.9,270.4,36.9z"/>
		<path class="st4" d="M276.1,33.2c-0.4-0.4-0.5-0.8-0.5-1.3s0.2-1,0.5-1.3c0.4-0.4,0.8-0.5,1.3-0.5s1,0.2,1.3,0.5
			c0.4,0.4,0.5,0.8,0.5,1.3s-0.2,1-0.5,1.3c-0.4,0.4-0.8,0.5-1.3,0.5S276.5,33.6,276.1,33.2z M279,45.9h-3.2V34.6h3.2V45.9z"/>
		<path class="st4" d="M290.4,44c-1,1.1-2.2,1.7-3.7,1.7s-2.7-0.5-3.7-1.5s-1.5-2.3-1.5-4s0.5-3,1.6-4.1c1-1.1,2.2-1.6,3.6-1.6
			s2.5,0.6,3.3,1.7v-1.5h3.1v9.8c0,1-0.2,1.9-0.5,2.7c-0.4,0.8-0.8,1.4-1.4,1.8c-1.2,0.9-2.5,1.4-4.1,1.4c-0.8,0-1.7-0.1-2.6-0.4
			s-1.6-0.7-2.3-1.2l1.2-2.4c1,0.8,2.1,1.2,3.3,1.2c1.2,0,2.1-0.3,2.7-0.9C290,46.2,290.4,45.3,290.4,44z M289.9,40.1
			c0-0.9-0.3-1.6-0.8-2.1s-1.1-0.8-1.9-0.8s-1.4,0.3-1.9,0.8s-0.8,1.2-0.8,2.1c0,0.9,0.3,1.6,0.8,2.2s1.2,0.8,1.9,0.8
			c0.8,0,1.4-0.3,1.9-0.8S289.9,41,289.9,40.1z"/>
		<path class="st4" d="M305.6,45.9h-3v-1.4c-0.8,1-1.8,1.5-3,1.5s-2.2-0.3-3-1s-1.2-1.6-1.2-2.8s0.4-2,1.3-2.6
			c0.8-0.6,2-0.9,3.4-0.9h2.4v-0.1c0-1.2-0.6-1.8-1.9-1.8c-0.5,0-1.1,0.1-1.7,0.3s-1.1,0.5-1.5,0.8l-1.4-2c1.5-1.1,3.2-1.6,5.1-1.6
			c1.4,0,2.5,0.3,3.4,1s1.3,1.8,1.3,3.3v7.3H305.6z M302.4,41.6v-0.5h-2c-1.3,0-1.9,0.4-1.9,1.2c0,0.4,0.2,0.7,0.5,0.9
			s0.7,0.3,1.3,0.3c0.6,0,1.1-0.2,1.5-0.5C302.2,42.7,302.4,42.2,302.4,41.6z"/>
		<path class="st4" d="M313.9,43.3c1,0,2-0.5,2.8-1.6l1.9,2.1c-1.5,1.5-3,2.3-4.7,2.3s-3.1-0.5-4.3-1.6c-1.2-1.1-1.8-2.5-1.8-4.2
			s0.6-3.1,1.8-4.2s2.6-1.6,4.2-1.6c0.8,0,1.6,0.2,2.5,0.5c0.8,0.3,1.6,0.8,2.2,1.5l-1.6,2.1c-0.4-0.4-0.8-0.8-1.3-1s-1-0.4-1.6-0.4
			c-0.8,0-1.5,0.3-2.1,0.8s-0.9,1.3-0.9,2.2s0.3,1.7,0.9,2.2S313.1,43.3,313.9,43.3z"/>
		<path class="st4" d="M321,33.2c-0.4-0.4-0.5-0.8-0.5-1.3s0.2-1,0.5-1.3c0.4-0.4,0.8-0.5,1.3-0.5s1,0.2,1.3,0.5
			c0.4,0.4,0.5,0.8,0.5,1.3s-0.2,1-0.5,1.3c-0.4,0.4-0.8,0.5-1.3,0.5S321.3,33.6,321,33.2z M323.9,45.9h-3.1V34.6h3.1V45.9z"/>
		<path class="st4" d="M338.1,40.3c0,1.6-0.6,3-1.7,4.1s-2.6,1.7-4.3,1.7s-3.1-0.6-4.3-1.7s-1.7-2.5-1.7-4.1s0.6-3,1.7-4.1
			s2.6-1.7,4.3-1.7s3.1,0.6,4.3,1.7C337.6,37.3,338.1,38.7,338.1,40.3z M329.4,40.3c0,0.9,0.3,1.7,0.8,2.3s1.2,0.9,2,0.9
			s1.5-0.3,2-0.9s0.8-1.3,0.8-2.3c0-0.9-0.3-1.7-0.8-2.3s-1.2-0.9-2-0.9s-1.5,0.3-2,0.9C329.6,38.6,329.4,39.4,329.4,40.3z
			 M333.3,33.1h-3l2.7-3.7l3.3,1.4L333.3,33.1z"/>
		<path class="st4" d="M343.6,39.6v6.3h-3.2V34.6h3.2v1.3c1-1,2-1.4,3.2-1.4s2.2,0.4,3,1.3c0.8,0.8,1.2,2,1.2,3.4v6.9h-3.2v-6.4
			c0-1.7-0.6-2.6-1.9-2.6c-0.6,0-1.2,0.2-1.6,0.7S343.6,38.8,343.6,39.6z"/>
		<path class="st4" d="M363.9,46.1c-1.3,0-2.5-0.6-3.6-1.7s-1.6-2.5-1.6-4.2s0.5-3.1,1.5-4.1c1-1.1,2.2-1.6,3.6-1.6s2.5,0.5,3.4,1.4
			v-5.5h3.2V46h-3.2v-1.5C366.4,45.6,365.3,46.1,363.9,46.1z M361.9,40.3c0,0.9,0.3,1.7,0.8,2.2c0.5,0.6,1.2,0.9,1.9,0.9
			c0.7,0,1.3-0.3,1.9-0.9c0.5-0.6,0.8-1.3,0.8-2.2s-0.3-1.7-0.8-2.3s-1.1-0.9-1.9-0.9s-1.4,0.3-1.9,0.9S361.9,39.4,361.9,40.3z"/>
		<path class="st4" d="M383.2,44.3c-1.3,1.2-2.8,1.8-4.5,1.8s-3.1-0.5-4.3-1.6c-1.1-1.1-1.7-2.5-1.7-4.3s0.6-3.2,1.7-4.2
			s2.5-1.6,4-1.6c1.6,0,2.9,0.5,4,1.4s1.6,2.2,1.6,3.9v1.7h-8.2c0.1,0.6,0.4,1.1,1,1.5c0.5,0.4,1.2,0.6,1.8,0.6c1.1,0,2-0.4,2.7-1.1
			L383.2,44.3z M380.2,37.6c-0.4-0.4-1-0.5-1.6-0.5s-1.2,0.2-1.7,0.6c-0.5,0.4-0.8,0.9-0.9,1.5h5C380.8,38.5,380.6,38,380.2,37.6z"
			/>
		<path class="st4" d="M389.5,45.9h-3.1V30.4h3.1V45.9z"/>
		<path class="st4" d="M405.1,43c1.6,0,2.9-0.6,3.9-1.9l2.1,2.2c-1.7,1.9-3.6,2.8-5.9,2.8s-4.1-0.7-5.6-2.1s-2.2-3.2-2.2-5.4
			s0.7-4,2.2-5.4c1.5-1.5,3.3-2.2,5.5-2.2c2.4,0,4.4,0.9,6,2.8l-2,2.3c-1-1.3-2.3-1.9-3.9-1.9c-1.2,0-2.3,0.4-3.2,1.2
			c-0.9,0.8-1.3,1.9-1.3,3.3c0,1.4,0.4,2.5,1.2,3.3S403.9,43,405.1,43z"/>
		<path class="st4" d="M423,45.9h-3v-1.4c-0.8,1-1.8,1.5-3,1.5s-2.2-0.3-3-1s-1.2-1.6-1.2-2.8s0.4-2,1.3-2.6c0.8-0.6,2-0.9,3.4-0.9
			h2.4v-0.1c0-1.2-0.6-1.8-1.9-1.8c-0.5,0-1.1,0.1-1.7,0.3s-1.1,0.5-1.5,0.8l-1.4-2c1.5-1.1,3.2-1.6,5.1-1.6c1.4,0,2.5,0.3,3.4,1
			s1.3,1.8,1.3,3.3v7.3H423z M419.8,41.6v-0.5h-2c-1.3,0-1.9,0.4-1.9,1.2c0,0.4,0.1,0.7,0.5,0.9c0.3,0.2,0.7,0.3,1.3,0.3
			c0.6,0,1.1-0.2,1.5-0.5C419.6,42.7,419.8,42.2,419.8,41.6z M419.2,33.1h-3l2.7-3.7l3.3,1.4L419.2,33.1z"/>
		<path class="st4" d="M429,39.6v6.3h-3.2V34.6h3.2v1.3c1-1,2-1.4,3.2-1.4s2.2,0.4,3,1.3c0.8,0.8,1.2,2,1.2,3.4v6.9h-3.2v-6.4
			c0-1.7-0.6-2.6-1.9-2.6c-0.6,0-1.2,0.2-1.6,0.7S429,38.8,429,39.6z"/>
		<path class="st4" d="M444.7,43.3c1,0,2-0.5,2.8-1.6l1.9,2.1c-1.5,1.5-3,2.3-4.7,2.3s-3.1-0.5-4.3-1.6s-1.8-2.5-1.8-4.2
			s0.6-3.1,1.8-4.2c1.2-1.1,2.6-1.6,4.2-1.6c0.8,0,1.6,0.2,2.5,0.5s1.6,0.8,2.2,1.5l-1.6,2.1c-0.4-0.4-0.8-0.8-1.3-1s-1-0.4-1.6-0.4
			c-0.8,0-1.5,0.3-2.1,0.8s-0.9,1.3-0.9,2.2s0.3,1.7,0.9,2.2C443.2,43.1,443.9,43.3,444.7,43.3z"/>
		<path class="st4" d="M461.3,44.3c-1.3,1.2-2.8,1.8-4.5,1.8s-3.1-0.5-4.3-1.6c-1.1-1.1-1.7-2.5-1.7-4.3s0.6-3.2,1.7-4.2
			s2.5-1.6,4-1.6c1.6,0,2.9,0.5,4,1.4s1.6,2.2,1.6,3.9v1.7H454c0.1,0.6,0.4,1.1,1,1.5c0.5,0.4,1.2,0.6,1.8,0.6c1.1,0,2-0.4,2.7-1.1
			L461.3,44.3z M458.3,37.6c-0.4-0.4-1-0.5-1.6-0.5s-1.2,0.2-1.7,0.6s-0.8,0.9-0.9,1.5h5C459,38.5,458.7,38,458.3,37.6z"/>
		<path class="st4" d="M470.5,37.4c-0.9,0-1.6,0.3-2.1,1s-0.7,1.5-0.7,2.6v4.9h-3.2V34.6h3.2v1.5c0.4-0.5,0.9-0.9,1.5-1.2
			s1.2-0.5,1.9-0.5v3C471.1,37.4,470.5,37.4,470.5,37.4z"/>
	</g>
	<g>
		<g class="st3">
			<path class="st5" d="M100,8h2.5v11.2H100V8z"/>
			<path class="st5" d="M113.1,8h2.5v11.2h-2.5l-5.3-7v7h-2.5V8h2.3l5.5,7.2V8z"/>
		</g>
		<g class="st3">
			<path class="st5" d="M120.9,10.2c-0.2,0.2-0.4,0.5-0.4,0.8s0.1,0.6,0.4,0.8c0.3,0.2,1,0.4,2,0.7c1.1,0.3,1.9,0.7,2.5,1.2
				s0.9,1.3,0.9,2.3s-0.4,1.8-1.1,2.4s-1.7,0.9-3,0.9c-1.8,0-3.4-0.7-4.8-2l1.5-1.8c1.2,1.1,2.3,1.6,3.3,1.6c0.5,0,0.8-0.1,1.1-0.3
				s0.4-0.5,0.4-0.8s-0.1-0.6-0.4-0.8s-0.8-0.4-1.6-0.6c-1.3-0.3-2.3-0.7-2.9-1.2s-0.9-1.3-0.9-2.3c0-1.1,0.4-1.9,1.1-2.5
				c0.8-0.6,1.7-0.9,2.9-0.9c0.7,0,1.5,0.1,2.2,0.4s1.4,0.6,2,1.1l-1.3,1.8c-1-0.7-2-1.1-3-1.1C121.5,9.9,121.2,10,120.9,10.2z"/>
		</g>
		<g class="st3">
			<path class="st5" d="M133.2,10.2v9h-2.5v-9h-3.2V8h8.8v2.2H133.2z"/>
			<path class="st5" d="M138.2,8h2.5v11.2h-2.5V8z"/>
			<path class="st5" d="M148.1,10.2v9h-2.5v-9h-3.2V8h8.8v2.2H148.1z"/>
			<path class="st5" d="M156.1,16.3c0.4,0.5,1,0.8,1.7,0.8s1.3-0.3,1.7-0.8s0.6-1.2,0.6-2.1V8h2.5v6.3c0,1.6-0.4,2.9-1.3,3.7
				c-0.9,0.9-2,1.3-3.4,1.3s-2.5-0.4-3.4-1.3c-0.9-0.9-1.4-2.1-1.4-3.7V8h2.5v6.2C155.5,15.1,155.7,15.8,156.1,16.3z"/>
		</g>
		<g class="st3">
			<path class="st5" d="M169.9,10.2v9h-2.5v-9h-3.2V8h8.8v2.2H169.9z"/>
		</g>
		<g class="st3">
			<path class="st5" d="M184,17.7c-1.1,1.1-2.5,1.7-4.2,1.7s-3-0.6-4.2-1.7c-1.1-1.1-1.7-2.5-1.7-4.1s0.6-3,1.7-4.1
				c1.1-1.1,2.5-1.7,4.2-1.7s3,0.6,4.2,1.7c1.1,1.1,1.7,2.5,1.7,4.1S185.1,16.5,184,17.7z M183.2,13.5c0-1-0.3-1.8-1-2.6
				c-0.6-0.7-1.4-1.1-2.4-1.1c-0.9,0-1.7,0.4-2.4,1.1s-1,1.6-1,2.6s0.3,1.8,1,2.5s1.4,1,2.4,1c0.9,0,1.7-0.3,2.4-1
				C182.8,15.4,183.2,14.5,183.2,13.5z"/>
			<path class="st5" d="M199.9,8h2.5v11.2h-2.5l-5.3-7v7H192V8h2.3l5.5,7.2L199.9,8L199.9,8z"/>
			<path class="st5" d="M213.1,19.2l-1-2.4h-4.7l-1,2.4h-2.7L208.5,8h2.4l4.8,11.2H213.1z M209.7,11.3l-1.4,3.2h2.8L209.7,11.3z"/>
			<path class="st5" d="M222.2,17c1.2,0,2.2-0.5,3-1.5l1.6,1.6c-1.3,1.4-2.8,2.1-4.5,2.1s-3.1-0.5-4.3-1.6s-1.7-2.5-1.7-4.1
				s0.6-3,1.7-4.2s2.5-1.7,4.2-1.7c1.8,0,3.4,0.7,4.6,2.1l-1.6,1.8c-0.8-1-1.8-1.5-2.9-1.5c-0.9,0-1.7,0.3-2.4,0.9s-1,1.4-1,2.5
				s0.3,1.9,0.9,2.5S221.3,17,222.2,17z"/>
			<path class="st5" d="M228.7,8h2.5v11.2h-2.5V8z"/>
			<path class="st5" d="M243.4,17.7c-1.1,1.1-2.5,1.7-4.2,1.7s-3-0.6-4.2-1.7c-1.1-1.1-1.7-2.5-1.7-4.1s0.6-3,1.7-4.1
				c1.1-1.1,2.5-1.7,4.2-1.7s3,0.6,4.2,1.7c1.1,1.1,1.7,2.5,1.7,4.1S244.5,16.5,243.4,17.7z M242.5,13.5c0-1-0.3-1.8-1-2.6
				c-0.6-0.7-1.4-1.1-2.4-1.1s-1.7,0.4-2.4,1.1c-0.6,0.7-1,1.6-1,2.6s0.3,1.8,1,2.5c0.6,0.7,1.4,1,2.4,1s1.7-0.3,2.4-1
				C242.2,15.4,242.5,14.5,242.5,13.5z"/>
			<path class="st5" d="M255,8h2.5v11.2H255l-5.3-7v7h-2.5V8h2.3l5.5,7.2V8z"/>
			<path class="st5" d="M268.2,19.2l-1-2.4h-4.7l-1,2.4h-2.7L263.6,8h2.4l4.8,11.2H268.2z M264.9,11.3l-1.4,3.2h2.8L264.9,11.3z"/>
			<path class="st5" d="M272.2,19.2V8h2.5v9h4.8v2.2H272.2z"/>
			<path class="st5" d="M294,9.5c1.1,1,1.6,2.3,1.6,4.1c0,1.7-0.5,3.1-1.6,4.1c-1,1-2.6,1.5-4.8,1.5h-3.8V8h4
				C291.4,8,293,8.5,294,9.5z M292.2,16.1c0.6-0.6,0.9-1.4,0.9-2.5s-0.3-1.9-0.9-2.5s-1.6-0.9-2.8-0.9H288V17h1.6
				C290.7,17,291.6,16.7,292.2,16.1z"/>
			<path class="st5" d="M305.9,8v2.2h-5.6v2.3h5v2.1h-5V17h5.7v2.2h-8.2V8H305.9z"/>
			<path class="st5" d="M308.3,19.2V8h2.5v9h4.8v2.2H308.3z"/>
			<path class="st5" d="M326.7,17c1.2,0,2.2-0.5,3-1.5l1.6,1.6c-1.3,1.4-2.8,2.1-4.5,2.1s-3.1-0.5-4.3-1.6s-1.7-2.5-1.7-4.1
				s0.6-3,1.7-4.2s2.5-1.7,4.2-1.7c1.8,0,3.4,0.7,4.6,2.1l-1.6,1.8c-0.8-1-1.8-1.5-2.9-1.5c-0.9,0-1.7,0.3-2.4,0.9
				c-0.7,0.6-1,1.4-1,2.5s0.3,1.9,0.9,2.5C325,16.7,325.8,17,326.7,17z"/>
			<path class="st5" d="M341.2,19.2l-1-2.4h-4.7l-1,2.4h-2.7L336.6,8h2.4l4.8,11.2H341.2z M337.9,11.3l-1.4,3.2h2.8L337.9,11.3z
				 M338.9,6.9h-2.3l2-2.8l2.5,1L338.9,6.9z"/>
			<path class="st5" d="M353,8h2.5v11.2H353l-5.3-7v7h-2.5V8h2.3l5.5,7.2V8z"/>
			<path class="st5" d="M363.4,17c1.2,0,2.2-0.5,3-1.5l1.6,1.6c-1.3,1.4-2.8,2.1-4.5,2.1s-3.1-0.5-4.3-1.6s-1.7-2.5-1.7-4.1
				s0.6-3,1.7-4.2s2.5-1.7,4.2-1.7c1.8,0,3.4,0.7,4.6,2.1l-1.6,1.8c-0.8-1-1.8-1.5-2.9-1.5c-0.9,0-1.7,0.3-2.4,0.9
				c-0.7,0.6-1,1.4-1,2.5s0.3,1.9,0.9,2.5C361.7,16.7,362.5,17,363.4,17z"/>
			<path class="st5" d="M378,8v2.2h-5.6v2.3h5v2.1h-5V17h5.7v2.2H370V8H378z"/>
			<path class="st5" d="M389.5,11.7c0,1.8-0.7,2.9-2.1,3.5l2.8,4h-3.1l-2.5-3.6h-1.7v3.6h-2.5V8h4.2c1.7,0,3,0.3,3.7,0.9
				C389.1,9.5,389.5,10.4,389.5,11.7z M386.5,13.1c0.3-0.3,0.5-0.7,0.5-1.3s-0.2-1-0.5-1.2s-0.9-0.3-1.7-0.3h-1.9v3.3h1.8
				C385.6,13.5,386.2,13.3,386.5,13.1z"/>
		</g>
	</g>
</g>
</svg>
