<?xml version="1.0" encoding="utf-8"?>
<!-- Generator: Adobe Illustrator 24.0.1, SVG Export Plug-In . SVG Version: 6.00 Build 0)  -->
<svg version="1.1" id="Layer_1" xmlns="http://www.w3.org/2000/svg" xmlns:xlink="http://www.w3.org/1999/xlink" x="0px" y="0px"
	 viewBox="0 0 518 100" style="enable-background:new 0 0 518 100;" xml:space="preserve">
<style type="text/css">
	.st0{fill:#606061;}
	.st1{fill:#BA1F40;}
	.st2{fill:#FFFFFF;}
	.st3{enable-background:new    ;}
	.st4{fill:#606060;}
	.st5{fill:#BB0E3D;}
</style>
<g>
	<g>
		<path class="st0" d="M98,50L83,23H28.8c-3.2,0-5.8,2.6-5.8,5.8v42.4c0,3.2,2.6,5.8,5.8,5.8H83L98,50z"/>
		<path class="st1" d="M96.5,25.8c-1.1-1.7-3-2.8-5-2.8H87l15.2,27L87,77h4.5c2.1,0,4-1.1,5-2.8L110,50L96.5,25.8z"/>
	</g>
	<g>
		<rect x="55" y="38" class="st2" width="4" height="24"/>
		<polygon class="st2" points="47,38 47,55.6 36,38 32,38 32,62 36,62 36,44.4 47,62 51,62 51,38 		"/>
		<polygon class="st2" points="78,38 78,48 67,48 67,38 63,38 63,62 67,62 67,52 78,52 78,62 82,62 82,38 		"/>
	</g>
</g>
<g class="st3">
	<path class="st4" d="M129.6,66c1.6,0,2.9-0.6,3.9-1.9l2.1,2.2c-1.7,1.9-3.6,2.8-5.9,2.8c-2.3,0-4.1-0.7-5.6-2.1s-2.2-3.2-2.2-5.4
		s0.7-4,2.2-5.4c1.5-1.5,3.3-2.2,5.5-2.2c2.4,0,4.4,0.9,6,2.8l-2,2.3c-1-1.3-2.3-1.9-3.9-1.9c-1.2,0-2.3,0.4-3.2,1.2
		c-0.9,0.8-1.3,1.9-1.3,3.3c0,1.4,0.4,2.5,1.2,3.3S128.4,66,129.6,66z"/>
	<path class="st4" d="M147.7,67.3c-1.3,1.2-2.8,1.8-4.5,1.8s-3.1-0.5-4.3-1.6c-1.1-1.1-1.7-2.5-1.7-4.3s0.6-3.2,1.7-4.2
		s2.5-1.6,4-1.6c1.6,0,2.9,0.5,4,1.4s1.6,2.2,1.6,3.9v1.7h-8.2c0.1,0.6,0.4,1.1,1,1.5c0.5,0.4,1.2,0.6,1.8,0.6c1.1,0,2-0.4,2.7-1.1
		L147.7,67.3z M144.6,60.6c-0.4-0.4-1-0.5-1.6-0.5s-1.2,0.2-1.7,0.6c-0.5,0.4-0.8,0.9-0.9,1.5h5C145.3,61.5,145.1,61,144.6,60.6z"/>
	<path class="st4" d="M154,62.6v6.3h-3.1V57.6h3.1v1.3c1-1,2-1.4,3.2-1.4s2.2,0.4,3,1.3c0.8,0.8,1.2,2,1.2,3.4v6.9h-3.2v-6.4
		c0-1.7-0.6-2.6-1.9-2.6c-0.6,0-1.2,0.2-1.6,0.7C154.2,61.1,154,61.8,154,62.6z"/>
	<path class="st4" d="M167.9,59.9V65c0,0.4,0.1,0.8,0.3,1s0.5,0.4,0.8,0.4c0.6,0,1.1-0.3,1.5-0.8l1.2,2.2c-1,0.9-2,1.3-3.1,1.3
		s-2-0.4-2.8-1.1c-0.7-0.7-1.1-1.7-1.1-2.9v-5.2h-1.3v-2.3h1.3v-3.4h3.2v3.4h2.7v2.3C170.6,59.9,167.9,59.9,167.9,59.9z"/>
	<path class="st4" d="M179.3,60.4c-0.9,0-1.6,0.3-2.1,1s-0.7,1.5-0.7,2.6v4.9h-3.1V57.6h3.1v1.5c0.4-0.5,0.9-0.9,1.5-1.2
		s1.2-0.5,1.9-0.5v3C179.9,60.4,179.3,60.4,179.3,60.4z"/>
	<path class="st4" d="M193.1,63.3c0,1.6-0.6,3-1.7,4.1c-1.1,1.1-2.6,1.7-4.3,1.7s-3.1-0.6-4.3-1.7s-1.7-2.5-1.7-4.1s0.6-3,1.7-4.1
		c1.1-1.1,2.6-1.7,4.3-1.7s3.1,0.6,4.3,1.7C192.5,60.3,193.1,61.7,193.1,63.3z M184.3,63.3c0,0.9,0.3,1.7,0.8,2.3s1.2,0.9,2,0.9
		s1.5-0.3,2-0.9s0.8-1.3,0.8-2.3c0-0.9-0.3-1.7-0.8-2.3s-1.2-0.9-2-0.9s-1.5,0.3-2,0.9C184.6,61.6,184.3,62.4,184.3,63.3z"/>
	<path class="st4" d="M205.5,69.1c-1.3,0-2.5-0.6-3.6-1.7s-1.6-2.5-1.6-4.2s0.5-3.1,1.5-4.1c1-1.1,2.2-1.6,3.6-1.6s2.5,0.5,3.4,1.4
		v-5.5h3.1V69h-3.1v-1.5C208,68.6,206.9,69.1,205.5,69.1z M203.5,63.3c0,0.9,0.3,1.7,0.8,2.2s1.2,0.9,1.9,0.9s1.3-0.3,1.9-0.9
		c0.5-0.6,0.8-1.3,0.8-2.2s-0.3-1.7-0.8-2.3s-1.1-0.9-1.9-0.9c-0.7,0-1.4,0.3-1.9,0.9C203.8,61.6,203.5,62.4,203.5,63.3z"/>
	<path class="st4" d="M224.8,67.3c-1.3,1.2-2.8,1.8-4.5,1.8s-3.1-0.5-4.3-1.6c-1.1-1.1-1.7-2.5-1.7-4.3s0.6-3.2,1.7-4.2
		s2.5-1.6,4-1.6c1.6,0,2.9,0.5,4,1.4s1.6,2.2,1.6,3.9v1.7h-8.2c0.1,0.6,0.4,1.1,1,1.5c0.5,0.4,1.2,0.6,1.8,0.6c1.1,0,2-0.4,2.7-1.1
		L224.8,67.3z M221.7,60.6c-0.4-0.4-1-0.5-1.6-0.5s-1.2,0.2-1.7,0.6c-0.5,0.4-0.8,0.9-0.9,1.5h5C222.4,61.5,222.2,61,221.7,60.6z"/>
	<path class="st4" d="M233.8,54.3h3.3V69h-3.3V54.3z"/>
	<path class="st4" d="M243.4,62.6v6.3h-3.1V57.6h3.1v1.3c1-1,2-1.4,3.2-1.4s2.2,0.4,3,1.3c0.8,0.8,1.2,2,1.2,3.4v6.9h-3.2v-6.4
		c0-1.7-0.6-2.6-1.9-2.6c-0.6,0-1.2,0.2-1.6,0.7C243.7,61.1,243.4,61.8,243.4,62.6z"/>
	<path class="st4" d="M256.6,68.9l-4.5-11.3h3.3l2.8,7.1l2.8-7.1h3.3l-4.5,11.3C259.8,68.9,256.6,68.9,256.6,68.9z"/>
	<path class="st4" d="M275.6,67.3c-1.3,1.2-2.8,1.8-4.5,1.8s-3.1-0.5-4.3-1.6c-1.1-1.1-1.7-2.5-1.7-4.3s0.6-3.2,1.7-4.2
		s2.5-1.6,4-1.6s2.9,0.5,4,1.4s1.6,2.2,1.6,3.9v1.7h-8.2c0.1,0.6,0.4,1.1,1,1.5c0.5,0.4,1.2,0.6,1.8,0.6c1.1,0,2-0.4,2.7-1.1
		L275.6,67.3z M272.6,60.6c-0.4-0.4-1-0.5-1.6-0.5s-1.2,0.2-1.7,0.6s-0.8,0.9-0.9,1.5h5C273.3,61.5,273,61,272.6,60.6z"/>
	<path class="st4" d="M287.3,65.4c0,1.1-0.4,2-1.2,2.7s-1.9,1-3.1,1c-0.8,0-1.7-0.2-2.6-0.5s-1.7-0.7-2.5-1.3l1.4-2
		c1.2,0.9,2.4,1.4,3.8,1.4c0.4,0,0.7-0.1,1-0.2c0.2-0.2,0.4-0.4,0.4-0.6c0-0.3-0.2-0.5-0.5-0.7s-0.8-0.4-1.4-0.6s-1.1-0.4-1.4-0.5
		s-0.7-0.3-1.1-0.6c-0.9-0.5-1.3-1.3-1.3-2.4s0.4-1.9,1.3-2.6s1.9-1,3.3-1s2.7,0.4,4,1.3l-1.2,2.1c-1-0.7-2-1-2.9-1
		c-1,0-1.5,0.3-1.5,0.8c0,0.3,0.2,0.5,0.5,0.7s0.8,0.4,1.5,0.6s1.2,0.4,1.5,0.5s0.7,0.3,1.1,0.6C286.9,63.5,287.3,64.3,287.3,65.4z"
		/>
	<path class="st4" d="M293.4,59.9V65c0,0.4,0.1,0.8,0.3,1c0.2,0.2,0.5,0.4,0.8,0.4c0.6,0,1.1-0.3,1.5-0.8l1.2,2.2
		c-1,0.9-2,1.3-3.1,1.3s-2-0.4-2.8-1.1s-1.1-1.7-1.1-2.9v-5.2h-1.3v-2.3h1.3v-3.4h3.2v3.4h2.7v2.3C296.1,59.9,293.4,59.9,293.4,59.9
		z"/>
	<path class="st4" d="M299.1,56.2c-0.4-0.4-0.5-0.8-0.5-1.3s0.2-1,0.5-1.3c0.4-0.4,0.8-0.5,1.3-0.5s1,0.2,1.3,0.5
		c0.4,0.4,0.5,0.8,0.5,1.3s-0.2,1-0.5,1.3c-0.4,0.4-0.8,0.5-1.3,0.5S299.5,56.6,299.1,56.2z M302,68.9h-3.2V57.6h3.2V68.9z"/>
	<path class="st4" d="M313.4,67c-1,1.1-2.2,1.7-3.7,1.7s-2.7-0.5-3.7-1.5s-1.5-2.3-1.5-4s0.5-3,1.6-4.1c1-1.1,2.2-1.6,3.6-1.6
		s2.5,0.6,3.3,1.7v-1.5h3.1v9.8c0,1-0.2,1.9-0.5,2.7c-0.4,0.8-0.8,1.4-1.4,1.8c-1.2,0.9-2.5,1.4-4.1,1.4c-0.8,0-1.7-0.1-2.6-0.4
		s-1.6-0.7-2.3-1.2l1.2-2.4c1,0.8,2.1,1.2,3.3,1.2c1.2,0,2.1-0.3,2.7-0.9C313,69.2,313.4,68.3,313.4,67z M312.9,63.1
		c0-0.9-0.3-1.6-0.8-2.1s-1.1-0.8-1.9-0.8s-1.4,0.3-1.9,0.8s-0.8,1.2-0.8,2.1c0,0.9,0.3,1.6,0.8,2.2s1.2,0.8,1.9,0.8
		c0.8,0,1.4-0.3,1.9-0.8S312.9,64,312.9,63.1z"/>
	<path class="st4" d="M328.6,68.9h-3v-1.4c-0.8,1-1.8,1.5-3,1.5s-2.2-0.3-3-1s-1.2-1.6-1.2-2.8s0.4-2,1.3-2.6c0.8-0.6,2-0.9,3.4-0.9
		h2.4v-0.1c0-1.2-0.6-1.8-1.9-1.8c-0.5,0-1.1,0.1-1.7,0.3s-1.1,0.5-1.5,0.8l-1.4-2c1.5-1.1,3.2-1.6,5.1-1.6c1.4,0,2.5,0.3,3.4,1
		s1.3,1.8,1.3,3.3v7.3H328.6z M325.4,64.6v-0.5h-2c-1.3,0-1.9,0.4-1.9,1.2c0,0.4,0.2,0.7,0.5,0.9s0.7,0.3,1.3,0.3
		c0.6,0,1.1-0.2,1.5-0.5C325.2,65.7,325.4,65.2,325.4,64.6z"/>
	<path class="st4" d="M336.9,66.3c1,0,2-0.5,2.8-1.6l1.9,2.1c-1.5,1.5-3,2.3-4.7,2.3s-3.1-0.5-4.3-1.6c-1.2-1.1-1.8-2.5-1.8-4.2
		s0.6-3.1,1.8-4.2s2.6-1.6,4.2-1.6c0.8,0,1.6,0.2,2.5,0.5c0.8,0.3,1.6,0.8,2.2,1.5l-1.6,2.1c-0.4-0.4-0.8-0.8-1.3-1s-1-0.4-1.6-0.4
		c-0.8,0-1.5,0.3-2.1,0.8s-0.9,1.3-0.9,2.2s0.3,1.7,0.9,2.2S336.1,66.3,336.9,66.3z"/>
	<path class="st4" d="M344,56.2c-0.4-0.4-0.5-0.8-0.5-1.3s0.2-1,0.5-1.3c0.4-0.4,0.8-0.5,1.3-0.5s1,0.2,1.3,0.5
		c0.4,0.4,0.5,0.8,0.5,1.3s-0.2,1-0.5,1.3c-0.4,0.4-0.8,0.5-1.3,0.5S344.3,56.6,344,56.2z M346.9,68.9h-3.1V57.6h3.1V68.9z"/>
	<path class="st4" d="M361.1,63.3c0,1.6-0.6,3-1.7,4.1s-2.6,1.7-4.3,1.7s-3.1-0.6-4.3-1.7s-1.7-2.5-1.7-4.1s0.6-3,1.7-4.1
		s2.6-1.7,4.3-1.7s3.1,0.6,4.3,1.7C360.6,60.3,361.1,61.7,361.1,63.3z M352.4,63.3c0,0.9,0.3,1.7,0.8,2.3s1.2,0.9,2,0.9
		s1.5-0.3,2-0.9s0.8-1.3,0.8-2.3c0-0.9-0.3-1.7-0.8-2.3s-1.2-0.9-2-0.9s-1.5,0.3-2,0.9C352.6,61.6,352.4,62.4,352.4,63.3z
		 M356.3,56.1h-3l2.7-3.7l3.3,1.4L356.3,56.1z"/>
	<path class="st4" d="M366.6,62.6v6.3h-3.2V57.6h3.2v1.3c1-1,2-1.4,3.2-1.4s2.2,0.4,3,1.3c0.8,0.8,1.2,2,1.2,3.4v6.9h-3.2v-6.4
		c0-1.7-0.6-2.6-1.9-2.6c-0.6,0-1.2,0.2-1.6,0.7S366.6,61.8,366.6,62.6z"/>
	<path class="st4" d="M386.9,69.1c-1.3,0-2.5-0.6-3.6-1.7s-1.6-2.5-1.6-4.2s0.5-3.1,1.5-4.1c1-1.1,2.2-1.6,3.6-1.6s2.5,0.5,3.4,1.4
		v-5.5h3.2V69h-3.2v-1.5C389.4,68.6,388.3,69.1,386.9,69.1z M384.9,63.3c0,0.9,0.3,1.7,0.8,2.2c0.5,0.6,1.2,0.9,1.9,0.9
		c0.7,0,1.3-0.3,1.9-0.9c0.5-0.6,0.8-1.3,0.8-2.2s-0.3-1.7-0.8-2.3s-1.1-0.9-1.9-0.9s-1.4,0.3-1.9,0.9S384.9,62.4,384.9,63.3z"/>
	<path class="st4" d="M406.2,67.3c-1.3,1.2-2.8,1.8-4.5,1.8s-3.1-0.5-4.3-1.6c-1.1-1.1-1.7-2.5-1.7-4.3s0.6-3.2,1.7-4.2
		s2.5-1.6,4-1.6c1.6,0,2.9,0.5,4,1.4s1.6,2.2,1.6,3.9v1.7h-8.2c0.1,0.6,0.4,1.1,1,1.5c0.5,0.4,1.2,0.6,1.8,0.6c1.1,0,2-0.4,2.7-1.1
		L406.2,67.3z M403.2,60.6c-0.4-0.4-1-0.5-1.6-0.5s-1.2,0.2-1.7,0.6c-0.5,0.4-0.8,0.9-0.9,1.5h5C403.8,61.5,403.6,61,403.2,60.6z"/>
	<path class="st4" d="M412.5,68.9h-3.1V53.4h3.1V68.9z"/>
	<path class="st4" d="M428.1,66c1.6,0,2.9-0.6,3.9-1.9l2.1,2.2c-1.7,1.9-3.6,2.8-5.9,2.8s-4.1-0.7-5.6-2.1s-2.2-3.2-2.2-5.4
		s0.7-4,2.2-5.4c1.5-1.5,3.3-2.2,5.5-2.2c2.4,0,4.4,0.9,6,2.8l-2,2.3c-1-1.3-2.3-1.9-3.9-1.9c-1.2,0-2.3,0.4-3.2,1.2
		c-0.9,0.8-1.3,1.9-1.3,3.3c0,1.4,0.4,2.5,1.2,3.3S426.9,66,428.1,66z"/>
	<path class="st4" d="M446,68.9h-3v-1.4c-0.8,1-1.8,1.5-3,1.5s-2.2-0.3-3-1s-1.2-1.6-1.2-2.8s0.4-2,1.3-2.6c0.8-0.6,2-0.9,3.4-0.9
		h2.4v-0.1c0-1.2-0.6-1.8-1.9-1.8c-0.5,0-1.1,0.1-1.7,0.3s-1.1,0.5-1.5,0.8l-1.4-2c1.5-1.1,3.2-1.6,5.1-1.6c1.4,0,2.5,0.3,3.4,1
		s1.3,1.8,1.3,3.3v7.3H446z M442.8,64.6v-0.5h-2c-1.3,0-1.9,0.4-1.9,1.2c0,0.4,0.1,0.7,0.5,0.9c0.3,0.2,0.7,0.3,1.3,0.3
		c0.6,0,1.1-0.2,1.5-0.5C442.6,65.7,442.8,65.2,442.8,64.6z M442.2,56.1h-3l2.7-3.7l3.3,1.4L442.2,56.1z"/>
	<path class="st4" d="M452,62.6v6.3h-3.2V57.6h3.2v1.3c1-1,2-1.4,3.2-1.4s2.2,0.4,3,1.3c0.8,0.8,1.2,2,1.2,3.4v6.9h-3.2v-6.4
		c0-1.7-0.6-2.6-1.9-2.6c-0.6,0-1.2,0.2-1.6,0.7S452,61.8,452,62.6z"/>
	<path class="st4" d="M467.7,66.3c1,0,2-0.5,2.8-1.6l1.9,2.1c-1.5,1.5-3,2.3-4.7,2.3s-3.1-0.5-4.3-1.6s-1.8-2.5-1.8-4.2
		s0.6-3.1,1.8-4.2c1.2-1.1,2.6-1.6,4.2-1.6c0.8,0,1.6,0.2,2.5,0.5s1.6,0.8,2.2,1.5l-1.6,2.1c-0.4-0.4-0.8-0.8-1.3-1s-1-0.4-1.6-0.4
		c-0.8,0-1.5,0.3-2.1,0.8s-0.9,1.3-0.9,2.2s0.3,1.7,0.9,2.2C466.2,66.1,466.9,66.3,467.7,66.3z"/>
	<path class="st4" d="M484.3,67.3c-1.3,1.2-2.8,1.8-4.5,1.8s-3.1-0.5-4.3-1.6c-1.1-1.1-1.7-2.5-1.7-4.3s0.6-3.2,1.7-4.2
		s2.5-1.6,4-1.6c1.6,0,2.9,0.5,4,1.4s1.6,2.2,1.6,3.9v1.7H477c0.1,0.6,0.4,1.1,1,1.5c0.5,0.4,1.2,0.6,1.8,0.6c1.1,0,2-0.4,2.7-1.1
		L484.3,67.3z M481.3,60.6c-0.4-0.4-1-0.5-1.6-0.5s-1.2,0.2-1.7,0.6s-0.8,0.9-0.9,1.5h5C482,61.5,481.7,61,481.3,60.6z"/>
	<path class="st4" d="M493.5,60.4c-0.9,0-1.6,0.3-2.1,1s-0.7,1.5-0.7,2.6v4.9h-3.2V57.6h3.2v1.5c0.4-0.5,0.9-0.9,1.5-1.2
		s1.2-0.5,1.9-0.5v3C494.1,60.4,493.5,60.4,493.5,60.4z"/>
</g>
<g>
	<g class="st3">
		<path class="st5" d="M123,31h2.5v11.2H123V31z"/>
		<path class="st5" d="M136.1,31h2.5v11.2h-2.5l-5.3-7v7h-2.5V31h2.3l5.5,7.2V31z"/>
	</g>
	<g class="st3">
		<path class="st5" d="M143.9,33.2c-0.2,0.2-0.4,0.5-0.4,0.8s0.1,0.6,0.4,0.8c0.3,0.2,1,0.4,2,0.7c1.1,0.3,1.9,0.7,2.5,1.2
			c0.6,0.5,0.9,1.3,0.9,2.3c0,1-0.4,1.8-1.1,2.4s-1.7,0.9-3,0.9c-1.8,0-3.4-0.7-4.8-2l1.5-1.8c1.2,1.1,2.3,1.6,3.3,1.6
			c0.5,0,0.8-0.1,1.1-0.3c0.3-0.2,0.4-0.5,0.4-0.8s-0.1-0.6-0.4-0.8s-0.8-0.4-1.6-0.6c-1.3-0.3-2.3-0.7-2.9-1.2s-0.9-1.3-0.9-2.3
			c0-1.1,0.4-1.9,1.1-2.5c0.8-0.6,1.7-0.9,2.9-0.9c0.7,0,1.5,0.1,2.2,0.4c0.7,0.3,1.4,0.6,2,1.1l-1.3,1.8c-1-0.7-2-1.1-3-1.1
			C144.5,32.9,144.2,33,143.9,33.2z"/>
	</g>
	<g class="st3">
		<path class="st5" d="M156.2,33.2v9h-2.5v-9h-3.2V31h8.8v2.2H156.2z"/>
		<path class="st5" d="M161.2,31h2.5v11.2h-2.5V31z"/>
		<path class="st5" d="M171.1,33.2v9h-2.5v-9h-3.2V31h8.8v2.2H171.1z"/>
		<path class="st5" d="M179.1,39.3c0.4,0.5,1,0.8,1.7,0.8c0.7,0,1.3-0.3,1.7-0.8c0.4-0.5,0.6-1.2,0.6-2.1V31h2.5v6.3
			c0,1.6-0.4,2.9-1.3,3.7c-0.9,0.9-2,1.3-3.4,1.3c-1.4,0-2.5-0.4-3.4-1.3c-0.9-0.9-1.4-2.1-1.4-3.7V31h2.5v6.2
			C178.5,38.1,178.7,38.8,179.1,39.3z"/>
	</g>
	<g class="st3">
		<path class="st5" d="M192.9,33.2v9h-2.5v-9h-3.2V31h8.8v2.2H192.9z"/>
	</g>
	<g class="st3">
		<path class="st5" d="M207,40.7c-1.1,1.1-2.5,1.7-4.2,1.7s-3-0.6-4.2-1.7c-1.1-1.1-1.7-2.5-1.7-4.1s0.6-3,1.7-4.1
			c1.1-1.1,2.5-1.7,4.2-1.7s3,0.6,4.2,1.7c1.1,1.1,1.7,2.5,1.7,4.1S208.1,39.5,207,40.7z M206.2,36.5c0-1-0.3-1.8-1-2.6
			c-0.6-0.7-1.4-1.1-2.4-1.1c-0.9,0-1.7,0.4-2.4,1.1s-1,1.6-1,2.6s0.3,1.8,1,2.5s1.4,1,2.4,1c0.9,0,1.7-0.3,2.4-1
			C205.8,38.4,206.2,37.5,206.2,36.5z"/>
		<path class="st5" d="M222.9,31h2.5v11.2h-2.5l-5.3-7v7H215V31h2.3l5.5,7.2V31z"/>
		<path class="st5" d="M236.1,42.2l-1-2.4h-4.7l-1,2.4h-2.7l4.8-11.2h2.4l4.8,11.2H236.1z M232.7,34.3l-1.4,3.2h2.8L232.7,34.3z"/>
		<path class="st5" d="M245.2,40c1.2,0,2.2-0.5,3-1.5l1.6,1.6c-1.3,1.4-2.8,2.1-4.5,2.1s-3.1-0.5-4.3-1.6s-1.7-2.5-1.7-4.1
			s0.6-3,1.7-4.2s2.5-1.7,4.2-1.7c1.8,0,3.4,0.7,4.6,2.1l-1.6,1.8c-0.8-1-1.8-1.5-2.9-1.5c-0.9,0-1.7,0.3-2.4,0.9s-1,1.4-1,2.5
			s0.3,1.9,0.9,2.5S244.3,40,245.2,40z"/>
		<path class="st5" d="M251.7,31h2.5v11.2h-2.5V31z"/>
		<path class="st5" d="M266.4,40.7c-1.1,1.1-2.5,1.7-4.2,1.7s-3-0.6-4.2-1.7c-1.1-1.1-1.7-2.5-1.7-4.1s0.6-3,1.7-4.1
			c1.1-1.1,2.5-1.7,4.2-1.7s3,0.6,4.2,1.7c1.1,1.1,1.7,2.5,1.7,4.1S267.5,39.5,266.4,40.7z M265.5,36.5c0-1-0.3-1.8-1-2.6
			c-0.6-0.7-1.4-1.1-2.4-1.1s-1.7,0.4-2.4,1.1c-0.6,0.7-1,1.6-1,2.6s0.3,1.8,1,2.5c0.6,0.7,1.4,1,2.4,1s1.7-0.3,2.4-1
			C265.2,38.4,265.5,37.5,265.5,36.5z"/>
		<path class="st5" d="M278,31h2.5v11.2H278l-5.3-7v7h-2.5V31h2.3l5.5,7.2V31z"/>
		<path class="st5" d="M291.2,42.2l-1-2.4h-4.7l-1,2.4h-2.7l4.8-11.2h2.4l4.8,11.2H291.2z M287.9,34.3l-1.4,3.2h2.8L287.9,34.3z"/>
		<path class="st5" d="M295.2,42.2V31h2.5v9h4.8v2.2H295.2z"/>
		<path class="st5" d="M317,32.5c1.1,1,1.6,2.3,1.6,4.1c0,1.7-0.5,3.1-1.6,4.1c-1,1-2.6,1.5-4.8,1.5h-3.8V31h4
			C314.4,31,316,31.5,317,32.5z M315.2,39.1c0.6-0.6,0.9-1.4,0.9-2.5s-0.3-1.9-0.9-2.5c-0.6-0.6-1.6-0.9-2.8-0.9H311V40h1.6
			C313.7,40,314.6,39.7,315.2,39.1z"/>
		<path class="st5" d="M328.9,31v2.2h-5.6v2.3h5v2.1h-5V40h5.7v2.2h-8.2V31H328.9z"/>
		<path class="st5" d="M331.3,42.2V31h2.5v9h4.8v2.2H331.3z"/>
		<path class="st5" d="M349.7,40c1.2,0,2.2-0.5,3-1.5l1.6,1.6c-1.3,1.4-2.8,2.1-4.5,2.1c-1.7,0-3.1-0.5-4.3-1.6s-1.7-2.5-1.7-4.1
			s0.6-3,1.7-4.2s2.5-1.7,4.2-1.7c1.8,0,3.4,0.7,4.6,2.1l-1.6,1.8c-0.8-1-1.8-1.5-2.9-1.5c-0.9,0-1.7,0.3-2.4,0.9
			c-0.7,0.6-1,1.4-1,2.5s0.3,1.9,0.9,2.5C348,39.7,348.8,40,349.7,40z"/>
		<path class="st5" d="M364.2,42.2l-1-2.4h-4.7l-1,2.4h-2.7l4.8-11.2h2.4l4.8,11.2H364.2z M360.9,34.3l-1.4,3.2h2.8L360.9,34.3z
			 M361.9,29.9h-2.3l2-2.8l2.5,1L361.9,29.9z"/>
		<path class="st5" d="M376,31h2.5v11.2H376l-5.3-7v7h-2.5V31h2.3l5.5,7.2V31z"/>
		<path class="st5" d="M386.4,40c1.2,0,2.2-0.5,3-1.5l1.6,1.6c-1.3,1.4-2.8,2.1-4.5,2.1c-1.7,0-3.1-0.5-4.3-1.6s-1.7-2.5-1.7-4.1
			s0.6-3,1.7-4.2s2.5-1.7,4.2-1.7c1.8,0,3.4,0.7,4.6,2.1l-1.6,1.8c-0.8-1-1.8-1.5-2.9-1.5c-0.9,0-1.7,0.3-2.4,0.9
			c-0.7,0.6-1,1.4-1,2.5s0.3,1.9,0.9,2.5C384.7,39.7,385.5,40,386.4,40z"/>
		<path class="st5" d="M401,31v2.2h-5.6v2.3h5v2.1h-5V40h5.7v2.2H393V31H401z"/>
		<path class="st5" d="M412.5,34.7c0,1.8-0.7,2.9-2.1,3.5l2.8,4h-3.1l-2.5-3.6h-1.7v3.6h-2.5V31h4.2c1.7,0,3,0.3,3.7,0.9
			C412.1,32.5,412.5,33.4,412.5,34.7z M409.5,36.1c0.3-0.3,0.5-0.7,0.5-1.3s-0.2-1-0.5-1.2c-0.3-0.2-0.9-0.3-1.7-0.3h-1.9v3.3h1.8
			C408.6,36.5,409.2,36.3,409.5,36.1z"/>
	</g>
</g>
</svg>
