<?xml version="1.0" encoding="utf-8"?>
<!-- Generator: Adobe Illustrator 18.1.0, SVG Export Plug-In . SVG Version: 6.00 Build 0)  -->
<svg version="1.1" id="Layer_1" xmlns="http://www.w3.org/2000/svg" xmlns:xlink="http://www.w3.org/1999/xlink" x="0px" y="0px"
	 viewBox="0 0 390.2 54" enable-background="new 0 0 390.2 54" xml:space="preserve">
<g>
	<g>
		<path fill="#606061" d="M75,27L60,0H5.8C2.6,0,0,2.6,0,5.8v42.4C0,51.4,2.6,54,5.8,54H60L75,27z"/>
		<path fill="#BA1F40" d="M73.5,2.8c-1.1-1.7-3-2.8-5-2.8H64l15.2,27L64,54h4.5c2.1,0,4-1.1,5-2.8L87,27L73.5,2.8z"/>
	</g>
	<g>
		<rect x="32" y="15" fill="#FFFFFF" width="4" height="24"/>
		<polygon fill="#FFFFFF" points="24,15 24,32.6 13,15 9,15 9,39 13,39 13,21.4 24,39 28,39 28,15 		"/>
		<polygon fill="#FFFFFF" points="55,15 55,25 44,25 44,15 40,15 40,39 44,39 44,29 55,29 55,39 59,39 59,15 		"/>
	</g>
</g>
<g>
	<g>
		<path fill="#BB0E3D" d="M107.9,8h2.5v11.2h-2.5l-5.3-7v7H100V8h2.3l5.5,7.2V8z"/>
		<path fill="#BB0E3D" d="M121.1,19.2l-1-2.4h-4.7l-1,2.4h-2.7L116.5,8h2.4l4.8,11.2H121.1z M117.7,11.3l-1.4,3.2h2.8L117.7,11.3z"
			/>
		<path fill="#BB0E3D" d="M128.9,10.2v9h-2.5v-9h-3.2V8h8.8v2.2H128.9z"/>
		<path fill="#BB0E3D" d="M133.9,8h2.5v11.2h-2.5V8z"/>
		<path fill="#BB0E3D" d="M148.6,17.6c-1.1,1.1-2.5,1.7-4.2,1.7s-3-0.6-4.2-1.7c-1.1-1.1-1.7-2.5-1.7-4.1c0-1.6,0.6-3,1.7-4.1
			c1.1-1.1,2.5-1.7,4.2-1.7s3,0.6,4.2,1.7c1.1,1.1,1.7,2.5,1.7,4.1C150.3,15.2,149.7,16.5,148.6,17.6z M147.7,13.5
			c0-1-0.3-1.8-1-2.6c-0.6-0.7-1.4-1.1-2.4-1.1s-1.7,0.4-2.4,1.1c-0.6,0.7-1,1.6-1,2.6c0,1,0.3,1.8,1,2.5c0.6,0.7,1.4,1,2.4,1
			s1.7-0.3,2.4-1C147.4,15.4,147.7,14.5,147.7,13.5z"/>
		<path fill="#BB0E3D" d="M160.2,8h2.5v11.2h-2.5l-5.3-7v7h-2.5V8h2.3l5.5,7.2V8z"/>
		<path fill="#BB0E3D" d="M173.4,19.2l-1-2.4h-4.7l-1,2.4H164L168.8,8h2.4l4.8,11.2H173.4z M170.1,11.3l-1.4,3.2h2.8L170.1,11.3z"/>
		<path fill="#BB0E3D" d="M177.4,19.2V8h2.5v9h4.8v2.2H177.4z"/>
		<path fill="#BB0E3D" d="M195.8,17c1.2,0,2.2-0.5,3-1.5l1.6,1.6c-1.3,1.4-2.8,2.1-4.5,2.1s-3.1-0.5-4.3-1.6
			c-1.1-1.1-1.7-2.5-1.7-4.1c0-1.7,0.6-3,1.7-4.2c1.1-1.1,2.5-1.7,4.2-1.7c1.8,0,3.4,0.7,4.6,2.1l-1.6,1.8c-0.8-1-1.8-1.5-2.9-1.5
			c-0.9,0-1.7,0.3-2.4,0.9c-0.7,0.6-1,1.4-1,2.5s0.3,1.9,0.9,2.5C194.2,16.7,194.9,17,195.8,17z"/>
		<path fill="#BB0E3D" d="M210.3,19.2l-1-2.4h-4.7l-1,2.4h-2.7L205.7,8h2.4l4.8,11.2H210.3z M206.9,11.3l-1.4,3.2h2.8L206.9,11.3z"
			/>
		<path fill="#BB0E3D" d="M222.1,8h2.5v11.2h-2.5l-5.3-7v7h-2.5V8h2.3l5.5,7.2V8z"/>
		<path fill="#BB0E3D" d="M232.5,17c1.2,0,2.2-0.5,3-1.5l1.6,1.6c-1.3,1.4-2.8,2.1-4.5,2.1s-3.1-0.5-4.3-1.6
			c-1.1-1.1-1.7-2.5-1.7-4.1c0-1.7,0.6-3,1.7-4.2c1.1-1.1,2.5-1.7,4.2-1.7c1.8,0,3.4,0.7,4.6,2.1l-1.6,1.8c-0.8-1-1.8-1.5-2.9-1.5
			c-0.9,0-1.7,0.3-2.4,0.9c-0.7,0.6-1,1.4-1,2.5s0.3,1.9,0.9,2.5C230.8,16.7,231.6,17,232.5,17z"/>
		<path fill="#BB0E3D" d="M247.1,8v2.2h-5.6v2.3h5v2.1h-5V17h5.7v2.2H239V8H247.1z"/>
		<path fill="#BB0E3D" d="M258.6,11.7c0,1.8-0.7,2.9-2.1,3.5l2.8,4h-3.1l-2.5-3.6H252v3.6h-2.5V8h4.2c1.7,0,3,0.3,3.7,0.9
			S258.6,10.4,258.6,11.7z M255.6,13c0.3-0.3,0.5-0.7,0.5-1.3s-0.2-1-0.5-1.2s-0.9-0.3-1.7-0.3H252v3.3h1.8
			C254.7,13.5,255.3,13.3,255.6,13z"/>
		<path fill="#BB0E3D" d="M265.4,8h2.5v11.2h-2.5V8z"/>
		<path fill="#BB0E3D" d="M278.4,8h2.5v11.2h-2.5l-5.3-7v7h-2.5V8h2.3l5.5,7.2V8z"/>
		<path fill="#BB0E3D" d="M286.3,10.2c-0.2,0.2-0.4,0.5-0.4,0.8s0.1,0.6,0.4,0.8c0.3,0.2,1,0.4,2,0.7s1.9,0.7,2.5,1.2
			c0.6,0.5,0.9,1.3,0.9,2.3c0,1-0.4,1.8-1.1,2.4s-1.7,0.9-3,0.9c-1.8,0-3.4-0.7-4.8-2l1.5-1.8c1.2,1.1,2.3,1.6,3.3,1.6
			c0.5,0,0.8-0.1,1.1-0.3c0.3-0.2,0.4-0.5,0.4-0.8s-0.1-0.6-0.4-0.8s-0.8-0.4-1.6-0.6c-1.3-0.3-2.3-0.7-2.9-1.2s-0.9-1.3-0.9-2.3
			s0.4-1.9,1.1-2.5c0.8-0.6,1.7-0.9,2.9-0.9c0.7,0,1.5,0.1,2.2,0.4c0.7,0.3,1.4,0.6,2,1.1l-1.3,1.8c-1-0.7-2-1.1-3-1.1
			C286.9,9.9,286.5,10,286.3,10.2z"/>
		<path fill="#BB0E3D" d="M298.5,10.2v9H296v-9h-3.2V8h8.8v2.2H298.5z"/>
		<path fill="#BB0E3D" d="M303.5,8h2.5v11.2h-2.5V8z"/>
		<path fill="#BB0E3D" d="M313.5,10.2v9H311v-9h-3.2V8h8.8v2.2H313.5z"/>
		<path fill="#BB0E3D" d="M321.5,16.3c0.4,0.5,1,0.8,1.7,0.8s1.3-0.3,1.7-0.8c0.4-0.5,0.6-1.2,0.6-2.1V8h2.5v6.3
			c0,1.6-0.4,2.9-1.3,3.7c-0.9,0.9-2,1.3-3.4,1.3c-1.4,0-2.5-0.4-3.4-1.3c-0.9-0.9-1.4-2.1-1.4-3.7V8h2.5v6.2
			C320.8,15.1,321,15.8,321.5,16.3z"/>
		<path fill="#BB0E3D" d="M335.2,10.2v9h-2.5v-9h-3.2V8h8.8v2.2H335.2z"/>
		<path fill="#BB0E3D" d="M348.3,8v2.2h-5.6v2.3h5v2.1h-5V17h5.7v2.2h-8.2V8H348.3z"/>
	</g>
</g>
<g>
	<g>
		<path fill="#606060" d="M106.7,43.1c1.6,0,2.9-0.6,3.9-1.9l2.1,2.2c-1.7,1.9-3.6,2.8-5.9,2.8c-2.3,0-4.1-0.7-5.6-2.1
			c-1.5-1.4-2.2-3.2-2.2-5.4c0-2.2,0.7-4,2.2-5.4c1.5-1.5,3.3-2.2,5.5-2.2c2.4,0,4.4,0.9,6,2.8l-2,2.3c-1-1.3-2.3-1.9-3.9-1.9
			c-1.2,0-2.3,0.4-3.2,1.2c-0.9,0.8-1.3,1.9-1.3,3.3c0,1.4,0.4,2.5,1.2,3.3S105.6,43.1,106.7,43.1z"/>
		<path fill="#606060" d="M124.8,44.4c-1.3,1.2-2.8,1.8-4.5,1.8s-3.1-0.5-4.3-1.6c-1.1-1.1-1.7-2.5-1.7-4.3s0.6-3.2,1.7-4.2
			s2.5-1.6,4-1.6c1.6,0,2.9,0.5,4,1.4c1.1,0.9,1.6,2.2,1.6,3.9v1.7h-8.2c0.1,0.6,0.4,1.1,1,1.5c0.5,0.4,1.2,0.6,1.8,0.6
			c1.1,0,2-0.4,2.7-1.1L124.8,44.4z M121.8,37.7c-0.4-0.4-1-0.5-1.6-0.5c-0.6,0-1.2,0.2-1.7,0.6c-0.5,0.4-0.8,0.9-0.9,1.5h5
			C122.5,38.6,122.3,38,121.8,37.7z"/>
		<path fill="#606060" d="M131.2,39.7V46H128V34.7h3.1V36c1-1,2-1.4,3.2-1.4s2.2,0.4,3,1.3c0.8,0.8,1.2,2,1.2,3.4V46h-3.2v-6.4
			c0-1.7-0.6-2.6-1.9-2.6c-0.6,0-1.2,0.2-1.6,0.7C131.4,38.2,131.2,38.8,131.2,39.7z"/>
		<path fill="#606060" d="M145,37v5.1c0,0.4,0.1,0.8,0.3,1c0.2,0.2,0.5,0.4,0.8,0.4c0.6,0,1.1-0.3,1.5-0.8l1.2,2.2
			c-1,0.9-2,1.3-3.1,1.3c-1.1,0-2-0.4-2.8-1.1c-0.7-0.7-1.1-1.7-1.1-2.9V37h-1.3v-2.3h1.3v-3.4h3.2v3.4h2.7V37H145z"/>
		<path fill="#606060" d="M160.3,44.4c-1.3,1.2-2.8,1.8-4.5,1.8s-3.1-0.5-4.3-1.6c-1.1-1.1-1.7-2.5-1.7-4.3s0.6-3.2,1.7-4.2
			s2.5-1.6,4-1.6c1.6,0,2.9,0.5,4,1.4c1.1,0.9,1.6,2.2,1.6,3.9v1.7H153c0.1,0.6,0.4,1.1,1,1.5c0.5,0.4,1.2,0.6,1.8,0.6
			c1.1,0,2-0.4,2.7-1.1L160.3,44.4z M157.3,37.7c-0.4-0.4-1-0.5-1.6-0.5c-0.6,0-1.2,0.2-1.7,0.6c-0.5,0.4-0.8,0.9-0.9,1.5h5
			C158,38.6,157.7,38,157.3,37.7z"/>
		<path fill="#606060" d="M169.4,37.5c-0.9,0-1.6,0.3-2.1,1s-0.7,1.5-0.7,2.6V46h-3.1V34.7h3.1v1.5c0.4-0.5,0.9-0.9,1.5-1.2
			c0.6-0.3,1.2-0.5,1.9-0.5l0,3H169.4z"/>
		<path fill="#606060" d="M181.4,34.1v0.8h2.7v2.3h-2.7V46h-3.2v-8.9h-1.3v-2.3h1.3v-0.7c0-1.2,0.4-2.2,1.1-2.9
			c0.7-0.7,1.7-1.1,2.8-1.1c1.1,0,2.1,0.4,3,1.3l-1.1,2.1c-0.5-0.5-1-0.8-1.5-0.8c-0.3,0-0.6,0.1-0.8,0.3
			C181.5,33.3,181.4,33.6,181.4,34.1z"/>
		<path fill="#606060" d="M197.1,40.4c0,1.6-0.6,3-1.7,4.1c-1.1,1.1-2.6,1.7-4.3,1.7s-3.1-0.6-4.3-1.7s-1.7-2.5-1.7-4.1
			c0-1.6,0.6-3,1.7-4.1c1.1-1.1,2.6-1.7,4.3-1.7s3.1,0.6,4.3,1.7C196.6,37.4,197.1,38.7,197.1,40.4z M188.4,40.4
			c0,0.9,0.3,1.7,0.8,2.3c0.5,0.6,1.2,0.9,2,0.9s1.5-0.3,2-0.9s0.8-1.3,0.8-2.3c0-0.9-0.3-1.7-0.8-2.3s-1.2-0.9-2-0.9
			s-1.5,0.3-2,0.9C188.6,38.7,188.4,39.4,188.4,40.4z"/>
		<path fill="#606060" d="M205.4,37.5c-0.9,0-1.6,0.3-2.1,1s-0.7,1.5-0.7,2.6V46h-3.1V34.7h3.1v1.5c0.4-0.5,0.9-0.9,1.5-1.2
			c0.6-0.3,1.2-0.5,1.9-0.5l0,3H205.4z"/>
		<path fill="#606060" d="M220.7,43.1c1.6,0,2.9-0.6,3.9-1.9l2.1,2.2c-1.7,1.9-3.6,2.8-5.9,2.8c-2.3,0-4.1-0.7-5.6-2.1
			c-1.5-1.4-2.2-3.2-2.2-5.4c0-2.2,0.7-4,2.2-5.4c1.5-1.5,3.3-2.2,5.5-2.2c2.4,0,4.4,0.9,6,2.8l-2,2.3c-1-1.3-2.3-1.9-3.9-1.9
			c-1.2,0-2.3,0.4-3.2,1.2c-0.9,0.8-1.3,1.9-1.3,3.3c0,1.4,0.4,2.5,1.2,3.3S219.5,43.1,220.7,43.1z"/>
		<path fill="#606060" d="M238.5,46h-3v-1.4c-0.8,1-1.8,1.5-3,1.5c-1.2,0-2.2-0.3-3-1c-0.8-0.7-1.2-1.6-1.2-2.8s0.4-2,1.3-2.6
			c0.8-0.6,2-0.9,3.4-0.9h2.4v-0.1c0-1.2-0.6-1.8-1.9-1.8c-0.5,0-1.1,0.1-1.7,0.3c-0.6,0.2-1.1,0.5-1.5,0.8l-1.4-2
			c1.5-1.1,3.2-1.6,5.1-1.6c1.4,0,2.5,0.3,3.4,1c0.9,0.7,1.3,1.8,1.3,3.3V46z M235.3,41.7v-0.5h-2c-1.3,0-1.9,0.4-1.9,1.2
			c0,0.4,0.1,0.7,0.5,0.9c0.3,0.2,0.7,0.3,1.3,0.3s1.1-0.2,1.5-0.5C235.1,42.7,235.3,42.3,235.3,41.7z"/>
		<path fill="#606060" d="M244.5,39.7V46h-3.1V34.7h3.1V36c1-1,2-1.4,3.2-1.4s2.2,0.4,3,1.3c0.8,0.8,1.2,2,1.2,3.4V46h-3.2v-6.4
			c0-1.7-0.6-2.6-1.9-2.6c-0.6,0-1.2,0.2-1.6,0.7C244.8,38.2,244.5,38.8,244.5,39.7z"/>
		<path fill="#606060" d="M260.2,43.4c1,0,2-0.5,2.8-1.6l1.9,2.1c-1.5,1.5-3,2.3-4.7,2.3c-1.7,0-3.1-0.5-4.3-1.6s-1.8-2.5-1.8-4.2
			c0-1.7,0.6-3.1,1.8-4.2s2.6-1.6,4.2-1.6c0.8,0,1.6,0.2,2.5,0.5s1.6,0.8,2.2,1.5l-1.6,2.1c-0.4-0.4-0.8-0.8-1.3-1
			c-0.5-0.2-1-0.4-1.6-0.4c-0.8,0-1.5,0.3-2.1,0.8s-0.9,1.3-0.9,2.2s0.3,1.7,0.9,2.2S259.4,43.4,260.2,43.4z"/>
		<path fill="#606060" d="M276.8,44.4c-1.3,1.2-2.8,1.8-4.5,1.8s-3.1-0.5-4.3-1.6c-1.1-1.1-1.7-2.5-1.7-4.3s0.6-3.2,1.7-4.2
			s2.5-1.6,4-1.6c1.6,0,2.9,0.5,4,1.4c1.1,0.9,1.6,2.2,1.6,3.9v1.7h-8.2c0.1,0.6,0.4,1.1,1,1.5c0.5,0.4,1.2,0.6,1.8,0.6
			c1.1,0,2-0.4,2.7-1.1L276.8,44.4z M273.8,37.7c-0.4-0.4-1-0.5-1.6-0.5c-0.6,0-1.2,0.2-1.7,0.6c-0.5,0.4-0.8,0.9-0.9,1.5h5
			C274.5,38.6,274.2,38,273.8,37.7z"/>
		<path fill="#606060" d="M285.9,37.5c-0.9,0-1.6,0.3-2.1,1s-0.7,1.5-0.7,2.6V46H280V34.7h3.1v1.5c0.4-0.5,0.9-0.9,1.5-1.2
			c0.6-0.3,1.2-0.5,1.9-0.5l0,3H285.9z"/>
		<path fill="#606060" d="M306.4,36.2c0,2.4-0.9,3.9-2.8,4.6l3.7,5.3h-4l-3.3-4.7h-2.3V46h-3.3V31.3h5.6c2.3,0,3.9,0.4,4.9,1.2
			C305.9,33.3,306.4,34.5,306.4,36.2z M302.4,38c0.4-0.4,0.6-0.9,0.6-1.7c0-0.8-0.2-1.3-0.6-1.6s-1.2-0.4-2.2-0.4h-2.5v4.3h2.4
			C301.3,38.5,302,38.3,302.4,38z"/>
		<path fill="#606060" d="M319.2,44.4c-1.3,1.2-2.8,1.8-4.5,1.8s-3.1-0.5-4.3-1.6c-1.1-1.1-1.7-2.5-1.7-4.3s0.6-3.2,1.7-4.2
			s2.5-1.6,4-1.6c1.6,0,2.9,0.5,4,1.4c1.1,0.9,1.6,2.2,1.6,3.9v1.7h-8.2c0.1,0.6,0.4,1.1,1,1.5c0.5,0.4,1.2,0.6,1.8,0.6
			c1.1,0,2-0.4,2.7-1.1L319.2,44.4z M316.2,37.7c-0.4-0.4-1-0.5-1.6-0.5c-0.6,0-1.2,0.2-1.7,0.6c-0.5,0.4-0.8,0.9-0.9,1.5h5
			C316.9,38.6,316.6,38,316.2,37.7z"/>
		<path fill="#606060" d="M330.9,42.5c0,1.1-0.4,2-1.2,2.7s-1.9,1-3.1,1c-0.8,0-1.7-0.2-2.6-0.5s-1.7-0.7-2.5-1.3l1.4-2
			c1.2,0.9,2.4,1.4,3.8,1.4c0.4,0,0.7-0.1,1-0.2c0.2-0.2,0.4-0.4,0.4-0.6c0-0.3-0.2-0.5-0.5-0.7c-0.3-0.2-0.8-0.4-1.4-0.6
			s-1.1-0.4-1.4-0.5c-0.3-0.1-0.7-0.3-1.1-0.6c-0.9-0.5-1.3-1.3-1.3-2.4s0.4-1.9,1.3-2.6s1.9-1,3.3-1s2.7,0.4,4,1.3l-1.2,2.1
			c-1-0.7-2-1-2.9-1c-1,0-1.5,0.3-1.5,0.8c0,0.3,0.2,0.5,0.5,0.7c0.3,0.2,0.8,0.4,1.5,0.6c0.7,0.2,1.2,0.4,1.5,0.5
			c0.3,0.1,0.7,0.3,1.1,0.6C330.5,40.6,330.9,41.4,330.9,42.5z"/>
		<path fill="#606060" d="M343.1,44.4c-1.3,1.2-2.8,1.8-4.5,1.8s-3.1-0.5-4.3-1.6c-1.1-1.1-1.7-2.5-1.7-4.3s0.6-3.2,1.7-4.2
			s2.5-1.6,4-1.6c1.6,0,2.9,0.5,4,1.4c1.1,0.9,1.6,2.2,1.6,3.9v1.7h-8.2c0.1,0.6,0.4,1.1,1,1.5c0.5,0.4,1.2,0.6,1.8,0.6
			c1.1,0,2-0.4,2.7-1.1L343.1,44.4z M340.1,37.7c-0.4-0.4-1-0.5-1.6-0.5c-0.6,0-1.2,0.2-1.7,0.6c-0.5,0.4-0.8,0.9-0.9,1.5h5
			C340.8,38.6,340.5,38,340.1,37.7z"/>
		<path fill="#606060" d="M355.9,46h-3v-1.4c-0.8,1-1.8,1.5-3,1.5c-1.2,0-2.2-0.3-3-1c-0.8-0.7-1.2-1.6-1.2-2.8s0.4-2,1.3-2.6
			c0.8-0.6,2-0.9,3.4-0.9h2.4v-0.1c0-1.2-0.6-1.8-1.9-1.8c-0.5,0-1.1,0.1-1.7,0.3c-0.6,0.2-1.1,0.5-1.5,0.8l-1.4-2
			c1.5-1.1,3.2-1.6,5.1-1.6c1.4,0,2.5,0.3,3.4,1c0.9,0.7,1.3,1.8,1.3,3.3V46z M352.7,41.7v-0.5h-2c-1.3,0-1.9,0.4-1.9,1.2
			c0,0.4,0.1,0.7,0.5,0.9c0.3,0.2,0.7,0.3,1.3,0.3s1.1-0.2,1.5-0.5C352.5,42.7,352.7,42.3,352.7,41.7z"/>
		<path fill="#606060" d="M364.7,37.5c-0.9,0-1.6,0.3-2.1,1s-0.7,1.5-0.7,2.6V46h-3.1V34.7h3.1v1.5c0.4-0.5,0.9-0.9,1.5-1.2
			c0.6-0.3,1.2-0.5,1.9-0.5l0,3H364.7z"/>
		<path fill="#606060" d="M372.8,43.4c1,0,2-0.5,2.8-1.6l1.9,2.1c-1.5,1.5-3,2.3-4.7,2.3s-3.1-0.5-4.3-1.6s-1.8-2.5-1.8-4.2
			c0-1.7,0.6-3.1,1.8-4.2s2.6-1.6,4.2-1.6c0.8,0,1.6,0.2,2.5,0.5c0.8,0.3,1.6,0.8,2.2,1.5l-1.6,2.1c-0.4-0.4-0.8-0.8-1.3-1
			c-0.5-0.2-1-0.4-1.6-0.4c-0.8,0-1.5,0.3-2.1,0.8c-0.6,0.5-0.9,1.3-0.9,2.2s0.3,1.7,0.9,2.2C371.3,43.1,372,43.4,372.8,43.4z"/>
		<path fill="#606060" d="M382.8,39.9V46h-3.1V30.4h3.1V36c1-1,2-1.4,3.2-1.4c1.2,0,2.2,0.4,3,1.3c0.8,0.8,1.2,2,1.2,3.4V46H387
			v-6.2c0-1.7-0.6-2.6-1.9-2.6c-0.6,0-1.2,0.2-1.6,0.7C383,38.4,382.8,39,382.8,39.9z"/>
	</g>
</g>
</svg>
