<?xml version="1.0" encoding="utf-8"?>
<!-- Generator: Adobe Illustrator 23.0.3, SVG Export Plug-In . SVG Version: 6.00 Build 0)  -->
<svg version="1.1" id="Layer_1" xmlns="http://www.w3.org/2000/svg" xmlns:xlink="http://www.w3.org/1999/xlink" x="0px" y="0px"
	 viewBox="0 8 608 54" style="enable-background:new 0 0 608 70;" xml:space="preserve">
<style type="text/css">
	.st0{fill:#606060;}
	.st1{fill:#BB0E3D;}
	.st2{fill:#FFFFFF;}
</style>
<g>
	<g>
		<path class="st0" d="M98,35L83,8H28.8c-3.2,0-5.8,2.6-5.8,5.8v42.4c0,3.2,2.6,5.8,5.8,5.8H83L98,35z"/>
		<path class="st1" d="M96.5,10.8c-1.1-1.7-3-2.8-5-2.8H87l15.2,27L87,62h4.5c2.1,0,4-1.1,5-2.8L110,35L96.5,10.8z"/>
	</g>
	<g>
		<rect x="55" y="23" class="st2" width="4" height="24"/>
		<polygon class="st2" points="47,23 47,40.6 36,23 32,23 32,47 36,47 36,29.4 47,47 51,47 51,23 		"/>
		<polygon class="st2" points="78,23 78,33 67,33 67,23 63,23 63,47 67,47 67,37 78,37 78,47 82,47 82,23 		"/>
	</g>
</g>
<g>
	<g>
		<path class="st1" d="M130.9,16h2.5v11.2h-2.5l-5.3-7v7H123V16h2.3l5.5,7.2V16z"/>
		<path class="st1" d="M144.1,27.2l-1-2.4h-4.7l-1,2.4h-2.7l4.8-11.2h2.4l4.8,11.2L144.1,27.2L144.1,27.2z M140.7,19.3l-1.4,3.2h2.8
			L140.7,19.3z"/>
		<path class="st1" d="M151.9,18.2v9h-2.5v-9h-3.2V16h8.8v2.2H151.9z"/>
		<path class="st1" d="M156.9,16h2.5v11.2h-2.5V16z"/>
		<path class="st1" d="M171.6,25.6c-1.1,1.1-2.5,1.7-4.2,1.7s-3-0.6-4.2-1.7c-1.1-1.1-1.7-2.5-1.7-4.1s0.6-3,1.7-4.1
			c1.1-1.1,2.5-1.7,4.2-1.7s3,0.6,4.2,1.7c1.1,1.1,1.7,2.5,1.7,4.1S172.7,24.5,171.6,25.6z M170.7,21.5c0-1-0.3-1.8-1-2.6
			c-0.6-0.7-1.4-1.1-2.4-1.1s-1.7,0.4-2.4,1.1s-1,1.6-1,2.6c0,1,0.3,1.8,1,2.5c0.6,0.7,1.4,1,2.4,1s1.7-0.3,2.4-1
			C170.4,23.4,170.7,22.5,170.7,21.5z"/>
		<path class="st1" d="M183.2,16h2.5v11.2h-2.5l-5.3-7v7h-2.5V16h2.3l5.5,7.2V16z"/>
		<path class="st1" d="M196.4,27.2l-1-2.4h-4.7l-1,2.4H187l4.8-11.2h2.4l4.8,11.2L196.4,27.2L196.4,27.2z M193.1,19.3l-1.4,3.2h2.8
			L193.1,19.3z"/>
		<path class="st1" d="M200.4,27.2V16h2.5v9h4.8v2.2L200.4,27.2L200.4,27.2z"/>
		<path class="st1" d="M218.8,25c1.2,0,2.2-0.5,3-1.5l1.6,1.6c-1.3,1.4-2.8,2.1-4.5,2.1s-3.1-0.5-4.3-1.6c-1.1-1.1-1.7-2.5-1.7-4.1
			c0-1.7,0.6-3,1.7-4.2c1.1-1.1,2.5-1.7,4.2-1.7c1.8,0,3.4,0.7,4.6,2.1l-1.6,1.8c-0.8-1-1.8-1.5-2.9-1.5c-0.9,0-1.7,0.3-2.4,0.9
			c-0.7,0.6-1,1.4-1,2.5s0.3,1.9,0.9,2.5C217.2,24.7,217.9,25,218.8,25z"/>
		<path class="st1" d="M233.3,27.2l-1-2.4h-4.7l-1,2.4h-2.7l4.8-11.2h2.4l4.8,11.2L233.3,27.2L233.3,27.2z M229.9,19.3l-1.4,3.2h2.8
			L229.9,19.3z"/>
		<path class="st1" d="M245.1,16h2.5v11.2h-2.5l-5.3-7v7h-2.5V16h2.3l5.5,7.2V16z"/>
		<path class="st1" d="M255.5,25c1.2,0,2.2-0.5,3-1.5l1.6,1.6c-1.3,1.4-2.8,2.1-4.5,2.1s-3.1-0.5-4.3-1.6c-1.1-1.1-1.7-2.5-1.7-4.1
			c0-1.7,0.6-3,1.7-4.2c1.1-1.1,2.5-1.7,4.2-1.7c1.8,0,3.4,0.7,4.6,2.1l-1.6,1.8c-0.8-1-1.8-1.5-2.9-1.5c-0.9,0-1.7,0.3-2.4,0.9
			c-0.7,0.6-1,1.4-1,2.5s0.3,1.9,0.9,2.5C253.8,24.7,254.6,25,255.5,25z"/>
		<path class="st1" d="M270.1,16v2.2h-5.6v2.3h5v2.1h-5V25h5.7v2.2H262V16H270.1z"/>
		<path class="st1" d="M281.6,19.7c0,1.8-0.7,2.9-2.1,3.5l2.8,4h-3.1l-2.5-3.6H275v3.6h-2.5V16h4.2c1.7,0,3,0.3,3.7,0.9
			S281.6,18.4,281.6,19.7z M278.6,21c0.3-0.3,0.5-0.7,0.5-1.3s-0.2-1-0.5-1.2s-0.9-0.3-1.7-0.3H275v3.3h1.8
			C277.7,21.5,278.3,21.3,278.6,21z"/>
		<path class="st1" d="M288.4,16h2.5v11.2h-2.5V16z"/>
		<path class="st1" d="M301.4,16h2.5v11.2h-2.5l-5.3-7v7h-2.5V16h2.3l5.5,7.2V16z"/>
		<path class="st1" d="M309.3,18.2c-0.2,0.2-0.4,0.5-0.4,0.8s0.1,0.6,0.4,0.8c0.3,0.2,1,0.4,2,0.7s1.9,0.7,2.5,1.2
			c0.6,0.5,0.9,1.3,0.9,2.3s-0.4,1.8-1.1,2.4s-1.7,0.9-3,0.9c-1.8,0-3.4-0.7-4.8-2l1.5-1.8c1.2,1.1,2.3,1.6,3.3,1.6
			c0.5,0,0.8-0.1,1.1-0.3c0.3-0.2,0.4-0.5,0.4-0.8s-0.1-0.6-0.4-0.8s-0.8-0.4-1.6-0.6c-1.3-0.3-2.3-0.7-2.9-1.2s-0.9-1.3-0.9-2.3
			s0.4-1.9,1.1-2.5c0.8-0.6,1.7-0.9,2.9-0.9c0.7,0,1.5,0.1,2.2,0.4c0.7,0.3,1.4,0.6,2,1.1l-1.3,1.8c-1-0.7-2-1.1-3-1.1
			C309.9,17.9,309.5,18,309.3,18.2z"/>
		<path class="st1" d="M321.5,18.2v9H319v-9h-3.2V16h8.8v2.2H321.5z"/>
		<path class="st1" d="M326.5,16h2.5v11.2h-2.5V16z"/>
		<path class="st1" d="M336.5,18.2v9H334v-9h-3.2V16h8.8v2.2H336.5z"/>
		<path class="st1" d="M344.5,24.3c0.4,0.5,1,0.8,1.7,0.8s1.3-0.3,1.7-0.8c0.4-0.5,0.6-1.2,0.6-2.1V16h2.5v6.3
			c0,1.6-0.4,2.9-1.3,3.7c-0.9,0.9-2,1.3-3.4,1.3c-1.4,0-2.5-0.4-3.4-1.3s-1.4-2.1-1.4-3.7V16h2.5v6.2
			C343.8,23.1,344,23.8,344.5,24.3z"/>
		<path class="st1" d="M358.2,18.2v9h-2.5v-9h-3.2V16h8.8v2.2H358.2z"/>
		<path class="st1" d="M371.3,16v2.2h-5.6v2.3h5v2.1h-5V25h5.7v2.2h-8.2V16H371.3z"/>
	</g>
</g>
<g>
	<path class="st0" d="M134.2,41.3c1.4,1.3,2.1,3.1,2.1,5.3s-0.7,4.1-2,5.4s-3.4,2-6.2,2h-5V39.3h5.2C130.8,39.3,132.8,40,134.2,41.3
		z M131.8,50c0.8-0.8,1.2-1.9,1.2-3.3c0-1.4-0.4-2.6-1.2-3.3c-0.8-0.8-2-1.2-3.7-1.2h-1.8v8.9h2.1C129.9,51.1,131,50.7,131.8,50z"/>
	<path class="st0" d="M139,41.3c-0.4-0.4-0.5-0.8-0.5-1.3s0.2-1,0.5-1.3c0.4-0.4,0.8-0.5,1.3-0.5s1,0.2,1.3,0.5
		c0.4,0.4,0.5,0.8,0.5,1.3s-0.2,1-0.5,1.3c-0.4,0.4-0.8,0.5-1.3,0.5S139.3,41.6,139,41.3z M141.9,54h-3.1V42.7h3.1V54z"/>
	<path class="st0" d="M147.9,54l-4.5-11.3h3.3l2.8,7.1l2.8-7.1h3.3L151.1,54H147.9z"/>
	<path class="st0" d="M157.4,41.3c-0.4-0.4-0.5-0.8-0.5-1.3s0.2-1,0.5-1.3c0.4-0.4,0.8-0.5,1.3-0.5s1,0.2,1.3,0.5
		c0.4,0.4,0.5,0.8,0.5,1.3s-0.2,1-0.5,1.3c-0.4,0.4-0.8,0.5-1.3,0.5S157.8,41.6,157.4,41.3z M160.3,54h-3.1V42.7h3.1V54z"/>
	<path class="st0" d="M171.8,50.5c0,1.1-0.4,2-1.2,2.7s-1.9,1-3.1,1c-0.8,0-1.7-0.2-2.6-0.5s-1.7-0.7-2.5-1.3l1.4-2
		c1.2,0.9,2.4,1.4,3.8,1.4c0.4,0,0.7-0.1,1-0.2c0.2-0.2,0.4-0.4,0.4-0.6c0-0.3-0.2-0.5-0.5-0.7c-0.3-0.2-0.8-0.4-1.4-0.6
		s-1.1-0.4-1.4-0.5c-0.3-0.1-0.7-0.3-1.1-0.6c-0.9-0.5-1.3-1.3-1.3-2.4s0.4-1.9,1.3-2.6s1.9-1,3.3-1s2.7,0.4,4,1.3l-1.2,2.1
		c-1-0.7-2-1-2.9-1c-1,0-1.5,0.3-1.5,0.8c0,0.3,0.2,0.5,0.5,0.7s0.8,0.4,1.5,0.6c0.7,0.2,1.2,0.4,1.5,0.5c0.3,0.1,0.7,0.3,1.1,0.6
		C171.4,48.6,171.8,49.4,171.8,50.5z"/>
	<path class="st0" d="M174.5,41.3c-0.4-0.4-0.5-0.8-0.5-1.3s0.2-1,0.5-1.3c0.4-0.4,0.8-0.5,1.3-0.5s1,0.2,1.3,0.5
		c0.4,0.4,0.5,0.8,0.5,1.3s-0.2,1-0.5,1.3c-0.4,0.4-0.8,0.5-1.3,0.5S174.8,41.6,174.5,41.3z M177.3,54h-3.1V42.7h3.1V54z"/>
	<path class="st0" d="M191.6,48.4c0,1.6-0.6,3-1.7,4.1c-1.1,1.1-2.6,1.7-4.3,1.7s-3.1-0.6-4.3-1.7s-1.7-2.5-1.7-4.1
		c0-1.6,0.6-3,1.7-4.1c1.1-1.1,2.6-1.7,4.3-1.7s3.1,0.6,4.3,1.7C191.1,45.4,191.6,46.7,191.6,48.4z M182.9,48.4
		c0,0.9,0.3,1.7,0.8,2.3c0.5,0.6,1.2,0.9,2,0.9s1.5-0.3,2-0.9s0.8-1.3,0.8-2.3c0-0.9-0.3-1.7-0.8-2.3s-1.2-0.9-2-0.9s-1.5,0.3-2,0.9
		C183.1,46.7,182.9,47.4,182.9,48.4z"/>
	<path class="st0" d="M197.1,47.7V54H194V42.7h3.1V44c1-1,2-1.4,3.2-1.4s2.2,0.4,3,1.3c0.8,0.8,1.2,2,1.2,3.4V54h-3.1v-6.4
		c0-1.7-0.6-2.6-1.9-2.6c-0.6,0-1.2,0.2-1.6,0.7C197.3,46.2,197.1,46.8,197.1,47.7z"/>
	<path class="st0" d="M224.2,48.4c0,1.6-0.6,3-1.7,4.1c-1.1,1.1-2.6,1.7-4.3,1.7s-3.1-0.6-4.3-1.7s-1.7-2.5-1.7-4.1
		c0-1.6,0.6-3,1.7-4.1c1.1-1.1,2.6-1.7,4.3-1.7s3.1,0.6,4.3,1.7C223.7,45.4,224.2,46.7,224.2,48.4z M215.4,48.4
		c0,0.9,0.3,1.7,0.8,2.3c0.5,0.6,1.2,0.9,2,0.9s1.5-0.3,2-0.9s0.8-1.3,0.8-2.3c0-0.9-0.3-1.7-0.8-2.3s-1.2-0.9-2-0.9s-1.5,0.3-2,0.9
		C215.7,46.7,215.4,47.4,215.4,48.4z"/>
	<path class="st0" d="M230.1,42.1v0.8h2.7v2.3h-2.7V54h-3.2v-8.9h-1.3v-2.3h1.3v-0.7c0-1.2,0.4-2.2,1.1-2.9s1.7-1.1,2.8-1.1
		s2.1,0.4,3,1.3l-1.1,2.1c-0.5-0.5-1-0.8-1.5-0.8c-0.3,0-0.6,0.1-0.8,0.3C230.2,41.3,230.1,41.6,230.1,42.1z"/>
	<path class="st0" d="M247.4,51.1c1.6,0,2.9-0.6,3.9-1.9l2.1,2.2c-1.7,1.9-3.6,2.8-5.9,2.8s-4.1-0.7-5.6-2.1
		c-1.5-1.4-2.2-3.2-2.2-5.4c0-2.2,0.7-4,2.2-5.4s3.3-2.2,5.5-2.2c2.4,0,4.4,0.9,6,2.8l-2,2.3c-1-1.3-2.3-1.9-3.9-1.9
		c-1.2,0-2.3,0.4-3.2,1.2c-0.9,0.8-1.3,1.9-1.3,3.3c0,1.4,0.4,2.5,1.2,3.3S246.2,51.1,247.4,51.1z"/>
	<path class="st0" d="M265.2,54h-3v-1.4c-0.8,1-1.8,1.5-3,1.5c-1.2,0-2.2-0.3-3-1c-0.8-0.7-1.2-1.6-1.2-2.8c0-1.2,0.4-2,1.3-2.6
		c0.8-0.6,2-0.9,3.4-0.9h2.4v-0.1c0-1.2-0.6-1.8-1.9-1.8c-0.5,0-1.1,0.1-1.7,0.3c-0.6,0.2-1.1,0.5-1.5,0.8l-1.4-2
		c1.5-1.1,3.2-1.6,5.1-1.6c1.4,0,2.5,0.3,3.4,1c0.9,0.7,1.3,1.8,1.3,3.3L265.2,54L265.2,54z M262,49.7v-0.5h-2
		c-1.3,0-1.9,0.4-1.9,1.2c0,0.4,0.1,0.7,0.5,0.9s0.7,0.3,1.3,0.3s1.1-0.2,1.5-0.5C261.8,50.7,262,50.3,262,49.7z"/>
	<path class="st0" d="M271.2,47.7V54h-3.1V42.7h3.1V44c1-1,2-1.4,3.2-1.4s2.2,0.4,3,1.3c0.8,0.8,1.2,2,1.2,3.4V54h-3.1v-6.4
		c0-1.7-0.6-2.6-1.9-2.6c-0.6,0-1.2,0.2-1.6,0.7C271.5,46.2,271.2,46.8,271.2,47.7z"/>
	<path class="st0" d="M286.9,51.4c1,0,2-0.5,2.8-1.6l1.9,2.1c-1.5,1.5-3,2.3-4.7,2.3s-3.1-0.5-4.3-1.6s-1.8-2.5-1.8-4.2
		s0.6-3.1,1.8-4.2s2.6-1.6,4.2-1.6c0.8,0,1.6,0.2,2.5,0.5s1.6,0.8,2.2,1.5l-1.6,2.1c-0.4-0.4-0.8-0.8-1.3-1c-0.5-0.2-1-0.4-1.6-0.4
		c-0.8,0-1.5,0.3-2.1,0.8s-0.9,1.3-0.9,2.2c0,1,0.3,1.7,0.9,2.2S286.1,51.4,286.9,51.4z"/>
	<path class="st0" d="M303.5,52.4c-1.3,1.2-2.8,1.8-4.5,1.8s-3.1-0.5-4.3-1.6c-1.1-1.1-1.7-2.5-1.7-4.3s0.6-3.2,1.7-4.2
		s2.5-1.6,4-1.6s2.9,0.5,4,1.4c1.1,0.9,1.6,2.2,1.6,3.9v1.7h-8.2c0.1,0.6,0.4,1.1,1,1.5c0.5,0.4,1.2,0.6,1.8,0.6
		c1.1,0,2-0.4,2.7-1.1L303.5,52.4z M300.5,45.7c-0.4-0.4-1-0.5-1.6-0.5c-0.6,0-1.2,0.2-1.7,0.6c-0.5,0.4-0.8,0.9-0.9,1.5h5
		C301.2,46.6,300.9,46,300.5,45.7z"/>
	<path class="st0" d="M312.6,45.5c-0.9,0-1.6,0.3-2.1,1s-0.7,1.5-0.7,2.6V54h-3.1V42.7h3.1v1.5c0.4-0.5,0.9-0.9,1.5-1.2
		c0.6-0.3,1.2-0.5,1.9-0.5l0,3L312.6,45.5L312.6,45.5z"/>
	<path class="st0" d="M331.8,39.3v2.9h-7.3v3h6.6v2.8h-6.6v3h7.5V54h-10.8V39.3H331.8z"/>
	<path class="st0" d="M341.2,42.5c1.3,0,2.5,0.5,3.5,1.6c1,1.1,1.5,2.5,1.5,4.1c0,1.7-0.5,3.1-1.5,4.2c-1,1.1-2.2,1.7-3.6,1.7
		s-2.5-0.6-3.3-1.7v5.6h-3.1V42.7h3.1V44C338.7,43,339.9,42.5,341.2,42.5z M337.7,48.4c0,0.9,0.3,1.7,0.8,2.2
		c0.5,0.6,1.1,0.9,1.9,0.9s1.4-0.3,1.9-0.9c0.5-0.6,0.8-1.3,0.8-2.2c0-0.9-0.3-1.7-0.8-2.3s-1.2-0.9-1.9-0.9s-1.4,0.3-1.9,0.9
		C338,46.7,337.7,47.5,337.7,48.4z"/>
	<path class="st0" d="M348.8,41.3c-0.4-0.4-0.5-0.8-0.5-1.3s0.2-1,0.5-1.3c0.4-0.4,0.8-0.5,1.3-0.5s1,0.2,1.3,0.5
		c0.4,0.4,0.5,0.8,0.5,1.3s-0.2,1-0.5,1.3c-0.4,0.4-0.8,0.5-1.3,0.5S349.2,41.6,348.8,41.3z M351.7,54h-3.1V42.7h3.1V54z"/>
	<path class="st0" d="M359.2,54.2c-1.3,0-2.5-0.6-3.6-1.7c-1-1.1-1.6-2.5-1.6-4.2s0.5-3.1,1.5-4.1c1-1.1,2.2-1.6,3.6-1.6
		s2.5,0.5,3.4,1.4v-5.5h3.1V54h-3.1v-1.5C361.7,53.6,360.6,54.2,359.2,54.2z M357.3,48.4c0,0.9,0.3,1.7,0.8,2.2s1.2,0.9,1.9,0.9
		s1.3-0.3,1.9-0.9c0.5-0.6,0.8-1.3,0.8-2.2s-0.3-1.7-0.8-2.3c-0.5-0.6-1.1-0.9-1.9-0.9c-0.7,0-1.4,0.3-1.9,0.9
		C357.5,46.7,357.3,47.5,357.3,48.4z"/>
	<path class="st0" d="M378.5,52.4c-1.3,1.2-2.8,1.8-4.5,1.8s-3.1-0.5-4.3-1.6c-1.1-1.1-1.7-2.5-1.7-4.3s0.6-3.2,1.7-4.2
		s2.5-1.6,4-1.6s2.9,0.5,4,1.4c1.1,0.9,1.6,2.2,1.6,3.9v1.7h-8.2c0.1,0.6,0.4,1.1,1,1.5c0.5,0.4,1.2,0.6,1.8,0.6
		c1.1,0,2-0.4,2.7-1.1L378.5,52.4z M375.5,45.7c-0.4-0.4-1-0.5-1.6-0.5c-0.6,0-1.2,0.2-1.7,0.6c-0.5,0.4-0.8,0.9-0.9,1.5h5
		C376.1,46.6,375.9,46,375.5,45.7z"/>
	<path class="st0" d="M392,47.9V54h-3.2v-6.2c0-0.9-0.1-1.6-0.4-2c-0.3-0.4-0.7-0.6-1.3-0.6s-1.1,0.2-1.6,0.7
		c-0.5,0.5-0.7,1.1-0.7,2V54h-3.1V42.7h3.1V44c0.9-1,1.9-1.5,3-1.5c0.7,0,1.4,0.2,1.9,0.6c0.6,0.4,1,0.9,1.3,1.5
		c0.4-0.7,1-1.2,1.8-1.6s1.5-0.6,2.2-0.6c1.3,0,2.4,0.4,3.2,1.2s1.2,1.9,1.2,3.4V54h-3.2v-6.2c0-1.7-0.6-2.6-1.9-2.6
		c-0.6,0-1.2,0.2-1.6,0.7C392.3,46.4,392,47,392,47.9z"/>
	<path class="st0" d="M402.6,41.3c-0.4-0.4-0.5-0.8-0.5-1.3s0.2-1,0.5-1.3c0.4-0.4,0.8-0.5,1.3-0.5s1,0.2,1.3,0.5
		c0.4,0.4,0.5,0.8,0.5,1.3s-0.2,1-0.5,1.3c-0.4,0.4-0.8,0.5-1.3,0.5C403.4,41.8,402.9,41.6,402.6,41.3z M405.5,54h-3.1V42.7h3.1V54z
		"/>
	<path class="st0" d="M419.7,48.4c0,1.6-0.6,3-1.7,4.1c-1.1,1.1-2.6,1.7-4.3,1.7s-3.1-0.6-4.3-1.7s-1.7-2.5-1.7-4.1
		c0-1.6,0.6-3,1.7-4.1c1.1-1.1,2.6-1.7,4.3-1.7s3.1,0.6,4.3,1.7C419.2,45.4,419.7,46.7,419.7,48.4z M411,48.4c0,0.9,0.3,1.7,0.8,2.3
		c0.5,0.6,1.2,0.9,2,0.9s1.5-0.3,2-0.9s0.8-1.3,0.8-2.3c0-0.9-0.3-1.7-0.8-2.3c-0.5-0.6-1.2-0.9-2-0.9s-1.5,0.3-2,0.9
		C411.2,46.7,411,47.4,411,48.4z"/>
	<path class="st0" d="M425.2,54h-3.1V38.4h3.1V54z"/>
	<path class="st0" d="M439.5,48.4c0,1.6-0.6,3-1.7,4.1c-1.1,1.1-2.6,1.7-4.3,1.7s-3.1-0.6-4.3-1.7s-1.7-2.5-1.7-4.1
		c0-1.6,0.6-3,1.7-4.1c1.1-1.1,2.6-1.7,4.3-1.7s3.1,0.6,4.3,1.7C438.9,45.4,439.5,46.7,439.5,48.4z M430.7,48.4
		c0,0.9,0.3,1.7,0.8,2.3c0.5,0.6,1.2,0.9,2,0.9s1.5-0.3,2-0.9s0.8-1.3,0.8-2.3c0-0.9-0.3-1.7-0.8-2.3c-0.5-0.6-1.2-0.9-2-0.9
		s-1.5,0.3-2,0.9C431,46.7,430.7,47.4,430.7,48.4z"/>
	<path class="st0" d="M450.2,52.1c-1,1.1-2.2,1.7-3.7,1.7c-1.5,0-2.7-0.5-3.7-1.5c-1-1-1.5-2.3-1.5-4c0-1.7,0.5-3,1.6-4.1
		c1-1.1,2.2-1.6,3.6-1.6c1.3,0,2.5,0.6,3.3,1.7v-1.5h3.1v9.8c0,1-0.2,1.9-0.5,2.7c-0.4,0.8-0.8,1.4-1.4,1.8
		c-1.2,0.9-2.5,1.4-4.1,1.4c-0.8,0-1.7-0.1-2.6-0.4c-0.9-0.3-1.6-0.7-2.3-1.2l1.2-2.4c1,0.8,2.1,1.2,3.3,1.2s2.1-0.3,2.7-0.9
		C449.9,54.3,450.2,53.4,450.2,52.1z M449.8,48.1c0-0.9-0.3-1.6-0.8-2.1c-0.5-0.5-1.1-0.8-1.9-0.8c-0.7,0-1.4,0.3-1.9,0.8
		c-0.5,0.5-0.8,1.2-0.8,2.1c0,0.9,0.3,1.6,0.8,2.2c0.5,0.6,1.2,0.8,1.9,0.8s1.4-0.3,1.9-0.8S449.8,49,449.8,48.1z"/>
	<path class="st0" d="M457.8,58.5c-1.1,0-2.1-0.4-3.1-1.3l1.4-2.3c0.5,0.5,1.1,0.8,1.6,0.8c0.3,0,0.5-0.1,0.8-0.4s0.3-0.6,0.3-0.9
		s-1.5-4.2-4.4-11.5h3.4l2.8,7l2.8-7h3.4L461.4,56c-0.3,0.8-0.8,1.4-1.4,1.8C459.3,58.3,458.6,58.5,457.8,58.5z"/>
	<path class="st0" d="M482.7,52.8c-1.2,1-2.5,1.4-4.1,1.4s-2.8-0.4-3.8-1.2s-1.5-1.9-1.5-3.2c0-1.5,1-2.9,3.1-4.1
		c-0.5-0.6-0.8-1.1-1-1.5s-0.3-0.9-0.3-1.5c0-1.2,0.4-2.1,1.3-2.7c0.9-0.6,1.9-0.9,3.1-0.9c1.2,0,2.2,0.3,3,0.9s1.2,1.5,1.2,2.6
		c0,1.4-1,2.6-3,3.8c0.8,1,1.4,1.7,1.8,2.1c0.4-0.6,0.6-1.3,0.8-2l2.5,1.8c-0.3,0.9-0.7,1.7-1.2,2.5l2.1,2.1l-2.1,2L482.7,52.8z
		 M477,51.1c0.4,0.3,0.9,0.5,1.6,0.5s1.3-0.3,2.1-0.9c-1-1.1-1.9-2.1-2.6-2.9c-1.1,0.7-1.6,1.4-1.6,2.2
		C476.4,50.4,476.6,50.8,477,51.1z M479.4,41.5c-0.3,0-0.6,0.1-0.8,0.3c-0.2,0.2-0.4,0.5-0.4,0.9s0.3,0.9,0.8,1.6
		c1-0.6,1.6-1.1,1.6-1.6c0-0.4-0.1-0.7-0.4-0.9C480,41.6,479.7,41.5,479.4,41.5z"/>
	<path class="st0" d="M503.9,46.5h3.3v5.2c-1.5,1.6-3.5,2.4-6,2.4c-2.2,0-4-0.7-5.4-2.1c-1.5-1.4-2.2-3.2-2.2-5.4
		c0-2.2,0.7-4,2.2-5.4c1.5-1.5,3.3-2.2,5.4-2.2c2.1,0,3.9,0.7,5.5,2.1l-1.7,2.5c-0.7-0.6-1.3-1-1.8-1.2c-0.6-0.2-1.2-0.3-1.8-0.3
		c-1.2,0-2.3,0.4-3.1,1.3c-0.9,0.8-1.3,2-1.3,3.3s0.4,2.5,1.2,3.3c0.8,0.8,1.8,1.2,2.9,1.2s2.1-0.2,2.8-0.7L503.9,46.5L503.9,46.5z"
		/>
	<path class="st0" d="M519.6,52.4c-1.3,1.2-2.8,1.8-4.5,1.8c-1.7,0-3.1-0.5-4.3-1.6c-1.1-1.1-1.7-2.5-1.7-4.3s0.6-3.2,1.7-4.2
		c1.1-1,2.5-1.6,4-1.6c1.6,0,2.9,0.5,4,1.4c1.1,0.9,1.6,2.2,1.6,3.9v1.7h-8.2c0.1,0.6,0.4,1.1,1,1.5c0.5,0.4,1.2,0.6,1.8,0.6
		c1.1,0,2-0.4,2.7-1.1L519.6,52.4z M516.5,45.7c-0.4-0.4-1-0.5-1.6-0.5c-0.6,0-1.2,0.2-1.7,0.6c-0.5,0.4-0.8,0.9-0.9,1.5h5
		C517.2,46.6,517,46,516.5,45.7z"/>
	<path class="st0" d="M525.9,47.7V54h-3.1V42.7h3.1V44c1-1,2-1.4,3.2-1.4s2.2,0.4,3,1.3c0.8,0.8,1.2,2,1.2,3.4V54h-3.1v-6.4
		c0-1.7-0.6-2.6-1.9-2.6c-0.6,0-1.2,0.2-1.6,0.7C526.1,46.2,525.9,46.8,525.9,47.7z"/>
	<path class="st0" d="M546,52.4c-1.3,1.2-2.8,1.8-4.5,1.8c-1.7,0-3.1-0.5-4.3-1.6c-1.1-1.1-1.7-2.5-1.7-4.3s0.6-3.2,1.7-4.2
		c1.1-1,2.5-1.6,4-1.6c1.6,0,2.9,0.5,4,1.4c1.1,0.9,1.6,2.2,1.6,3.9v1.7h-8.2c0.1,0.6,0.4,1.1,1,1.5c0.5,0.4,1.2,0.6,1.8,0.6
		c1.1,0,2-0.4,2.7-1.1L546,52.4z M542.9,45.7c-0.4-0.4-1-0.5-1.6-0.5c-0.6,0-1.2,0.2-1.7,0.6c-0.5,0.4-0.8,0.9-0.9,1.5h5
		C543.6,46.6,543.4,46,542.9,45.7z"/>
	<path class="st0" d="M552.8,45v5.1c0,0.4,0.1,0.8,0.3,1s0.5,0.4,0.8,0.4c0.6,0,1.1-0.3,1.5-0.8l1.2,2.2c-1,0.9-2,1.3-3.1,1.3
		s-2-0.4-2.8-1.1s-1.1-1.7-1.1-2.9V45h-1.3v-2.3h1.3v-3.4h3.2v3.4h2.7V45H552.8z"/>
	<path class="st0" d="M558.5,41.3c-0.4-0.4-0.5-0.8-0.5-1.3s0.2-1,0.5-1.3c0.4-0.4,0.8-0.5,1.3-0.5s1,0.2,1.3,0.5
		c0.4,0.4,0.5,0.8,0.5,1.3s-0.2,1-0.5,1.3c-0.4,0.4-0.8,0.5-1.3,0.5C559.3,41.8,558.9,41.6,558.5,41.3z M561.4,54h-3.1V42.7h3.1V54z
		"/>
	<path class="st0" d="M569.8,51.4c1,0,2-0.5,2.8-1.6l1.9,2.1c-1.5,1.5-3,2.3-4.7,2.3c-1.7,0-3.1-0.5-4.3-1.6s-1.8-2.5-1.8-4.2
		s0.6-3.1,1.8-4.2c1.2-1.1,2.6-1.6,4.2-1.6c0.8,0,1.6,0.2,2.5,0.5c0.8,0.3,1.6,0.8,2.2,1.5l-1.6,2.1c-0.4-0.4-0.8-0.8-1.3-1
		c-0.5-0.2-1-0.4-1.6-0.4c-0.8,0-1.5,0.3-2.1,0.8s-0.9,1.3-0.9,2.2c0,1,0.3,1.7,0.9,2.2S569,51.4,569.8,51.4z"/>
	<path class="st0" d="M585.1,50.5c0,1.1-0.4,2-1.2,2.7s-1.9,1-3.1,1c-0.8,0-1.7-0.2-2.6-0.5c-0.9-0.3-1.7-0.7-2.5-1.3l1.4-2
		c1.2,0.9,2.4,1.4,3.8,1.4c0.4,0,0.7-0.1,1-0.2c0.2-0.2,0.4-0.4,0.4-0.6c0-0.3-0.2-0.5-0.5-0.7s-0.8-0.4-1.4-0.6s-1.1-0.4-1.4-0.5
		c-0.3-0.1-0.7-0.3-1.1-0.6c-0.9-0.5-1.3-1.3-1.3-2.4s0.4-1.9,1.3-2.6s1.9-1,3.3-1s2.7,0.4,4,1.3l-1.2,2.1c-1-0.7-2-1-2.9-1
		c-1,0-1.5,0.3-1.5,0.8c0,0.3,0.2,0.5,0.5,0.7c0.3,0.2,0.8,0.4,1.5,0.6s1.2,0.4,1.5,0.5c0.3,0.1,0.7,0.3,1.1,0.6
		C584.7,48.6,585.1,49.4,585.1,50.5z"/>
</g>
</svg>
