<?xml version="1.0" encoding="UTF-8" standalone="no"?>
<svg xmlns:svg="http://www.w3.org/2000/svg" xmlns="http://www.w3.org/2000/svg" version="1.1" x="0px" y="0px" viewBox="0 0 565.83002 54" enable-background="new 0 0 612 100" xml:space="preserve"><g transform="translate(-23,-23)"><g><path d="m137.666 39.157 4.68 0 0 20.97-4.68 0-9.99-13.14 0 13.14-4.68 0 0-20.97 4.38 0 10.29 13.5 0-13.5z" fill="#bb0e3d"/><path d="m162.445 60.127-1.949-4.53-8.79 0-1.95 4.53-4.98 0 9.061-20.97 4.53 0 9.06 20.97-4.982 0zm-6.329-14.73-2.641 6.09 5.25 0-2.609-6.09z" fill="#bb0e3d"/><path d="m177.205 43.208 0 16.92-4.68 0 0-16.92-5.94 0 0-4.05 16.561 0 0 4.05-5.941 0z" fill="#bb0e3d"/><path d="m186.564 39.157 4.68 0 0 20.97-4.68 0 0-20.97z" fill="#bb0e3d"/><path d="m214.044 57.232c-2.12 2.07-4.729 3.105-7.83 3.105-3.1 0-5.71-1.035-7.83-3.105-2.12-2.07-3.18-4.645-3.18-7.725 0-3.08 1.06-5.655 3.18-7.725 2.12-2.07 4.73-3.105 7.83-3.105 3.101 0 5.71 1.035 7.83 3.105 2.12 2.07 3.181 4.646 3.181 7.725 0 3.08-1.061 5.656-3.181 7.725zm-1.59-7.71c0-1.87-0.6-3.465-1.8-4.785-1.2-1.32-2.675-1.98-4.425-1.98-1.751 0-3.226 0.66-4.425 1.98-1.2 1.32-1.801 2.916-1.801 4.785 0 1.87 0.601 3.46 1.801 4.77 1.199 1.31 2.674 1.965 4.425 1.965 1.75 0 3.225-0.655 4.425-1.965 1.2-1.309 1.8-2.899 1.8-4.77z" fill="#bb0e3d"/><path d="m235.854 39.157 4.68 0 0 20.97-4.68 0-9.99-13.14 0 13.14-4.68 0 0-20.97 4.38 0 10.29 13.5 0-13.5z" fill="#bb0e3d"/><path d="m260.633 60.127-1.949-4.53-8.79 0-1.95 4.53-4.98 0 9.061-20.97 4.53 0 9.06 20.97-4.982 0zm-6.329-14.73-2.641 6.09 5.25 0-2.609-6.09z" fill="#bb0e3d"/><path d="m268.043 60.127 0-20.97 4.68 0 0 16.8 8.94 0 0 4.17-13.62 0z" fill="#bb0e3d"/><path d="m302.633 55.987c2.3 0 4.18-0.91 5.64-2.73l3 3.09c-2.38 2.68-5.185 4.02-8.415 4.02-3.229 0-5.89-1.02-7.979-3.06-2.089-2.04-3.135-4.615-3.135-7.725 0-3.11 1.064-5.705 3.194-7.785 2.13-2.08 4.735-3.12 7.815-3.12 3.439 0 6.319 1.311 8.64 3.93l-2.91 3.3c-1.479-1.84-3.319-2.76-5.52-2.76-1.76 0-3.266 0.575-4.515 1.725-1.251 1.15-1.875 2.7-1.875 4.65 0 1.95 0.589 3.515 1.77 4.695 1.179 1.181 2.61 1.77 4.29 1.77z" fill="#bb0e3d"/><path d="m329.753 60.127-1.949-4.53-8.79 0-1.95 4.53-4.98 0 9.061-20.97 4.53 0 9.06 20.97-4.982 0zm-6.329-14.73-2.641 6.09 5.25 0-2.609-6.09z" fill="#bb0e3d"/><path d="m351.833 39.157 4.68 0 0 20.97-4.68 0-9.99-13.14 0 13.14-4.68 0 0-20.97 4.38 0 10.29 13.5 0-13.5z" fill="#bb0e3d"/><path d="m371.303 55.987c2.3 0 4.18-0.91 5.64-2.73l3 3.09c-2.38 2.68-5.185 4.02-8.415 4.02-3.229 0-5.89-1.02-7.979-3.06-2.089-2.04-3.135-4.615-3.135-7.725 0-3.11 1.064-5.705 3.194-7.785 2.13-2.08 4.735-3.12 7.815-3.12 3.439 0 6.319 1.311 8.64 3.93l-2.91 3.3c-1.479-1.84-3.319-2.76-5.52-2.76-1.76 0-3.266 0.575-4.515 1.725-1.251 1.15-1.875 2.7-1.875 4.65 0 1.95 0.589 3.515 1.77 4.695 1.179 1.181 2.61 1.77 4.29 1.77z" fill="#bb0e3d"/><path d="m398.753 39.157 0 4.17-10.44 0 0 4.32 9.391 0 0 3.99-9.391 0 0 4.35 10.771 0 0 4.14-15.45 0 0-20.97 15.119 0z" fill="#bb0e3d"/><path d="m420.263 46.118c0 3.36-1.33 5.53-3.99 6.51l5.311 7.5-5.76 0-4.65-6.69-3.24 0 0 6.69-4.68 0 0-20.97 7.95 0c3.26 0 5.584 0.55 6.975 1.65 1.388 1.1 2.084 2.87 2.084 5.31zm-5.64 2.489c0.58-0.52 0.87-1.345 0.87-2.475 0-1.129-0.301-1.905-0.9-2.325-0.6-0.42-1.65-0.63-3.15-0.63l-3.51 0 0 6.21 3.42 0c1.6 0 2.69-0.259 3.27-0.78z" fill="#bb0e3d"/><path d="m432.982 39.157 4.68 0 0 20.97-4.68 0 0-20.97z" fill="#bb0e3d"/><path d="m457.492 39.157 4.68 0 0 20.97-4.68 0-9.99-13.14 0 13.14-4.68 0 0-20.97 4.38 0 10.29 13.5 0-13.5z" fill="#bb0e3d"/><path d="m472.237 43.342c-0.45 0.371-0.676 0.86-0.676 1.47 0 0.61 0.275 1.095 0.825 1.455 0.55 0.36 1.82 0.785 3.811 1.275 1.989 0.49 3.534 1.225 4.635 2.205 1.1 0.98 1.65 2.41 1.65 4.29 0 1.88-0.705 3.405-2.115 4.575-1.41 1.17-3.266 1.755-5.565 1.755-3.32 0-6.311-1.23-8.97-3.69l2.79-3.42c2.26 1.98 4.35 2.97 6.27 2.97 0.86 0 1.535-0.185 2.025-0.555 0.49-0.37 0.735-0.87 0.735-1.5 0-0.63-0.261-1.129-0.78-1.5-0.521-0.37-1.55-0.745-3.09-1.125-2.44-0.58-4.226-1.335-5.355-2.265-1.13-0.93-1.694-2.39-1.694-4.38 0-1.99 0.715-3.525 2.145-4.605 1.43-1.08 3.215-1.62 5.355-1.62 1.399 0 2.8 0.24 4.199 0.72 1.4 0.48 2.62 1.16 3.66 2.04l-2.37 3.42c-1.82-1.38-3.7-2.07-5.64-2.07-0.78 0.001-1.395 0.186-1.845 0.555z" fill="#bb0e3d"/><path d="m495.172 43.208 0 16.92-4.68 0 0-16.92-5.94 0 0-4.05 16.561 0 0 4.05-5.941 0z" fill="#bb0e3d"/><path d="m504.531 39.157 4.68 0 0 20.97-4.68 0 0-20.97z" fill="#bb0e3d"/><path d="m523.251 43.208 0 16.92-4.68 0 0-16.92-5.94 0 0-4.05 16.561 0 0 4.05-5.941 0z" fill="#bb0e3d"/><path d="m538.16 54.712c0.78 0.97 1.83 1.455 3.15 1.455 1.319 0 2.364-0.485 3.135-1.455 0.77-0.97 1.155-2.295 1.155-3.975l0-11.58 4.68 0 0 11.73c0 3.041-0.84 5.375-2.52 7.005-1.681 1.63-3.831 2.445-6.45 2.445-2.62 0-4.775-0.82-6.465-2.46-1.69-1.64-2.535-3.97-2.535-6.99l0-11.73 4.68 0 0 11.58c0 1.68 0.39 3.006 1.17 3.975z" fill="#bb0e3d"/><path d="m564.02 43.208 0 16.92-4.68 0 0-16.92-5.94 0 0-4.05 16.561 0 0 4.05-5.941 0z" fill="#bb0e3d"/><path d="m588.499 39.157 0 4.17-10.44 0 0 4.32 9.391 0 0 3.99-9.391 0 0 4.35 10.771 0 0 4.14-15.45 0 0-20.97 15.119 0z" fill="#bb0e3d"/></g><g><g><path d="M98 50 83 23 28.769 23C25.583 23 23 25.59 23 28.786l0 42.428C23 74.41 25.583 77 28.769 77L83 77 98 50Z" fill="#606060"/><path d="M96.501 25.815C95.446 24.069 93.541 23 91.486 23L87 23 102.201 50 87 77l4.486 0c2.055 0 3.96-1.069 5.015-2.815L110 50 96.501 25.815Z" fill="#bb0e3d"/></g><g><rect x="55" y="38" width="4" height="24" fill="#fff"/><polygon points="32 38 32 62 36 62 36 44.4 47 62 51 62 51 38 47 38 47 55.6 36 38 " fill="#fff"/><polygon points="67 38 63 38 63 62 67 62 67 52 78 52 78 62 82 62 82 38 78 38 78 48 67 48 " fill="#fff"/></g></g></g></svg>