<?xml version="1.0" encoding="utf-8"?>
<!-- Generator: Adobe Illustrator 19.2.1, SVG Export Plug-In . SVG Version: 6.00 Build 0)  -->
<svg version="1.1" id="Layer_1" xmlns="http://www.w3.org/2000/svg" xmlns:xlink="http://www.w3.org/1999/xlink" x="0px" y="0px"
	 viewBox="0 0 539.8 56" style="enable-background:new 0 0 539.8 56;" xml:space="preserve">
<style type="text/css">
	.st0{clip-path:url(#SVGID_2_);fill:#606060;}
	.st1{clip-path:url(#SVGID_4_);fill:#BB0E3D;}
	.st2{clip-path:url(#SVGID_6_);fill:#FFFFFF;}
	.st3{clip-path:url(#SVGID_8_);fill:#FFFFFF;}
	.st4{clip-path:url(#SVGID_10_);fill:#FFFFFF;}
	.st5{clip-path:url(#SVGID_12_);fill:#BB0E3D;}
	.st6{clip-path:url(#SVGID_14_);fill:#BB0E3D;}
	.st7{clip-path:url(#SVGID_16_);fill:#BB0E3D;}
	.st8{clip-path:url(#SVGID_18_);fill:#BB0E3D;}
	.st9{clip-path:url(#SVGID_20_);fill:#BB0E3D;}
	.st10{clip-path:url(#SVGID_22_);fill:#BB0E3D;}
	.st11{clip-path:url(#SVGID_24_);fill:#BB0E3D;}
	.st12{clip-path:url(#SVGID_26_);fill:#BB0E3D;}
	.st13{clip-path:url(#SVGID_28_);fill:#BB0E3D;}
	.st14{clip-path:url(#SVGID_30_);fill:#BB0E3D;}
	.st15{clip-path:url(#SVGID_32_);fill:#BB0E3D;}
	.st16{clip-path:url(#SVGID_34_);fill:#BB0E3D;}
	.st17{clip-path:url(#SVGID_36_);fill:#BB0E3D;}
	.st18{clip-path:url(#SVGID_38_);fill:#BB0E3D;}
	.st19{clip-path:url(#SVGID_40_);fill:#BB0E3D;}
	.st20{clip-path:url(#SVGID_42_);fill:#BB0E3D;}
	.st21{clip-path:url(#SVGID_44_);fill:#BB0E3D;}
	.st22{clip-path:url(#SVGID_46_);fill:#BB0E3D;}
	.st23{clip-path:url(#SVGID_48_);fill:#BB0E3D;}
	.st24{clip-path:url(#SVGID_50_);fill:#BB0E3D;}
	.st25{clip-path:url(#SVGID_52_);fill:#BB0E3D;}
	.st26{clip-path:url(#SVGID_54_);fill:#BB0E3D;}
	.st27{clip-path:url(#SVGID_56_);fill:#BB0E3D;}
	.st28{clip-path:url(#SVGID_58_);fill:#606060;}
	.st29{clip-path:url(#SVGID_60_);fill:#606060;}
	.st30{clip-path:url(#SVGID_62_);fill:#606060;}
	.st31{clip-path:url(#SVGID_64_);fill:#606060;}
	.st32{clip-path:url(#SVGID_66_);fill:#606060;}
	.st33{clip-path:url(#SVGID_68_);fill:#606060;}
	.st34{clip-path:url(#SVGID_70_);fill:#606060;}
	.st35{clip-path:url(#SVGID_72_);fill:#606060;}
	.st36{clip-path:url(#SVGID_74_);fill:#606060;}
	.st37{clip-path:url(#SVGID_76_);fill:#606060;}
	.st38{clip-path:url(#SVGID_78_);fill:#606060;}
	.st39{clip-path:url(#SVGID_80_);fill:#606060;}
	.st40{clip-path:url(#SVGID_82_);fill:#606060;}
	.st41{clip-path:url(#SVGID_84_);fill:#606060;}
	.st42{clip-path:url(#SVGID_86_);fill:#606060;}
	.st43{clip-path:url(#SVGID_88_);fill:#606060;}
	.st44{clip-path:url(#SVGID_90_);fill:#606060;}
	.st45{clip-path:url(#SVGID_92_);fill:#606060;}
	.st46{clip-path:url(#SVGID_94_);fill:#606060;}
	.st47{clip-path:url(#SVGID_96_);fill:#606060;}
	.st48{clip-path:url(#SVGID_98_);fill:#606060;}
	.st49{clip-path:url(#SVGID_100_);fill:#606060;}
	.st50{clip-path:url(#SVGID_102_);fill:#606060;}
	.st51{clip-path:url(#SVGID_104_);fill:#606060;}
	.st52{clip-path:url(#SVGID_106_);fill:#606060;}
	.st53{clip-path:url(#SVGID_108_);fill:#606060;}
	.st54{clip-path:url(#SVGID_110_);fill:#606060;}
	.st55{clip-path:url(#SVGID_112_);fill:#606060;}
	.st56{clip-path:url(#SVGID_114_);fill:#606060;}
	.st57{clip-path:url(#SVGID_116_);fill:#606060;}
	.st58{clip-path:url(#SVGID_118_);fill:#606060;}
	.st59{clip-path:url(#SVGID_120_);fill:#606060;}
	.st60{clip-path:url(#SVGID_122_);fill:#606060;}
	.st61{clip-path:url(#SVGID_124_);fill:#606060;}
	.st62{clip-path:url(#SVGID_126_);fill:#606060;}
</style>
<g>
	<g>
		<defs>
			<rect id="SVGID_1_" x="-23.2" y="-22.3" width="588" height="100"/>
		</defs>
		<clipPath id="SVGID_2_">
			<use xlink:href="#SVGID_1_"  style="overflow:visible;"/>
		</clipPath>
		<path class="st0" d="M76.2,27.7l-15-27H7c-3.2,0-5.8,2.6-5.8,5.8v42.4c0,3.2,2.6,5.8,5.8,5.8h54.2L76.2,27.7z"/>
	</g>
	<g>
		<defs>
			<rect id="SVGID_3_" x="-23.2" y="-22.3" width="588" height="100"/>
		</defs>
		<clipPath id="SVGID_4_">
			<use xlink:href="#SVGID_3_"  style="overflow:visible;"/>
		</clipPath>
		<path class="st1" d="M74.8,3.5c-1.1-1.7-3-2.8-5-2.8h-4.5l15.2,27l-15.2,27h4.5c2.1,0,4-1.1,5-2.8l13.5-24.2L74.8,3.5z"/>
	</g>
	<g>
		<defs>
			<rect id="SVGID_5_" x="-23.2" y="-22.3" width="588" height="100"/>
		</defs>
		<clipPath id="SVGID_6_">
			<use xlink:href="#SVGID_5_"  style="overflow:visible;"/>
		</clipPath>
		<rect x="33.2" y="15.7" class="st2" width="4" height="24"/>
	</g>
	<g>
		<defs>
			<rect id="SVGID_7_" x="-23.2" y="-22.3" width="588" height="100"/>
		</defs>
		<clipPath id="SVGID_8_">
			<use xlink:href="#SVGID_7_"  style="overflow:visible;"/>
		</clipPath>
		<polygon class="st3" points="25.2,15.7 25.2,33.3 14.2,15.7 10.2,15.7 10.2,39.7 14.2,39.7 14.2,22.1 25.2,39.7 29.2,39.7 
			29.2,15.7 		"/>
	</g>
	<g>
		<defs>
			<rect id="SVGID_9_" x="-23.2" y="-22.3" width="588" height="100"/>
		</defs>
		<clipPath id="SVGID_10_">
			<use xlink:href="#SVGID_9_"  style="overflow:visible;"/>
		</clipPath>
		<polygon class="st4" points="56.2,15.7 56.2,25.7 45.2,25.7 45.2,15.7 41.2,15.7 41.2,39.7 45.2,39.7 45.2,29.7 56.2,29.7 
			56.2,39.7 60.2,39.7 60.2,15.7 		"/>
	</g>
	<g>
		<defs>
			<rect id="SVGID_11_" x="-23.2" y="-22.3" width="588" height="100"/>
		</defs>
		<clipPath id="SVGID_12_">
			<use xlink:href="#SVGID_11_"  style="overflow:visible;"/>
		</clipPath>
		<polygon class="st5" points="109.1,8.7 111.6,8.7 111.6,19.9 109.1,19.9 103.8,12.9 103.8,19.9 101.2,19.9 101.2,8.7 103.7,8.7 
			109.1,15.9 		"/>
	</g>
	<g>
		<defs>
			<rect id="SVGID_13_" x="-23.2" y="-22.3" width="588" height="100"/>
		</defs>
		<clipPath id="SVGID_14_">
			<use xlink:href="#SVGID_13_"  style="overflow:visible;"/>
		</clipPath>
		<path class="st6" d="M122.4,19.9l-1-2.4h-4.7l-1,2.4H113l4.8-11.2h2.4l4.8,11.2H122.4z M118.9,12l-1.4,3.2h2.8L118.9,12z"/>
	</g>
	<g>
		<defs>
			<rect id="SVGID_15_" x="-23.2" y="-22.3" width="588" height="100"/>
		</defs>
		<clipPath id="SVGID_16_">
			<use xlink:href="#SVGID_15_"  style="overflow:visible;"/>
		</clipPath>
		<polygon class="st7" points="130.1,10.9 130.1,19.9 127.6,19.9 127.6,10.9 124.6,10.9 124.6,8.7 133.4,8.7 133.4,10.9 		"/>
	</g>
	<g>
		<defs>
			<rect id="SVGID_17_" x="-23.2" y="-22.3" width="588" height="100"/>
		</defs>
		<clipPath id="SVGID_18_">
			<use xlink:href="#SVGID_17_"  style="overflow:visible;"/>
		</clipPath>
		<rect x="135.1" y="8.7" class="st8" width="2.5" height="11.2"/>
	</g>
	<g>
		<defs>
			<rect id="SVGID_19_" x="-23.2" y="-22.3" width="588" height="100"/>
		</defs>
		<clipPath id="SVGID_20_">
			<use xlink:href="#SVGID_19_"  style="overflow:visible;"/>
		</clipPath>
		<path class="st9" d="M149.9,18.3c-1.1,1.1-2.5,1.7-4.2,1.7s-3-0.6-4.2-1.7c-1.1-1.1-1.7-2.5-1.7-4.1s0.6-3,1.7-4.1
			c1.1-1.1,2.5-1.7,4.2-1.7s3,0.6,4.2,1.7c1.1,1.1,1.7,2.5,1.7,4.1C151.6,15.9,150.9,17.2,149.9,18.3 M148.9,14.2c0-1-0.3-1.8-1-2.6
			c-0.6-0.7-1.4-1.1-2.4-1.1s-1.7,0.4-2.4,1.1c-0.6,0.7-1,1.6-1,2.6s0.3,1.8,1,2.5c0.6,0.7,1.4,1,2.4,1s1.7-0.3,2.4-1
			C148.6,16.1,148.9,15.2,148.9,14.2"/>
	</g>
	<g>
		<defs>
			<rect id="SVGID_21_" x="-23.2" y="-22.3" width="588" height="100"/>
		</defs>
		<clipPath id="SVGID_22_">
			<use xlink:href="#SVGID_21_"  style="overflow:visible;"/>
		</clipPath>
		<polygon class="st10" points="161.4,8.7 163.9,8.7 163.9,19.9 161.4,19.9 156.1,12.9 156.1,19.9 153.6,19.9 153.6,8.7 155.9,8.7 
			161.4,15.9 		"/>
	</g>
	<g>
		<defs>
			<rect id="SVGID_23_" x="-23.2" y="-22.3" width="588" height="100"/>
		</defs>
		<clipPath id="SVGID_24_">
			<use xlink:href="#SVGID_23_"  style="overflow:visible;"/>
		</clipPath>
		<path class="st11" d="M174.6,19.9l-1-2.4h-4.7l-1,2.4h-2.7l4.8-11.2h2.4l4.8,11.2H174.6z M171.4,12l-1.4,3.2h2.8L171.4,12z"/>
	</g>
	<g>
		<defs>
			<rect id="SVGID_25_" x="-23.2" y="-22.3" width="588" height="100"/>
		</defs>
		<clipPath id="SVGID_26_">
			<use xlink:href="#SVGID_25_"  style="overflow:visible;"/>
		</clipPath>
		<polygon class="st12" points="178.6,19.9 178.6,8.7 181.1,8.7 181.1,17.7 185.9,17.7 185.9,19.9 		"/>
	</g>
	<g>
		<defs>
			<rect id="SVGID_27_" x="-23.2" y="-22.3" width="588" height="100"/>
		</defs>
		<clipPath id="SVGID_28_">
			<use xlink:href="#SVGID_27_"  style="overflow:visible;"/>
		</clipPath>
		<path class="st13" d="M197.1,17.7c1.2,0,2.2-0.5,3-1.5l1.6,1.6c-1.3,1.4-2.8,2.1-4.5,2.1s-3.1-0.5-4.3-1.6
			c-1.1-1.1-1.7-2.5-1.7-4.1c0-1.7,0.6-3,1.7-4.2c1.1-1.1,2.5-1.7,4.2-1.7c1.8,0,3.4,0.7,4.6,2.1l-1.6,1.8c-0.8-1-1.8-1.5-2.9-1.5
			c-0.9,0-1.7,0.3-2.4,0.9c-0.7,0.6-1,1.4-1,2.5c0,1,0.3,1.9,0.9,2.5C195.4,17.4,196.1,17.7,197.1,17.7"/>
	</g>
	<g>
		<defs>
			<rect id="SVGID_29_" x="-23.2" y="-22.3" width="588" height="100"/>
		</defs>
		<clipPath id="SVGID_30_">
			<use xlink:href="#SVGID_29_"  style="overflow:visible;"/>
		</clipPath>
		<path class="st14" d="M211.6,19.9l-1-2.4h-4.7l-1,2.4h-2.7L207,8.7h2.4l4.8,11.2H211.6z M208.1,12l-1.4,3.2h2.8L208.1,12z"/>
	</g>
	<g>
		<defs>
			<rect id="SVGID_31_" x="-23.2" y="-22.3" width="588" height="100"/>
		</defs>
		<clipPath id="SVGID_32_">
			<use xlink:href="#SVGID_31_"  style="overflow:visible;"/>
		</clipPath>
		<polygon class="st15" points="223.4,8.7 225.9,8.7 225.9,19.9 223.4,19.9 217.9,12.9 217.9,19.9 215.6,19.9 215.6,8.7 217.9,8.7 
			223.4,15.9 		"/>
	</g>
	<g>
		<defs>
			<rect id="SVGID_33_" x="-23.2" y="-22.3" width="588" height="100"/>
		</defs>
		<clipPath id="SVGID_34_">
			<use xlink:href="#SVGID_33_"  style="overflow:visible;"/>
		</clipPath>
		<path class="st16" d="M233.8,17.7c1.2,0,2.2-0.5,3-1.5l1.6,1.6c-1.3,1.4-2.8,2.1-4.5,2.1c-1.7,0-3.1-0.5-4.3-1.6
			c-1.1-1.1-1.7-2.5-1.7-4.1c0-1.7,0.6-3,1.7-4.2c1.1-1.1,2.5-1.7,4.2-1.7c1.8,0,3.4,0.7,4.6,2.1l-1.6,1.8c-0.8-1-1.8-1.5-2.9-1.5
			c-0.9,0-1.7,0.3-2.4,0.9c-0.7,0.6-1,1.4-1,2.5c0,1,0.3,1.9,0.9,2.5C232.1,17.4,232.9,17.7,233.8,17.7"/>
	</g>
	<g>
		<defs>
			<rect id="SVGID_35_" x="-23.2" y="-22.3" width="588" height="100"/>
		</defs>
		<clipPath id="SVGID_36_">
			<use xlink:href="#SVGID_35_"  style="overflow:visible;"/>
		</clipPath>
		<polygon class="st17" points="248.4,8.7 248.4,10.9 242.8,10.9 242.8,13.2 247.8,13.2 247.8,15.4 242.8,15.4 242.8,17.7 
			248.5,17.7 248.5,19.9 240.2,19.9 240.2,8.7 		"/>
	</g>
	<g>
		<defs>
			<rect id="SVGID_37_" x="-23.2" y="-22.3" width="588" height="100"/>
		</defs>
		<clipPath id="SVGID_38_">
			<use xlink:href="#SVGID_37_"  style="overflow:visible;"/>
		</clipPath>
		<path class="st18" d="M259.9,12.4c0,1.8-0.7,2.9-2.1,3.5l2.8,4h-3.1l-2.5-3.6h-1.7v3.6h-2.5V8.7h4.2c1.7,0,3,0.3,3.7,0.9
			C259.5,10.2,259.9,11.1,259.9,12.4 M256.9,13.7c0.3-0.3,0.5-0.7,0.5-1.3s-0.2-1-0.5-1.2s-0.9-0.3-1.7-0.3h-1.9v3.3h1.8
			C256,14.2,256.5,14,256.9,13.7"/>
	</g>
	<g>
		<defs>
			<rect id="SVGID_39_" x="-23.2" y="-22.3" width="588" height="100"/>
		</defs>
		<clipPath id="SVGID_40_">
			<use xlink:href="#SVGID_39_"  style="overflow:visible;"/>
		</clipPath>
		<rect x="266.6" y="8.7" class="st19" width="2.5" height="11.2"/>
	</g>
	<g>
		<defs>
			<rect id="SVGID_41_" x="-23.2" y="-22.3" width="588" height="100"/>
		</defs>
		<clipPath id="SVGID_42_">
			<use xlink:href="#SVGID_41_"  style="overflow:visible;"/>
		</clipPath>
		<polygon class="st20" points="279.6,8.7 282.1,8.7 282.1,19.9 279.6,19.9 274.4,12.9 274.4,19.9 271.9,19.9 271.9,8.7 274.1,8.7 
			279.6,15.9 		"/>
	</g>
	<g>
		<defs>
			<rect id="SVGID_43_" x="-23.2" y="-22.3" width="588" height="100"/>
		</defs>
		<clipPath id="SVGID_44_">
			<use xlink:href="#SVGID_43_"  style="overflow:visible;"/>
		</clipPath>
		<path class="st21" d="M287.5,10.9c-0.2,0.2-0.4,0.5-0.4,0.8s0.1,0.6,0.4,0.8s1,0.4,2,0.7c1.1,0.3,1.9,0.7,2.5,1.2s0.9,1.3,0.9,2.3
			s-0.4,1.8-1.1,2.4c-0.8,0.6-1.7,0.9-3,0.9c-1.8,0-3.4-0.7-4.8-2l1.5-1.8c1.2,1.1,2.3,1.6,3.3,1.6c0.5,0,0.8-0.1,1.1-0.3
			c0.3-0.2,0.4-0.5,0.4-0.8s-0.1-0.6-0.4-0.8c-0.3-0.2-0.8-0.4-1.6-0.6c-1.3-0.3-2.3-0.7-2.9-1.2s-0.9-1.3-0.9-2.3
			c0-1.1,0.4-1.9,1.1-2.5c0.8-0.6,1.7-0.9,2.9-0.9c0.7,0,1.5,0.1,2.2,0.4s1.4,0.6,2,1.1l-1.3,1.8c-1-0.7-2-1.1-3-1.1
			C288.1,10.6,287.8,10.7,287.5,10.9"/>
	</g>
	<g>
		<defs>
			<rect id="SVGID_45_" x="-23.2" y="-22.3" width="588" height="100"/>
		</defs>
		<clipPath id="SVGID_46_">
			<use xlink:href="#SVGID_45_"  style="overflow:visible;"/>
		</clipPath>
		<polygon class="st22" points="299.8,10.9 299.8,19.9 297.2,19.9 297.2,10.9 294.1,10.9 294.1,8.7 303,8.7 303,10.9 		"/>
	</g>
	<g>
		<defs>
			<rect id="SVGID_47_" x="-23.2" y="-22.3" width="588" height="100"/>
		</defs>
		<clipPath id="SVGID_48_">
			<use xlink:href="#SVGID_47_"  style="overflow:visible;"/>
		</clipPath>
		<rect x="304.8" y="8.7" class="st23" width="2.5" height="11.2"/>
	</g>
	<g>
		<defs>
			<rect id="SVGID_49_" x="-23.2" y="-22.3" width="588" height="100"/>
		</defs>
		<clipPath id="SVGID_50_">
			<use xlink:href="#SVGID_49_"  style="overflow:visible;"/>
		</clipPath>
		<polygon class="st24" points="314.8,10.9 314.8,19.9 312.2,19.9 312.2,10.9 309,10.9 309,8.7 318,8.7 318,10.9 		"/>
	</g>
	<g>
		<defs>
			<rect id="SVGID_51_" x="-23.2" y="-22.3" width="588" height="100"/>
		</defs>
		<clipPath id="SVGID_52_">
			<use xlink:href="#SVGID_51_"  style="overflow:visible;"/>
		</clipPath>
		<path class="st25" d="M322.8,17c0.4,0.5,1,0.8,1.7,0.8s1.3-0.3,1.7-0.8c0.4-0.5,0.6-1.2,0.6-2.1V8.7h2.5V15c0,1.6-0.4,2.9-1.3,3.7
			c-0.9,0.9-2,1.3-3.4,1.3s-2.5-0.4-3.4-1.3c-0.9-0.9-1.4-2.1-1.4-3.7V8.7h2.5v6.2C322,15.8,322.2,16.5,322.8,17"/>
	</g>
	<g>
		<defs>
			<rect id="SVGID_53_" x="-23.2" y="-22.3" width="588" height="100"/>
		</defs>
		<clipPath id="SVGID_54_">
			<use xlink:href="#SVGID_53_"  style="overflow:visible;"/>
		</clipPath>
		<polygon class="st26" points="336.5,10.9 336.5,19.9 334,19.9 334,10.9 330.9,10.9 330.9,8.7 339.6,8.7 339.6,10.9 		"/>
	</g>
	<g>
		<defs>
			<rect id="SVGID_55_" x="-23.2" y="-22.3" width="588" height="100"/>
		</defs>
		<clipPath id="SVGID_56_">
			<use xlink:href="#SVGID_55_"  style="overflow:visible;"/>
		</clipPath>
		<polygon class="st27" points="349.5,8.7 349.5,10.9 344,10.9 344,13.2 349,13.2 349,15.4 344,15.4 344,17.7 349.8,17.7 
			349.8,19.9 341.5,19.9 341.5,8.7 		"/>
	</g>
	<g>
		<defs>
			<rect id="SVGID_57_" x="-23.2" y="-22.3" width="588" height="100"/>
		</defs>
		<clipPath id="SVGID_58_">
			<use xlink:href="#SVGID_57_"  style="overflow:visible;"/>
		</clipPath>
		<path class="st28" d="M112.4,34c1.4,1.3,2.1,3.1,2.1,5.3c0,2.3-0.7,4.1-2,5.4c-1.4,1.3-3.4,2-6.2,2h-5V32.1h5.2
			C109.1,32.1,111.1,32.7,112.4,34 M110.1,42.7c0.8-0.8,1.2-1.9,1.2-3.3c0-1.4-0.4-2.6-1.2-3.3c-0.8-0.8-2-1.2-3.7-1.2h-1.8v8.9h2.1
			C108.1,43.9,109.2,43.5,110.1,42.7"/>
	</g>
	<g>
		<defs>
			<rect id="SVGID_59_" x="-23.2" y="-22.3" width="588" height="100"/>
		</defs>
		<clipPath id="SVGID_60_">
			<use xlink:href="#SVGID_59_"  style="overflow:visible;"/>
		</clipPath>
		<path class="st29" d="M117.2,34c-0.4-0.4-0.5-0.8-0.5-1.3s0.2-1,0.5-1.3c0.4-0.4,0.8-0.5,1.3-0.5s1,0.2,1.3,0.5
			c0.4,0.4,0.5,0.8,0.5,1.3s-0.2,1-0.5,1.3c-0.4,0.4-0.8,0.5-1.3,0.5C118.1,34.6,117.6,34.4,117.2,34 M120.1,46.8H117V35.5h3.1V46.8
			z"/>
	</g>
	<g>
		<defs>
			<rect id="SVGID_61_" x="-23.2" y="-22.3" width="588" height="100"/>
		</defs>
		<clipPath id="SVGID_62_">
			<use xlink:href="#SVGID_61_"  style="overflow:visible;"/>
		</clipPath>
		<polygon class="st30" points="126.1,46.8 121.6,35.4 124.9,35.4 127.8,42.6 130.6,35.4 133.9,35.4 129.4,46.8 		"/>
	</g>
	<g>
		<defs>
			<rect id="SVGID_63_" x="-23.2" y="-22.3" width="588" height="100"/>
		</defs>
		<clipPath id="SVGID_64_">
			<use xlink:href="#SVGID_63_"  style="overflow:visible;"/>
		</clipPath>
		<path class="st31" d="M135.6,34c-0.4-0.4-0.5-0.8-0.5-1.3s0.2-1,0.5-1.3c0.4-0.4,0.8-0.5,1.3-0.5s1,0.2,1.3,0.5
			c0.4,0.4,0.5,0.8,0.5,1.3s-0.2,1-0.5,1.3c-0.4,0.4-0.8,0.5-1.3,0.5C136.4,34.6,136.1,34.4,135.6,34 M138.6,46.8h-3.1V35.5h3.1
			V46.8z"/>
	</g>
	<g>
		<defs>
			<rect id="SVGID_65_" x="-23.2" y="-22.3" width="588" height="100"/>
		</defs>
		<clipPath id="SVGID_66_">
			<use xlink:href="#SVGID_65_"  style="overflow:visible;"/>
		</clipPath>
		<path class="st32" d="M150.1,43.2c0,1.1-0.4,2-1.2,2.7s-1.9,1-3.1,1c-0.8,0-1.7-0.2-2.6-0.5c-0.9-0.3-1.7-0.7-2.5-1.3l1.4-2
			c1.2,0.9,2.4,1.4,3.8,1.4c0.4,0,0.7-0.1,1-0.2c0.2-0.2,0.4-0.4,0.4-0.6c0-0.3-0.2-0.5-0.5-0.7s-0.8-0.4-1.4-0.6s-1.1-0.4-1.4-0.5
			c-0.3-0.1-0.7-0.3-1.1-0.6c-0.9-0.5-1.3-1.3-1.3-2.4c0-1,0.4-1.9,1.3-2.6c0.8-0.7,1.9-1,3.3-1s2.7,0.4,4,1.3l-1.2,2.1
			c-1-0.7-2-1-2.9-1c-1,0-1.5,0.3-1.5,0.8c0,0.3,0.2,0.5,0.5,0.7s0.8,0.4,1.5,0.6c0.7,0.2,1.2,0.4,1.5,0.5s0.7,0.3,1.1,0.6
			C149.6,41.3,150.1,42.1,150.1,43.2"/>
	</g>
	<g>
		<defs>
			<rect id="SVGID_67_" x="-23.2" y="-22.3" width="588" height="100"/>
		</defs>
		<clipPath id="SVGID_68_">
			<use xlink:href="#SVGID_67_"  style="overflow:visible;"/>
		</clipPath>
		<path class="st33" d="M152.8,34c-0.4-0.4-0.5-0.8-0.5-1.3s0.2-1,0.5-1.3c0.4-0.4,0.8-0.5,1.3-0.5s1,0.2,1.3,0.5
			c0.4,0.4,0.5,0.8,0.5,1.3s-0.2,1-0.5,1.3c-0.4,0.4-0.8,0.5-1.3,0.5C153.6,34.6,153.1,34.4,152.8,34 M155.6,46.8h-3.1V35.5h3.1
			V46.8z"/>
	</g>
	<g>
		<defs>
			<rect id="SVGID_69_" x="-23.2" y="-22.3" width="588" height="100"/>
		</defs>
		<clipPath id="SVGID_70_">
			<use xlink:href="#SVGID_69_"  style="overflow:visible;"/>
		</clipPath>
		<path class="st34" d="M169.9,41.1c0,1.6-0.6,3-1.7,4.1c-1.1,1.1-2.6,1.7-4.3,1.7s-3.1-0.6-4.3-1.7c-1.1-1.1-1.7-2.5-1.7-4.1
			s0.6-3,1.7-4.1c1.1-1.1,2.6-1.7,4.3-1.7s3.1,0.6,4.3,1.7C169.4,38.1,169.9,39.5,169.9,41.1 M161.1,41.1c0,0.9,0.3,1.7,0.8,2.3
			c0.5,0.6,1.2,0.9,2,0.9s1.5-0.3,2-0.9s0.8-1.3,0.8-2.3c0-0.9-0.3-1.7-0.8-2.3s-1.2-0.9-2-0.9s-1.5,0.3-2,0.9
			C161.4,39.4,161.1,40.2,161.1,41.1"/>
	</g>
	<g>
		<defs>
			<rect id="SVGID_71_" x="-23.2" y="-22.3" width="588" height="100"/>
		</defs>
		<clipPath id="SVGID_72_">
			<use xlink:href="#SVGID_71_"  style="overflow:visible;"/>
		</clipPath>
		<path class="st35" d="M175.4,40.5v6.3h-3.1V35.5h3.1v1.2c1-1,2-1.4,3.2-1.4s2.2,0.4,3,1.3c0.8,0.8,1.2,2,1.2,3.4v6.9h-3.1v-6.4
			c0-1.7-0.6-2.6-1.9-2.6c-0.6,0-1.2,0.2-1.6,0.7C175.6,38.9,175.4,39.6,175.4,40.5"/>
	</g>
	<g>
		<defs>
			<rect id="SVGID_73_" x="-23.2" y="-22.3" width="588" height="100"/>
		</defs>
		<clipPath id="SVGID_74_">
			<use xlink:href="#SVGID_73_"  style="overflow:visible;"/>
		</clipPath>
		<path class="st36" d="M202.4,41.1c0,1.6-0.6,3-1.7,4.1c-1.1,1.1-2.6,1.7-4.3,1.7s-3.1-0.6-4.3-1.7c-1.1-1.1-1.7-2.5-1.7-4.1
			s0.6-3,1.7-4.1c1.1-1.1,2.6-1.7,4.3-1.7s3.1,0.6,4.3,1.7C201.9,38.1,202.4,39.5,202.4,41.1 M193.8,41.1c0,0.9,0.3,1.7,0.8,2.3
			c0.5,0.6,1.2,0.9,2,0.9s1.5-0.3,2-0.9s0.8-1.3,0.8-2.3c0-0.9-0.3-1.7-0.8-2.3s-1.2-0.9-2-0.9s-1.5,0.3-2,0.9
			C193.9,39.4,193.8,40.2,193.8,41.1"/>
	</g>
	<g>
		<defs>
			<rect id="SVGID_75_" x="-23.2" y="-22.3" width="588" height="100"/>
		</defs>
		<clipPath id="SVGID_76_">
			<use xlink:href="#SVGID_75_"  style="overflow:visible;"/>
		</clipPath>
		<path class="st37" d="M208.4,34.8v0.8h2.7v2.3h-2.7v8.9h-3.2v-8.9h-1.3v-2.3h1.3v-0.7c0-1.2,0.4-2.2,1.1-2.9
			c0.7-0.7,1.7-1.1,2.8-1.1s2.1,0.4,3,1.3l-1.1,2.1c-0.5-0.5-1-0.8-1.5-0.8c-0.3,0-0.6,0.1-0.8,0.3C208.6,34,208.4,34.4,208.4,34.8"
			/>
	</g>
	<g>
		<defs>
			<rect id="SVGID_77_" x="-23.2" y="-22.3" width="588" height="100"/>
		</defs>
		<clipPath id="SVGID_78_">
			<use xlink:href="#SVGID_77_"  style="overflow:visible;"/>
		</clipPath>
		<path class="st38" d="M225.6,43.9c1.6,0,2.9-0.6,3.9-1.9l2.1,2.2c-1.7,1.9-3.6,2.8-5.9,2.8s-4.1-0.7-5.6-2.1s-2.2-3.2-2.2-5.4
			s0.7-4,2.2-5.5s3.3-2.2,5.5-2.2c2.4,0,4.4,0.9,6,2.8l-2,2.3c-1-1.3-2.3-1.9-3.9-1.9c-1.2,0-2.3,0.4-3.2,1.2s-1.3,1.9-1.3,3.3
			c0,1.4,0.4,2.5,1.2,3.3C223.6,43.5,224.6,43.9,225.6,43.9"/>
	</g>
	<g>
		<defs>
			<rect id="SVGID_79_" x="-23.2" y="-22.3" width="588" height="100"/>
		</defs>
		<clipPath id="SVGID_80_">
			<use xlink:href="#SVGID_79_"  style="overflow:visible;"/>
		</clipPath>
		<path class="st39" d="M243.5,46.8h-3v-1.4c-0.8,1-1.8,1.5-3,1.5s-2.2-0.3-3-1s-1.2-1.6-1.2-2.8s0.4-2,1.3-2.6
			c0.8-0.6,2-0.9,3.4-0.9h2.4v-0.1c0-1.2-0.6-1.8-1.9-1.8c-0.5,0-1.1,0.1-1.7,0.3s-1.1,0.5-1.5,0.8l-1.4-2c1.5-1.1,3.2-1.6,5.1-1.6
			c1.4,0,2.5,0.3,3.4,1s1.3,1.8,1.3,3.3v7.3H243.5z M240.2,42.5V42h-2c-1.3,0-1.9,0.4-1.9,1.2c0,0.4,0.1,0.7,0.5,0.9
			c0.3,0.2,0.7,0.3,1.3,0.3c0.6,0,1.1-0.2,1.5-0.5C240,43.5,240.2,43,240.2,42.5"/>
	</g>
	<g>
		<defs>
			<rect id="SVGID_81_" x="-23.2" y="-22.3" width="588" height="100"/>
		</defs>
		<clipPath id="SVGID_82_">
			<use xlink:href="#SVGID_81_"  style="overflow:visible;"/>
		</clipPath>
		<path class="st40" d="M249.5,40.5v6.3h-3.1V35.5h3.1v1.2c1-1,2-1.4,3.2-1.4s2.2,0.4,3,1.3c0.8,0.8,1.2,2,1.2,3.4v6.9h-3.1v-6.4
			c0-1.7-0.6-2.6-1.9-2.6c-0.6,0-1.2,0.2-1.6,0.7C249.8,38.9,249.5,39.6,249.5,40.5"/>
	</g>
	<g>
		<defs>
			<rect id="SVGID_83_" x="-23.2" y="-22.3" width="588" height="100"/>
		</defs>
		<clipPath id="SVGID_84_">
			<use xlink:href="#SVGID_83_"  style="overflow:visible;"/>
		</clipPath>
		<path class="st41" d="M265.1,44.1c1,0,2-0.5,2.8-1.6l1.9,2.1c-1.5,1.5-3,2.3-4.7,2.3s-3.1-0.5-4.3-1.6c-1.2-1.1-1.8-2.5-1.8-4.2
			s0.6-3.1,1.8-4.2c1.2-1.1,2.6-1.6,4.2-1.6c0.8,0,1.6,0.2,2.5,0.5c0.8,0.3,1.6,0.8,2.2,1.5l-1.6,2.1c-0.4-0.4-0.8-0.8-1.3-1
			s-1-0.4-1.6-0.4c-0.8,0-1.5,0.3-2.1,0.8s-0.9,1.3-0.9,2.2c0,1,0.3,1.7,0.9,2.2C263.6,43.9,264.4,44.1,265.1,44.1"/>
	</g>
	<g>
		<defs>
			<rect id="SVGID_85_" x="-23.2" y="-22.3" width="588" height="100"/>
		</defs>
		<clipPath id="SVGID_86_">
			<use xlink:href="#SVGID_85_"  style="overflow:visible;"/>
		</clipPath>
		<path class="st42" d="M281.8,45.1c-1.3,1.2-2.8,1.8-4.5,1.8s-3.1-0.5-4.3-1.6c-1.1-1.1-1.7-2.5-1.7-4.3s0.6-3.2,1.7-4.2
			c1.1-1.1,2.5-1.6,4-1.6c1.6,0,2.9,0.5,4,1.4s1.6,2.2,1.6,3.9v1.7h-8.2c0.1,0.6,0.4,1.1,1,1.5c0.5,0.4,1.2,0.6,1.8,0.6
			c1.1,0,2-0.4,2.7-1.1L281.8,45.1z M278.8,38.4c-0.4-0.4-1-0.5-1.6-0.5s-1.2,0.2-1.7,0.6c-0.5,0.4-0.8,0.9-0.9,1.5h5
			C279.5,39.3,279.1,38.8,278.8,38.4"/>
	</g>
	<g>
		<defs>
			<rect id="SVGID_87_" x="-23.2" y="-22.3" width="588" height="100"/>
		</defs>
		<clipPath id="SVGID_88_">
			<use xlink:href="#SVGID_87_"  style="overflow:visible;"/>
		</clipPath>
		<path class="st43" d="M291,38.2c-0.9,0-1.6,0.3-2.1,1s-0.7,1.5-0.7,2.6v4.9H285V35.5h3.1V37c0.4-0.5,0.9-0.9,1.5-1.2
			s1.2-0.5,1.9-0.5v3L291,38.2L291,38.2z"/>
	</g>
	<g>
		<defs>
			<rect id="SVGID_89_" x="-23.2" y="-22.3" width="588" height="100"/>
		</defs>
		<clipPath id="SVGID_90_">
			<use xlink:href="#SVGID_89_"  style="overflow:visible;"/>
		</clipPath>
		<polygon class="st44" points="305.6,34.9 305.6,46.8 302.4,46.8 302.4,34.9 298.2,34.9 298.2,32.1 309.9,32.1 309.9,34.9 		"/>
	</g>
	<g>
		<defs>
			<rect id="SVGID_91_" x="-23.2" y="-22.3" width="588" height="100"/>
		</defs>
		<clipPath id="SVGID_92_">
			<use xlink:href="#SVGID_91_"  style="overflow:visible;"/>
		</clipPath>
		<path class="st45" d="M317.9,38.2c-0.9,0-1.6,0.3-2.1,1s-0.7,1.5-0.7,2.6v4.9h-3.1V35.5h3.1V37c0.4-0.5,0.9-0.9,1.5-1.2
			s1.2-0.5,1.9-0.5v3L317.9,38.2L317.9,38.2z"/>
	</g>
	<g>
		<defs>
			<rect id="SVGID_93_" x="-23.2" y="-22.3" width="588" height="100"/>
		</defs>
		<clipPath id="SVGID_94_">
			<use xlink:href="#SVGID_93_"  style="overflow:visible;"/>
		</clipPath>
		<path class="st46" d="M330.4,45.1c-1.3,1.2-2.8,1.8-4.5,1.8s-3.1-0.5-4.3-1.6c-1.1-1.1-1.7-2.5-1.7-4.3s0.6-3.2,1.7-4.2
			c1.1-1.1,2.5-1.6,4-1.6c1.6,0,2.9,0.5,4,1.4s1.6,2.2,1.6,3.9v1.7H323c0.1,0.6,0.4,1.1,1,1.5c0.5,0.4,1.2,0.6,1.8,0.6
			c1.1,0,2-0.4,2.7-1.1L330.4,45.1z M327.2,38.4c-0.4-0.4-1-0.5-1.6-0.5s-1.2,0.2-1.7,0.6c-0.5,0.4-0.8,0.9-0.9,1.5h5
			C328,39.3,327.8,38.8,327.2,38.4"/>
	</g>
	<g>
		<defs>
			<rect id="SVGID_95_" x="-23.2" y="-22.3" width="588" height="100"/>
		</defs>
		<clipPath id="SVGID_96_">
			<use xlink:href="#SVGID_95_"  style="overflow:visible;"/>
		</clipPath>
		<path class="st47" d="M343.1,46.8h-3v-1.4c-0.8,1-1.8,1.5-3,1.5s-2.2-0.3-3-1s-1.2-1.6-1.2-2.8s0.4-2,1.3-2.6
			c0.8-0.6,2-0.9,3.4-0.9h2.4v-0.1c0-1.2-0.6-1.8-1.9-1.8c-0.5,0-1.1,0.1-1.7,0.3s-1.1,0.5-1.5,0.8l-1.4-2c1.5-1.1,3.2-1.6,5.1-1.6
			c1.4,0,2.5,0.3,3.4,1s1.3,1.8,1.3,3.3v7.3H343.1z M340,42.5V42h-2c-1.3,0-1.9,0.4-1.9,1.2c0,0.4,0.1,0.7,0.5,0.9
			c0.3,0.2,0.7,0.3,1.3,0.3c0.6,0,1.1-0.2,1.5-0.5C339.8,43.5,340,43,340,42.5"/>
	</g>
	<g>
		<defs>
			<rect id="SVGID_97_" x="-23.2" y="-22.3" width="588" height="100"/>
		</defs>
		<clipPath id="SVGID_98_">
			<use xlink:href="#SVGID_97_"  style="overflow:visible;"/>
		</clipPath>
		<path class="st48" d="M349.6,37.7v5.1c0,0.4,0.1,0.8,0.3,1s0.5,0.4,0.8,0.4c0.6,0,1.1-0.3,1.5-0.8l1.2,2.2c-1,0.9-2,1.3-3.1,1.3
			s-2-0.4-2.8-1.1c-0.7-0.7-1.1-1.7-1.1-2.9v-5.2h-1.3v-2.3h1.3V32h3.2v3.4h2.7v2.3H349.6z"/>
	</g>
	<g>
		<defs>
			<rect id="SVGID_99_" x="-23.2" y="-22.3" width="588" height="100"/>
		</defs>
		<clipPath id="SVGID_100_">
			<use xlink:href="#SVGID_99_"  style="overflow:visible;"/>
		</clipPath>
		<path class="st49" d="M365.5,40.7v6.1h-3.2v-6.2c0-0.9-0.1-1.6-0.4-2s-0.7-0.6-1.3-0.6c-0.6,0-1.1,0.2-1.6,0.7s-0.7,1.1-0.7,2v6.1
			h-3.1V35.5h3.1v1.2c0.9-1,1.9-1.5,3-1.5c0.7,0,1.4,0.2,1.9,0.6c0.6,0.4,1,0.9,1.3,1.5c0.4-0.7,1-1.2,1.8-1.6
			c0.7-0.4,1.5-0.6,2.2-0.6c1.3,0,2.4,0.4,3.2,1.2c0.8,0.8,1.2,1.9,1.2,3.4v6.9h-3.1v-6.2c0-1.7-0.6-2.6-1.9-2.6
			c-0.6,0-1.2,0.2-1.6,0.7C365.8,39.1,365.5,39.8,365.5,40.7"/>
	</g>
	<g>
		<defs>
			<rect id="SVGID_101_" x="-23.2" y="-22.3" width="588" height="100"/>
		</defs>
		<clipPath id="SVGID_102_">
			<use xlink:href="#SVGID_101_"  style="overflow:visible;"/>
		</clipPath>
		<path class="st50" d="M385.5,45.1c-1.3,1.2-2.8,1.8-4.5,1.8s-3.1-0.5-4.3-1.6c-1.1-1.1-1.7-2.5-1.7-4.3s0.6-3.2,1.7-4.2
			c1.1-1.1,2.5-1.6,4-1.6c1.6,0,2.9,0.5,4,1.4s1.6,2.2,1.6,3.9v1.7h-8.2c0.1,0.6,0.4,1.1,1,1.5c0.5,0.4,1.2,0.6,1.8,0.6
			c1.1,0,2-0.4,2.7-1.1L385.5,45.1z M382.5,38.4c-0.4-0.4-1-0.5-1.6-0.5s-1.2,0.2-1.7,0.6c-0.5,0.4-0.8,0.9-0.9,1.5h5
			C383.1,39.3,383,38.8,382.5,38.4"/>
	</g>
	<g>
		<defs>
			<rect id="SVGID_103_" x="-23.2" y="-22.3" width="588" height="100"/>
		</defs>
		<clipPath id="SVGID_104_">
			<use xlink:href="#SVGID_103_"  style="overflow:visible;"/>
		</clipPath>
		<path class="st51" d="M391.9,40.5v6.3h-3.1V35.5h3.1v1.2c1-1,2-1.4,3.2-1.4s2.2,0.4,3,1.3c0.8,0.8,1.2,2,1.2,3.4v6.9h-3.1v-6.4
			c0-1.7-0.6-2.6-1.9-2.6c-0.6,0-1.2,0.2-1.6,0.7C392.1,38.9,391.9,39.6,391.9,40.5"/>
	</g>
	<g>
		<defs>
			<rect id="SVGID_105_" x="-23.2" y="-22.3" width="588" height="100"/>
		</defs>
		<clipPath id="SVGID_106_">
			<use xlink:href="#SVGID_105_"  style="overflow:visible;"/>
		</clipPath>
		<path class="st52" d="M405.8,37.7v5.1c0,0.4,0.1,0.8,0.3,1s0.5,0.4,0.8,0.4c0.6,0,1.1-0.3,1.5-0.8l1.2,2.2c-1,0.9-2,1.3-3.1,1.3
			s-2-0.4-2.8-1.1c-0.7-0.7-1.1-1.7-1.1-2.9v-5.2h-1.3v-2.3h1.3V32h3.2v3.4h2.7v2.3H405.8z"/>
	</g>
	<g>
		<defs>
			<rect id="SVGID_107_" x="-23.2" y="-22.3" width="588" height="100"/>
		</defs>
		<clipPath id="SVGID_108_">
			<use xlink:href="#SVGID_107_"  style="overflow:visible;"/>
		</clipPath>
		<path class="st53" d="M425.6,45.5c-1.2,1-2.5,1.4-4.1,1.4c-1.5,0-2.8-0.4-3.8-1.2c-1-0.8-1.5-1.9-1.5-3.2c0-1.5,1-2.9,3.1-4.1
			c-0.5-0.6-0.8-1.1-1-1.5s-0.3-0.9-0.3-1.5c0-1.2,0.4-2.1,1.3-2.7c0.9-0.6,1.9-0.9,3.1-0.9s2.2,0.3,3,0.9c0.8,0.6,1.2,1.5,1.2,2.6
			c0,1.4-1,2.6-3,3.8c0.8,1,1.4,1.7,1.8,2.1c0.4-0.6,0.6-1.3,0.8-2l2.5,1.8c-0.3,0.9-0.7,1.7-1.2,2.5l2.1,2.1l-2.1,2L425.6,45.5z
			 M420,43.8c0.4,0.3,0.9,0.5,1.6,0.5c0.6,0,1.3-0.3,2.1-0.9c-1-1.1-1.9-2.1-2.6-2.9c-1.1,0.7-1.6,1.4-1.6,2.2
			C419.4,43.1,419.5,43.5,420,43.8 M422.4,34.2c-0.3,0-0.6,0.1-0.8,0.3c-0.2,0.2-0.4,0.5-0.4,0.9s0.3,0.9,0.8,1.6
			c1-0.6,1.6-1.1,1.6-1.6c0-0.4-0.1-0.7-0.4-0.9C423,34.3,422.6,34.2,422.4,34.2"/>
	</g>
	<g>
		<defs>
			<rect id="SVGID_109_" x="-23.2" y="-22.3" width="588" height="100"/>
		</defs>
		<clipPath id="SVGID_110_">
			<use xlink:href="#SVGID_109_"  style="overflow:visible;"/>
		</clipPath>
		<path class="st54" d="M448.5,34c1.4,1.3,2.1,3.1,2.1,5.3c0,2.3-0.7,4.1-2,5.4c-1.4,1.3-3.4,2-6.2,2h-5V32.1h5.2
			C445.1,32.1,447.1,32.7,448.5,34 M446.1,42.7c0.8-0.8,1.2-1.9,1.2-3.3c0-1.4-0.4-2.6-1.2-3.3c-0.8-0.8-2-1.2-3.7-1.2h-1.8v8.9h2.1
			C444.1,43.9,445.4,43.5,446.1,42.7"/>
	</g>
	<g>
		<defs>
			<rect id="SVGID_111_" x="-23.2" y="-22.3" width="588" height="100"/>
		</defs>
		<clipPath id="SVGID_112_">
			<use xlink:href="#SVGID_111_"  style="overflow:visible;"/>
		</clipPath>
		<path class="st55" d="M453.2,34c-0.4-0.4-0.5-0.8-0.5-1.3s0.2-1,0.5-1.3c0.4-0.4,0.8-0.5,1.3-0.5s1,0.2,1.3,0.5
			c0.4,0.4,0.5,0.8,0.5,1.3s-0.2,1-0.5,1.3c-0.4,0.4-0.8,0.5-1.3,0.5C454,34.6,453.6,34.4,453.2,34 M456.1,46.8H453V35.5h3.1V46.8z"
			/>
	</g>
	<g>
		<defs>
			<rect id="SVGID_113_" x="-23.2" y="-22.3" width="588" height="100"/>
		</defs>
		<clipPath id="SVGID_114_">
			<use xlink:href="#SVGID_113_"  style="overflow:visible;"/>
		</clipPath>
		<path class="st56" d="M468.8,46.8h-3v-1.4c-0.8,1-1.8,1.5-3,1.5s-2.2-0.3-3-1s-1.2-1.6-1.2-2.8s0.4-2,1.3-2.6
			c0.8-0.6,2-0.9,3.4-0.9h2.4v-0.1c0-1.2-0.6-1.8-1.9-1.8c-0.5,0-1.1,0.1-1.7,0.3s-1.1,0.5-1.5,0.8l-1.4-2c1.5-1.1,3.2-1.6,5.1-1.6
			c1.4,0,2.5,0.3,3.4,1s1.3,1.8,1.3,3.3v7.3H468.8z M465.5,42.5V42h-2c-1.3,0-1.9,0.4-1.9,1.2c0,0.4,0.1,0.7,0.5,0.9
			c0.3,0.2,0.7,0.3,1.3,0.3c0.6,0,1.1-0.2,1.5-0.5C465.4,43.5,465.5,43,465.5,42.5"/>
	</g>
	<g>
		<defs>
			<rect id="SVGID_115_" x="-23.2" y="-22.3" width="588" height="100"/>
		</defs>
		<clipPath id="SVGID_116_">
			<use xlink:href="#SVGID_115_"  style="overflow:visible;"/>
		</clipPath>
		<path class="st57" d="M480,44.9c-1,1.1-2.2,1.7-3.7,1.7s-2.7-0.5-3.7-1.5s-1.5-2.3-1.5-4c0-1.7,0.5-3,1.6-4.1s2.2-1.6,3.6-1.6
			c1.3,0,2.5,0.6,3.3,1.7v-1.5h3.1v9.8c0,1-0.2,1.9-0.5,2.7c-0.4,0.8-0.8,1.4-1.4,1.8c-1.2,0.9-2.5,1.4-4.1,1.4
			c-0.8,0-1.7-0.1-2.6-0.4s-1.6-0.7-2.3-1.2l1.2-2.4c1,0.8,2.1,1.2,3.3,1.2c1.2,0,2.1-0.3,2.7-0.9C479.6,47,480,46.1,480,44.9
			 M479.5,40.9c0-0.9-0.3-1.6-0.8-2.1s-1.1-0.8-1.9-0.8c-0.7,0-1.4,0.3-1.9,0.8s-0.8,1.2-0.8,2.1s0.3,1.6,0.8,2.2s1.2,0.8,1.9,0.8
			c0.8,0,1.4-0.3,1.9-0.8C479.2,42.5,479.5,41.8,479.5,40.9"/>
	</g>
	<g>
		<defs>
			<rect id="SVGID_117_" x="-23.2" y="-22.3" width="588" height="100"/>
		</defs>
		<clipPath id="SVGID_118_">
			<use xlink:href="#SVGID_117_"  style="overflow:visible;"/>
		</clipPath>
		<path class="st58" d="M488.8,40.5v6.3h-3.1V35.5h3.1v1.2c1-1,2-1.4,3.2-1.4s2.2,0.4,3,1.3c0.8,0.8,1.2,2,1.2,3.4v6.9h-3.1v-6.4
			c0-1.7-0.6-2.6-1.9-2.6c-0.6,0-1.2,0.2-1.6,0.7C489,38.9,488.8,39.6,488.8,40.5"/>
	</g>
	<g>
		<defs>
			<rect id="SVGID_119_" x="-23.2" y="-22.3" width="588" height="100"/>
		</defs>
		<clipPath id="SVGID_120_">
			<use xlink:href="#SVGID_119_"  style="overflow:visible;"/>
		</clipPath>
		<path class="st59" d="M510.3,41.1c0,1.6-0.6,3-1.7,4.1c-1.1,1.1-2.6,1.7-4.3,1.7s-3.1-0.6-4.3-1.7c-1.1-1.1-1.7-2.5-1.7-4.1
			s0.6-3,1.7-4.1c1.1-1.1,2.6-1.7,4.3-1.7s3.1,0.6,4.3,1.7C509.8,38.1,510.3,39.5,510.3,41.1 M501.5,41.1c0,0.9,0.3,1.7,0.8,2.3
			c0.5,0.6,1.2,0.9,2,0.9s1.5-0.3,2-0.9s0.8-1.3,0.8-2.3c0-0.9-0.3-1.7-0.8-2.3s-1.2-0.9-2-0.9s-1.5,0.3-2,0.9
			C501.8,39.4,501.5,40.2,501.5,41.1"/>
	</g>
	<g>
		<defs>
			<rect id="SVGID_121_" x="-23.2" y="-22.3" width="588" height="100"/>
		</defs>
		<clipPath id="SVGID_122_">
			<use xlink:href="#SVGID_121_"  style="overflow:visible;"/>
		</clipPath>
		<path class="st60" d="M521,43.2c0,1.1-0.4,2-1.2,2.7s-1.9,1-3.1,1c-0.8,0-1.7-0.2-2.6-0.5c-0.9-0.3-1.7-0.7-2.5-1.3l1.4-2
			c1.2,0.9,2.4,1.4,3.8,1.4c0.4,0,0.7-0.1,1-0.2c0.2-0.2,0.4-0.4,0.4-0.6c0-0.3-0.2-0.5-0.5-0.7s-0.8-0.4-1.4-0.6
			c-0.6-0.2-1.1-0.4-1.4-0.5c-0.3-0.1-0.7-0.3-1.1-0.6c-0.9-0.5-1.3-1.3-1.3-2.4c0-1,0.4-1.9,1.3-2.6c0.8-0.7,1.9-1,3.3-1
			c1.3,0,2.7,0.4,4,1.3l-1.2,2.1c-1-0.7-2-1-2.9-1c-1,0-1.5,0.3-1.5,0.8c0,0.3,0.2,0.5,0.5,0.7s0.8,0.4,1.5,0.6s1.2,0.4,1.5,0.5
			s0.7,0.3,1.1,0.6C520.7,41.3,521,42.1,521,43.2"/>
	</g>
	<g>
		<defs>
			<rect id="SVGID_123_" x="-23.2" y="-22.3" width="588" height="100"/>
		</defs>
		<clipPath id="SVGID_124_">
			<use xlink:href="#SVGID_123_"  style="overflow:visible;"/>
		</clipPath>
		<path class="st61" d="M523.8,34c-0.4-0.4-0.5-0.8-0.5-1.3s0.2-1,0.5-1.3c0.4-0.4,0.8-0.5,1.3-0.5s1,0.2,1.3,0.5
			c0.4,0.4,0.5,0.8,0.5,1.3s-0.2,1-0.5,1.3c-0.4,0.4-0.8,0.5-1.3,0.5S524.2,34.4,523.8,34 M526.7,46.8h-3.1V35.5h3.1V46.8z"/>
	</g>
	<g>
		<defs>
			<rect id="SVGID_125_" x="-23.2" y="-22.3" width="588" height="100"/>
		</defs>
		<clipPath id="SVGID_126_">
			<use xlink:href="#SVGID_125_"  style="overflow:visible;"/>
		</clipPath>
		<path class="st62" d="M538.2,43.2c0,1.1-0.4,2-1.2,2.7s-1.9,1-3.1,1c-0.8,0-1.7-0.2-2.6-0.5c-0.9-0.3-1.7-0.7-2.5-1.3l1.4-2
			c1.2,0.9,2.4,1.4,3.8,1.4c0.4,0,0.7-0.1,1-0.2c0.2-0.2,0.4-0.4,0.4-0.6c0-0.3-0.2-0.5-0.5-0.7s-0.8-0.4-1.4-0.6
			c-0.6-0.2-1.1-0.4-1.4-0.5c-0.3-0.1-0.7-0.3-1.1-0.6c-0.9-0.5-1.3-1.3-1.3-2.4c0-1,0.4-1.9,1.3-2.6c0.8-0.7,1.9-1,3.3-1
			c1.3,0,2.7,0.4,4,1.3l-1.5,2.1c-1-0.7-2-1-2.9-1c-1,0-1.5,0.3-1.5,0.8c0,0.3,0.2,0.5,0.5,0.7s0.8,0.4,1.5,0.6s1.2,0.4,1.5,0.5
			s0.7,0.3,1.1,0.6C537.8,41.3,538.2,42.1,538.2,43.2"/>
	</g>
</g>
</svg>
