<?xml version="1.0" encoding="utf-8"?>
<!-- Generator: Adobe Illustrator 25.2.1, SVG Export Plug-In . SVG Version: 6.00 Build 0)  -->
<svg version="1.1" id="Layer_1" xmlns="http://www.w3.org/2000/svg" xmlns:xlink="http://www.w3.org/1999/xlink" x="0px" y="0px"
	 viewBox="0 0 185.6 30.3" style="enable-background:new 0 0 185.6 30.3;" xml:space="preserve">
<style type="text/css">
	.st0{clip-path:url(#SVGID_2_);fill:#FFFFFF;}
	.st1{clip-path:url(#SVGID_4_);fill:#606060;}
	.st2{clip-path:url(#SVGID_4_);fill:#BB0E3D;}
	.st3{clip-path:url(#SVGID_4_);fill:#FFFFFF;}
	.st4{fill:#606060;}
	.st5{font-family:'Montserrat-Bold';}
	.st6{font-size:10px;}
</style>
<g>
	<defs>
		<rect id="SVGID_3_" x="-10.9" y="-10.9" width="296" height="52"/>
	</defs>
	<clipPath id="SVGID_2_">
		<use xlink:href="#SVGID_3_"  style="overflow:visible;"/>
	</clipPath>
	<path style="clip-path:url(#SVGID_2_);fill:#606060;" d="M40.1,15.1l-8-14h-28c-1.7,0-3,1.3-3,3v22c0,1.7,1.3,3,3,3h28L40.1,15.1z"
		/>
	<path style="clip-path:url(#SVGID_2_);fill:#BB0E3D;" d="M39,2.5c-0.5-0.9-1.5-1.5-2.6-1.5h-2.3l8,14l-8,14h2.3
		c1.1,0,2-0.6,2.6-1.5l7.1-12.5L39,2.5z"/>
	<path class="st0" d="M16.1,9.1v12h-2l-6-9v9h-2v-12h2l6,9v-9H16.1z M30.1,9.1v5h-6v-5h-2v12h2v-5h6v5h2v-12H30.1z M20.1,9.1h-2v12
		h2V9.1z"/>
	<polygon style="clip-path:url(#SVGID_2_);fill:#BB0E3D;" points="57.1,5.3 58.3,5.3 58.3,10.8 57.1,10.8 54.4,7.3 54.4,10.8 
		53.2,10.8 53.2,5.3 54.3,5.3 57.1,8.9 	"/>
	<path style="clip-path:url(#SVGID_2_);fill:#BB0E3D;" d="M63.7,10.8l-0.5-1.2h-2.3l-0.5,1.2H59l2.4-5.6h1.2l2.4,5.6H63.7z M62,6.9
		l-0.7,1.6h1.4L62,6.9z"/>
	<polygon style="clip-path:url(#SVGID_2_);fill:#BB0E3D;" points="67.6,6.3 67.6,10.8 66.4,10.8 66.4,6.3 64.8,6.3 64.8,5.3 
		69.2,5.3 69.2,6.3 	"/>
	<rect x="70.1" y="5.3" style="clip-path:url(#SVGID_2_);fill:#BB0E3D;" width="1.2" height="5.6"/>
	<path style="clip-path:url(#SVGID_2_);fill:#BB0E3D;" d="M77.5,10.1c-0.6,0.6-1.3,0.8-2.1,0.8c-0.8,0-1.5-0.3-2.1-0.8
		c-0.6-0.6-0.8-1.2-0.8-2.1s0.3-1.5,0.8-2.1c0.6-0.6,1.3-0.8,2.1-0.8c0.8,0,1.5,0.3,2.1,0.8C78,6.5,78.3,7.2,78.3,8
		S78,9.5,77.5,10.1 M77,8c0-0.5-0.2-0.9-0.5-1.3c-0.3-0.4-0.7-0.5-1.2-0.5c-0.5,0-0.9,0.2-1.2,0.5c-0.3,0.4-0.5,0.8-0.5,1.3
		c0,0.5,0.2,0.9,0.5,1.3c0.3,0.4,0.7,0.5,1.2,0.5c0.5,0,0.9-0.2,1.2-0.5C76.9,8.9,77,8.5,77,8"/>
	<polygon style="clip-path:url(#SVGID_2_);fill:#BB0E3D;" points="83.3,5.3 84.5,5.3 84.5,10.8 83.3,10.8 80.6,7.3 80.6,10.8 
		79.4,10.8 79.4,5.3 80.5,5.3 83.3,8.9 	"/>
	<path style="clip-path:url(#SVGID_2_);fill:#BB0E3D;" d="M89.9,10.8l-0.5-1.2H87l-0.5,1.2h-1.3l2.4-5.6h1.2l2.4,5.6H89.9z
		 M88.2,6.9l-0.7,1.6h1.4L88.2,6.9z"/>
	<polygon style="clip-path:url(#SVGID_2_);fill:#BB0E3D;" points="91.9,10.8 91.9,5.3 93.1,5.3 93.1,9.7 95.5,9.7 95.5,10.8 	"/>
	<path style="clip-path:url(#SVGID_2_);fill:#BB0E3D;" d="M101.1,9.7c0.6,0,1.1-0.2,1.5-0.7l0.8,0.8c-0.6,0.7-1.4,1.1-2.2,1.1
		s-1.6-0.3-2.1-0.8S98.2,8.9,98.2,8S98.5,6.5,99,6s1.3-0.8,2.1-0.8c0.9,0,1.7,0.3,2.3,1l-0.8,0.9c-0.4-0.5-0.9-0.7-1.5-0.7
		c-0.5,0-0.9,0.2-1.2,0.5S99.5,7.5,99.5,8c0,0.5,0.2,0.9,0.5,1.3C100.2,9.6,100.6,9.7,101.1,9.7"/>
	<path style="clip-path:url(#SVGID_2_);fill:#BB0E3D;" d="M108.3,10.8l-0.5-1.2h-2.3l-0.5,1.2h-1.3l2.4-5.6h1.2l2.4,5.6H108.3z
		 M106.6,6.9l-0.7,1.6h1.4L106.6,6.9z"/>
	<polygon style="clip-path:url(#SVGID_2_);fill:#BB0E3D;" points="114.2,5.3 115.4,5.3 115.4,10.8 114.2,10.8 111.5,7.3 111.5,10.8 
		110.3,10.8 110.3,5.3 111.5,5.3 114.2,8.9 	"/>
	<path style="clip-path:url(#SVGID_2_);fill:#BB0E3D;" d="M119.4,9.7c0.6,0,1.1-0.2,1.5-0.7l0.8,0.8c-0.6,0.7-1.4,1.1-2.2,1.1
		c-0.9,0-1.6-0.3-2.1-0.8c-0.6-0.5-0.8-1.2-0.8-2.1s0.3-1.5,0.9-2.1c0.6-0.6,1.3-0.8,2.1-0.8c0.9,0,1.7,0.3,2.3,1l-0.8,0.9
		c-0.4-0.5-0.9-0.7-1.5-0.7c-0.5,0-0.9,0.2-1.2,0.5c-0.3,0.3-0.5,0.7-0.5,1.2c0,0.5,0.2,0.9,0.5,1.3C118.6,9.6,118.9,9.7,119.4,9.7"
		/>
	<polygon style="clip-path:url(#SVGID_2_);fill:#BB0E3D;" points="126.7,5.3 126.7,6.4 123.9,6.4 123.9,7.5 126.4,7.5 126.4,8.6 
		123.9,8.6 123.9,9.7 126.8,9.7 126.8,10.8 122.7,10.8 122.7,5.3 	"/>
	<path style="clip-path:url(#SVGID_2_);fill:#BB0E3D;" d="M132.4,7.1c0,0.9-0.4,1.5-1.1,1.7l1.4,2h-1.5L130,9.1h-0.9v1.8h-1.2V5.3
		h2.1c0.9,0,1.5,0.1,1.9,0.4C132.3,6,132.4,6.5,132.4,7.1 M130.9,7.8c0.2-0.1,0.2-0.4,0.2-0.7c0-0.3-0.1-0.5-0.2-0.6
		c-0.2-0.1-0.4-0.2-0.8-0.2h-0.9V8h0.9C130.5,8,130.8,7.9,130.9,7.8"/>
	<rect x="135.8" y="5.3" style="clip-path:url(#SVGID_2_);fill:#BB0E3D;" width="1.2" height="5.6"/>
	<polygon style="clip-path:url(#SVGID_2_);fill:#BB0E3D;" points="142.4,5.3 143.6,5.3 143.6,10.8 142.4,10.8 139.7,7.3 139.7,10.8 
		138.5,10.8 138.5,5.3 139.6,5.3 142.4,8.9 	"/>
	<path style="clip-path:url(#SVGID_2_);fill:#BB0E3D;" d="M146.3,6.4c-0.1,0.1-0.2,0.2-0.2,0.4c0,0.2,0.1,0.3,0.2,0.4s0.5,0.2,1,0.3
		c0.5,0.1,0.9,0.3,1.2,0.6c0.3,0.3,0.4,0.6,0.4,1.1c0,0.5-0.2,0.9-0.6,1.2c-0.4,0.3-0.9,0.5-1.5,0.5c-0.9,0-1.7-0.3-2.4-1l0.7-0.9
		c0.6,0.5,1.2,0.8,1.7,0.8c0.2,0,0.4,0,0.5-0.1c0.1-0.1,0.2-0.2,0.2-0.4c0-0.2-0.1-0.3-0.2-0.4c-0.1-0.1-0.4-0.2-0.8-0.3
		c-0.7-0.2-1.1-0.4-1.4-0.6c-0.3-0.2-0.5-0.6-0.5-1.2c0-0.5,0.2-0.9,0.6-1.2c0.4-0.3,0.9-0.4,1.4-0.4c0.4,0,0.7,0.1,1.1,0.2
		c0.4,0.1,0.7,0.3,1,0.5l-0.6,0.9c-0.5-0.4-1-0.6-1.5-0.6C146.6,6.2,146.4,6.3,146.3,6.4"/>
	<polygon style="clip-path:url(#SVGID_2_);fill:#BB0E3D;" points="152.4,6.3 152.4,10.8 151.2,10.8 151.2,6.3 149.6,6.3 149.6,5.3 
		154,5.3 154,6.3 	"/>
	<rect x="154.9" y="5.3" style="clip-path:url(#SVGID_2_);fill:#BB0E3D;" width="1.2" height="5.6"/>
	<polygon style="clip-path:url(#SVGID_2_);fill:#BB0E3D;" points="159.9,6.3 159.9,10.8 158.7,10.8 158.7,6.3 157.1,6.3 157.1,5.3 
		161.5,5.3 161.5,6.3 	"/>
	<path style="clip-path:url(#SVGID_2_);fill:#BB0E3D;" d="M163.9,9.4c0.2,0.3,0.5,0.4,0.8,0.4c0.4,0,0.6-0.1,0.8-0.4
		c0.2-0.3,0.3-0.6,0.3-1.1V5.3h1.2v3.1c0,0.8-0.2,1.4-0.7,1.9c-0.4,0.4-1,0.7-1.7,0.7c-0.7,0-1.3-0.2-1.7-0.7
		c-0.5-0.4-0.7-1.1-0.7-1.9V5.3h1.2v3.1C163.6,8.8,163.7,9.1,163.9,9.4"/>
	<polygon style="clip-path:url(#SVGID_2_);fill:#BB0E3D;" points="170.8,6.3 170.8,10.8 169.5,10.8 169.5,6.3 167.9,6.3 167.9,5.3 
		172.4,5.3 172.4,6.3 	"/>
	<polygon style="clip-path:url(#SVGID_2_);fill:#BB0E3D;" points="177.3,5.3 177.3,6.4 174.5,6.4 174.5,7.5 177,7.5 177,8.6 
		174.5,8.6 174.5,9.7 177.4,9.7 177.4,10.8 173.3,10.8 173.3,5.3 	"/>
</g>
<text transform="matrix(1 0 0 1 52.3978 24.9323)"><tspan x="0" y="0" class="st4 st5 st6">SBIR D</tspan><tspan x="33.9" y="0" class="st4 st5 st6">e</tspan><tspan x="39.9" y="0" class="st4 st5 st6">velopme</tspan><tspan x="84.5" y="0" class="st4 st5 st6">n</tspan><tspan x="91.2" y="0" class="st4 st5 st6">t Ce</tspan><tspan x="110.8" y="0" class="st4 st5 st6">n</tspan><tspan x="117.4" y="0" class="st4 st5 st6">ter</tspan></text>
</svg>
