<?xml version="1.0" encoding="utf-8"?>
<!-- Generator: Adobe Illustrator 25.2.1, SVG Export Plug-In . SVG Version: 6.00 Build 0)  -->
<svg version="1.1" id="Layer_1" xmlns="http://www.w3.org/2000/svg" xmlns:xlink="http://www.w3.org/1999/xlink" x="0px" y="0px"
	 viewBox="0 0 381.6 59.3" style="enable-background:new 0 0 381.6 59.3;" xml:space="preserve">
<style type="text/css">
	.st0{fill:#606060;}
	.st1{fill:#BB0E3D;}
	.st2{fill:#FFFFFF;}
</style>
<g>
	<g>
		<path class="st0" d="M77.1,29.6l-15-27H7.9c-3.2,0-5.8,2.6-5.8,5.8v42.4c0,3.2,2.6,5.8,5.8,5.8h54.2L77.1,29.6z"/>
		<path class="st1" d="M75.6,5.4c-1.1-1.7-3-2.8-5-2.8h-4.5l15.2,27l-15.2,27h4.5c2.1,0,4-1.1,5-2.8l13.5-24.2L75.6,5.4z"/>
	</g>
	<g>
		<rect x="34.1" y="17.6" class="st2" width="4" height="24"/>
		<polygon class="st2" points="26.1,17.6 26.1,35.2 15.1,17.6 11.1,17.6 11.1,41.6 15.1,41.6 15.1,24 26.1,41.6 30.1,41.6 
			30.1,17.6 		"/>
		<polygon class="st2" points="57.1,17.6 57.1,27.6 46.1,27.6 46.1,17.6 42.1,17.6 42.1,41.6 46.1,41.6 46.1,31.6 57.1,31.6 
			57.1,41.6 61.1,41.6 61.1,17.6 		"/>
	</g>
</g>
<g>
	<g>
		<path class="st1" d="M110,10.6h2.5v11.2H110l-5.3-7v7h-2.5V10.6h2.3l5.5,7.2V10.6z"/>
		<path class="st1" d="M123.2,21.8l-1-2.4h-4.7l-1,2.4h-2.7l4.8-11.2h2.4l4.8,11.2H123.2z M119.8,13.9l-1.4,3.2h2.8L119.8,13.9z"/>
		<path class="st1" d="M131.1,12.7v9h-2.5v-9h-3.2v-2.1h8.8v2.2h-3.1V12.7z"/>
		<path class="st1" d="M136,10.6h2.5v11.2H136V10.6z"/>
		<path class="st1" d="M150.7,20.2c-1.1,1.1-2.5,1.7-4.2,1.7s-3-0.6-4.2-1.7c-1.1-1.1-1.7-2.5-1.7-4.1s0.6-3,1.7-4.1
			c1.1-1.1,2.5-1.7,4.2-1.7s3,0.6,4.2,1.7c1.1,1.1,1.7,2.5,1.7,4.1S151.8,19.1,150.7,20.2z M149.9,16.1c0-1-0.3-1.8-1-2.6
			s-1.4-1.1-2.4-1.1c-0.9,0-1.7,0.4-2.4,1.1c-0.6,0.7-1,1.6-1,2.6s0.3,1.8,1,2.5c0.6,0.7,1.4,1,2.4,1c0.9,0,1.7-0.3,2.4-1
			C149.5,18,149.9,17.1,149.9,16.1z"/>
		<path class="st1" d="M162.3,10.6h2.5v11.2h-2.5l-5.3-7v7h-2.5V10.6h2.3l5.5,7.2V10.6z"/>
		<path class="st1" d="M175.6,21.8l-1-2.4h-4.7l-1,2.4h-2.7l4.8-11.2h2.4l4.8,11.2H175.6z M172.2,13.9l-1.4,3.2h2.8L172.2,13.9z"/>
		<path class="st1" d="M179.5,21.8V10.6h2.5v9h4.8v2.2H179.5z"/>
		<path class="st1" d="M198,19.6c1.2,0,2.2-0.5,3-1.5l1.6,1.6c-1.3,1.4-2.8,2.1-4.5,2.1s-3.1-0.5-4.3-1.6s-1.7-2.5-1.7-4.1
			c0-1.7,0.6-3,1.7-4.2c1.1-1.1,2.5-1.7,4.2-1.7c1.8,0,3.4,0.7,4.6,2.1l-1.6,1.8c-0.8-1-1.8-1.5-2.9-1.5c-0.9,0-1.7,0.3-2.4,0.9
			s-1,1.4-1,2.5s0.3,1.9,0.9,2.5C196.3,19.2,197.1,19.6,198,19.6z"/>
		<path class="st1" d="M212.4,21.8l-1-2.4h-4.7l-1,2.4H203l4.8-11.2h2.4l4.8,11.2H212.4z M209,13.9l-1.4,3.2h2.8L209,13.9z"/>
		<path class="st1" d="M224.2,10.6h2.5v11.2h-2.5l-5.3-7v7h-2.5V10.6h2.3l5.5,7.2V10.6z"/>
		<path class="st1" d="M234.6,19.6c1.2,0,2.2-0.5,3-1.5l1.6,1.6c-1.3,1.4-2.8,2.1-4.5,2.1s-3.1-0.5-4.3-1.6s-1.7-2.5-1.7-4.1
			c0-1.7,0.6-3,1.7-4.2c1.1-1.1,2.5-1.7,4.2-1.7c1.8,0,3.4,0.7,4.6,2.1l-1.6,1.8c-0.8-1-1.8-1.5-2.9-1.5c-0.9,0-1.7,0.3-2.4,0.9
			s-1,1.4-1,2.5s0.3,1.9,0.9,2.5C232.9,19.2,233.7,19.6,234.6,19.6z"/>
		<path class="st1" d="M249.2,10.6v2.2h-5.6v2.3h5v2.1h-5v2.4h5.7v2.2h-8.2V10.6H249.2z"/>
		<path class="st1" d="M260.7,14.3c0,1.8-0.7,2.9-2.1,3.5l2.8,4h-3.1l-2.5-3.6h-1.7v3.6h-2.5V10.6h4.2c1.7,0,3,0.3,3.7,0.9
			C260.3,12,260.7,13,260.7,14.3z M257.7,15.6c0.3-0.3,0.5-0.7,0.5-1.3s-0.2-1-0.5-1.2s-0.9-0.3-1.7-0.3h-1.9v3.3h1.8
			C256.8,16,257.4,15.9,257.7,15.6z"/>
		<path class="st1" d="M267.5,10.6h2.5v11.2h-2.5V10.6z"/>
		<path class="st1" d="M280.5,10.6h2.5v11.2h-2.5l-5.3-7v7h-2.5V10.6h2.3l5.5,7.2V10.6z"/>
		<path class="st1" d="M288.4,12.8c-0.2,0.2-0.4,0.5-0.4,0.8s0.1,0.6,0.4,0.8s1,0.4,2,0.7c1.1,0.3,1.9,0.7,2.5,1.2
			c0.6,0.5,0.9,1.3,0.9,2.3s-0.4,1.8-1.1,2.4s-1.7,0.9-3,0.9c-1.8,0-3.4-0.7-4.8-2l1.5-1.8c1.2,1.1,2.3,1.6,3.3,1.6
			c0.5,0,0.8-0.1,1.1-0.3s0.4-0.5,0.4-0.8s-0.1-0.6-0.4-0.8s-0.8-0.4-1.6-0.6c-1.3-0.3-2.3-0.7-2.9-1.2c-0.6-0.5-0.9-1.3-0.9-2.3
			s0.4-1.9,1.1-2.5c0.8-0.6,1.7-0.9,2.9-0.9c0.7,0,1.5,0.1,2.2,0.4s1.4,0.6,2,1.1l-1.3,1.8c-1-0.7-2-1.1-3-1.1
			C289,12.5,288.6,12.6,288.4,12.8z"/>
		<path class="st1" d="M300.6,12.7v9h-2.5v-9h-3.2v-2.1h8.8v2.2h-3.1V12.7z"/>
		<path class="st1" d="M305.6,10.6h2.5v11.2h-2.5V10.6z"/>
		<path class="st1" d="M315.6,12.7v9h-2.5v-9h-3.2v-2.1h8.8v2.2h-3.1V12.7z"/>
		<path class="st1" d="M323.6,18.9c0.4,0.5,1,0.8,1.7,0.8s1.3-0.3,1.7-0.8s0.6-1.2,0.6-2.1v-6.2h2.5v6.3c0,1.6-0.4,2.9-1.3,3.7
			c-0.9,0.9-2,1.3-3.4,1.3s-2.5-0.4-3.4-1.3c-0.9-0.9-1.4-2.1-1.4-3.7v-6.3h2.5v6.2C322.9,17.7,323.1,18.4,323.6,18.9z"/>
		<path class="st1" d="M337.4,12.7v9h-2.5v-9h-3.2v-2.1h8.8v2.2h-3.1V12.7z"/>
		<path class="st1" d="M350.4,10.6v2.2h-5.6v2.3h5v2.1h-5v2.4h5.7v2.2h-8.2V10.6H350.4z"/>
	</g>
</g>
<g>
	<g>
		<path class="st0" d="M105.5,36.9c-0.3,0.3-0.5,0.6-0.5,1s0.2,0.8,0.6,1c0.4,0.3,1.3,0.5,2.7,0.9c1.4,0.3,2.5,0.9,3.2,1.5
			c0.8,0.7,1.2,1.7,1.2,3c0,1.3-0.5,2.4-1.5,3.2c-1,0.8-2.3,1.2-3.9,1.2c-2.3,0-4.4-0.9-6.3-2.6l2-2.4c1.6,1.4,3,2.1,4.4,2.1
			c0.6,0,1.1-0.1,1.4-0.4c0.3-0.3,0.5-0.6,0.5-1.1c0-0.4-0.2-0.8-0.5-1c-0.4-0.3-1.1-0.5-2.2-0.8c-1.7-0.4-3-0.9-3.7-1.6
			c-0.8-0.7-1.2-1.7-1.2-3.1c0-1.4,0.5-2.5,1.5-3.2c1-0.8,2.2-1.1,3.7-1.1c1,0,2,0.2,2.9,0.5c1,0.3,1.8,0.8,2.6,1.4l-1.7,2.4
			c-1.3-1-2.6-1.4-3.9-1.4C106.3,36.5,105.9,36.6,105.5,36.9z"/>
		<path class="st0" d="M121.9,48.6h-6.4V33.9h5.7c1,0,1.9,0.1,2.6,0.4c0.7,0.2,1.3,0.6,1.6,1c0.7,0.8,1,1.6,1,2.6
			c0,1.1-0.4,2-1.1,2.6c-0.3,0.2-0.4,0.3-0.5,0.4c-0.1,0-0.3,0.1-0.5,0.2c0.9,0.2,1.6,0.6,2.2,1.2s0.8,1.4,0.8,2.3
			c0,1-0.4,1.9-1,2.7C125.4,48.1,124,48.6,121.9,48.6z M118.8,39.9h1.6c0.9,0,1.6-0.1,2-0.3s0.7-0.6,0.7-1.3s-0.2-1.1-0.6-1.3
			s-1.1-0.3-2.1-0.3h-1.6L118.8,39.9L118.8,39.9z M118.8,45.8h2.2c0.9,0,1.6-0.1,2.1-0.3c0.5-0.2,0.7-0.7,0.7-1.4s-0.2-1.1-0.7-1.3
			s-1.3-0.3-2.4-0.3h-1.9L118.8,45.8L118.8,45.8z"/>
		<path class="st0" d="M130,33.9h3.3v14.7H130V33.9z"/>
		<path class="st0" d="M148.8,38.8c0,2.4-0.9,3.9-2.8,4.6l3.7,5.2h-4l-3.3-4.7h-2.3v4.7h-3.3V33.9h5.6c2.3,0,3.9,0.4,4.9,1.2
			C148.3,35.8,148.8,37.1,148.8,38.8z M144.8,40.5c0.4-0.4,0.6-0.9,0.6-1.7s-0.2-1.3-0.6-1.6s-1.2-0.4-2.2-0.4h-2.5v4.3h2.4
			C143.7,41.1,144.4,40.9,144.8,40.5z"/>
		<path class="st0" d="M168.9,35.8c1.4,1.3,2.1,3.1,2.1,5.3c0,2.3-0.7,4.1-2,5.4c-1.4,1.3-3.4,2-6.2,2h-5V33.9h5.2
			C165.5,33.9,167.5,34.6,168.9,35.8z M166.5,44.6c0.8-0.8,1.2-1.9,1.2-3.3c0-1.4-0.4-2.6-1.2-3.3c-0.8-0.8-2-1.2-3.7-1.2H161v8.9
			h2.1C164.5,45.7,165.7,45.3,166.5,44.6z"/>
		<path class="st0" d="M183.3,47c-1.3,1.2-2.8,1.8-4.5,1.8s-3.1-0.5-4.3-1.6c-1.1-1.1-1.7-2.5-1.7-4.3s0.6-3.2,1.7-4.2
			s2.5-1.6,4-1.6c1.6,0,2.9,0.5,4,1.4s1.6,2.2,1.6,3.9v1.7h-8.2c0.1,0.6,0.4,1.1,1,1.5c0.5,0.4,1.2,0.6,1.8,0.6c1.1,0,2-0.4,2.7-1.1
			L183.3,47z M180.3,40.3c-0.4-0.4-1-0.5-1.6-0.5s-1.2,0.2-1.7,0.6c-0.5,0.4-0.8,0.9-0.9,1.5h5C181,41.1,180.7,40.6,180.3,40.3z"/>
		<path class="st0" d="M189.4,48.6l-4.5-11.3h3.3l2.8,7.1l2.8-7.1h3.3l-4.5,11.3H189.4z"/>
		<path class="st0" d="M208.4,47c-1.3,1.2-2.8,1.8-4.5,1.8s-3.1-0.5-4.3-1.6c-1.1-1.1-1.7-2.5-1.7-4.3s0.6-3.2,1.7-4.2
			s2.5-1.6,4-1.6c1.6,0,2.9,0.5,4,1.4s1.6,2.2,1.6,3.9v1.7H201c0.1,0.6,0.4,1.1,1,1.5c0.5,0.4,1.2,0.6,1.8,0.6c1.1,0,2-0.4,2.7-1.1
			L208.4,47z M205.4,40.3c-0.4-0.4-1-0.5-1.6-0.5s-1.2,0.2-1.7,0.6c-0.5,0.4-0.8,0.9-0.9,1.5h5C206.1,41.1,205.8,40.6,205.4,40.3z"
			/>
		<path class="st0" d="M214.8,48.6h-3.2V33h3.1L214.8,48.6L214.8,48.6z"/>
		<path class="st0" d="M229,43c0,1.6-0.6,3-1.7,4.1c-1.1,1.1-2.6,1.7-4.3,1.7s-3.1-0.6-4.3-1.7S217,44.6,217,43s0.6-3,1.7-4.1
			c1.1-1.1,2.6-1.7,4.3-1.7s3.1,0.6,4.3,1.7C228.5,39.9,229,41.3,229,43z M220.3,43c0,0.9,0.3,1.7,0.8,2.3c0.5,0.6,1.2,0.9,2,0.9
			s1.5-0.3,2-0.9s0.8-1.3,0.8-2.3c0-0.9-0.3-1.7-0.8-2.3s-1.2-0.9-2-0.9s-1.5,0.3-2,0.9C220.5,41.3,220.3,42,220.3,43z"/>
		<path class="st0" d="M237.9,37.1c1.3,0,2.5,0.5,3.5,1.6s1.5,2.5,1.5,4.1c0,1.7-0.5,3.1-1.5,4.2s-2.2,1.7-3.6,1.7s-2.5-0.6-3.3-1.7
			v5.6h-3.1V37.3h3.1v1.3C235.5,37.6,236.6,37.1,237.9,37.1z M234.5,43c0,0.9,0.3,1.7,0.8,2.2c0.5,0.6,1.1,0.9,1.9,0.9
			c0.7,0,1.4-0.3,1.9-0.9s0.8-1.3,0.8-2.2s-0.3-1.7-0.8-2.3s-1.2-0.9-1.9-0.9c-0.7,0-1.4,0.3-1.9,0.9C234.7,41.3,234.5,42,234.5,43z
			"/>
		<path class="st0" d="M255.7,42.5v6.1h-3.1v-6.2c0-0.9-0.1-1.6-0.4-2s-0.7-0.6-1.3-0.6s-1.1,0.2-1.6,0.7s-0.7,1.1-0.7,2v6.1h-3.1
			V37.3h3.1v1.3c0.9-1,1.9-1.5,3-1.5c0.7,0,1.4,0.2,1.9,0.6c0.6,0.4,1,0.9,1.3,1.5c0.4-0.7,1-1.2,1.8-1.6c0.7-0.4,1.5-0.6,2.2-0.6
			c1.3,0,2.4,0.4,3.2,1.2c0.8,0.8,1.2,1.9,1.2,3.4v7H260v-6.2c0-1.7-0.6-2.6-1.9-2.6c-0.6,0-1.2,0.2-1.6,0.7
			C256,41,255.7,41.6,255.7,42.5z"/>
		<path class="st0" d="M275.8,47c-1.3,1.2-2.8,1.8-4.5,1.8s-3.1-0.5-4.3-1.6c-1.1-1.1-1.7-2.5-1.7-4.3s0.6-3.2,1.7-4.2
			s2.5-1.6,4-1.6c1.6,0,2.9,0.5,4,1.4s1.6,2.2,1.6,3.9v1.7h-8.2c0.1,0.6,0.4,1.1,1,1.5c0.5,0.4,1.2,0.6,1.8,0.6c1.1,0,2-0.4,2.7-1.1
			L275.8,47z M272.8,40.3c-0.4-0.4-1-0.5-1.6-0.5s-1.2,0.2-1.7,0.6c-0.5,0.4-0.8,0.9-0.9,1.5h5C273.4,41.1,273.2,40.6,272.8,40.3z"
			/>
		<path class="st0" d="M282.1,42.3v6.3H279V37.3h3.1v1.3c1-1,2-1.4,3.2-1.4s2.2,0.4,3,1.3c0.8,0.8,1.2,2,1.2,3.4v6.7h-3.2v-6.4
			c0-1.7-0.6-2.6-1.9-2.6c-0.6,0-1.2,0.2-1.6,0.7C282.4,40.7,282.1,41.4,282.1,42.3z"/>
		<path class="st0" d="M296,39.6v5c0,0.4,0.1,0.8,0.3,1c0.2,0.2,0.5,0.4,0.8,0.4c0.6,0,1.1-0.3,1.5-0.8l1.2,2.2
			c-1,0.9-2,1.3-3.1,1.3s-2-0.4-2.8-1.1c-0.7-0.7-1.1-1.7-1.1-2.9v-5.1h-1.3v-2.3h1.3v-3.4h3.2v3.4h2.7v2.3H296z"/>
		<path class="st0" d="M314.1,45.7c1.6,0,2.9-0.6,3.9-1.9l2.1,2.2c-1.7,1.9-3.6,2.8-5.9,2.8s-4.1-0.7-5.6-2.1s-2.2-3.2-2.2-5.4
			s0.7-4,2.2-5.4c1.5-1.5,3.3-2.2,5.5-2.2c2.4,0,4.4,0.9,6,2.8l-2,2.3c-1-1.3-2.3-1.9-3.9-1.9c-1.2,0-2.3,0.4-3.2,1.2
			c-0.9,0.8-1.3,1.9-1.3,3.3c0,1.4,0.4,2.5,1.2,3.3S312.9,45.7,314.1,45.7z"/>
		<path class="st0" d="M332.2,47c-1.3,1.2-2.8,1.8-4.5,1.8s-3.1-0.5-4.3-1.6c-1.1-1.1-1.7-2.5-1.7-4.3s0.6-3.2,1.7-4.2
			s2.5-1.6,4-1.6c1.6,0,2.9,0.5,4,1.4s1.6,2.2,1.6,3.9v1.7h-8.2c0.1,0.6,0.4,1.1,1,1.5c0.5,0.4,1.2,0.6,1.8,0.6c1.1,0,2-0.4,2.7-1.1
			L332.2,47z M329.1,40.3c-0.4-0.4-1-0.5-1.6-0.5s-1.2,0.2-1.7,0.6c-0.5,0.4-0.8,0.9-0.9,1.5h5C329.8,41.1,329.6,40.6,329.1,40.3z"
			/>
		<path class="st0" d="M338.5,42.3v6.3h-3.1V37.3h3.1v1.3c1-1,2-1.4,3.2-1.4s2.2,0.4,3,1.3c0.8,0.8,1.2,2,1.2,3.4v6.7h-3.2v-6.4
			c0-1.7-0.6-2.6-1.9-2.6c-0.6,0-1.2,0.2-1.6,0.7C338.7,40.7,338.5,41.4,338.5,42.3z"/>
		<path class="st0" d="M352.4,39.6v5c0,0.4,0.1,0.8,0.3,1c0.2,0.2,0.5,0.4,0.8,0.4c0.6,0,1.1-0.3,1.5-0.8l1.2,2.2
			c-1,0.9-2,1.3-3.1,1.3s-2-0.4-2.8-1.1c-0.7-0.7-1.1-1.7-1.1-2.9v-5.1h-1.3v-2.3h1.3v-3.4h3.2v3.4h2.7v2.3H352.4z"/>
		<path class="st0" d="M367.6,47c-1.3,1.2-2.8,1.8-4.5,1.8s-3.1-0.5-4.3-1.6c-1.1-1.1-1.7-2.5-1.7-4.3s0.6-3.2,1.7-4.2
			s2.5-1.6,4-1.6c1.6,0,2.9,0.5,4,1.4s1.6,2.2,1.6,3.9v1.7h-8.2c0.1,0.6,0.4,1.1,1,1.5c0.5,0.4,1.2,0.6,1.8,0.6c1.1,0,2-0.4,2.7-1.1
			L367.6,47z M364.6,40.3c-0.4-0.4-1-0.5-1.6-0.5s-1.2,0.2-1.7,0.6c-0.5,0.4-0.8,0.9-0.9,1.5h5C365.3,41.1,365,40.6,364.6,40.3z"/>
		<path class="st0" d="M376.8,40.1c-0.9,0-1.6,0.3-2.1,1s-0.7,1.5-0.7,2.6v4.9h-3.1V37.3h3.1v1.5c0.4-0.5,0.9-0.9,1.5-1.2
			s1.2-0.5,1.9-0.5v3H376.8z"/>
	</g>
</g>
</svg>
