<?xml version="1.0" encoding="UTF-8"?>
<svg width="150px" height="150px" viewBox="0 0 150 150" version="1.1" xmlns="http://www.w3.org/2000/svg" xmlns:xlink="http://www.w3.org/1999/xlink">
    <!-- Generator: Sketch 51.1 (57501) - http://www.bohemiancoding.com/sketch -->
    <title>youtube-circle-icon</title>
    <desc>Created with Sketch.</desc>
    <defs>
        <circle id="path-1" cx="75" cy="75" r="75"></circle>
    </defs>
    <g id="COMPS" stroke="none" stroke-width="1" fill="none" fill-rule="evenodd">
        <g id="Desktop-HD---1441" transform="translate(-1101.000000, -1548.000000)">
            <g id="SOCIAL-MEDIA-ROW" transform="translate(121.000000, 1466.000000)">
                <g id="YouTube" transform="translate(911.000000, 52.000000)">
                    <g id="youtube-circle-icon" transform="translate(69.000000, 30.000000)">
                        <mask id="mask-2" fill="white">
                            <use xlink:href="#path-1"></use>
                        </mask>
                        <use id="Mask" fill="#FF0000" xlink:href="#path-1"></use>
                        <g id="Group-13" mask="url(#mask-2)" fill="#FEFEFE">
                            <g transform="translate(44.000000, 38.000000)">
                                <path d="M58.281424,57.8377189 L50.6717013,57.8377189 L50.6717013,61.545268 C50.6717013,63.5076264 51.3238887,64.4888056 52.6256548,64.4888056 C53.5608915,64.4888056 54.1289468,63.9779383 54.3278639,62.9529331 C54.383952,62.6696994 54.4119961,61.8010288 54.4119961,60.3521541 L58.281424,60.3521541 L58.281424,60.9068474 C58.281424,62.2988137 58.2507712,63.121696 58.1946831,63.3800731 C58.1112031,64.1467012 57.8131535,64.9152915 57.3031429,65.6819195 C56.2818174,67.1870484 54.7504814,67.9405941 52.7123957,67.9405941 C50.7558335,67.9405941 49.2251496,67.2151756 48.1190397,65.766301 C47.298588,64.7164392 46.8890143,63.0680582 46.8890143,60.822466 L46.8890143,53.4453067 C46.8890143,51.1997146 47.2835877,49.5513335 48.0786041,48.4988553 C49.1840618,47.0499807 50.6997453,46.3265245 52.6256548,46.3265245 C54.5261289,46.3265245 56.0294209,47.0499807 57.132922,48.4988553 C57.8992422,49.5513335 58.281424,51.1997146 58.281424,53.4453067 L58.281424,57.8377189 Z M43.9130831,61.3333333 C43.9130831,63.4082003 43.7859065,64.8289478 43.5309013,65.5975381 C43.0495869,67.1589213 42.0432618,67.9405941 40.5119257,67.9405941 C39.1514628,67.9405941 37.8346964,67.1589213 36.5583656,65.5975381 L36.5583656,67.6442779 L32.7776351,67.6442779 L32.7776351,39.3765052 L36.5583656,39.3765052 L36.5583656,48.6290251 C37.7786083,47.0931526 39.0953746,46.3265245 40.5119257,46.3265245 C42.0432618,46.3265245 43.0495869,47.1238962 43.5309013,48.7134065 C43.7859065,49.4545238 43.9130831,50.8595724 43.9130831,52.9344394 L43.9130831,61.3333333 Z M29.46061,67.6416615 L25.6772708,67.6416615 L25.6772708,65.3398151 C24.1459347,67.0745399 22.699383,67.9405941 21.3415288,67.9405941 C20.037154,67.9405941 19.2140935,67.414682 18.874956,66.3641661 C18.648647,65.6819195 18.533862,64.6444861 18.533862,63.2518657 L18.533862,46.5822853 L22.3172012,46.5822853 L22.3172012,62.0999613 C22.3172012,63.0091874 22.3322015,63.5076264 22.3602456,63.5920078 C22.4443777,64.189873 22.7424274,64.4888056 23.2543945,64.4888056 C24.0187582,64.4888056 24.8261662,63.8909404 25.6772708,62.6978265 L25.6772708,46.5822853 L29.46061,46.5822853 L29.46061,67.6416615 Z M17.9834158,43.3829869 L13.4337564,43.3829869 L13.4337564,67.6416615 L9.18410319,67.6416615 L9.18410319,43.3829869 L4.72053252,43.3829869 L4.72053252,39.3765052 L17.9834158,39.3765052 L17.9834158,43.3829869 Z M61.8938901,39.0775726 C61.5273608,37.3991021 60.7121265,35.9940535 59.4507961,34.8565397 C58.1901178,33.7196801 56.7350877,33.0531323 55.0922276,32.8536259 C49.877337,32.2838878 42.0152177,32 31.4986956,32 C20.9847823,32 13.1357067,32.2838878 7.94886022,32.8536259 C6.27730388,33.0531323 4.81770844,33.7196801 3.57203048,34.8565397 C2.32309158,35.9940535 1.50329199,37.4017186 1.10545767,39.0775726 C0.369138077,42.3743347 0,47.3489133 0,54 C0,60.7635953 0.369138077,65.7381738 1.10545767,68.9217733 C1.47524793,70.5982814 2.28787345,72.0059465 3.54855173,73.1434603 C4.80988219,74.2803199 6.26426013,74.9344394 7.90777242,75.1032022 C13.122663,75.7010674 20.987391,76 31.5013044,76 C42.012609,76 49.8792936,75.7010674 55.0922276,75.1032022 C56.7350877,74.9344394 58.1796828,74.2803199 59.4279695,73.1434603 C60.6762562,72.0059465 61.496708,70.5982814 61.8938901,68.9217733 C62.6302097,65.6256653 63,60.6510867 63,54 C63,47.2364047 62.6302097,42.2618262 61.8938901,39.0775726 Z" id="Fill-1"></path>
                                <path d="M38.1424397,50 C37.4119795,50 36.6990504,50.3201708 36,50.9585112 L36,64.0441569 C36.6990504,64.6798292 37.4119795,65 38.1424397,65 C39.3783784,65 40,64.0281483 40,62.0871131 L40,52.9128869 C40,50.9718517 39.3813002,50 38.1424397,50" id="Fill-3"></path>
                                <path d="M52.0003409,50 C50.6660985,50 50,50.9959623 50,52.9831763 L50,55 L54,55 L54,52.9831763 C54,50.9932705 53.3318561,50 52.0003409,50" id="Fill-5"></path>
                                <path d="M15.4466457,16.6748489 L15.4466457,28 L19.7709282,28 L19.7709282,16.6748489 L25,0 L20.5901473,0 L17.6515721,10.9898333 L14.5809932,0 L10,0 C10.8059523,2.34145448 11.7439084,4.94385419 12.8085614,7.81361055 C14.1637554,11.6585455 15.0426746,14.6135739 15.4466457,16.6748489" id="Fill-7"></path>
                                <path d="M28.7085967,13.4455365 C28.7085967,11.4677714 29.2983565,10.4815259 30.4791403,10.4815259 C31.6618205,10.4815259 32.2515803,11.4677714 32.2515803,13.4455365 L32.2515803,22.4694196 C32.2515803,24.4755326 31.6618205,25.4769411 30.4791403,25.4769411 C29.2983565,25.4769411 28.7085967,24.4755326 28.7085967,22.4694196 L28.7085967,13.4455365 Z M30.4791403,29 C32.3754741,29 33.82933,28.2715232 34.8470291,26.8086362 C35.6150442,25.7498726 36,24.0582242 36,21.7376465 L36,14.2181835 C36,11.9285907 35.6150442,10.2521051 34.8470291,9.19136376 C33.82933,7.73111384 32.3754741,7 30.4791403,7 C28.6396966,7 27.1972187,7.73111384 26.1529709,9.19136376 C25.3849558,10.2521051 25,11.9285907 25,14.2181835 L25,21.7376465 C25,24.0298762 25.3849558,25.7215247 26.1529709,26.8086362 C27.1972187,28.2715232 28.6396966,29 30.4791403,29 Z" id="Fill-9"></path>
                                <path d="M41.8237127,28 C43.2281331,28 44.6758759,27.1416616 46.1630614,25.4281686 L46.1630614,27.7090055 L50,27.7090055 L50,7 L46.1630614,7 L46.1630614,22.8117647 C45.3224783,24.0031231 44.5213379,24.5972104 43.7615801,24.5972104 C43.255937,24.5972104 42.9604397,24.2941176 42.877028,23.6847483 C42.8472843,23.6299879 42.8343522,23.1447847 42.8343522,22.2316859 L42.8343522,7 L39,7 L39,23.3536386 C39,24.7640388 39.1112156,25.8013038 39.3362332,26.4654336 C39.7022102,27.4899636 40.5305079,28 41.8237127,28" id="Fill-11"></path>
                            </g>
                        </g>
                    </g>
                </g>
            </g>
        </g>
    </g>
</svg>