<svg baseProfile="tiny" xmlns="http://www.w3.org/2000/svg" viewBox="0 0 288 38" overflow="visible" xml:space="preserve"><g fill="#BB0E3D"><path d="M67.3 6h2.3v10.4h-2.3l-5-6.5v6.5H60V6h2.2l5.1 6.7V6zM79.6 16.4l-1-2.2h-4.4l-1 2.2h-2.5L75.3 6h2.2L82 16.4h-2.4zm-3.1-7.3-1.3 3h2.6l-1.3-3zM86.9 8v8.4h-2.3V8h-2.9V6h8.2v2h-3zM91.6 6h2.3v10.4h-2.3V6zM105.2 15c-1.1 1-2.3 1.5-3.9 1.5s-2.8-.5-3.9-1.5-1.6-2.3-1.6-3.8.5-2.8 1.6-3.8 2.3-1.5 3.9-1.5 2.8.5 3.9 1.5 1.6 2.3 1.6 3.8-.5 2.8-1.6 3.8zm-.8-3.8c0-.9-.3-1.7-.9-2.4-.6-.7-1.3-1-2.2-1s-1.6.3-2.2 1c-.6.7-.9 1.4-.9 2.4 0 .9.3 1.7.9 2.4.6.7 1.3 1 2.2 1s1.6-.3 2.2-1c.6-.7.9-1.5.9-2.4zM116 6h2.3v10.4H116l-5-6.5v6.5h-2.3V6h2.2l5.1 6.7V6zM128.3 16.4l-1-2.2H123l-1 2.2h-2.5L124.1 6h2.2l4.5 10.4h-2.5zm-3.1-7.3-1.3 3h2.6l-1.3-3zM132 16.4V6h2.3v8.3h4.4v2.1H132zM149.2 14.4c1.1 0 2.1-.5 2.8-1.4l1.5 1.5c-1.2 1.3-2.6 2-4.2 2s-2.9-.5-4-1.5c-1-1-1.6-2.3-1.6-3.8s.5-2.8 1.6-3.9c1.1-1 2.4-1.5 3.9-1.5 1.7 0 3.1.7 4.3 2l-1.4 1.6c-.7-.9-1.6-1.4-2.7-1.4-.9 0-1.6.3-2.2.9-.6.6-.9 1.3-.9 2.3s.3 1.7.9 2.3c.4.6 1.2.9 2 .9zM162.6 16.4l-1-2.2h-4.4l-1 2.2h-2.5L158.4 6h2.2l4.5 10.4h-2.5zm-3.1-7.3-1.3 3h2.6l-1.3-3zM173.6 6h2.3v10.4h-2.3l-5-6.5v6.5h-2.3V6h2.2l5.1 6.7V6zM183.3 14.4c1.1 0 2.1-.5 2.8-1.4l1.5 1.5c-1.2 1.3-2.6 2-4.2 2s-2.9-.5-4-1.5c-1-1-1.6-2.3-1.6-3.8s.5-2.8 1.6-3.9c1.1-1 2.3-1.5 3.9-1.5 1.7 0 3.1.7 4.3 2l-1.4 1.6c-.7-.9-1.6-1.4-2.7-1.4-.9 0-1.6.3-2.2.9-.6.6-.9 1.3-.9 2.3s.3 1.7.9 2.3c.4.6 1.1.9 2 .9zM196.9 6v2.1h-5.2v2.1h4.7v2h-4.7v2.2h5.3v2.1h-7.7V6h7.6zM207.6 9.5c0 1.7-.7 2.7-2 3.2l2.6 3.7h-2.9l-2.3-3.3h-1.6v3.3h-2.3V6h3.9c1.6 0 2.8.3 3.5.8.7.6 1.1 1.5 1.1 2.7zm-2.8 1.2c.3-.3.4-.7.4-1.2s-.1-.9-.4-1.2c-.3-.2-.8-.3-1.6-.3h-1.7v3.1h1.7c.7 0 1.3-.1 1.6-.4zM60 21.6h2.3V32H60V21.6zM72.2 21.6h2.3V32h-2.3l-5-6.5V32h-2.3V21.6h2.2l5.1 6.7v-6.7zM79.5 23.7c-.2.2-.3.4-.3.7s.1.5.4.7c.3.2.9.4 1.9.6 1 .2 1.8.6 2.3 1.1.5.5.8 1.2.8 2.1 0 .9-.3 1.7-1 2.3s-1.6.9-2.8.9c-1.6 0-3.1-.6-4.5-1.8l1.4-1.7c1.1 1 2.2 1.5 3.1 1.5.4 0 .8-.1 1-.3.2-.2.4-.4.4-.7s-.1-.6-.4-.7c-.3-.2-.8-.4-1.5-.6-1.2-.3-2.1-.7-2.7-1.1s-.8-1.2-.8-2.2c0-1 .4-1.7 1.1-2.3.7-.5 1.6-.8 2.7-.8.7 0 1.4.1 2.1.4.7.2 1.3.6 1.8 1l-1.2 1.7c-.9-.7-1.8-1-2.8-1-.5-.1-.8 0-1 .2zM90.9 23.6V32h-2.3v-8.4h-2.9v-2h8.2v2h-3zM95.5 21.6h2.3V32h-2.3V21.6zM104.8 23.6V32h-2.3v-8.4h-2.9v-2h8.2v2h-3zM112.2 29.3c.4.5.9.7 1.6.7s1.2-.2 1.6-.7c.4-.5.6-1.1.6-2v-5.7h2.3v5.8c0 1.5-.4 2.7-1.3 3.5-.8.8-1.9 1.2-3.2 1.2-1.3 0-2.4-.4-3.2-1.2-.8-.8-1.3-2-1.3-3.5v-5.8h2.3v5.7c0 .9.2 1.5.6 2zM125.1 23.6V32h-2.3v-8.4h-2.9v-2h8.2v2h-3zM137.2 21.6v2.1H132v2.1h4.7v2H132V30h5.3v2h-7.7V21.6h7.6z"/></g><path fill="#606061" d="m45.1 19-9-16.1H3.6C1.7 2.9.1 4.4.1 6.4v25.4c0 1.9 1.5 3.5 3.5 3.5H36L45.1 19z"/><path fill="#BA1F40" d="M44.2 4.5c-.6-1-1.8-1.7-3-1.7h-2.7L47.6 19l-9.1 16.2h2.7c1.2 0 2.4-.6 3-1.7l8-14.5-8-14.5z"/><path fill="#FFF" d="M19.3 11.8h2.4v14.4h-2.4zM14.5 11.8v10.5L8 11.8H5.6v14.3H8V15.6l6.5 10.5h2.4V11.8zM33.1 11.8v6h-6.6v-6h-2.4v14.3h2.4v-6h6.6v6h2.4V11.8z"/></svg>