<svg baseProfile="tiny" xmlns="http://www.w3.org/2000/svg" viewBox="0 0 288 38" overflow="visible" xml:space="preserve"><g fill="#BB0E3D"><path d="M60 6.2h2.3v10.4H60zM72.2 6.2h2.3v10.3h-2.3l-5-6.4v6.4h-2.3V6.2h2.2l5 6.7V6.2zM79.4 8.2c-.2.2-.3.4-.3.7s.2.6.4.7c.2.2.9.4 1.9.7 1 .2 1.7.6 2.3 1.1.6.5.8 1.2.8 2.2s-.3 1.7-1.1 2.2c-.7.6-1.6.8-2.7.8-1.7 0-3.1-.6-4.4-1.8l1.4-1.7c1.1 1 2.2 1.5 3.1 1.5.4 0 .7-.1 1-.2.2-.2.3-.4.3-.7s-.1-.7-.4-.8c-.2-.2-.7-.3-1.5-.6-1.2-.2-2.1-.7-2.7-1.2-.5-.5-.7-1.1-.7-2.1s.3-1.7 1.1-2.2 1.6-.8 2.7-.8c.7 0 1.4.1 2.1.3.7.2 1.3.6 1.8 1L83.3 9c-.9-.7-1.8-1-2.8-1-.5-.1-.8 0-1.1.2zM90.7 8.2v8.3h-2.3V8.2h-2.9v-2h8.2v2zM95.4 6.2h2.3v10.4h-2.3zM104.7 8.2v8.3h-2.4V8.2h-2.9v-2h8.2v2zM112 13.8c.4.5.9.7 1.6.7s1.2-.2 1.6-.7c.4-.5.6-1.2.6-2V6.1h2.3v5.8c0 1.5-.4 2.7-1.2 3.5-.8.8-1.9 1.2-3.1 1.2-1.3 0-2.3-.4-3.2-1.2-.8-.8-1.2-2-1.2-3.5V6.1h2.3v5.7c-.2.9-.1 1.6.3 2zM124.8 8.2v8.3h-2.3V8.2h-2.9v-2h8.2v2h-3zM137.8 15c-1.1 1-2.3 1.6-3.9 1.6-1.5 0-2.8-.5-3.9-1.6-1.1-1-1.6-2.3-1.6-3.8s.5-2.8 1.6-3.8 2.3-1.6 3.9-1.6c1.5 0 2.8.5 3.9 1.6s1.6 2.3 1.6 3.8c0 1.6-.5 2.8-1.6 3.8zm-.8-3.8c0-.9-.3-1.7-.9-2.4s-1.3-1-2.2-1c-.8 0-1.6.3-2.2 1-.6.7-.9 1.4-.9 2.4 0 .9.3 1.7.9 2.3.6.7 1.3 1 2.2 1 .8 0 1.6-.3 2.2-1 .6-.5.9-1.3.9-2.3zM152.5 6.2h2.4v10.3h-2.4l-4.9-6.4v6.4h-2.4V6.2h2.2l5 6.7.1-6.7zM164.8 16.5l-1-2.2h-4.3l-1 2.2H156l4.5-10.4h2.2l4.5 10.4h-2.4zm-3.2-7.3-1.3 3h2.6l-1.3-3zM173.2 14.5c1.2 0 2.1-.4 2.8-1.3l1.5 1.5c-1.2 1.3-2.6 2-4.1 2s-2.9-.5-4-1.5c-1-1-1.6-2.3-1.6-3.8s.5-2.8 1.6-3.8 2.3-1.6 3.9-1.6c1.7 0 3.1.7 4.3 1.9l-1.4 1.7c-.7-.9-1.7-1.3-2.7-1.3-.8 0-1.6.2-2.2.8-.6.6-.9 1.3-.9 2.3 0 1 .3 1.7.9 2.3.4.4 1 .8 1.9.8zM179.3 6.2h2.3v10.4h-2.3zM192.9 15c-1.1 1-2.3 1.6-3.9 1.6-1.5 0-2.8-.5-3.9-1.6-1.1-1-1.6-2.3-1.6-3.8s.5-2.8 1.6-3.8 2.3-1.6 3.9-1.6c1.5 0 2.8.5 3.9 1.6s1.6 2.3 1.6 3.8c-.1 1.6-.6 2.8-1.6 3.8zm-.9-3.8c0-.9-.3-1.7-.9-2.4-.6-.7-1.3-1-2.2-1s-1.6.3-2.2 1c-.6.7-.9 1.4-.9 2.4 0 .9.3 1.7.9 2.3.6.7 1.3 1 2.2 1s1.6-.3 2.2-1c.7-.5.9-1.3.9-2.3zM203.6 6.2h2.4v10.3h-2.4l-4.9-6.4v6.4h-2.4V6.2h2.2l5 6.7.1-6.7zM215.8 16.5l-1-2.2h-4.3l-1 2.2H207l4.5-10.4h2.2l4.5 10.4h-2.4zm-3.1-7.3-1.3 3h2.6l-1.3-3zM219.5 16.5V6.2h2.4v8.3h4.3v2zM67.9 23.1c1 .9 1.5 2.1 1.5 3.8s-.5 2.9-1.4 3.8c-1 .9-2.4 1.4-4.4 1.4H60V21.8h3.6c1.9 0 3.3.4 4.3 1.3zm-1.7 6.1c.6-.5.8-1.3.8-2.3 0-1-.2-1.8-.8-2.3s-1.4-.8-2.6-.8h-1.3V30h1.5c1 0 1.8-.2 2.4-.8zM78.8 21.8v2h-5.2V26h4.7v1.9h-4.7v2.2h5.3v2.1h-7.6V21.8h7.5zM81 32.1V21.8h2.3V30h4.4v2.1H81zM98 30c1.2 0 2.1-.4 2.8-1.3l1.5 1.5c-1.2 1.3-2.6 2-4.1 2-1.6 0-2.9-.5-4-1.5-1-1-1.6-2.3-1.6-3.8s.5-2.8 1.6-3.8 2.3-1.6 3.9-1.6c1.7 0 3.1.7 4.3 1.9l-1.4 1.7c-.7-.9-1.7-1.3-2.7-1.3-.8 0-1.6.2-2.2.8-.6.6-.9 1.3-.9 2.3s.3 1.7.9 2.3c.4.5 1.1.8 1.9.8zM111.5 32.1l-1-2.2h-4.3l-1 2.2h-2.5l4.5-10.3h2.2l4.5 10.3h-2.4zm-3.2-7.3-1.2 3h2.6l-1.4-3zM109.3 20.7h-2.1l1.9-2.7 2.3 1-2.1 1.7zM122.4 21.8h2.3v10.3h-2.3l-5-6.5v6.5h-2.3V21.8h2.1l5.1 6.6v-6.6zM131.9 30c1.2 0 2.1-.4 2.8-1.3l1.5 1.5c-1.2 1.3-2.6 2-4.1 2s-2.9-.5-4-1.5c-1-1-1.6-2.3-1.6-3.8s.5-2.8 1.6-3.8 2.3-1.6 3.9-1.6c1.7 0 3.1.7 4.3 1.9l-1.4 1.7c-.7-.9-1.7-1.3-2.7-1.3-.8 0-1.6.2-2.2.8-.6.6-.9 1.3-.9 2.3s.3 1.7.9 2.3c.4.5 1.1.8 1.9.8zM145.5 21.8v2h-5.1V26h4.6v1.9h-4.6v2.2h5.3v2.1h-7.6V21.8h7.4zM156.1 25.1c0 1.7-.7 2.7-2 3.2l2.6 3.7h-2.8l-2.3-3.3H150V32h-2.3V21.8h3.9c1.6 0 2.7.2 3.5.8.6.5 1 1.3 1 2.5zm-2.8 1.3c.2-.2.4-.7.4-1.2 0-.6-.2-.9-.4-1.2-.3-.2-.8-.3-1.6-.3H150v3.1h1.7c.7 0 1.3-.2 1.6-.4z"/></g><path fill="#606061" d="m45.1 19-9-16.1H3.6C1.7 2.9.1 4.4.1 6.4v25.4c0 1.9 1.5 3.5 3.5 3.5H36L45.1 19z"/><path fill="#BA1F40" d="M44.2 4.5c-.6-1-1.8-1.7-3-1.7h-2.7L47.6 19l-9.1 16.2h2.7c1.2 0 2.4-.6 3-1.7l8-14.5-8-14.5z"/><path fill="#FFF" d="M19.3 11.8h2.4v14.4h-2.4zM14.5 11.8v10.5L8 11.8H5.6v14.4H8V15.7l6.5 10.5h2.4V11.8zM33.1 11.8v6h-6.6v-6h-2.4v14.4h2.4v-6h6.6v6h2.4V11.8z"/></svg>