<svg baseProfile="tiny" xmlns="http://www.w3.org/2000/svg" viewBox="0 0 597 50" overflow="visible" xml:space="preserve"><g fill="#BB0E3D"><path d="M78.1 16.6h3.7v16.5h-3.7V16.6zM97.4 16.6h3.7v16.5h-3.7l-7.8-10.3v10.3h-3.7V16.6h3.4l8.1 10.6V16.6zM109 19.9c-.4.3-.5.7-.5 1.2s.2.9.6 1.1c.4.3 1.4.6 3 1s2.8 1 3.6 1.7c.9.8 1.3 1.9 1.3 3.4s-.6 2.7-1.7 3.6c-1.1.9-2.6 1.4-4.4 1.4-2.6 0-5-1-7-2.9l2.2-2.7c1.8 1.6 3.4 2.3 4.9 2.3.7 0 1.2-.1 1.6-.4s.6-.7.6-1.2-.2-.9-.6-1.2c-.4-.3-1.2-.6-2.4-.9-1.9-.5-3.3-1-4.2-1.8-.9-.7-1.3-1.9-1.3-3.4s.6-2.8 1.7-3.6 2.5-1.3 4.2-1.3c1.1 0 2.2.2 3.3.6 1.1.4 2.1.9 2.9 1.6l-1.9 2.7c-1.4-1.1-2.9-1.6-4.4-1.6-.7 0-1.2.1-1.5.4zM126.9 19.8v13.3h-3.7V19.8h-4.7v-3.2h13v3.2h-4.6zM134.3 16.6h3.7v16.5h-3.7V16.6zM149 19.8v13.3h-3.7V19.8h-4.7v-3.2h13v3.2H149zM160.7 28.8c.6.8 1.4 1.1 2.5 1.1 1 0 1.9-.4 2.5-1.1.6-.8.9-1.8.9-3.1v-9.1h3.7v9.2c0 2.4-.7 4.2-2 5.5-1.3 1.3-3 1.9-5.1 1.9-2.1 0-3.7-.6-5.1-1.9s-2-3.1-2-5.5v-9.2h3.7v9.1c0 1.3.3 2.4.9 3.1zM181 19.8v13.3h-3.7V19.8h-4.7v-3.2h13v3.2H181zM201.7 30.8c-1.7 1.6-3.7 2.4-6.1 2.4-2.4 0-4.5-.8-6.1-2.4-1.7-1.6-2.5-3.6-2.5-6.1s.8-4.4 2.5-6.1c1.7-1.6 3.7-2.4 6.1-2.4 2.4 0 4.5.8 6.1 2.4 1.7 1.6 2.5 3.6 2.5 6.1 0 2.5-.8 4.5-2.5 6.1zm-1.2-6c0-1.5-.5-2.7-1.4-3.8-.9-1-2.1-1.6-3.5-1.6s-2.5.5-3.5 1.6c-.9 1-1.4 2.3-1.4 3.8s.5 2.7 1.4 3.7c.9 1 2.1 1.5 3.5 1.5s2.5-.5 3.5-1.5c.9-1 1.4-2.3 1.4-3.7zM225 16.6h3.7v16.5H225l-7.8-10.3v10.3h-3.7V16.6h3.4l8.1 10.6V16.6zM244.5 33.1l-1.5-3.6h-6.9l-1.5 3.6h-3.9l7.1-16.5h3.6l7.1 16.5h-4zm-5-11.6-2.1 4.8h4.1l-2-4.8zM257.9 29.8c1.8 0 3.3-.7 4.4-2.1l2.4 2.4c-1.9 2.1-4.1 3.2-6.6 3.2s-4.6-.8-6.3-2.4-2.5-3.6-2.5-6.1.8-4.5 2.5-6.1c1.7-1.6 3.7-2.4 6.1-2.4 2.7 0 5 1 6.8 3.1l-2.3 2.6c-1.2-1.4-2.6-2.2-4.3-2.2-1.4 0-2.6.5-3.5 1.4-1 .9-1.5 2.1-1.5 3.6s.5 2.8 1.4 3.7c.9.9 2 1.3 3.4 1.3zM267.5 16.6h3.7v16.5h-3.7V16.6zM289.1 30.8c-1.7 1.6-3.7 2.4-6.1 2.4-2.4 0-4.5-.8-6.1-2.4-1.7-1.6-2.5-3.6-2.5-6.1s.8-4.4 2.5-6.1 3.7-2.4 6.1-2.4c2.4 0 4.5.8 6.1 2.4s2.5 3.6 2.5 6.1c0 2.5-.8 4.5-2.5 6.1zm-1.2-6c0-1.5-.5-2.7-1.4-3.8-.9-1-2.1-1.6-3.5-1.6s-2.5.5-3.5 1.6c-.9 1-1.4 2.3-1.4 3.8s.5 2.7 1.4 3.7c.9 1 2.1 1.5 3.5 1.5s2.5-.5 3.5-1.5c.9-1 1.4-2.3 1.4-3.7zM306.2 16.6h3.7v16.5h-3.7l-7.8-10.3v10.3h-3.7V16.6h3.4l8.1 10.6V16.6zM325.7 33.1l-1.5-3.6h-6.9l-1.5 3.6h-3.9l7.1-16.5h3.6l7.1 16.5h-4zm-5-11.6-2.1 4.8h4.1l-2-4.8zM331.5 33.1V16.6h3.7v13.2h7v3.3h-10.7zM363.6 18.8c1.6 1.4 2.4 3.4 2.4 6s-.8 4.6-2.3 6.1c-1.5 1.5-3.9 2.2-7 2.2h-5.6V16.6h5.8c2.9 0 5.2.8 6.7 2.2zm-2.7 9.8c.9-.8 1.4-2.1 1.4-3.7s-.5-2.9-1.4-3.7c-.9-.9-2.3-1.3-4.2-1.3h-2v10h2.3c1.7-.1 3-.5 3.9-1.3zM381 16.6v3.3h-8.2v3.4h7.4v3.1h-7.4v3.4h8.5V33h-12.1V16.6H381zM384.6 33.1V16.6h3.7v13.2h7v3.3h-10.7zM411.7 29.8c1.8 0 3.3-.7 4.4-2.1l2.4 2.4c-1.9 2.1-4.1 3.2-6.6 3.2s-4.6-.8-6.3-2.4c-1.6-1.6-2.5-3.6-2.5-6.1s.8-4.5 2.5-6.1 3.7-2.4 6.1-2.4c2.7 0 5 1 6.8 3.1l-2.3 2.6c-1.2-1.4-2.6-2.2-4.3-2.2-1.4 0-2.6.5-3.5 1.4-1 .9-1.5 2.1-1.5 3.6s.5 2.8 1.4 3.7c1 .9 2.1 1.3 3.4 1.3zM433.1 33.1l-1.5-3.6h-6.9l-1.5 3.6h-3.9l7.1-16.5h3.6l7.1 16.5h-4zm-5-11.6-2.1 4.8h4.1l-2-4.8zm1.6-6.6h-3.4l3-4.2 3.6 1.5-3.2 2.7zM450.4 16.6h3.7v16.5h-3.7l-7.8-10.3v10.3h-3.7V16.6h3.4l8.1 10.6V16.6zM465.7 29.8c1.8 0 3.3-.7 4.4-2.1l2.4 2.4c-1.9 2.1-4.1 3.2-6.6 3.2s-4.6-.8-6.3-2.4-2.5-3.6-2.5-6.1.8-4.5 2.5-6.1c1.7-1.6 3.7-2.4 6.1-2.4 2.7 0 5 1 6.8 3.1l-2.3 2.6c-1.2-1.4-2.6-2.2-4.3-2.2-1.4 0-2.6.5-3.5 1.4-1 .9-1.5 2.1-1.5 3.6s.5 2.8 1.4 3.7c1 .9 2.1 1.3 3.4 1.3zM487.3 16.6v3.3h-8.2v3.4h7.4v3.1h-7.4v3.4h8.5V33h-12.1V16.6h11.8zM504.1 22.1c0 2.6-1 4.3-3.1 5.1l4.2 5.9h-4.5l-3.6-5.2h-2.5v5.2h-3.7V16.6h6.2c2.6 0 4.4.4 5.5 1.3 1 .9 1.5 2.3 1.5 4.2zm-4.4 1.9c.5-.4.7-1.1.7-1.9 0-.9-.2-1.5-.7-1.8-.5-.3-1.3-.5-2.5-.5h-2.8v4.9h2.7c1.3 0 2.1-.2 2.6-.7z"/></g><path fill="#BA1F40" d="M57.8 6c-.9-1.3-2.4-2.2-3.9-2.2h-3.6l12 21.2-12 21.2h3.6c1.7 0 3.2-.9 3.9-2.2l10.5-19L57.8 6z"/><path fill="#606061" d="M58.9 25 47.2 3.8H4.7C2.1 3.8.1 5.9.1 8.4v33.3c0 2.5 2 4.6 4.6 4.6h42.5L58.9 25z"/><path fill="#FFF" d="M25.3 15.6h3.2v18.8h-3.2zM18.9 15.6v13.7l-8.6-13.7H7.2v18.9h3.1V20.6l8.6 13.9h3.2V15.6zM43.3 15.6v7.8h-8.7v-7.8h-3.2v18.9h3.2v-7.9h8.7v7.9h3.1V15.6z"/></svg>