<svg baseProfile="tiny" xmlns="http://www.w3.org/2000/svg" viewBox="0 0 597 50" overflow="visible" xml:space="preserve"><g fill="#BB0E3D"><path d="M89.6 16.5h3.7v16.4h-3.7l-7.8-10.3v10.3h-3.7V16.5h3.4l8 10.5V16.5zM108.9 32.9l-1.5-3.5h-6.9L99 32.9h-3.9l7.1-16.4h3.5l7.1 16.4h-3.9zM104 21.4l-2.1 4.8h4.1l-2-4.8zM120.4 19.7v13.2h-3.7V19.7h-4.6v-3.2H125v3.2h-4.6zM127.7 16.5h3.7v16.4h-3.7V16.5zM149.2 30.6c-1.7 1.6-3.7 2.4-6.1 2.4-2.4 0-4.5-.8-6.1-2.4-1.7-1.6-2.5-3.6-2.5-6s.8-4.4 2.5-6c1.7-1.6 3.7-2.4 6.1-2.4 2.4 0 4.5.8 6.1 2.4 1.7 1.6 2.5 3.6 2.5 6s-.9 4.4-2.5 6zm-1.3-6c0-1.5-.5-2.7-1.4-3.7-.9-1-2.1-1.5-3.5-1.5s-2.5.5-3.5 1.5c-.9 1-1.4 2.3-1.4 3.7 0 1.5.5 2.7 1.4 3.7.9 1 2.1 1.5 3.5 1.5s2.5-.5 3.5-1.5 1.4-2.2 1.4-3.7zM166.2 16.5h3.7v16.4h-3.7l-7.8-10.3v10.3h-3.7V16.5h3.4l8 10.5V16.5zM185.5 32.9l-1.5-3.5h-6.9l-1.5 3.5h-3.9l7.1-16.4h3.5l7.1 16.4h-3.9zm-4.9-11.5-2.1 4.8h4.1l-2-4.8zM191.3 32.9V16.5h3.7v13.1h7v3.3h-10.7zM218.3 29.7c1.8 0 3.3-.7 4.4-2.1L225 30c-1.9 2.1-4 3.1-6.6 3.1-2.5 0-4.6-.8-6.2-2.4-1.6-1.6-2.4-3.6-2.4-6s.8-4.5 2.5-6.1c1.7-1.6 3.7-2.4 6.1-2.4 2.7 0 4.9 1 6.7 3.1l-2.3 2.6c-1.2-1.4-2.6-2.2-4.3-2.2-1.4 0-2.5.4-3.5 1.3s-1.5 2.1-1.5 3.6.5 2.7 1.4 3.7c1 .9 2.1 1.4 3.4 1.4zM239.5 32.9l-1.5-3.5h-6.9l-1.5 3.5h-3.9l7.1-16.4h3.5l7.1 16.4h-3.9zm-5-11.5-2.1 4.8h4.1l-2-4.8zM256.7 16.5h3.7v16.4h-3.7l-7.8-10.3v10.3h-3.7V16.5h3.4l8 10.5.1-10.5zM271.9 29.7c1.8 0 3.3-.7 4.4-2.1l2.3 2.4c-1.9 2.1-4 3.1-6.6 3.1-2.5 0-4.6-.8-6.2-2.4-1.6-1.6-2.4-3.6-2.4-6s.8-4.5 2.5-6.1c1.7-1.6 3.7-2.4 6.1-2.4 2.7 0 4.9 1 6.7 3.1l-2.3 2.6c-1.2-1.4-2.6-2.2-4.3-2.2-1.4 0-2.5.4-3.5 1.3s-1.5 2.1-1.5 3.6.5 2.7 1.4 3.7c1 .9 2.1 1.4 3.4 1.4zM293.3 16.5v3.3h-8.1v3.4h7.3v3.1h-7.3v3.4h8.4v3.2h-12.1V16.5h11.8zM310.1 22c0 2.6-1 4.3-3.1 5.1l4.1 5.9h-4.5l-3.6-5.2h-2.5V33h-3.7V16.5h6.2c2.5 0 4.4.4 5.4 1.3 1.1.9 1.7 2.3 1.7 4.2zm-4.4 1.9c.5-.4.7-1 .7-1.9 0-.9-.2-1.5-.7-1.8-.5-.3-1.3-.5-2.5-.5h-2.7v4.8h2.7c1.2 0 2-.2 2.5-.6zM320 16.5h3.7v16.4H320V16.5zM339.1 16.5h3.7v16.4h-3.7l-7.8-10.3v10.3h-3.7V16.5h3.4l8 10.5.1-10.5zM350.6 19.8c-.4.3-.5.7-.5 1.1s.2.9.6 1.1 1.4.6 3 1 2.8 1 3.6 1.7c.9.8 1.3 1.9 1.3 3.3 0 1.5-.6 2.7-1.7 3.6s-2.5 1.4-4.3 1.4c-2.6 0-4.9-1-7-2.9l2.2-2.7c1.8 1.5 3.4 2.3 4.9 2.3.7 0 1.2-.1 1.6-.4.4-.3.6-.7.6-1.2s-.2-.9-.6-1.2c-.4-.3-1.2-.6-2.4-.9-1.9-.5-3.3-1-4.2-1.8-.9-.7-1.3-1.9-1.3-3.4 0-1.6.6-2.8 1.7-3.6 1.1-.8 2.5-1.3 4.2-1.3 1.1 0 2.2.2 3.3.6 1.1.4 2 .9 2.9 1.6l-1.8 2.7c-1.4-1.1-2.9-1.6-4.4-1.6-.8.2-1.3.3-1.7.6zM368.5 19.7v13.2h-3.7V19.7h-4.6v-3.2h12.9v3.2h-4.6zM375.8 16.5h3.7v16.4h-3.7V16.5zM390.4 19.7v13.2h-3.7V19.7h-4.6v-3.2H395v3.2h-4.6zM402.1 28.7c.6.8 1.4 1.1 2.5 1.1 1 0 1.8-.4 2.4-1.1.6-.8.9-1.8.9-3.1v-9h3.7v9.2c0 2.4-.7 4.2-2 5.5-1.3 1.3-3 1.9-5 1.9s-3.7-.6-5-1.9-2-3.1-2-5.5v-9.2h3.7v9c-.1 1.3.2 2.3.8 3.1zM422.3 19.7v13.2h-3.7V19.7H414v-3.2h12.9v3.2h-4.6zM441.4 16.5v3.3h-8.1v3.4h7.3v3.1h-7.3v3.4h8.4v3.2h-12.1V16.5h11.8z"/></g><path fill="#BA1F40" d="M57.8 6c-.9-1.3-2.4-2.2-3.9-2.2h-3.6l12 21.2-12 21.2h3.6c1.7 0 3.2-.9 3.9-2.2l10.5-19L57.8 6z"/><path fill="#606061" d="M58.9 25 47.2 3.8H4.7C2.1 3.8.1 5.9.1 8.4v33.3c0 2.5 2 4.6 4.6 4.6h42.5L58.9 25z"/><path fill="#FFF" d="M25.3 15.6h3.2v18.8h-3.2zM18.9 15.6v13.7l-8.6-13.7H7.2v18.9h3.1V20.6l8.6 13.9h3.2V15.6zM43.3 15.6v7.8h-8.7v-7.8h-3.2v18.9h3.2v-7.9h8.7v7.9h3.1V15.6z"/></svg>