<?xml version="1.0" encoding="utf-8"?>
<!-- Generator: Adobe Illustrator 24.0.3, SVG Export Plug-In . SVG Version: 6.00 Build 0)  -->
<svg version="1.1" id="Layer_1" xmlns="http://www.w3.org/2000/svg" xmlns:xlink="http://www.w3.org/1999/xlink" x="0px" y="0px"
	 viewBox="0 0 150 150" style="enable-background:new 0 0 150 150;" xml:space="preserve">
<style type="text/css">
	.st0{fill-rule:evenodd;clip-rule:evenodd;fill:#008E9A;}
	.st1{fill-rule:evenodd;clip-rule:evenodd;fill:#FFFFFF;}
	.st2{clip-path:url(#SVGID_2_);}
	.st3{fill:#FFFFFF;}
	.st4{clip-path:url(#SVGID_4_);}
	.st5{clip-path:url(#SVGID_6_);}
	.st6{clip-path:url(#SVGID_8_);}
	.st7{clip-path:url(#SVGID_10_);}
</style>
<circle class="st0" cx="75" cy="75" r="75"/>
<g>
	<path id="a" class="st1" d="M89.4,74.9l32,28.8V46.1L89.4,74.9z"/>
</g>
<g>
	<g>
		<defs>
			<polygon id="SVGID_1_" points="89.4,74.9 121.4,103.7 121.4,46.1 			"/>
		</defs>
		<clipPath id="SVGID_2_">
			<use xlink:href="#SVGID_1_"  style="overflow:visible;"/>
		</clipPath>
		<g class="st2">
			<g>
				<path id="c" class="st3" d="M-190.4-1641.7h2065v2987h-2065L-190.4-1641.7z"/>
			</g>
		</g>
	</g>
</g>
<g>
	<path id="d" class="st1" d="M74.2,87.9l-9.1-8.2l-31.7,28.8H115L83.3,79.7L74.2,87.9z"/>
</g>
<g>
	<g>
		<defs>
			<polygon id="SVGID_3_" points="74.2,87.9 65.1,79.7 33.4,108.5 115,108.5 83.3,79.7 			"/>
		</defs>
		<clipPath id="SVGID_4_">
			<use xlink:href="#SVGID_3_"  style="overflow:visible;"/>
		</clipPath>
		<g class="st4">
			<g>
				<path id="f" class="st3" d="M-190.4-1641.7h2065v2987h-2065L-190.4-1641.7z"/>
			</g>
		</g>
	</g>
</g>
<g>
	<g>
		<path id="g" class="st1" d="M28.6,103.7l32-28.8l-32-28.8L28.6,103.7z"/>
	</g>
	<g>
		<g>
			<defs>
				<polygon id="SVGID_5_" points="28.6,103.7 60.6,74.9 28.6,46.1 				"/>
			</defs>
			<clipPath id="SVGID_6_">
				<use xlink:href="#SVGID_5_"  style="overflow:visible;"/>
			</clipPath>
			<g class="st5">
				<g>
					<path id="i" class="st3" d="M-190.4-1641.7h2065v2987h-2065L-190.4-1641.7z"/>
				</g>
			</g>
		</g>
	</g>
</g>
<g>
	<g>
		<path id="j" class="st1" d="M33.7,41.5L75,78l41.3-36.5H33.7z M80.5,64.3c-1.4,0-2.4-0.5-3.1-1.6c-0.9,1.1-2.1,1.6-3.4,1.6
			c-1.5,0-2.7-0.6-3.8-1.8c-1.1-1.2-1.6-2.8-1.6-4.8s0.6-3.7,1.8-5c1.2-1.3,2.6-1.9,4.3-1.9c1,0,2,0.4,2.9,1.1l0.2-0.8h3.4l-1,8
			c-0.1,0.6-0.1,1-0.1,1.4c0,0.5,0.2,0.8,0.7,0.8c0.9,0,1.7-0.5,2.5-1.6s1.2-2.5,1.2-4.1c0-2.4-0.9-4.4-2.7-6
			c-1.8-1.6-4-2.4-6.5-2.4c-2.8,0-5.2,1-7.1,2.9s-2.9,4.3-2.9,7.2c0,2.6,0.9,4.9,2.7,6.9c1.8,2,4.3,2.9,7.6,2.9
			c2.1,0,4.2-0.5,6.3-1.4c0.8-0.3,1.8,0,2.1,0.9c0.3,0.8-0.1,1.7-0.9,2c-2.5,1-5,1.6-7.6,1.6c-4.3,0-7.7-1.3-10.2-3.8
			c-2.5-2.6-3.8-5.6-3.8-9.1c0-3.7,1.3-6.8,4-9.3c2.6-2.5,5.9-3.7,9.6-3.7c3.6,0,6.6,1.1,9,3.3s3.6,4.8,3.6,7.9
			c0,2.4-0.7,4.5-2.2,6.2C84.2,63.5,82.5,64.3,80.5,64.3z"/>
	</g>
	<g>
		<g>
			<defs>
				<path id="SVGID_7_" d="M33.7,41.5L75,78l41.3-36.5H33.7z M80.5,64.3c-1.4,0-2.4-0.5-3.1-1.6c-0.9,1.1-2.1,1.6-3.4,1.6
					c-1.5,0-2.7-0.6-3.8-1.8c-1.1-1.2-1.6-2.8-1.6-4.8s0.6-3.7,1.8-5c1.2-1.3,2.6-1.9,4.3-1.9c1,0,2,0.4,2.9,1.1l0.2-0.8h3.4l-1,8
					c-0.1,0.6-0.1,1-0.1,1.4c0,0.5,0.2,0.8,0.7,0.8c0.9,0,1.7-0.5,2.5-1.6s1.2-2.5,1.2-4.1c0-2.4-0.9-4.4-2.7-6
					c-1.8-1.6-4-2.4-6.5-2.4c-2.8,0-5.2,1-7.1,2.9s-2.9,4.3-2.9,7.2c0,2.6,0.9,4.9,2.7,6.9c1.8,2,4.3,2.9,7.6,2.9
					c2.1,0,4.2-0.5,6.3-1.4c0.8-0.3,1.8,0,2.1,0.9c0.3,0.8-0.1,1.7-0.9,2c-2.5,1-5,1.6-7.6,1.6c-4.3,0-7.7-1.3-10.2-3.8
					c-2.5-2.6-3.8-5.6-3.8-9.1c0-3.7,1.3-6.8,4-9.3c2.6-2.5,5.9-3.7,9.6-3.7c3.6,0,6.6,1.1,9,3.3s3.6,4.8,3.6,7.9
					c0,2.4-0.7,4.5-2.2,6.2C84.2,63.5,82.5,64.3,80.5,64.3z"/>
			</defs>
			<clipPath id="SVGID_8_">
				<use xlink:href="#SVGID_7_"  style="overflow:visible;"/>
			</clipPath>
			<g class="st6">
				<g>
					<path id="l" class="st3" d="M-190.4-1641.7h2065v2987h-2065L-190.4-1641.7z"/>
				</g>
			</g>
		</g>
	</g>
</g>
<g>
	<g>
		<path id="m" class="st1" d="M74.8,54.2c-0.7,0-1.3,0.3-1.8,1s-0.7,1.5-0.7,2.6c0,0.9,0.2,1.6,0.5,2.2c0.4,0.6,0.8,0.9,1.4,0.9
			c0.8,0,1.6-0.4,2.2-1.2C77,59,77.3,58,77.3,57c0-0.8-0.2-1.5-0.7-2C76,54.5,75.5,54.2,74.8,54.2"/>
	</g>
	<g>
		<g>
			<defs>
				<path id="SVGID_9_" d="M74.8,54.2c-0.7,0-1.3,0.3-1.8,1s-0.7,1.5-0.7,2.6c0,0.9,0.2,1.6,0.5,2.2c0.4,0.6,0.8,0.9,1.4,0.9
					c0.8,0,1.6-0.4,2.2-1.2C77,59,77.3,58,77.3,57c0-0.8-0.2-1.5-0.7-2C76,54.5,75.5,54.2,74.8,54.2"/>
			</defs>
			<clipPath id="SVGID_10_">
				<use xlink:href="#SVGID_9_"  style="overflow:visible;"/>
			</clipPath>
			<g class="st7">
				<g>
					<path id="o" class="st3" d="M-190.4-1641.7h2065v2987h-2065L-190.4-1641.7z"/>
				</g>
			</g>
		</g>
	</g>
</g>
</svg>
