<?xml version="1.0" encoding="utf-8"?>
<!-- Generator: Adobe Illustrator 24.0.3, SVG Export Plug-In . SVG Version: 6.00 Build 0)  -->
<svg version="1.1" id="Layer_1" xmlns="http://www.w3.org/2000/svg" xmlns:xlink="http://www.w3.org/1999/xlink" x="0px" y="0px"
	 viewBox="0 0 150 150" style="enable-background:new 0 0 150 150;" xml:space="preserve">
<style type="text/css">
	.st0{fill-rule:evenodd;clip-rule:evenodd;fill:#2F779D;}
	.st1{fill-rule:evenodd;clip-rule:evenodd;fill:#FFFFFF;}
</style>
<g>
	<circle class="st0" cx="75" cy="75" r="75"/>
	<g>
		<path class="st1" d="M64.5,76c0-1-0.8-1.8-1.8-1.8h-6.2c-1,0-1.8,0.8-1.8,1.8v6.2c0,1,0.8,1.8,1.8,1.8h6.2c1,0,1.8-0.8,1.8-1.8V76
			z M79.8,76c0-1-0.8-1.8-1.8-1.8h-6.2c-1,0-1.8,0.8-1.8,1.8v6.2c0,1,0.8,1.8,1.8,1.8H78c1,0,1.8-0.8,1.8-1.8V76z M95.2,76
			c0-1-0.8-1.8-1.8-1.8h-6.2c-1,0-1.8,0.8-1.8,1.8v6.2c0,1,0.8,1.8,1.8,1.8h6.2c1,0,1.8-0.8,1.8-1.8V76z M64.5,91.4
			c0-1-0.8-1.8-1.8-1.8h-6.2c-1,0-1.8,0.8-1.8,1.8v6.2c0,1,0.8,1.8,1.8,1.8h6.2c1,0,1.8-0.8,1.8-1.8V91.4z M79.8,91.4
			c0-1-0.8-1.8-1.8-1.8h-6.2c-1,0-1.8,0.8-1.8,1.8v6.2c0,1,0.8,1.8,1.8,1.8H78c1,0,1.8-0.8,1.8-1.8V91.4z M95.2,91.4
			c0-1-0.8-1.8-1.8-1.8h-6.2c-1,0-1.8,0.8-1.8,1.8v6.2c0,1,0.8,1.8,1.8,1.8h6.2c1,0,1.8-0.8,1.8-1.8V91.4z"/>
		<path class="st1" d="M106.2,41.8v9.4c0,4.2-3.4,7.7-7.7,7.7h-4.9c-4.2,0-7.7-3.4-7.7-7.7v-9.4H64.1v9.4c0,4.2-3.5,7.7-7.7,7.7
			h-4.9c-4.2,0-7.7-3.4-7.7-7.7v-9.4c-3.7,0.1-6.8,3.2-6.8,7v55.1c0,3.8,3.1,7,7,7h62c3.8,0,7-3.2,7-7V48.8
			C113,45,109.9,41.9,106.2,41.8z M104,100.4c0,1.7-1.3,3-3,3H49c-1.7,0-3-1.3-3-3V72c0-1.7,1.3-3,3-3h52c1.7,0,3,1.3,3,3V100.4z"/>
		<path class="st1" d="M51.5,53.8h4.8c1.5,0,2.6-1.2,2.6-2.6V35.8c0-1.5-1.2-2.6-2.6-2.6h-4.8c-1.5,0-2.6,1.2-2.6,2.6v15.4
			C48.8,52.7,50,53.8,51.5,53.8 M93.6,53.8h4.8c1.5,0,2.6-1.2,2.6-2.6V35.8c0-1.5-1.2-2.6-2.6-2.6h-4.8c-1.5,0-2.6,1.2-2.6,2.6v15.4
			C91,52.7,92.2,53.8,93.6,53.8"/>
	</g>
</g>
</svg>
