<?xml version="1.0" encoding="utf-8"?>
<!-- Generator: Adobe Illustrator 24.2.0, SVG Export Plug-In . SVG Version: 6.00 Build 0)  -->
<svg version="1.1" id="Layer_1" xmlns="http://www.w3.org/2000/svg" xmlns:xlink="http://www.w3.org/1999/xlink" x="0px" y="0px"
	 viewBox="0 0 26 34.7" style="enable-background:new 0 0 26 34.7;" xml:space="preserve">
<style type="text/css">
	.st0{fill:#FFFFFF;}
</style>
<path class="st0" d="M25,6.6l-5.7-5.7c-0.6-0.6-1.4-1-2.3-1H3.3C1.5,0,0,1.4,0,3.2v28.2c0,1.8,1.5,3.2,3.2,3.2h19.5
	c1.8,0,3.2-1.5,3.2-3.2V8.9C26,8,25.7,7.2,25,6.6z M23.5,8.1c0.1,0.1,0.2,0.3,0.3,0.5h-6.5V2.2c0.2,0,0.4,0.1,0.5,0.3L23.5,8.1z
	 M22.8,32.5H3.3c-0.6,0-1.1-0.5-1.1-1.1V3.2c0-0.6,0.5-1.1,1.1-1.1h11.9v7c0,0.9,0.7,1.6,1.6,1.6h7v20.6
	C23.8,32,23.3,32.5,22.8,32.5z M21.3,20.9c-0.9-0.9-3.7-0.6-5-0.5c-1.4-0.9-2.4-2.1-3.1-3.8c0.3-1.2,0.8-3.2,0.4-4.4
	c-0.3-1.9-2.7-1.7-3-0.5c-0.3,1.2,0,3,0.6,5.3c-0.8,1.9-2,4.5-2.9,6c-1.4,0.7-3.7,2-4,3.5C4.1,27.7,5.9,29.2,8,27
	c0.6-0.7,1.3-1.7,2.1-3.1c1.8-0.6,3.8-1.3,5.6-1.6c1.5,0.8,3.2,1.3,4.4,1.3C21.9,23.6,22,21.6,21.3,20.9L21.3,20.9z M5.7,26.9
	c0.4-1.1,1.9-2.3,2.4-2.8C6.7,26.5,5.7,26.9,5.7,26.9z M12.2,11.8c0.6,0,0.5,2.5,0.1,3.2C12,14,12,11.8,12.2,11.8z M10.3,22.6
	c0.8-1.3,1.4-2.9,1.9-4.3c0.7,1.2,1.5,2.1,2.4,2.8C12.9,21.4,11.5,22.1,10.3,22.6z M20.7,22.2c0,0-0.4,0.5-2.9-0.6
	C20.5,21.4,20.9,22,20.7,22.2z"/>
</svg>
