<?xml version="1.0" encoding="utf-8"?>
<!-- Generator: Adobe Illustrator 24.0.3, SVG Export Plug-In . SVG Version: 6.00 Build 0)  -->
<svg version="1.1" id="Layer_1" xmlns="http://www.w3.org/2000/svg" xmlns:xlink="http://www.w3.org/1999/xlink" x="0px" y="0px"
	 viewBox="0 0 150 150" style="enable-background:new 0 0 150 150;" xml:space="preserve">
<style type="text/css">
	.st0{fill-rule:evenodd;clip-rule:evenodd;fill:#00527D;}
	.st1{fill-rule:evenodd;clip-rule:evenodd;fill:#FFFFFF;}
</style>
<g id="Layer_1_1_">
	<g id="HOMEPAGE">
		<g id="Annotated-Homepage---Desktop" transform="translate(-493 -1641)">
			<g id="SOCIAL-MEDIA-ROW" transform="translate(121 1559)">
				<g id="Facebook" transform="translate(303 52)">
					<g id="facebook-circle-icon" transform="translate(69 30)">
						<circle id="Mask" class="st0" cx="75" cy="75" r="75"/>
					</g>
				</g>
			</g>
		</g>
	</g>
	<path class="st1" d="M98.7,50.9c0-1.8-0.7-3.4-1.9-4.7l-6.2-6.3c-1.2-1.2-3-1.9-4.7-1.9h-0.4v13.3h13.3L98.7,50.9z"/>
	<path class="st1" d="M93.1,93l-6.8,2.3l-1,0.1c-1.7,0-3.3-0.8-4.4-2.2c-1-1.4-1.3-3.2-0.7-4.8l2-6.1c0.4-1.2,1.1-2.4,2.1-3.3
		l14.5-14.4v-9.3H83.7c-1.2,0-2.1-1-2.1-2.1V38H49.4c-3.5,0-6.4,2.9-6.4,6.4v60.2c0,3.5,2.9,6.4,6.4,6.4h42.8c3.5,0,6.5-2.9,6.5-6.4
		v-16l-2.4,2.3C95.4,91.9,94.3,92.5,93.1,93 M53.7,59.4h30c1.2,0,2.1,1,2.1,2.1c0,1.2-1,2.1-2.1,2.1h-30c-1.2,0-2.1-1-2.1-2.1
		C51.6,60.3,52.5,59.4,53.7,59.4 M53.7,67.9h21.4c1.2,0,2.1,1,2.1,2.1s-1,2.1-2.1,2.1H53.7c-1.2,0-2.1-1-2.1-2.1
		S52.5,67.9,53.7,67.9 M53.7,76.5h21.4c1.2,0,2.1,1,2.1,2.1s-1,2.1-2.1,2.1H53.7c-1.2,0-2.1-1-2.1-2.1S52.5,76.5,53.7,76.5
		 M51.6,87.2c0-1.2,1-2.1,2.1-2.1h21.4c1.2,0,2.1,1,2.1,2.1s-1,2.1-2.1,2.1H53.7C52.5,89.3,51.6,88.4,51.6,87.2 M83.7,102.2H70.8
		c-1.2,0-2.1-1-2.1-2.1c0-1.2,1-2.1,2.1-2.1h12.9c1.2,0,2.1,1,2.1,2.1S84.9,102.2,83.7,102.2"/>
	<path class="st1" d="M85.5,91l5.3-1.8L86,84.5l-1.8,5.3C83.9,90.5,84.7,91.3,85.5,91 M88.1,79.8l6,6L108,71.9l-6-6L88.1,79.8z
		 M114.7,60.5c-0.8-0.8-1.9-1.2-3.1-1.2s-2.3,0.4-3.1,1.2l-3.2,3.2l6.2,6.2l3.2-3.2C116.4,65,116.4,62.2,114.7,60.5"/>
</g>
</svg>
