<?xml version="1.0" encoding="utf-8"?>
<svg viewBox="-1 -1 20 20" width="20" height="20" xmlns="http://www.w3.org/2000/svg">
  <path d="M 14.4 18 C 14.4 10.1 7.9 3.6 0 3.6 L 0 0 C 9.874 0 18 8.126 18 18 L 14.4 18 Z M 2.468 13.061 C 3.829 13.061 4.938 14.169 4.938 15.532 C 4.938 16.893 3.824 18 2.463 18 C 1.102 18 0 16.894 0 15.532 C 0 14.17 1.106 13.062 2.468 13.062 Z M 11.932 18 L 8.433 18 C 8.433 13.373 4.627 9.566 0 9.566 L 0 6.067 C 6.545 6.067 11.932 11.456 11.932 18 Z" transform="matrix(1, 0, 0, 1, 0, 0)" style="fill: #f9a921" />
</svg>