<?xml version="1.0" encoding="utf-8"?>
<!-- Generator: Adobe Illustrator 24.0.3, SVG Export Plug-In . SVG Version: 6.00 Build 0)  -->
<svg version="1.1" id="Layer_1" xmlns="http://www.w3.org/2000/svg" xmlns:xlink="http://www.w3.org/1999/xlink" x="0px" y="0px"
	 viewBox="0 0 150 150" style="enable-background:new 0 0 150 150;" xml:space="preserve">
<style type="text/css">
	.st0{fill-rule:evenodd;clip-rule:evenodd;fill:#85C8F8;}
	.st1{filter:url(#Adobe_OpacityMaskFilter);}
	.st2{fill-rule:evenodd;clip-rule:evenodd;fill:#FFFFFF;}
	.st3{mask:url(#mask-2_1_);fill-rule:evenodd;clip-rule:evenodd;fill:#FFFFFF;}
</style>
<title>twitter-circle-icon</title>
<desc>Created with Sketch.</desc>
<g id="COMPS">
	<g id="Desktop-HD---1441" transform="translate(-190.000000, -1548.000000)">
		<g id="SOCIAL-MEDIA-ROW" transform="translate(121.000000, 1466.000000)">
			<g id="Twitter" transform="translate(0.000000, 52.000000)">
				<g id="twitter-circle-icon" transform="translate(69.000000, 30.000000)">
					<g id="Mask">
						<circle id="path-1_1_" class="st0" cx="75" cy="75" r="75"/>
					</g>
					<defs>
						<filter id="Adobe_OpacityMaskFilter" filterUnits="userSpaceOnUse" x="34.9" y="39.5" width="89.8" height="73">
							<feColorMatrix  type="matrix" values="1 0 0 0 0  0 1 0 0 0  0 0 1 0 0  0 0 0 1 0"/>
						</filter>
					</defs>
					<mask maskUnits="userSpaceOnUse" x="34.9" y="39.5" width="89.8" height="73" id="mask-2_1_">
						<g class="st1">
							<circle id="path-1_2_" class="st2" cx="75" cy="75" r="75"/>
						</g>
					</mask>
					<path id="Fill-4" class="st3" d="M124.7,48.1c-3.3,1.5-6.9,2.5-10.6,2.9c3.8-2.3,6.7-5.9,8.1-10.2c-3.6,2.1-7.5,3.6-11.7,4.5
						c-3.4-3.6-8.2-5.8-13.5-5.8c-10.2,0-18.4,8.3-18.4,18.4c0,1.4,0.2,2.9,0.5,4.2c-15.3-0.8-28.9-8.1-38-19.3
						c-1.6,2.7-2.5,5.9-2.5,9.3c0,6.4,3.3,12,8.2,15.3c-3-0.1-5.9-0.9-8.3-2.3v0.2c0,8.9,6.4,16.4,14.8,18.1
						c-1.5,0.4-3.2,0.7-4.9,0.7c-1.2,0-2.3-0.1-3.5-0.3c2.3,7.3,9.2,12.7,17.2,12.8c-6.3,4.9-14.3,7.9-22.9,7.9
						c-1.5,0-3-0.1-4.4-0.3c8.2,5.2,17.8,8.3,28.3,8.3c33.9,0,52.5-28.1,52.5-52.4c0-0.8,0-1.6-0.1-2.4
						C119.1,55.1,122.2,51.8,124.7,48.1"/>
				</g>
			</g>
		</g>
	</g>
</g>
</svg>
