<?xml version="1.0" encoding="utf-8"?>
<svg viewBox="-1 -1 27 24.72100067138672" width="27" height="24.72100067138672" xmlns="http://www.w3.org/2000/svg">
  <path d="M 0.046 17.631 C 0.121 17.51 0.242 17.501 0.41 17.608 C 4.198 19.805 8.32 20.905 12.775 20.905 C 15.744 20.905 18.677 20.35 21.573 19.244 L 21.901 19.108 C 22.045 19.045 22.146 19.001 22.207 18.971 C 22.442 18.881 22.614 18.925 22.755 19.108 C 22.88 19.289 22.848 19.456 22.63 19.608 C 22.364 19.805 22.005 20.033 21.582 20.289 C 20.286 21.063 18.832 21.661 17.223 22.086 C 15.629 22.508 14.05 22.721 12.519 22.721 C 10.16 22.721 7.925 22.308 5.814 21.483 C 3.705 20.658 1.829 19.494 0.156 17.994 C 0.046 17.92 0 17.842 0 17.767 C 0 17.72 0.015 17.676 0.046 17.631 Z M 6.886 11.155 C 6.886 10.108 7.143 9.214 7.658 8.471 C 8.175 7.73 8.877 7.169 9.785 6.789 C 10.612 6.44 11.612 6.19 12.815 6.039 C 13.221 5.992 13.894 5.933 14.815 5.858 L 14.815 5.471 C 14.815 4.504 14.706 3.85 14.504 3.519 C 14.19 3.063 13.69 2.835 13.004 2.835 L 12.814 2.835 C 12.314 2.881 11.881 3.037 11.517 3.313 C 11.152 3.594 10.919 3.969 10.814 4.454 C 10.751 4.765 10.6 4.937 10.361 4.985 L 7.736 4.656 C 7.477 4.594 7.348 4.469 7.348 4.25 C 7.348 4.204 7.356 4.156 7.371 4.094 C 7.629 2.75 8.262 1.75 9.268 1.094 C 10.285 0.454 11.456 0.079 12.8 0 L 13.363 0 C 15.082 0 16.442 0.454 17.41 1.344 C 17.551 1.5 17.692 1.656 17.832 1.844 C 17.957 2.015 18.067 2.171 18.129 2.313 C 18.207 2.454 18.285 2.656 18.332 2.906 C 18.394 3.171 18.442 3.344 18.473 3.438 C 18.504 3.546 18.536 3.75 18.551 4.079 C 18.567 4.406 18.582 4.594 18.582 4.656 L 18.582 10.156 C 18.582 10.546 18.644 10.906 18.754 11.235 C 18.863 11.562 18.973 11.796 19.082 11.938 L 19.613 12.64 C 19.707 12.781 19.754 12.906 19.754 13.015 C 19.754 13.14 19.692 13.25 19.567 13.344 C 18.317 14.437 17.629 15.031 17.519 15.125 C 17.348 15.265 17.129 15.281 16.863 15.171 C 16.66 15 16.473 14.829 16.317 14.656 L 15.988 14.296 C 15.925 14.219 15.815 14.079 15.66 13.86 L 15.348 13.406 C 14.504 14.329 13.675 14.906 12.846 15.14 C 12.331 15.296 11.706 15.375 10.94 15.375 C 9.785 15.375 8.815 15.015 8.065 14.296 C 7.315 13.579 6.94 12.562 6.94 11.235 Z M 10.795 10.699 C 10.795 11.289 10.942 11.761 11.237 12.12 C 11.535 12.475 11.94 12.651 12.44 12.651 C 12.488 12.651 12.55 12.645 12.644 12.631 C 12.738 12.615 12.785 12.608 12.815 12.608 C 13.456 12.44 13.94 12.033 14.3 11.381 C 14.473 11.092 14.598 10.779 14.675 10.437 C 14.769 10.11 14.8 9.829 14.815 9.61 C 14.831 9.406 14.831 9.046 14.831 8.563 L 14.831 8 C 13.956 8 13.285 8.062 12.831 8.188 C 11.504 8.563 10.831 9.406 10.831 10.719 Z M 20.34 18.017 C 20.371 17.955 20.418 17.895 20.476 17.835 C 20.856 17.579 21.22 17.404 21.57 17.312 C 22.143 17.171 22.705 17.079 23.25 17.063 C 23.401 17.046 23.546 17.063 23.681 17.094 C 24.364 17.156 24.775 17.265 24.91 17.437 C 24.971 17.531 25 17.671 25 17.844 L 25 18 C 25 18.531 24.856 19.156 24.569 19.875 C 24.28 20.594 23.879 21.171 23.365 21.625 C 23.287 21.688 23.22 21.719 23.16 21.719 C 23.127 21.719 23.096 21.719 23.069 21.704 C 22.975 21.656 22.955 21.579 23 21.454 C 23.562 20.14 23.84 19.219 23.84 18.704 C 23.84 18.546 23.81 18.421 23.75 18.344 C 23.599 18.171 23.175 18.079 22.476 18.079 C 22.22 18.079 21.917 18.094 21.57 18.125 C 21.188 18.171 20.84 18.219 20.523 18.265 C 20.429 18.265 20.371 18.25 20.34 18.219 C 20.308 18.188 20.302 18.171 20.318 18.14 C 20.318 18.125 20.325 18.11 20.34 18.079 Z" style="fill: rgb(255, 255, 255);" transform="matrix(1, 0, 0, 1, 0, 0)"/>
</svg>