<?xml version="1.0" encoding="utf-8"?>
<svg viewBox="-1 -1 67 67.0009994506836" width="67" height="67.0009994506836" xmlns="http://www.w3.org/2000/svg">
  <g id="Layer_5" transform="matrix(0.5633749961853027, 0, 0, 0.5633749961853027, 0, 0)">
    <path id="sharethis-circle-outline-icon_5_" fill="#319FBE" d="M57.688,0C25.829,0,0,25.828,0,57.69&#10;&#9;&#9;c0,31.859,25.828,57.687,57.689,57.687c31.858,0,57.687-25.828,57.687-57.687C115.375,25.828,89.547,0,57.688,0L57.688,0z"/>
    <path id="sharethis-circle-outline-icon_6_" fill="none" d="M57.688,0C25.829,0,0,25.828,0,57.69&#10;&#9;&#9;c0,31.859,25.828,57.687,57.689,57.687c31.858,0,57.687-25.828,57.687-57.687C115.375,25.828,89.547,0,57.688,0L57.688,0z"/>
    <path id="sharethis-circle-outline-icon_7_" fill="none" d="M57.688,0C25.829,0,0,25.828,0,57.69&#10;&#9;&#9;c0,31.859,25.828,57.687,57.689,57.687c31.858,0,57.687-25.828,57.687-57.687C115.375,25.828,89.547,0,57.688,0L57.688,0z"/>
    <path id="sharethis-circle-outline-icon_1_" fill="none" d="M57.688,0C25.829,0,0,25.828,0,57.69&#10;&#9;&#9;c0,31.859,25.828,57.687,57.689,57.687c31.858,0,57.687-25.828,57.687-57.687C115.375,25.828,89.547,0,57.688,0L57.688,0z"/>
  </g>
  <g transform="matrix(0.5633749961853027, 0, 0, 0.5633749961853027, 0, 0)">
    <path fill="#388AB1" d="M111.247,79.119c0.042-0.106,0.084-0.213,0.126-0.319c-0.045,0.115-0.09,0.23-0.136,0.345&#10;&#9;&#9;C111.24,79.136,111.243,79.127,111.247,79.119z"/>
    <path fill="#388AB1" d="M112.884,74.485c0.011-0.036,0.02-0.072,0.031-0.108C112.904,74.413,112.895,74.449,112.884,74.485&#10;&#9;&#9;C112.884,74.485,112.884,74.485,112.884,74.485z"/>
    <path fill="none" d="M112.299,76.272c0.202-0.593,0.402-1.186,0.585-1.787C112.702,75.086,112.501,75.679,112.299,76.272&#10;&#9;&#9;L112.299,76.272z"/>
    <path fill="none" d="M111.606,78.207c0.041-0.107,0.086-0.212,0.126-0.32c-0.029,0.072-0.058,0.145-0.086,0.218&#10;&#9;&#9;C111.633,78.14,111.62,78.173,111.606,78.207z"/>
    <path fill="none" d="M112.915,74.377c0.026-0.087,0.049-0.176,0.075-0.264l0,0C112.964,74.201,112.94,74.289,112.915,74.377z"/>
    <path fill="none" d="M111.226,79.172c0.004-0.009,0.007-0.018,0.011-0.027C111.233,79.154,111.229,79.163,111.226,79.172&#10;&#9;&#9;L111.226,79.172z"/>
    <path fill="none" d="M75.419,112.589c0.252-0.081,0.5-0.169,0.751-0.254l0,0C75.919,112.419,75.669,112.505,75.419,112.589z"/>
    <path fill="none" d="M70.025,113.807c-0.267-0.266-0.533-0.533-0.8-0.8c0,0,0,0,0,0c-0.267-0.265-0.532-0.533-0.799-0.799&#10;&#9;&#9;c-0.267-0.266-0.533-0.533-0.8-0.8c0,0,0,0,0,0c-0.127-0.126-0.252-0.253-0.379-0.379c-0.14-0.14-0.28-0.28-0.42-0.42&#10;&#9;&#9;c-0.267-0.266-0.533-0.533-0.8-0.8c0,0,0,0,0,0c-0.127-0.126-0.252-0.253-0.379-0.379c-0.14-0.14-0.28-0.28-0.42-0.42&#10;&#9;&#9;c-0.267-0.266-0.533-0.533-0.8-0.8c0,0,0,0,0,0c-0.127-0.126-0.252-0.253-0.379-0.379c-0.14-0.14-0.28-0.28-0.42-0.42&#10;&#9;&#9;c-0.268-0.266-0.533-0.534-0.8-0.8c-0.127-0.126-0.252-0.253-0.379-0.379c-0.14-0.14-0.28-0.28-0.42-0.42&#10;&#9;&#9;c-0.268-0.266-0.533-0.534-0.8-0.8c-0.127-0.126-0.252-0.253-0.379-0.379c-0.14-0.14-0.28-0.28-0.42-0.42&#10;&#9;&#9;c-0.127-0.126-0.252-0.253-0.379-0.379c-0.268-0.266-0.533-0.534-0.8-0.8c-0.267-0.266-0.533-0.533-0.799-0.799&#10;&#9;&#9;c-0.267-0.267-0.534-0.533-0.8-0.8c-0.266-0.267-0.534-0.532-0.799-0.799c0,0,0,0,0,0c-0.266-0.267-0.534-0.532-0.8-0.8&#10;&#9;&#9;c0,0,0,0,0,0c-0.266-0.267-0.534-0.532-0.799-0.799c0,0,0,0,0,0c-0.266-0.267-0.534-0.532-0.8-0.8c0,0,0,0,0,0&#10;&#9;&#9;c-0.266-0.267-0.534-0.532-0.799-0.799c0,0,0,0,0,0c-0.266-0.267-0.534-0.532-0.8-0.8c0,0,0,0,0,0&#10;&#9;&#9;c-0.266-0.267-0.534-0.532-0.799-0.799c0,0,0,0,0,0c-0.266-0.267-0.534-0.532-0.8-0.8c0,0,0,0,0,0&#10;&#9;&#9;c-0.266-0.267-0.534-0.532-0.799-0.799c0,0,0,0,0,0c-0.533-0.533-1.068-1.064-1.599-1.599c0,0,0,0,0,0&#10;&#9;&#9;c-0.14-0.141-0.281-0.28-0.421-0.421c-0.127-0.126-0.252-0.253-0.379-0.379c-0.141-0.14-0.28-0.281-0.42-0.42c0,0,0,0-0.001,0&#10;&#9;&#9;c-0.267-0.265-0.532-0.533-0.799-0.799c0,0,0,0,0,0c-0.268-0.266-0.533-0.534-0.8-0.8c0,0,0,0,0,0&#10;&#9;&#9;c-0.267-0.265-0.532-0.533-0.799-0.799c-0.267-0.266-0.533-0.533-0.8-0.8c0,0,0,0,0,0c-0.267-0.265-0.532-0.533-0.799-0.799&#10;&#9;&#9;c-0.267-0.266-0.533-0.533-0.8-0.8c0,0,0,0,0,0c-0.127-0.126-0.252-0.253-0.379-0.379c-0.14-0.14-0.28-0.28-0.42-0.42&#10;&#9;&#9;c-0.267-0.266-0.533-0.533-0.8-0.8c0,0,0,0,0,0c-0.127-0.126-0.252-0.253-0.379-0.379c-0.14-0.14-0.28-0.28-0.42-0.42&#10;&#9;&#9;c-0.267-0.266-0.533-0.533-0.8-0.8c0,0,0,0,0,0c-0.127-0.126-0.252-0.253-0.379-0.379c-0.14-0.14-0.28-0.28-0.42-0.42&#10;&#9;&#9;c-0.267-0.266-0.533-0.533-0.8-0.8c0,0,0,0,0,0c-0.127-0.126-0.252-0.253-0.379-0.379c-0.14-0.14-0.28-0.28-0.42-0.42&#10;&#9;&#9;c-0.268-0.266-0.533-0.534-0.8-0.8c-0.127-0.126-0.252-0.253-0.379-0.379c-0.535-0.531-1.066-1.066-1.599-1.599&#10;&#9;&#9;c-0.266-0.266-0.533-0.532-0.799-0.799c-0.266-0.267-0.535-0.532-0.8-0.8c-0.992-1-1.076-1.956-0.269-3.102&#10;&#9;&#9;c0.811-1.152,1.629-2.299,2.459-3.437c-0.118-0.126-0.217-0.269-0.295-0.431c-0.365-0.192-0.63-0.449-0.8-0.799&#10;&#9;&#9;c-0.365-0.192-0.63-0.45-0.799-0.799c-0.365-0.192-0.63-0.449-0.8-0.799c-0.365-0.192-0.63-0.45-0.799-0.799&#10;&#9;&#9;c-0.365-0.192-0.63-0.449-0.8-0.799c-0.365-0.192-0.63-0.45-0.799-0.8c-0.365-0.192-0.63-0.449-0.8-0.799&#10;&#9;&#9;c-0.365-0.192-0.63-0.45-0.799-0.799c-0.365-0.192-0.63-0.449-0.8-0.799c-0.365-0.192-0.63-0.45-0.799-0.8&#10;&#9;&#9;c-0.75-0.394-1.061-1.069-1.062-2.224c-0.002-1.71-0.006-3.421,0.002-5.131c0.006-1.252,0.579-1.971,1.828-2.211&#10;&#9;&#9;c1.581-0.303,3.169-0.577,4.761-0.815c0.542-0.081,0.794-0.278,0.993-0.827c0.604-1.669,1.293-3.31,2.012-4.934&#10;&#9;&#9;c0.193-0.437,0.205-0.717-0.076-1.099c-0.958-1.298-1.885-2.62-2.817-3.937c-0.862-1.217-0.781-2.148,0.277-3.212&#10;&#9;&#9;c1.172-1.178,2.348-2.353,3.528-3.524c1.059-1.051,1.985-1.12,3.209-0.236c1.289,0.93,2.581,1.856,3.852,2.811&#10;&#9;&#9;c0.36,0.271,0.624,0.251,1.032,0.069c1.687-0.755,3.408-1.434,5.099-2.18c0.251-0.111,0.535-0.408,0.587-0.663&#10;&#9;&#9;c0.286-1.413,0.554-2.833,0.731-4.263c0.163-1.32,0.633-2.351,1.992-2.781c2.078-0.005,4.15-0.005,6.222-0.005&#10;&#9;&#9;c0.719,0.218,1.185,0.607,1.492,1.116c0.343,0.211,0.606,0.48,0.8,0.799c0.343,0.211,0.606,0.48,0.799,0.8&#10;&#9;&#9;c0.343,0.211,0.606,0.48,0.8,0.799c0.343,0.211,0.606,0.48,0.799,0.8c0.343,0.211,0.606,0.48,0.8,0.799&#10;&#9;&#9;c0.343,0.211,0.606,0.48,0.799,0.8c0.343,0.211,0.606,0.48,0.8,0.799c0.343,0.211,0.606,0.48,0.799,0.8&#10;&#9;&#9;c0.343,0.211,0.606,0.48,0.8,0.799c0.343,0.211,0.606,0.48,0.799,0.8c0.176,0.108,0.336,0.228,0.469,0.366&#10;&#9;&#9;c1.209-0.879,2.428-1.746,3.653-2.603c1.137-0.796,2.123-0.706,3.105,0.269c1.213,1.205,2.424,2.413,3.629,3.628&#10;&#9;&#9;c0.001,0.001,0.001,0.001,0.001,0.002c0.266,0.267,0.533,0.531,0.799,0.798c0.001,0.001,0.001,0.001,0.002,0.002&#10;&#9;&#9;c0.265,0.266,0.533,0.53,0.797,0.797c0.001,0.001,0.001,0.001,0.001,0.002c0.266,0.267,0.533,0.531,0.799,0.798&#10;&#9;&#9;c0.001,0.001,0.001,0.001,0.002,0.002c0.265,0.266,0.533,0.53,0.797,0.797c0.001,0.001,0.001,0.001,0.001,0.002&#10;&#9;&#9;c0.266,0.267,0.533,0.531,0.799,0.798c0.001,0.001,0.001,0.001,0.001,0.002c0.265,0.266,0.533,0.53,0.798,0.797&#10;&#9;&#9;c0.001,0.001,0.001,0.001,0.001,0.002c0.266,0.267,0.533,0.531,0.799,0.798c0.001,0.001,0.001,0.001,0.001,0.002&#10;&#9;&#9;c0.265,0.266,0.533,0.53,0.798,0.797c0.001,0.001,0.001,0.001,0.001,0.002c0.266,0.267,0.533,0.531,0.799,0.798&#10;&#9;&#9;c0.001,0.001,0.001,0.001,0.001,0.002c0.265,0.266,0.533,0.53,0.798,0.797c0.001,0.001,0.001,0.001,0.001,0.002&#10;&#9;&#9;c0.266,0.267,0.533,0.531,0.799,0.798c0.001,0.001,0.001,0.001,0.002,0.002c0.122,0.122,0.245,0.244,0.366,0.366&#10;&#9;&#9;c0,0,0.001,0.001,0.001,0.001c1.213,1.205,2.424,2.413,3.629,3.628c0.001,0.001,0.001,0.001,0.002,0.002&#10;&#9;&#9;c0.265,0.266,0.532,0.53,0.797,0.797c0,0,0.001,0.001,0.001,0.001c0.266,0.267,0.534,0.531,0.799,0.799&#10;&#9;&#9;c0.003,0.003,0.005,0.007,0.009,0.01c0.263,0.264,0.528,0.526,0.79,0.79c0,0,0.001,0.001,0.001,0.001&#10;&#9;&#9;c0.266,0.267,0.534,0.531,0.799,0.799c0.001,0.001,0.001,0.001,0.002,0.002c0.265,0.266,0.532,0.53,0.797,0.797&#10;&#9;&#9;c0,0,0.001,0.001,0.001,0.001c0.266,0.267,0.534,0.531,0.799,0.799c0.001,0.001,0.001,0.001,0.002,0.002&#10;&#9;&#9;c0.265,0.266,0.532,0.53,0.797,0.797c0,0,0.001,0.001,0.001,0.001c0.266,0.267,0.534,0.531,0.799,0.799&#10;&#9;&#9;c0.001,0.001,0.001,0.001,0.002,0.002c0.265,0.266,0.532,0.53,0.797,0.797c0,0,0.001,0.001,0.001,0.001&#10;&#9;&#9;c0.266,0.267,0.534,0.531,0.799,0.799c0.001,0.001,0.001,0.001,0.002,0.002c0.265,0.266,0.532,0.53,0.797,0.797&#10;&#9;&#9;c0,0,0.001,0.001,0.001,0.001c0.266,0.267,0.534,0.531,0.799,0.799c0.001,0.001,0.001,0.001,0.002,0.002&#10;&#9;&#9;c0.265,0.266,0.532,0.53,0.797,0.797c0,0,0.001,0.001,0.001,0.001c0.266,0.267,0.534,0.531,0.799,0.799&#10;&#9;&#9;c0.001,0.001,0.001,0.001,0.002,0.002c0.265,0.266,0.532,0.53,0.797,0.797c0,0,0.001,0.001,0.001,0.001&#10;&#9;&#9;c0.266,0.267,0.534,0.531,0.799,0.799c0.001,0.001,0.001,0.001,0.002,0.002c0.265,0.266,0.533,0.53,0.797,0.797&#10;&#9;&#9;c0.001,0.001,0.001,0.001,0.002,0.002c0.266,0.267,0.533,0.531,0.798,0.798c0.001,0.001,0.001,0.001,0.002,0.002&#10;&#9;&#9;c0.265,0.266,0.533,0.53,0.797,0.797c0.001,0.001,0.001,0.001,0.002,0.002c0.266,0.267,0.533,0.531,0.798,0.798&#10;&#9;&#9;c0.001,0.001,0.001,0.001,0.002,0.002c0.265,0.266,0.533,0.53,0.797,0.797c0.001,0.001,0.001,0.001,0.002,0.002&#10;&#9;&#9;c0.266,0.267,0.533,0.531,0.798,0.798c0,0,0.001,0.001,0.001,0.001c0.265,0.266,0.533,0.531,0.798,0.798&#10;&#9;&#9;c0.001,0.001,0.001,0.001,0.002,0.002c0.266,0.267,0.533,0.531,0.798,0.798c0,0,0.001,0.001,0.001,0.001&#10;&#9;&#9;c0.265,0.266,0.533,0.531,0.798,0.798c0.001,0.001,0.001,0.001,0.002,0.002c0.266,0.267,0.533,0.531,0.798,0.798&#10;&#9;&#9;c0,0,0.001,0.001,0.001,0.001c0.265,0.266,0.533,0.53,0.797,0.797l0,0c1.115-4.478,1.716-9.16,1.716-13.984&#10;&#9;&#9;C115.375,25.828,89.547,0,57.688,0S0,25.828,0,57.69c0,31.859,25.828,57.687,57.689,57.687c4.304,0,8.491-0.486,12.526-1.38l0,0&#10;&#9;&#9;C70.152,113.934,70.089,113.87,70.025,113.807z"/>
    <path fill="none" d="M111.373,78.799c0.013-0.034,0.027-0.069,0.041-0.103l0,0C111.4,78.731,111.386,78.765,111.373,78.799z"/>
    <path fill="#388AB1" d="M113.66,71.674c-0.265-0.267-0.532-0.531-0.797-0.797c0,0-0.001-0.001-0.001-0.001&#10;&#9;&#9;c-0.265-0.267-0.533-0.531-0.798-0.798c-0.001-0.001-0.001-0.001-0.002-0.002c-0.265-0.267-0.532-0.531-0.798-0.798&#10;&#9;&#9;c0,0-0.001-0.001-0.001-0.001c-0.265-0.267-0.533-0.531-0.798-0.798c-0.001-0.001-0.001-0.001-0.002-0.002&#10;&#9;&#9;c-0.265-0.267-0.532-0.531-0.798-0.798c0,0-0.001-0.001-0.001-0.001c-0.265-0.267-0.533-0.531-0.798-0.798&#10;&#9;&#9;c-0.001-0.001-0.001-0.001-0.002-0.002c-0.265-0.267-0.532-0.531-0.797-0.797c-0.001-0.001-0.001-0.001-0.002-0.002&#10;&#9;&#9;c-0.265-0.267-0.533-0.531-0.798-0.798c-0.001-0.001-0.001-0.001-0.002-0.002c-0.265-0.267-0.532-0.531-0.797-0.797&#10;&#9;&#9;c-0.001-0.001-0.001-0.001-0.002-0.002c-0.265-0.267-0.533-0.531-0.798-0.798c-0.001-0.001-0.001-0.001-0.002-0.002&#10;&#9;&#9;c-0.265-0.267-0.532-0.531-0.797-0.797c-0.001-0.001-0.001-0.001-0.002-0.002c-0.265-0.267-0.533-0.532-0.799-0.799&#10;&#9;&#9;c0,0-0.001-0.001-0.001-0.001c-0.265-0.267-0.532-0.531-0.797-0.797c-0.001-0.001-0.001-0.001-0.002-0.002&#10;&#9;&#9;c-0.265-0.267-0.533-0.532-0.799-0.799c0,0-0.001-0.001-0.001-0.001c-0.265-0.267-0.532-0.531-0.797-0.797&#10;&#9;&#9;c-0.001-0.001-0.001-0.001-0.002-0.002c-0.265-0.267-0.533-0.532-0.799-0.799c0,0-0.001-0.001-0.001-0.001&#10;&#9;&#9;c-0.265-0.267-0.532-0.531-0.797-0.797c-0.001-0.001-0.001-0.001-0.002-0.002c-0.265-0.267-0.533-0.532-0.799-0.799&#10;&#9;&#9;c0,0-0.001-0.001-0.001-0.001c-0.265-0.267-0.532-0.531-0.797-0.797c-0.001-0.001-0.001-0.001-0.002-0.002&#10;&#9;&#9;c-0.265-0.267-0.533-0.532-0.799-0.799c0,0-0.001-0.001-0.001-0.001c-0.265-0.267-0.532-0.531-0.797-0.797&#10;&#9;&#9;c-0.001-0.001-0.001-0.001-0.002-0.002c-0.265-0.267-0.533-0.532-0.799-0.799c0,0-0.001-0.001-0.001-0.001&#10;&#9;&#9;c-0.265-0.267-0.532-0.531-0.797-0.797c-0.001-0.001-0.001-0.001-0.002-0.002c-0.265-0.267-0.533-0.532-0.799-0.799&#10;&#9;&#9;c0,0-0.001-0.001-0.001-0.001c-0.262-0.265-0.527-0.526-0.79-0.79c-0.003-0.003-0.005-0.007-0.009-0.01&#10;&#9;&#9;c-0.265-0.267-0.533-0.532-0.799-0.799c0,0-0.001-0.001-0.001-0.001c-0.265-0.267-0.532-0.531-0.797-0.797&#10;&#9;&#9;c-0.001-0.001-0.001-0.001-0.002-0.002c-1.205-1.215-2.416-2.423-3.629-3.628c0,0-0.001-0.001-0.001-0.001&#10;&#9;&#9;c-0.122-0.123-0.245-0.244-0.366-0.366c-0.001-0.001-0.001-0.001-0.002-0.002c-0.265-0.267-0.533-0.532-0.799-0.798&#10;&#9;&#9;c-0.001-0.001-0.001-0.001-0.001-0.002c-0.265-0.267-0.532-0.531-0.798-0.797c-0.001-0.001-0.001-0.001-0.001-0.002&#10;&#9;&#9;c-0.265-0.267-0.533-0.532-0.799-0.798c-0.001-0.001-0.001-0.001-0.001-0.002c-0.265-0.267-0.532-0.531-0.798-0.797&#10;&#9;&#9;c-0.001-0.001-0.001-0.001-0.001-0.002c-0.265-0.267-0.533-0.532-0.799-0.798c-0.001-0.001-0.001-0.001-0.001-0.002&#10;&#9;&#9;c-0.265-0.267-0.532-0.531-0.798-0.797c-0.001-0.001-0.001-0.001-0.001-0.002c-0.265-0.267-0.533-0.532-0.799-0.798&#10;&#9;&#9;c-0.001-0.001-0.001-0.001-0.001-0.002c-0.265-0.267-0.532-0.531-0.797-0.797c-0.001-0.001-0.001-0.001-0.002-0.002&#10;&#9;&#9;c-0.265-0.267-0.533-0.532-0.799-0.798c-0.001-0.001-0.001-0.001-0.001-0.002c-0.265-0.267-0.532-0.531-0.797-0.797&#10;&#9;&#9;c-0.001-0.001-0.001-0.001-0.002-0.002c-0.265-0.267-0.533-0.532-0.799-0.798c-0.001-0.001-0.001-0.001-0.001-0.002&#10;&#9;&#9;c-1.205-1.215-2.416-2.423-3.629-3.628c-0.982-0.975-1.968-1.065-3.105-0.269c-1.224,0.857-2.443,1.724-3.653,2.603&#10;&#9;&#9;c-0.134-0.138-0.293-0.258-0.469-0.366c-0.193-0.32-0.456-0.588-0.799-0.8c-0.193-0.32-0.456-0.588-0.8-0.799&#10;&#9;&#9;c-0.193-0.32-0.456-0.588-0.799-0.8c-0.193-0.32-0.456-0.588-0.8-0.799c-0.193-0.32-0.456-0.588-0.799-0.8&#10;&#9;&#9;c-0.193-0.32-0.456-0.588-0.8-0.799c-0.193-0.32-0.456-0.588-0.799-0.8c-0.193-0.32-0.456-0.588-0.8-0.799&#10;&#9;&#9;c-0.193-0.32-0.456-0.588-0.799-0.8c-0.193-0.32-0.456-0.588-0.8-0.799c-0.307-0.509-0.773-0.898-1.492-1.116&#10;&#9;&#9;c-2.072,0-4.144,0-6.222,0.005c-1.359,0.43-1.829,1.461-1.992,2.781c-0.177,1.43-0.445,2.85-0.731,4.263&#10;&#9;&#9;c-0.052,0.255-0.336,0.552-0.587,0.663c-1.691,0.746-3.412,1.425-5.099,2.18c-0.408,0.182-0.672,0.202-1.032-0.069&#10;&#9;&#9;c-1.271-0.955-2.563-1.881-3.852-2.811c-1.224-0.884-2.15-0.815-3.209,0.236c-1.18,1.171-2.356,2.346-3.528,3.524&#10;&#9;&#9;c-1.058,1.064-1.139,1.995-0.277,3.212c0.932,1.317,1.859,2.639,2.817,3.937c0.281,0.382,0.269,0.662,0.076,1.099&#10;&#9;&#9;c-0.719,1.624-1.408,3.265-2.012,4.934c-0.199,0.549-0.451,0.746-0.993,0.827c-1.592,0.238-3.18,0.512-4.761,0.815&#10;&#9;&#9;c-1.249,0.24-1.822,0.959-1.828,2.211c-0.008,1.71-0.004,3.421-0.002,5.131c0.001,1.155,0.312,1.83,1.062,2.224&#10;&#9;&#9;c0.169,0.35,0.434,0.608,0.799,0.8c0.169,0.35,0.435,0.608,0.8,0.799c0.169,0.35,0.434,0.608,0.799,0.799&#10;&#9;&#9;c0.169,0.35,0.435,0.608,0.8,0.799c0.169,0.35,0.434,0.608,0.799,0.8c0.169,0.35,0.435,0.608,0.8,0.799&#10;&#9;&#9;c0.169,0.35,0.434,0.608,0.799,0.799c0.169,0.35,0.435,0.608,0.8,0.799c0.169,0.35,0.434,0.608,0.799,0.799&#10;&#9;&#9;c0.169,0.35,0.435,0.608,0.8,0.799c0.078,0.162,0.177,0.305,0.295,0.431c-0.831,1.137-1.648,2.285-2.459,3.437&#10;&#9;&#9;c-0.807,1.146-0.723,2.102,0.269,3.102c0.266,0.268,0.534,0.533,0.8,0.8c0.266,0.267,0.533,0.533,0.799,0.799&#10;&#9;&#9;c0.533,0.533,1.064,1.068,1.599,1.599c0.127,0.126,0.252,0.253,0.379,0.379c0.267,0.266,0.532,0.534,0.8,0.8&#10;&#9;&#9;c0.14,0.14,0.28,0.28,0.42,0.42c0.127,0.126,0.252,0.253,0.379,0.379c0,0,0,0,0,0c0.267,0.266,0.533,0.534,0.8,0.8&#10;&#9;&#9;c0.14,0.14,0.28,0.28,0.42,0.42c0.127,0.126,0.252,0.253,0.379,0.379c0,0,0,0,0,0c0.267,0.266,0.533,0.534,0.8,0.8&#10;&#9;&#9;c0.14,0.14,0.28,0.28,0.42,0.42c0.127,0.126,0.252,0.253,0.379,0.379c0,0,0,0,0,0c0.267,0.266,0.533,0.534,0.8,0.8&#10;&#9;&#9;c0.14,0.14,0.28,0.28,0.42,0.42c0.127,0.126,0.252,0.253,0.379,0.379c0,0,0,0,0,0c0.267,0.266,0.533,0.534,0.8,0.8&#10;&#9;&#9;c0.267,0.266,0.532,0.534,0.799,0.799c0,0,0,0,0,0c0.267,0.266,0.533,0.534,0.8,0.8c0.267,0.266,0.532,0.534,0.799,0.799&#10;&#9;&#9;c0,0,0,0,0,0c0.267,0.266,0.532,0.534,0.8,0.8c0,0,0,0,0,0c0.267,0.266,0.532,0.534,0.799,0.799c0,0,0,0,0.001,0&#10;&#9;&#9;c0.141,0.14,0.28,0.281,0.42,0.42c0.127,0.126,0.252,0.253,0.379,0.379c0.14,0.141,0.281,0.28,0.421,0.421c0,0,0,0,0,0&#10;&#9;&#9;c0.531,0.535,1.066,1.066,1.599,1.599c0,0,0,0,0,0c0.265,0.267,0.533,0.532,0.799,0.799c0,0,0,0,0,0&#10;&#9;&#9;c0.265,0.268,0.534,0.533,0.8,0.8c0,0,0,0,0,0c0.265,0.267,0.533,0.532,0.799,0.799c0,0,0,0,0,0c0.265,0.268,0.534,0.533,0.8,0.8&#10;&#9;&#9;c0,0,0,0,0,0c0.265,0.267,0.533,0.532,0.799,0.799c0,0,0,0,0,0c0.265,0.268,0.534,0.533,0.8,0.8c0,0,0,0,0,0&#10;&#9;&#9;c0.265,0.267,0.533,0.532,0.799,0.799c0,0,0,0,0,0c0.265,0.268,0.534,0.533,0.8,0.8c0,0,0,0,0,0&#10;&#9;&#9;c0.265,0.267,0.533,0.532,0.799,0.799c0.266,0.267,0.533,0.533,0.8,0.8c0.266,0.266,0.532,0.533,0.799,0.799&#10;&#9;&#9;c0.267,0.266,0.532,0.534,0.8,0.8c0.127,0.126,0.252,0.253,0.379,0.379c0.14,0.14,0.28,0.28,0.42,0.42&#10;&#9;&#9;c0.127,0.126,0.252,0.253,0.379,0.379c0.267,0.266,0.532,0.534,0.8,0.8c0.14,0.14,0.28,0.28,0.42,0.42&#10;&#9;&#9;c0.127,0.126,0.252,0.253,0.379,0.379c0.267,0.266,0.532,0.534,0.8,0.8c0.14,0.14,0.28,0.28,0.42,0.42&#10;&#9;&#9;c0.127,0.126,0.252,0.253,0.379,0.379c0,0,0,0,0,0c0.267,0.266,0.533,0.534,0.8,0.8c0.14,0.14,0.28,0.28,0.42,0.42&#10;&#9;&#9;c0.127,0.126,0.252,0.253,0.379,0.379c0,0,0,0,0,0c0.267,0.266,0.533,0.534,0.8,0.8c0.14,0.14,0.28,0.28,0.42,0.42&#10;&#9;&#9;c0.127,0.126,0.252,0.253,0.379,0.379c0,0,0,0,0,0c0.267,0.266,0.533,0.534,0.8,0.8c0.267,0.266,0.532,0.534,0.799,0.799&#10;&#9;&#9;c0,0,0,0,0,0c0.267,0.266,0.533,0.534,0.8,0.8c0.064,0.063,0.127,0.127,0.19,0.19l0,0c1.766-0.391,3.502-0.859,5.204-1.409&#10;&#9;&#9;c0.251-0.084,0.5-0.169,0.751-0.254l0,0c15.974-5.401,28.805-17.6,35.056-33.163v0c0.004-0.009,0.007-0.018,0.011-0.027&#10;&#9;&#9;c0.046-0.115,0.091-0.23,0.136-0.345c0.013-0.034,0.027-0.069,0.041-0.103l0,0c0.064-0.163,0.131-0.325,0.193-0.49&#10;&#9;&#9;c0.013-0.034,0.027-0.067,0.04-0.102c0.028-0.073,0.057-0.146,0.086-0.218c0.2-0.534,0.383-1.074,0.567-1.615h0&#10;&#9;&#9;c0.202-0.593,0.402-1.186,0.585-1.787c0.011-0.036,0.02-0.072,0.031-0.108c0.025-0.088,0.049-0.176,0.075-0.264l0,0&#10;&#9;&#9;C113.229,73.307,113.455,72.495,113.66,71.674L113.66,71.674z"/>
  </g>
  <g id="icon" transform="matrix(0.5633749961853027, 0, 0, 0.5633749961853027, 0, 0)">
    <g id="cbuHg7.tif">
      <g>
        <path fill="#FFFFFF" d="M58.938,26.524c1.372,0.416,1.838,1.444,1.996,2.771c0.165,1.383,0.483,2.746,0.674,4.127&#10;&#9;&#9;&#9;&#9;c0.066,0.479,0.315,0.606,0.705,0.759c1.743,0.68,3.481,1.376,5.196,2.124c0.407,0.178,0.675,0.208,1.037-0.056&#10;&#9;&#9;&#9;&#9;c1.322-0.966,2.66-1.912,4.001-2.851c1.137-0.796,2.123-0.706,3.105,0.269c1.213,1.205,2.424,2.413,3.629,3.628&#10;&#9;&#9;&#9;&#9;c0.948,0.957,1.035,1.952,0.262,3.052c-0.928,1.32-1.859,2.638-2.811,3.941c-0.283,0.388-0.323,0.681-0.104,1.162&#10;&#9;&#9;&#9;&#9;c0.746,1.637,1.416,3.31,2.068,4.988c0.166,0.427,0.328,0.659,0.825,0.732c1.641,0.239,3.272,0.542,4.905,0.829&#10;&#9;&#9;&#9;&#9;c1.212,0.213,1.928,1.027,1.936,2.229c0.012,1.807,0.013,3.614-0.001,5.42c-0.009,1.132-0.645,1.92-1.765,2.132&#10;&#9;&#9;&#9;&#9;c-1.629,0.308-3.262,0.601-4.904,0.829c-0.606,0.084-0.823,0.358-1.012,0.903c-0.539,1.558-1.163,3.087-1.795,4.735&#10;&#9;&#9;&#9;&#9;c-0.331-0.262-0.503-0.381-0.655-0.522c-1.681-1.553-3.35-3.119-5.046-4.656c-0.356-0.323-0.423-0.589-0.27-1.053&#10;&#9;&#9;&#9;&#9;c3.058-9.214-2.531-18.755-12.046-20.595c-8.471-1.638-16.932,4.248-18.342,12.759c-1.465,8.847,4.419,17.016,13.21,18.329&#10;&#9;&#9;&#9;&#9;c2.471,0.369,4.9,0.152,7.259-0.668c0.539-0.187,0.866-0.094,1.252,0.311c1.692,1.778,3.418,3.525,5.209,5.362&#10;&#9;&#9;&#9;&#9;c-0.274,0.165-0.474,0.326-0.702,0.417c-1.428,0.57-2.854,1.145-4.298,1.67c-0.417,0.152-0.615,0.338-0.684,0.79&#10;&#9;&#9;&#9;&#9;c-0.256,1.687-0.548,3.368-0.851,5.048c-0.199,1.106-0.994,1.765-2.123,1.773c-1.831,0.012-3.662,0.01-5.493,0.002&#10;&#9;&#9;&#9;&#9;c-1.25-0.005-2.031-0.651-2.251-1.895c-0.275-1.562-0.53-3.128-0.76-4.697c-0.085-0.583-0.322-0.878-0.918-1.088&#10;&#9;&#9;&#9;&#9;c-1.516-0.533-3.014-1.136-4.465-1.825c-0.637-0.303-1.052-0.289-1.604,0.134c-1.203,0.923-2.458,1.779-3.699,2.652&#10;&#9;&#9;&#9;&#9;c-1.176,0.827-2.145,0.743-3.163-0.268c-1.197-1.188-2.39-2.38-3.577-3.577c-0.992-1-1.076-1.956-0.269-3.102&#10;&#9;&#9;&#9;&#9;c0.915-1.3,1.832-2.599,2.775-3.878c0.293-0.397,0.305-0.695,0.091-1.164c-0.747-1.637-1.436-3.302-2.084-4.981&#10;&#9;&#9;&#9;&#9;c-0.176-0.455-0.419-0.647-0.857-0.718c-1.518-0.246-3.033-0.515-4.552-0.754c-1.653-0.26-2.264-0.944-2.266-2.591&#10;&#9;&#9;&#9;&#9;c-0.002-1.71-0.006-3.421,0.002-5.131c0.006-1.252,0.579-1.971,1.828-2.211c1.581-0.303,3.169-0.577,4.761-0.815&#10;&#9;&#9;&#9;&#9;c0.542-0.081,0.794-0.278,0.993-0.827c0.604-1.669,1.293-3.31,2.012-4.934c0.193-0.437,0.205-0.717-0.076-1.099&#10;&#9;&#9;&#9;&#9;c-0.958-1.298-1.885-2.62-2.817-3.937c-0.862-1.217-0.781-2.148,0.277-3.212c1.172-1.178,2.348-2.353,3.528-3.524&#10;&#9;&#9;&#9;&#9;c1.059-1.051,1.985-1.12,3.209-0.236c1.289,0.93,2.581,1.856,3.852,2.811c0.36,0.271,0.624,0.251,1.032,0.069&#10;&#9;&#9;&#9;&#9;c1.687-0.755,3.408-1.434,5.099-2.18c0.251-0.111,0.535-0.408,0.587-0.663c0.286-1.413,0.554-2.833,0.731-4.263&#10;&#9;&#9;&#9;&#9;c0.163-1.32,0.633-2.351,1.992-2.781C54.794,26.524,56.866,26.524,58.938,26.524z"/>
        <path fill="#FFFFFF" d="M51.71,49.238c0.264-0.218,0.431-0.44,0.651-0.525c2.378-0.924,4.824-1.182,7.155-0.036&#10;&#9;&#9;&#9;&#9;c2.734,1.344,4.731,3.46,4.55,6.898c-0.036,0.693-0.154,1.388-0.302,2.067c-0.224,1.027,0.071,1.91,0.677,2.706&#10;&#9;&#9;&#9;&#9;c0.363,0.478,0.756,0.944,1.194,1.352c5.008,4.66,10.029,9.306,15.044,13.959c2.296,2.13,4.58,4.272,6.881,6.395&#10;&#9;&#9;&#9;&#9;c1.373,1.267,1.746,2.802,1.166,4.532c-0.598,1.783-1.938,2.74-3.782,2.876c-1.316,0.097-2.423-0.477-3.344-1.425&#10;&#9;&#9;&#9;&#9;c-4.717-4.855-9.44-9.705-14.162-14.555c-2.185-2.244-4.355-4.502-6.574-6.712c-0.676-0.673-1.461-1.25-2.25-1.79&#10;&#9;&#9;&#9;&#9;c-0.644-0.44-1.419-0.501-2.155-0.251c-4.055,1.378-7.57-1.426-8.715-4.572c-0.374-1.027-0.522-2.141-0.716-3.226&#10;&#9;&#9;&#9;&#9;c-0.042-0.235,0.16-0.513,0.249-0.772c0.216,0.076,0.454,0.116,0.645,0.234c1.229,0.76,2.442,1.544,3.671,2.304&#10;&#9;&#9;&#9;&#9;c1.024,0.634,2.102,0.653,3.049-0.064c1.505-1.138,2.494-2.61,2.346-4.608c-0.07-0.946-0.541-1.668-1.355-2.18&#10;&#9;&#9;&#9;&#9;c-1.1-0.692-2.184-1.411-3.271-2.124C52.166,49.595,51.986,49.445,51.71,49.238z M84.703,82.877&#10;&#9;&#9;&#9;&#9;c-1.32,0.025-2.288,1.051-2.264,2.399c0.022,1.279,1.11,2.311,2.41,2.286c1.194-0.023,2.211-1.103,2.196-2.333&#10;&#9;&#9;&#9;&#9;C87.029,83.917,85.97,82.853,84.703,82.877z"/>
      </g>
    </g>
  </g>
</svg>