<?xml version="1.0" encoding="utf-8"?>
<svg viewBox="-1 -1 20 22" width="20" height="22" xmlns="http://www.w3.org/2000/svg">
  <path d="M 16.615 20 L 1.385 20 C 0.62 20 0 19.382 0 18.62 L 0 3.449 C 0 2.687 0.62 2.069 1.385 2.069 L 2.769 2.069 L 2.769 2.758 C 2.769 3.901 3.699 4.827 4.846 4.827 C 5.993 4.827 6.923 3.901 6.923 2.758 L 6.923 2.069 L 11.077 2.069 L 11.077 2.758 C 11.077 3.901 12.007 4.827 13.154 4.827 C 14.3 4.827 15.231 3.901 15.231 2.758 L 15.231 2.069 L 16.615 2.069 C 17.38 2.069 18 2.687 18 3.449 L 18 18.62 C 18 19.382 17.38 20 16.615 20 Z M 16.615 6.896 L 1.385 6.896 L 1.385 18.62 L 16.615 18.62 L 16.615 6.896 Z M 4.846 10.345 L 2.769 10.345 L 2.769 8.276 L 4.846 8.276 L 4.846 10.345 Z M 4.846 13.793 L 2.769 13.793 L 2.769 11.724 L 4.846 11.724 L 4.846 13.793 Z M 4.846 17.242 L 2.769 17.242 L 2.769 15.173 L 4.846 15.173 L 4.846 17.242 Z M 8.308 10.345 L 6.231 10.345 L 6.231 8.276 L 8.308 8.276 L 8.308 10.345 Z M 8.308 13.793 L 6.231 13.793 L 6.231 11.724 L 8.308 11.724 L 8.308 13.793 Z M 8.308 17.242 L 6.231 17.242 L 6.231 15.173 L 8.308 15.173 L 8.308 17.242 Z M 11.769 10.345 L 9.692 10.345 L 9.692 8.276 L 11.769 8.276 L 11.769 10.345 Z M 11.769 13.793 L 9.692 13.793 L 9.692 11.724 L 11.769 11.724 L 11.769 13.793 Z M 11.769 17.242 L 9.692 17.242 L 9.692 15.173 L 11.769 15.173 L 11.769 17.242 Z M 15.231 10.345 L 13.154 10.345 L 13.154 8.276 L 15.231 8.276 L 15.231 10.345 Z M 15.231 13.793 L 13.154 13.793 L 13.154 11.724 L 15.231 11.724 L 15.231 13.793 Z M 15.231 17.242 L 13.154 17.242 L 13.154 15.173 L 15.231 15.173 L 15.231 17.242 Z M 13.132 4.138 C 12.379 4.138 11.769 3.529 11.769 2.78 L 11.769 1.358 C 11.769 0.608 12.379 0 13.132 0 C 13.886 0 14.496 0.608 14.496 1.358 L 14.496 2.78 C 14.496 3.529 13.886 4.138 13.132 4.138 Z M 4.825 4.138 C 4.071 4.138 3.462 3.529 3.462 2.78 L 3.462 1.358 C 3.462 0.608 4.071 0 4.825 0 C 5.578 0 6.188 0.608 6.188 1.358 L 6.188 2.78 C 6.188 3.529 5.577 4.138 4.825 4.138 Z" style="fill: rgb(43, 123, 186);" transform="matrix(1, 0, 0, 1, 0, 0)"/>
</svg>