<?xml version="1.0" encoding="utf-8"?>
<svg viewBox="0 0 16 16" width="16" height="16" style="enable-background:new 0 0 442.533 442.533;" xmlns="http://www.w3.org/2000/svg">
  <path d="M 13.265 3.346 L 12.124 2.23 C 11.968 2.077 11.778 2 11.554 2 C 11.33 2 11.14 2.077 10.984 2.23 L 5.482 7.622 L 3.016 5.201 C 2.86 5.047 2.669 4.971 2.446 4.971 C 2.222 4.971 2.032 5.047 1.875 5.201 L 0.735 6.317 C 0.578 6.47 0.5 6.656 0.5 6.875 C 0.5 7.094 0.578 7.28 0.735 7.433 L 3.771 10.404 L 4.912 11.52 C 5.068 11.673 5.258 11.75 5.482 11.75 C 5.705 11.75 5.896 11.673 6.052 11.52 L 7.193 10.404 L 13.265 4.462 C 13.421 4.309 13.5 4.123 13.5 3.904 C 13.5 3.685 13.421 3.499 13.265 3.346 Z" fill="#2a72a5" transform="matrix(1, 0, 0, 1, 0, 0)"/>
</svg>