<?xml version="1.0" encoding="utf-8"?>
<svg viewBox="-1 -1 112 112" width="112" height="112" xmlns="http://www.w3.org/2000/svg">
  <g transform="matrix(0.7834759950637817, 0, 0, 0.7834759950637817, 1.7763568394002505e-15, -1.7763568394002505e-15)">
    <path fill="#6256A3" d="M 93 38.2 L 89.9 38.2 C 89.1 41.3 86.4 43.5 83.1 43.6 L 57.6 43.6 C 54.3 43.5 51.5 41.3 50.5 38.2 L 47.3 38.2 C 46.1 38.2 45.2 39.1 45.2 40.3 L 45.2 102 C 45.2 103.2 46.1 104.1 47.3 104.1 L 93 104.1 C 94.2 104.1 95.1 103.2 95.1 102 L 95.1 40.3 C 95.1 39.1 94.1 38.2 93 38.2 Z M 66.6 71.1 L 58.5 71.1 C 58 71.1 57.6 70.7 57.6 70.2 L 57.6 62.1 C 57.6 61.6 58 61.2 58.5 61.2 L 66.6 61.2 C 67.1 61.2 67.5 61.6 67.5 62.1 L 67.5 70.2 C 67.5 70.7 67.1 71.1 66.6 71.1 Z M 67.5 75.6 L 67.5 83.7 C 67.5 84.2 67.1 84.6 66.6 84.6 L 58.5 84.6 C 58 84.6 57.6 84.2 57.6 83.7 L 57.6 75.6 C 57.6 75.1 58 74.7 58.5 74.7 L 66.6 74.7 C 67.1 74.7 67.5 75.1 67.5 75.6 Z M 64.8 55 C 64.3 55 63.9 54.6 63.9 54.1 C 63.9 53.6 64.3 53.2 64.8 53.2 L 77.4 53.2 C 77.9 53.2 78.3 53.6 78.3 54.1 C 78.3 54.6 77.9 55 77.4 55 L 64.8 55 Z M 50.5 48.7 C 50.5 48.2 50.9 47.8 51.4 47.8 L 59.5 47.8 C 60 47.8 60.4 48.2 60.4 48.7 L 60.4 56.8 C 60.4 57.3 60 57.7 59.5 57.7 L 51.4 57.7 C 50.9 57.7 50.5 57.3 50.5 56.8 L 50.5 48.7 Z M 60.4 97.1 C 60.4 97.6 60 98 59.5 98 L 51.4 98 C 50.9 98 50.5 97.6 50.5 97.1 L 50.5 89 C 50.5 88.5 50.9 88.1 51.4 88.1 L 59.5 88.1 C 60 88.1 60.4 88.5 60.4 89 L 60.4 97.1 Z M 77.4 96.2 L 64.8 96.2 C 64.3 96.2 63.9 95.8 63.9 95.3 C 63.9 94.8 64.3 94.4 64.8 94.4 L 77.4 94.4 C 77.9 94.4 78.3 94.8 78.3 95.3 C 78.3 95.8 77.9 96.2 77.4 96.2 Z M 88.2 92.6 L 64.8 92.6 C 64.3 92.6 63.9 92.2 63.9 91.7 C 63.9 91.2 64.3 90.8 64.8 90.8 L 88.1 90.8 C 88.6 90.8 89 91.2 89 91.7 C 89 92.2 88.6 92.6 88.2 92.6 Z M 70.2 81.9 C 70.2 81.4 70.6 81 71.1 81 L 83.7 81 C 84.2 81 84.6 81.4 84.6 81.9 C 84.6 82.4 84.2 82.8 83.7 82.8 L 71.1 82.8 C 70.6 82.8 70.2 82.4 70.2 81.9 Z M 88.2 78.3 L 71.2 78.3 C 70.7 78.3 70.3 77.9 70.3 77.4 C 70.3 76.9 70.7 76.5 71.2 76.5 L 88.2 76.5 C 88.7 76.5 89.1 76.9 89.1 77.4 C 89 77.9 88.6 78.3 88.2 78.3 Z M 70.2 68.4 C 70.2 67.9 70.6 67.5 71.1 67.5 L 83.7 67.5 C 84.2 67.5 84.6 67.9 84.6 68.4 C 84.6 68.9 84.2 69.3 83.7 69.3 L 71.1 69.3 C 70.6 69.3 70.2 68.9 70.2 68.4 Z M 88.2 64.8 L 71.2 64.8 C 70.7 64.8 70.3 64.4 70.3 63.9 C 70.3 63.4 70.7 63 71.2 63 L 88.2 63 C 88.7 63 89.1 63.4 89.1 63.9 C 89.1 64.4 88.6 64.8 88.2 64.8 Z M 88.2 51.4 L 64.8 51.4 C 64.3 51.4 63.9 51 63.9 50.5 C 63.9 50 64.3 49.6 64.8 49.6 L 88.1 49.6 C 88.6 49.6 89 50 89 50.5 C 89 51 88.6 51.4 88.2 51.4 Z"/>
    <rect x="59.5" y="63" fill="#6256A3" width="6.3" height="6.3"/>
    <rect x="59.5" y="76.5" fill="#6256A3" width="6.3" height="6.3"/>
    <path fill="#6256A3" d="M 52.7 53.7 C 52.4 53.3 52.5 52.7 52.9 52.4 C 53.3 52.1 53.9 52.2 54.2 52.6 L 55 53.7 L 56.7 50.5 C 56.7 50.4 56.8 50.3 56.9 50.2 C 57.2 49.8 57.8 49.8 58.2 50.1 C 58.6 50.4 58.6 51 58.3 51.4 L 56 55.9 L 58.7 55.9 L 58.7 49.6 L 52.4 49.6 L 52.4 55.9 L 54.5 55.9 L 52.7 53.7 Z"/>
    <path fill="#6256A3" d="M 70.2 0 C 31.4 0 0 31.4 0 70.2 C 0 109 31.4 140.4 70.2 140.4 C 109 140.4 140.4 109 140.4 70.2 C 140.4 31.4 109 0 70.2 0 Z M 99.1 102 C 99.1 105.4 96.3 108.1 93 108.1 L 47.4 108.1 C 44 108.1 41.3 105.3 41.3 102 L 41.3 40.3 C 41.3 36.9 44.1 34.2 47.4 34.2 L 50.2 34.2 C 50.3 33.2 51.2 32.4 52.2 32.4 L 88.1 32.4 C 89.1 32.4 90 33.2 90.1 34.2 L 93 34.2 C 96.4 34.2 99.1 37 99.1 40.3 L 99.1 102 Z"/>
    <path fill="#6256A3" d="M 57.7 39.5 L 83.1 39.5 C 84.7 39.4 86 38 86.1 36.4 L 54.3 36.4 C 54.5 38.1 56 39.4 57.7 39.5 Z"/>
    <rect x="52.3" y="89.9" fill="#6256A3" width="6.3" height="6.3"/>
  </g>
</svg>