<?xml version="1.0" encoding="utf-8"?>
<svg viewBox="0 0 54 54" width="54" height="54" style="enable-background:new 0 0 20 20;" xmlns="http://www.w3.org/2000/svg">
  <defs>
    <style type="text/css">
	.st0{fill:#186892;}
	.st1{fill:#FFFFFF;}
</style>
  </defs>
  <g transform="matrix(0, 2.700000047683716, -2.700000047683716, 0, 55.000003814697266, 1.0000020265579215)">
    <circle class="st0" cx="9.63" cy="10.37" r="9.63"/>
    <path class="st1" d="M 14.907 12.826 C 14.483 13.259 13.905 13.288 13.385 12.826 L 9.63 9.215 L 5.864 12.826 C 5.354 13.288 4.767 13.259 4.353 12.826 C 3.929 12.402 3.958 11.67 4.353 11.276 C 4.747 10.871 8.869 6.942 8.869 6.942 C 9.071 6.721 9.35 6.615 9.62 6.615 C 9.899 6.615 10.169 6.721 10.381 6.942 C 10.381 6.942 14.512 10.871 14.907 11.276 C 15.311 11.68 15.33 12.402 14.907 12.826 Z"/>
  </g>
</svg>