<?xml version="1.0" encoding="utf-8"?>
<svg viewBox="-0.9990000128746033 -0.75 20 12.5" width="20" height="12.5" xmlns="http://www.w3.org/2000/svg" xmlns:bx="https://boxy-svg.com">
  <path d="M 17.51 10.214 C 16.833 10.902 15.89 10.955 15.064 10.214 L 8.999 4.426 L 2.934 10.214 C 2.107 10.955 1.163 10.902 0.492 10.214 C -0.185 9.525 -0.141 8.365 0.492 7.719 C 1.122 7.074 7.777 0.767 7.777 0.767 C 8.114 0.422 8.556 0.25 8.999 0.25 C 9.442 0.25 9.883 0.422 10.225 0.767 C 10.225 0.767 16.877 7.074 17.51 7.719 C 18.142 8.365 18.186 9.525 17.51 10.214 Z" style="fill: rgb(127, 208, 209);" transform="matrix(0.9999999999999999, 0, 0, 0.9999999999999999, -2.220446049250313e-16, -3.774758283725532e-15)" bx:origin="0.5 0"/>
</svg>