<?xml version="1.0" encoding="utf-8"?>
<svg viewBox="-1 -1 22 22" width="22" height="22" style="enable-background:new 0 0 20 20;" xmlns="http://www.w3.org/2000/svg">
  <defs>
    <style type="text/css">
	.st0{fill:url(#SVGID_1_);}
</style>
  </defs>
  <g transform="matrix(1, 0, 0, 1, 0, 0)">
    <radialGradient id="SVGID_1_" cx="17" cy="4" r="18" gradientTransform="matrix(0.5882 0 0 0.5882 0 8.2353)" gradientUnits="userSpaceOnUse">
      <stop offset="0" style="stop-color:#FFFFFF"/>
      <stop offset="0.6669" style="stop-color:#FFFFFF"/>
      <stop offset="0.7767" style="stop-color:#FFFFFF"/>
      <stop offset="0.8436" style="stop-color:#FBFBFB"/>
      <stop offset="0.9083" style="stop-color:#F0F0F1"/>
      <stop offset="0.9718" style="stop-color:#DCDEDE"/>
      <stop offset="1" style="stop-color:#D1D3D4"/>
    </radialGradient>
    <circle class="st0" cx="10" cy="10" r="10"/>
    <path d="M7.45,15.47c-0.45-0.44-0.48-1.04,0-1.57l3.74-3.9L7.46,6.1c-0.48-0.53-0.45-1.14,0-1.57c0.44-0.44,1.19-0.41,1.61,0&#10;&#9;&#9;c0.42,0.41,4.49,4.68,4.49,4.68c0.22,0.22,0.34,0.5,0.34,0.78s-0.11,0.57-0.34,0.79c0,0-4.07,4.28-4.49,4.68&#10;&#9;&#9;C8.65,15.87,7.9,15.91,7.45,15.47z"/>
  </g>
</svg>