<?xml version="1.0" encoding="utf-8"?>
<svg viewBox="-1 -1 26 26" width="26px" height="26px" xmlns="http://www.w3.org/2000/svg">
  <g id="icomoon-ignore" transform="matrix(1, 0, 0, 1, 0, 0)"/>
  <path d="M 12 0 C 5.372 0 0 5.372 0 12 C 0 18.628 5.372 24 12 24 C 18.628 24 24 18.628 24 12 C 24 5.372 18.628 0 12 0 Z M 12 21.75 C 6.616 21.75 2.25 17.384 2.25 12 C 2.25 6.616 6.616 2.25 12 2.25 C 17.384 2.25 21.75 6.616 21.75 12 C 21.75 17.384 17.384 21.75 12 21.75 Z" style="fill: rgb(216, 216, 216);"/>
  <path d="M 15.04 7.136 L 12 10.176 L 8.96 7.136 C 8.101 7.136 7.136 8.101 7.136 8.96 L 10.176 12 L 7.136 15.04 C 7.136 15.899 8.1 16.864 8.96 16.864 L 12 13.823 L 15.04 16.864 C 15.899 16.864 16.864 15.899 16.864 15.04 L 13.823 12 L 16.864 8.96 C 16.864 8.1 15.899 7.136 15.04 7.136 Z" style="fill: rgb(216, 216, 216);"/>
</svg>