<?xml version="1.0" encoding="utf-8"?>
<svg viewBox="-1 -1 36 36" width="36" height="36" xmlns="http://www.w3.org/2000/svg">
  <g id="icomoon-ignore" transform="matrix(1, 0, 0, 1, 0, 0)"/>
  <path d="M 17 0 C 7.611 0 0 7.611 0 17 C 0 26.389 7.611 34 17 34 C 26.389 34 34 26.389 34 17 C 34 7.611 26.389 0 17 0 Z M 17 30.812 C 9.372 30.812 3.187 24.628 3.187 17 C 3.187 9.372 9.372 3.187 17 3.187 C 24.628 3.187 30.812 9.372 30.812 17 C 30.812 24.628 24.628 30.812 17 30.812 Z" style="fill: rgb(143, 143, 143);" transform="matrix(1, 0, 0, 1, 0, 0)"/>
  <path d="M 21.306 10.11 L 17 14.416 L 12.694 10.11 C 11.476 10.11 10.11 11.476 10.11 12.694 L 14.416 17 L 10.11 21.306 C 10.11 22.524 11.475 23.89 12.694 23.89 L 17 19.583 L 21.306 23.89 C 22.524 23.89 23.89 22.524 23.89 21.306 L 19.583 17 L 23.89 12.694 C 23.89 11.475 22.524 10.11 21.306 10.11 Z" style="fill: rgb(143, 143, 143);" transform="matrix(1, 0, 0, 1, 0, 0)"/>
</svg>