<?xml version="1.0" encoding="utf-8"?>
<svg viewBox="-1 -1 20 20" width="20" height="20" xmlns="http://www.w3.org/2000/svg">
  <path d="M 9 18 C 4.03 18 0 13.97 0 9 C 0 4.03 4.03 0 9 0 C 13.97 0 18 4.03 18 9 C 18 13.97 13.97 18 9 18 Z M 13.126 6.375 C 13.296 6.207 13.296 5.933 13.126 5.762 L 12.207 4.844 C 12.039 4.676 11.765 4.676 11.594 4.844 L 8.99 7.448 L 6.388 4.844 C 6.217 4.676 5.943 4.676 5.775 4.844 L 4.856 5.762 C 4.686 5.933 4.686 6.207 4.856 6.375 L 7.459 8.98 L 4.856 11.582 C 4.686 11.752 4.686 12.026 4.856 12.197 L 5.775 13.116 C 5.943 13.284 6.217 13.284 6.388 13.116 L 8.99 10.511 L 11.594 13.116 C 11.765 13.284 12.039 13.284 12.207 13.116 L 13.126 12.197 C 13.296 12.026 13.296 11.752 13.126 11.582 L 10.523 8.98 L 13.126 6.375 Z" style="fill: rgb(42, 124, 184);" transform="matrix(1, 0, 0, 1, -4.440892098500626e-16, 0)"/>
</svg>