<?xml version="1.0" encoding="utf-8"?>
<svg viewBox="-0.9990000128746033 -1 20 17.430999755859375" width="20" height="17.430999755859375" xmlns="http://www.w3.org/2000/svg">
  <path d="M 18 6.429 C 18 9.984 13.972 12.857 9 12.857 C 8.508 12.857 8.016 12.827 7.544 12.777 C 6.228 13.942 4.661 14.766 2.923 15.207 C 2.562 15.308 2.17 15.378 1.779 15.429 C 1.557 15.449 1.347 15.288 1.296 15.047 L 1.296 15.036 C 1.246 14.785 1.417 14.635 1.568 14.454 C 2.2 13.741 2.923 13.138 3.396 11.461 C 1.327 10.286 0.001 8.468 0.001 6.429 C 0.001 2.883 4.029 0 9.001 0 C 13.973 0 18.001 2.873 18.001 6.429 Z" style="fill: rgb(255, 255, 255);" transform="matrix(1, 0, 0, 1, 0, -6.661338147750939e-16)"/>
</svg>