<?xml version="1.0" encoding="utf-8"?>
<svg viewBox="-1 -1 16 21.83300018310547" width="16" height="21.83300018310547" xmlns="http://www.w3.org/2000/svg">
  <path d="M 7.909 14.481 C 7.225 14.917 6.955 14.971 6.172 14.971 C 4.341 14.971 2.856 13.491 2.856 11.666 C 2.856 9.84 4.341 8.36 6.172 8.36 C 8.004 8.36 9.488 9.84 9.488 11.666 C 9.488 12.447 9.284 13.064 8.83 13.629 L 11.254 16.074 L 10.451 16.877 L 7.909 14.481 Z M 8.362 11.666 C 8.362 10.461 7.381 9.484 6.172 9.484 C 4.964 9.484 3.984 10.461 3.984 11.666 C 3.984 12.871 4.964 13.849 6.172 13.849 C 7.381 13.849 8.362 12.871 8.362 11.666 Z M 0 0 L 9.579 0 L 14 5.142 L 14 19.833 L 0 19.833 L 0 0 Z M 8.84 1.5 L 1.5 1.5 L 1.5 18.53 L 12.5 18.53 L 12.5 5.88 L 9.923 5.876 C 9.11 5.876 8.842 5.886 8.842 5.063 L 8.84 1.5 Z" style="fill: rgb(20, 129, 155);" transform="matrix(1, 0, 0, 1, 0, 0)"/>
</svg>