<?xml version="1.0" encoding="utf-8"?>
<!-- Generator: Adobe Illustrator 24.1.3, SVG Export Plug-In . SVG Version: 6.00 Build 0)  -->
<svg version="1.1" id="Layer_1" xmlns="http://www.w3.org/2000/svg" xmlns:xlink="http://www.w3.org/1999/xlink" x="0px" y="0px"
	 viewBox="0 0 19 14.2" style="enable-background:new 0 0 19 14.2;" xml:space="preserve">
<style type="text/css">
	.st0{fill:#2B7BBA;}
</style>
<path class="st0" d="M18.6,4.7c0.1-0.1,0.4,0,0.4,0.2v7.6c0,1-0.8,1.8-1.8,1.8H1.8c-1,0-1.8-0.8-1.8-1.8V4.9c0-0.2,0.2-0.3,0.4-0.2
	c0.8,0.6,1.9,1.5,5.7,4.2c0.8,0.6,2.1,1.8,3.4,1.8c1.3,0,2.7-1.2,3.4-1.8C16.7,6.2,17.8,5.4,18.6,4.7z M9.5,9.5
	c0.9,0,2.1-1.1,2.7-1.5c4.9-3.6,5.3-3.9,6.4-4.8C18.9,3,19,2.8,19,2.5V1.8c0-1-0.8-1.8-1.8-1.8H1.8C0.8,0,0,0.8,0,1.8v0.7
	C0,2.8,0.1,3,0.3,3.2C1.5,4.1,1.9,4.4,6.8,8C7.4,8.4,8.6,9.5,9.5,9.5L9.5,9.5z"/>
</svg>
