<?xml version="1.0" encoding="utf-8"?>
<svg viewBox="-1 -1 27 16.86400032043457" width="27" height="16.86400032043457" xmlns="http://www.w3.org/2000/svg">
  <path d="M 16.447 12.037 L 18.421 14.011 L 25 7.432 L 18.421 0.853 L 16.447 2.826 L 21.053 7.432 Z" style="fill: rgb(255, 255, 255);" transform="matrix(1, 0, 0, 1, 2.220446049250313e-16, -6.8833827526759706e-15)"/>
  <path d="M 8.553 2.826 L 6.579 0.853 L 0 7.432 L 6.579 14.011 L 8.553 12.037 L 3.947 7.432 Z" style="fill: rgb(255, 255, 255);" transform="matrix(1, 0, 0, 1, 2.220446049250313e-16, -6.8833827526759706e-15)"/>
  <path d="M 13.76 0 L 15.188 0.389 L 11.241 14.864 L 9.813 14.474 L 13.76 0 Z" style="fill: rgb(255, 255, 255);" transform="matrix(1, 0, 0, 1, 2.220446049250313e-16, -6.8833827526759706e-15)"/>
</svg>