<?xml version="1.0" encoding="utf-8"?>
<svg viewBox="-1 -1 19 27" width="19" height="27" xmlns="http://www.w3.org/2000/svg">
  <path d="M 14.874 0 L 2.124 0 C 0.951 0 0 0.933 0 2.083 L 0 22.917 C 0 24.067 0.951 25 2.124 25 L 14.874 25 C 16.048 25 17 24.067 17 22.917 L 17 2.083 C 17 0.933 16.048 0 14.874 0 Z M 8.478 23.438 C 7.891 23.438 7.415 22.972 7.415 22.396 C 7.415 21.82 7.891 21.354 8.478 21.354 C 9.065 21.354 9.54 21.82 9.54 22.396 C 9.54 22.972 9.064 23.438 8.478 23.438 Z M 14.874 19.792 L 2.124 19.792 L 2.34 1.966 L 15.068 1.966 L 14.874 19.792 Z" style="fill: rgb(255, 255, 255);" transform="matrix(1, 0, 0, 1, -4.440892098500626e-16, 0)"/>
  <path d="M 14.977 11.055 C 15.339 11.295 15.098 11.898 14.857 12.38 C 13.29 15.875 10.639 17.804 7.505 17.804 C 5.215 17.804 3.648 16.358 3.648 14.188 C 3.648 10.572 7.866 5.389 11.603 6.112 C 12.687 6.233 13.29 6.594 13.29 7.921 C 13.29 10.934 9.795 13.103 6.299 13.465 C 6.299 13.826 6.299 14.068 6.299 14.188 C 6.299 15.514 6.904 16.317 8.228 16.237 C 10.881 16.076 12.808 14.791 14.496 12.139 M 10.036 7.077 C 8.107 6.956 6.42 10.211 6.179 12.862 C 8.71 12.38 11.362 9.728 11 7.438 C 10.88 6.956 10.277 7.077 10.036 7.077 Z" style="fill: rgb(255, 255, 255);" transform="matrix(1, 0, 0, 1, -4.440892098500626e-16, 0)"/>
</svg>