<?xml version="1.0" encoding="utf-8"?>
<svg viewBox="-1 -1 112 112" width="112" height="112" xmlns="http://www.w3.org/2000/svg">
  <g transform="matrix(0.7834759950637817, 0, 0, 0.7834759950637817, 1.7763568394002505e-15, -1.7763568394002505e-15)">
    <g>
      <path fill="#F46200" d="M91.7,44.6h-43c-4.4,0-7.9,3.5-7.9,7.9v28.2c0,4.4,3.5,7.9,7.9,7.9h27.2c0.6,0,1.2,0.3,1.6,0.8L85,100&#10;&#9;&#9;&#9;l1.4-9.7c0.1-1,1-1.7,2-1.7l3.3,0c4.3,0,7.9-3.5,7.9-7.9h0V52.5C99.6,48.1,96.1,44.6,91.7,44.6z M90.1,79.3H50.3&#10;&#9;&#9;&#9;c-1.4,0-2.5-1.1-2.5-2.5s1.1-2.5,2.5-2.5h39.8c1.4,0,2.5,1.1,2.5,2.5S91.5,79.3,90.1,79.3z M90.1,68.7H50.3&#10;&#9;&#9;&#9;c-1.4,0-2.5-1.1-2.5-2.5s1.1-2.5,2.5-2.5h39.8c1.4,0,2.5,1.1,2.5,2.5S91.5,68.7,90.1,68.7z M90.1,58.7H50.3&#10;&#9;&#9;&#9;c-1.4,0-2.5-1.1-2.5-2.5s1.1-2.5,2.5-2.5h39.8c1.4,0,2.5,1.1,2.5,2.5S91.5,58.7,90.1,58.7z"/>
    </g>
    <g>
      <path fill="#F46200" d="M70.2,0C31.4,0,0,31.4,0,70.2s31.4,70.2,70.2,70.2s70.2-31.4,70.2-70.2S109,0,70.2,0z M103.5,80.7&#10;&#9;&#9;&#9;c0,6.5-5.3,11.8-11.8,11.8l-1.6,0l-1.9,12.9c-0.1,0.8-0.7,1.4-1.5,1.6c-0.2,0-0.3,0.1-0.5,0.1c-0.6,0-1.2-0.3-1.6-0.8l-9.8-13.7&#10;&#9;&#9;&#9;H48.7c-6.5,0-11.8-5.3-11.8-11.8V52.5c0-6.5,5.3-11.8,11.8-11.8h43c6.5,0,11.8,5.3,11.8,11.8V80.7z"/>
    </g>
  </g>
</svg>