<svg xmlns="http://www.w3.org/2000/svg" id="Layer_1" viewBox="0 0 35 35" fill="#ffffff">
  <path d="M17.5 27.6h6.7c.7 0 1.3-.6 1.3-1.3V8.7c0-.7-.6-1.3-1.3-1.3h-8.9V11.3c0 1-.8 1.8-1.8 1.8h-4v13.2c0 .7.6 1.3 1.3 1.3H17.5zm.3-4.3h-4.4c-.3 0-.6-.3-.6-.6s.3-.6.6-.6h4.4c.3 0 .6.3.6.6 0 .4-.3.6-.6.6zm4.4-3h-8.8c-.3 0-.6-.3-.6-.6s.3-.6.6-.6h8.8c.3 0 .6.3.6.6-.1.3-.3.6-.6.6zm-8.8-4.4h8.8c.3 0 .6.3.6.6s-.3.6-.6.6h-8.8c-.3 0-.6-.3-.6-.6 0-.4.2-.6.6-.6z" class="st0"/>
  <path d="M10 12.5h3.4c.6 0 1-.5 1-1V8c0-.3-.3-.5-.5-.5-.1 0-.3 0-.4.2l-4 4c-.2.2.1.8.5.8z" class="st0"/>
</svg>
