<svg xmlns="http://www.w3.org/2000/svg" xmlns:xlink="http://www.w3.org/1999/xlink" viewBox="0 0 27 32">
  <defs>
    <path id="a" d="M.02.04h26.926v31.347H.02z"/>
  </defs>
  <g fill="none" fill-rule="evenodd">
    <g>
      <mask id="b" fill="#fff">
        <use xlink:href="#a"/>
      </mask>
      <path fill="#14819b" d="M1.107 31.387H25.84c.62 0 1.107-.485 1.107-1.106V1.148c0-.621-.487-1.107-1.107-1.107H7.29c-.082 0-.19 0-.27.026-.028 0-.055.027-.055.027-.082.027-.136.054-.216.08-.026.029-.054.029-.08.055a.714.714 0 0 0-.217.19L.27 7.709c-.081.08-.136.189-.19.297-.026.027-.026.08-.026.108-.028.08-.028.16-.054.243v21.896c0 .649.513 1.134 1.107 1.134zM6.183 4.171v3.186h-2.7l2.7-3.186zm-3.97 5.373h5.078c.62 0 1.106-.486 1.106-1.107V2.254h16.335v26.92H2.214V9.544z" mask="url(#b)"/>
    </g>
    <path fill="#14819b" d="M21.438 11.948H5.508c-.621 0-1.107.485-1.107 1.106 0 .62.486 1.107 1.107 1.107h15.93c.62 0 1.107-.486 1.107-1.107 0-.62-.486-1.106-1.107-1.106zM21.438 17.294H5.508c-.621 0-1.107.485-1.107 1.106 0 .62.486 1.108 1.107 1.108h15.93c.62 0 1.107-.487 1.107-1.108 0-.593-.486-1.106-1.107-1.106z"/>
  </g>
</svg>
