<?xml version="1.0" encoding="utf-8"?>
<svg viewBox="-1 -1 21 20" width="21" height="20" xmlns="http://www.w3.org/2000/svg">
  <path d="M 18.999 2.452 L 18.999 15.56 C 18.999 15.67 18.96 15.761 18.88 15.833 C 18.801 15.906 18.706 15.942 18.595 15.942 L 11.82 15.942 L 11.82 14.124 L 17.347 14.124 L 17.347 13.295 L 11.815 13.295 L 11.815 12.283 L 17.342 12.283 L 17.342 11.455 L 11.818 11.455 L 11.818 10.434 L 17.346 10.434 L 17.346 9.616 L 11.818 9.616 L 11.818 8.592 L 17.346 8.592 L 17.346 7.765 L 11.818 7.765 L 11.818 6.753 L 17.346 6.753 L 17.346 5.926 L 11.818 5.926 L 11.818 4.893 L 17.346 4.893 L 17.346 4.106 L 11.818 4.106 L 11.818 2.05 L 18.596 2.05 C 18.715 2.05 18.81 2.088 18.881 2.169 C 18.964 2.248 19 2.343 19 2.452 Z M 10.806 0.002 L 10.806 18 L 0 16.129 L 0 1.925 L 10.806 0 Z M 9.175 5.316 L 7.822 5.399 L 6.955 10.774 L 6.935 10.774 C 6.892 10.519 6.733 9.629 6.448 8.107 L 5.942 5.522 L 4.671 5.585 L 4.164 8.107 C 3.867 9.574 3.701 10.429 3.658 10.67 L 3.647 10.67 L 2.875 5.719 L 1.711 5.781 L 2.958 12.025 L 4.252 12.108 L 4.739 9.678 C 5.024 8.253 5.19 7.424 5.226 7.197 L 5.261 7.197 C 5.309 7.438 5.463 8.286 5.748 9.74 L 6.235 12.242 L 7.636 12.325 L 9.204 5.316 Z" style="fill: rgb(108, 108, 108);" transform="matrix(0.9999999999999999, 0, 0, 0.9999999999999999, -2.220446049250313e-16, -2.220446049250313e-16)"/>
</svg>