<?xml version="1.0" encoding="utf-8"?>
<svg viewBox="-1.0010000467300415 -1 19 22" width="19" height="22" xmlns="http://www.w3.org/2000/svg">
  <path d="M 16.247 4.241 C 16.656 4.654 16.999 5.48 16.999 6.072 L 16.999 18.929 C 16.999 19.52 16.523 20 15.936 20 L 1.061 20 C 0.475 20 -0.001 19.52 -0.001 18.929 L -0.001 1.071 C -0.001 0.48 0.475 0 1.061 0 L 10.978 0 C 11.565 0 12.383 0.346 12.793 0.758 L 16.247 4.241 Z M 11.332 1.517 L 11.333 5.715 L 16.163 5.79 C 16.158 5.589 16.12 5.113 15.758 4.736 L 12.496 1.533 C 12.419 1.455 11.771 0.766 11.333 0.714 L 11.332 1.517 Z M 16.216 19.21 L 16.152 6.557 L 11.283 6.533 C 10.696 6.533 10.523 6.186 10.523 5.595 L 10.511 0.663 L 0.708 0.714 L 0.682 19.21 L 16.216 19.21 Z M 9.894 11.953 C 10.171 12.177 10.481 12.377 10.824 12.578 C 11.288 12.523 11.72 12.5 12.119 12.5 C 12.86 12.5 13.801 12.589 14.078 13.047 C 14.155 13.159 14.222 13.361 14.1 13.628 C 14.088 13.639 14.078 13.661 14.066 13.672 L 14.066 13.684 C 14.033 13.885 13.867 14.108 13.281 14.108 C 12.573 14.108 11.499 13.784 10.569 13.293 C 9.031 13.46 7.415 13.806 6.231 14.22 C 5.091 16.184 4.216 17.144 3.553 17.144 C 3.442 17.144 3.342 17.122 3.242 17.065 L 2.977 16.932 C 2.944 16.921 2.932 16.899 2.91 16.877 C 2.855 16.821 2.81 16.698 2.844 16.476 C 2.954 15.961 3.552 15.102 4.925 14.377 C 5.013 14.321 5.124 14.355 5.179 14.444 C 5.19 14.456 5.201 14.477 5.201 14.489 C 5.544 13.919 5.943 13.194 6.385 12.291 C 6.883 11.286 7.271 10.304 7.536 9.366 C 7.182 8.149 7.072 6.9 7.271 6.162 C 7.348 5.884 7.514 5.717 7.735 5.717 L 7.979 5.717 C 8.145 5.717 8.278 5.772 8.367 5.884 C 8.499 6.04 8.532 6.285 8.466 6.642 C 8.455 6.676 8.444 6.709 8.422 6.731 C 8.433 6.765 8.433 6.788 8.433 6.821 L 8.433 7.156 C 8.422 7.859 8.411 8.528 8.278 9.299 C 8.665 10.47 9.241 11.419 9.894 11.955 L 9.894 11.953 Z M 3.519 16.54 C 3.852 16.384 4.328 15.904 5.036 14.776 C 4.206 15.424 3.686 16.16 3.519 16.54 Z M 7.925 6.272 C 7.814 6.585 7.814 7.12 7.903 7.746 C 7.936 7.567 7.958 7.4 7.98 7.255 C 8.002 7.064 8.035 6.909 8.057 6.775 C 8.068 6.741 8.079 6.719 8.102 6.685 C 8.09 6.674 8.09 6.652 8.08 6.629 C 8.068 6.429 8.002 6.306 7.936 6.228 C 7.936 6.25 7.925 6.261 7.925 6.273 L 7.925 6.272 Z M 6.552 13.65 C 7.526 13.259 8.61 12.947 9.695 12.745 C 9.585 12.656 9.474 12.578 9.374 12.488 C 8.832 12.008 8.345 11.34 7.969 10.525 C 7.759 11.206 7.449 11.931 7.05 12.723 C 6.885 13.036 6.718 13.348 6.552 13.65 L 6.552 13.65 Z M 13.702 13.47 C 13.646 13.415 13.359 13.203 12.152 13.203 C 12.694 13.404 13.192 13.516 13.524 13.516 C 13.624 13.516 13.679 13.516 13.723 13.505 C 13.723 13.493 13.712 13.483 13.701 13.47 L 13.702 13.47 Z" style="fill: rgb(255, 255, 255);" transform="matrix(1, 0, 0, 1, 0, 0)"/>
</svg>