<?xml version="1.0" encoding="utf-8"?>
<svg viewBox="-1 -1 21 20.003000259399414" width="21" height="20.003000259399414" xmlns="http://www.w3.org/2000/svg">
  <path d="M 18.592 2.668 L 11.829 2.668 L 11.829 5.19 C 12.237 4.882 12.726 4.725 13.298 4.725 L 13.298 7.177 L 15.732 7.177 C 15.72 7.865 15.482 8.445 15.019 8.914 C 14.556 9.382 13.975 9.623 13.286 9.638 C 12.752 9.623 12.265 9.462 11.838 9.151 L 11.838 10.837 L 17.156 10.837 L 17.156 11.664 L 11.836 11.664 L 11.836 12.688 L 17.152 12.688 L 17.152 13.504 L 11.833 13.504 L 11.833 15.356 L 18.596 15.356 C 18.869 15.356 19 15.214 19 14.931 L 19 3.071 C 19 2.802 18.869 2.668 18.596 2.668 Z M 13.68 6.773 L 13.68 4.3 C 14.369 4.315 14.947 4.555 15.413 5.021 C 15.876 5.486 16.117 6.07 16.131 6.773 L 13.68 6.773 Z M 6.536 6.815 C 6.494 6.655 6.425 6.532 6.328 6.442 C 6.233 6.353 6.105 6.287 5.946 6.246 C 5.767 6.198 5.583 6.175 5.399 6.175 L 4.83 6.187 L 4.83 8.561 L 4.85 8.561 C 5.056 8.573 5.274 8.573 5.503 8.561 C 5.728 8.549 5.942 8.49 6.144 8.383 C 6.391 8.205 6.539 7.967 6.587 7.659 C 6.634 7.35 6.617 7.053 6.536 6.78 Z M 0 1.923 L 0 16.131 L 10.837 18.003 L 10.837 0 L 0 1.923 Z M 8.085 8.325 C 7.788 9.013 7.345 9.453 6.753 9.642 C 6.159 9.832 5.518 9.906 4.83 9.864 L 4.83 12.574 L 3.403 12.407 L 3.403 4.965 L 5.667 4.846 C 6.087 4.82 6.501 4.866 6.907 4.989 C 7.314 5.11 7.636 5.353 7.875 5.719 C 8.112 6.083 8.246 6.507 8.278 6.989 C 8.308 7.472 8.245 7.917 8.086 8.325 Z" style="fill: rgb(108, 108, 108);" transform="matrix(1, 0, 0, 1, 0, -2.220446049250313e-16)"/>
</svg>