<?xml version="1.0" encoding="utf-8"?>
<svg viewBox="-1.0010000467300415 -1 20 23" width="20" height="23" xmlns="http://www.w3.org/2000/svg">
  <path d="M 17.202 4.454 C 17.636 4.887 17.999 5.754 17.999 6.375 L 17.999 19.875 C 17.999 20.496 17.495 21 16.874 21 L 1.124 21 C 0.503 21 -0.001 20.496 -0.001 19.875 L -0.001 1.125 C -0.001 0.504 0.503 0 1.124 0 L 11.624 0 C 12.245 0 13.112 0.363 13.546 0.797 Z M 12 1.594 L 12 6 L 16.406 6 C 16.336 5.8 16.231 5.602 16.148 5.519 L 12.48 1.851 C 12.398 1.769 12.198 1.663 11.999 1.593 Z M 16.5 19.5 L 16.5 7.5 L 11.625 7.5 C 11.004 7.5 10.5 6.996 10.5 6.375 L 10.5 1.5 L 1.5 1.5 L 1.5 19.5 Z M 12.942 15.283 C 12.942 15.455 12.871 15.622 12.754 15.739 L 9.46 19.039 C 9.338 19.155 9.171 19.226 8.999 19.226 C 8.827 19.226 8.66 19.155 8.544 19.039 L 5.249 15.739 C 5.127 15.622 5.056 15.455 5.056 15.283 C 5.056 15.111 5.127 14.944 5.249 14.823 L 5.623 14.443 C 5.744 14.327 5.912 14.256 6.084 14.256 C 6.256 14.256 6.423 14.327 6.539 14.443 L 8.027 15.931 L 8.027 9.405 C 8.027 9.051 8.321 8.757 8.675 8.757 L 9.323 8.757 C 9.677 8.757 9.971 9.051 9.971 9.405 L 9.971 15.931 L 11.459 14.443 C 11.575 14.327 11.742 14.256 11.914 14.256 C 12.086 14.256 12.253 14.327 12.375 14.443 L 12.754 14.823 C 12.871 14.944 12.942 15.111 12.942 15.283 Z" style="fill: rgb(108, 108, 108);" transform="matrix(1, 0, 0, 1, 0, 0)"/>
  <g id="icomoon-ignore" transform="matrix(0.02024500072002411, 0, 0, 0.02024500072002411, 4.606738090515137, 11.072208404541016)"/>
</svg>