<?xml version="1.0" encoding="utf-8"?>
<svg viewBox="-1 -1 21 25.5939998626709" width="21" height="25.5939998626709" xmlns="http://www.w3.org/2000/svg">
  <path d="M 19 1.481 C 19 1.481 19 1.481 19 1.481 Z M 19 21.883 L 14.172 21.883 L 14.172 23.594 L 0 21.143 L 0 2.523 L 14.172 0 L 14.172 1.479 L 19 1.481 C 18.974 1.483 19 21.883 19 21.883 Z M 13.281 1.113 L 0.891 3.397 L 0.891 20.261 L 13.281 22.482 Z M 18.175 21.182 L 18.175 2.182 L 14.172 2.179 L 14.172 21.183 Z M 12.209 10.702 C 12.545 10.925 12.322 11.486 12.097 11.937 C 10.637 15.194 8.165 16.993 5.244 16.993 C 3.109 16.993 1.648 15.645 1.648 13.622 C 1.648 10.251 5.58 5.42 9.063 6.094 C 10.075 6.206 10.637 6.543 10.637 7.78 C 10.637 10.589 7.378 12.609 4.12 12.948 C 4.12 13.284 4.12 13.509 4.12 13.622 C 4.12 14.858 4.684 15.606 5.918 15.532 C 8.39 15.381 10.186 14.184 11.761 11.711 Z M 7.603 6.993 C 5.804 6.88 4.232 9.914 4.008 12.386 C 6.367 11.937 8.839 9.465 8.502 7.33 C 8.39 6.88 7.827 6.993 7.603 6.993 Z" style="fill: rgb(108, 108, 108);" transform="matrix(0.9999999999999999, 0, 0, 0.9999999999999999, 0, -7.105427357601002e-15)"/>
</svg>