<?xml version="1.0" encoding="utf-8"?>
<svg viewBox="-1 -1 21 20.652999877929688" width="21" height="20.652999877929688" xmlns="http://www.w3.org/2000/svg">
  <path d="M 18.646 2.282 L 12.281 2.282 L 12.281 3.46 L 14.158 3.46 L 14.158 5.324 L 12.281 5.324 L 12.281 5.918 L 14.158 5.918 L 14.158 7.783 L 12.281 7.783 L 12.281 8.396 L 14.158 8.396 L 14.158 10.159 L 12.281 10.159 L 12.281 10.865 L 14.158 10.865 L 14.158 12.635 L 12.281 12.635 L 12.281 13.341 L 14.158 13.341 L 14.158 15.12 L 12.281 15.12 L 12.281 16.417 L 18.646 16.417 C 18.745 16.388 18.83 16.269 18.897 16.063 C 18.965 15.855 19 15.688 19 15.56 L 19 2.497 C 19 2.396 18.964 2.336 18.897 2.314 C 18.83 2.293 18.745 2.282 18.646 2.282 Z M 17.821 15.119 L 14.766 15.119 L 14.766 13.341 L 17.821 13.341 L 17.821 15.12 Z M 17.821 12.633 L 14.766 12.633 L 14.766 10.864 L 17.821 10.864 L 17.821 12.633 Z M 17.821 10.158 L 14.766 10.158 L 14.766 8.401 L 17.821 8.401 L 17.821 10.159 Z M 17.821 7.782 L 14.766 7.782 L 14.766 5.919 L 17.821 5.919 L 17.821 7.783 Z M 17.821 5.313 L 14.766 5.313 L 14.766 3.461 L 17.821 3.461 L 17.821 5.325 Z M 0 1.989 L 0 16.714 L 11.209 18.653 L 11.209 0 L 0 1.995 Z M 6.644 13.127 C 6.601 13.012 6.4 12.522 6.045 11.653 C 5.688 10.785 5.475 10.28 5.411 10.137 L 5.391 10.137 L 4.19 12.998 L 2.582 12.89 L 4.489 9.327 L 2.743 5.765 L 4.381 5.679 L 5.464 8.465 L 5.486 8.465 L 6.709 5.551 L 8.401 5.445 L 6.387 9.301 L 8.464 13.233 L 6.644 13.126 Z" style="fill: rgb(108, 108, 108);" transform="matrix(1, 0, 0, 1, 0, 0)"/>
</svg>