<?xml version="1.0" encoding="utf-8"?>
<svg viewBox="-1.0010000467300415 -1 20 23" width="20" height="23" xmlns="http://www.w3.org/2000/svg">
  <path d="M 17.202 4.454 C 17.636 4.887 17.999 5.754 17.999 6.375 L 17.999 19.875 C 17.999 20.496 17.495 21 16.874 21 L 1.124 21 C 0.503 21 -0.001 20.496 -0.001 19.875 L -0.001 1.125 C -0.001 0.504 0.503 0 1.124 0 L 11.624 0 C 12.245 0 13.112 0.363 13.546 0.797 Z M 12 1.594 L 12 6 L 16.406 6 C 16.336 5.8 16.231 5.602 16.148 5.519 L 12.48 1.851 C 12.398 1.769 12.198 1.663 11.999 1.593 Z M 16.5 19.5 L 16.5 7.5 L 11.625 7.5 C 11.004 7.5 10.5 6.996 10.5 6.375 L 10.5 1.5 L 1.5 1.5 L 1.5 19.5 L 16.5 19.5 Z M 10.476 12.55 C 10.77 12.785 11.097 12.996 11.46 13.207 C 11.953 13.148 12.41 13.125 12.831 13.125 C 13.617 13.125 14.613 13.219 14.906 13.7 C 14.988 13.817 15.058 14.028 14.929 14.308 C 14.917 14.32 14.906 14.344 14.894 14.356 L 14.894 14.368 C 14.859 14.578 14.683 14.813 14.062 14.813 C 13.312 14.813 12.175 14.474 11.191 13.958 C 9.562 14.133 7.852 14.497 6.597 14.93 C 5.391 16.993 4.464 18.001 3.762 18.001 C 3.645 18.001 3.539 17.977 3.433 17.919 L 3.152 17.779 C 3.117 17.767 3.105 17.743 3.082 17.72 C 3.023 17.662 2.976 17.533 3.011 17.299 C 3.128 16.76 3.761 15.857 5.214 15.095 C 5.308 15.037 5.425 15.072 5.484 15.166 C 5.496 15.178 5.507 15.201 5.507 15.213 C 5.87 14.615 6.292 13.853 6.761 12.904 C 7.288 11.85 7.699 10.819 7.98 9.834 C 7.605 8.557 7.488 7.244 7.699 6.471 C 7.78 6.178 7.957 6.002 8.19 6.002 L 8.449 6.002 C 8.624 6.002 8.765 6.061 8.859 6.178 C 8.999 6.342 9.034 6.599 8.965 6.974 C 8.953 7.009 8.941 7.045 8.917 7.068 C 8.929 7.103 8.929 7.127 8.929 7.162 L 8.929 7.513 C 8.917 8.252 8.906 8.955 8.765 9.764 C 9.175 10.994 9.784 11.99 10.476 12.553 Z M 3.727 17.367 C 4.078 17.203 4.582 16.699 5.332 15.515 C 4.453 16.195 3.903 16.968 3.727 17.367 Z M 8.391 6.586 C 8.274 6.914 8.274 7.477 8.367 8.133 C 8.403 7.945 8.426 7.77 8.449 7.617 C 8.472 7.418 8.508 7.254 8.531 7.113 C 8.543 7.078 8.554 7.055 8.578 7.019 C 8.566 7.007 8.566 6.984 8.555 6.961 C 8.543 6.75 8.473 6.621 8.403 6.539 C 8.403 6.563 8.391 6.575 8.391 6.586 Z M 6.937 14.332 C 7.969 13.922 9.117 13.594 10.266 13.382 C 10.149 13.288 10.031 13.207 9.926 13.113 C 9.351 12.609 8.836 11.906 8.438 11.05 C 8.215 11.765 7.888 12.527 7.465 13.359 C 7.29 13.688 7.113 14.015 6.938 14.332 Z M 14.508 14.144 C 14.449 14.086 14.145 13.863 12.867 13.863 C 13.441 14.074 13.969 14.192 14.319 14.192 C 14.425 14.192 14.484 14.192 14.53 14.18 C 14.53 14.167 14.518 14.156 14.507 14.144 Z" style="fill: rgb(255, 255, 255);" transform="matrix(1, 0, 0, 1, 0, 0)"/>
</svg>