<?xml version="1.0" encoding="utf-8"?>
<svg viewBox="-1 -1 20 20" width="20" height="20" xmlns="http://www.w3.org/2000/svg">
  <path d="M 15.846 9.94 C 15.845 10.226 15.551 10.575 15.264 10.574 L 10.952 5.679 L 9.329 7.043 C 9.149 7.109 8.935 7.111 8.754 7.048 L 7.017 5.679 L 2.673 10.634 C 2.386 10.638 2.097 10.287 2.093 10 L 6.265 5.212 L 1.662 1.622 C 1.638 1.337 1.957 1.016 2.242 0.987 L 9.03 5.992 L 15.479 1.018 C 15.765 1.043 16.083 1.367 16.061 1.652 L 11.612 5.244 L 15.846 9.94 Z M 1.443 0 C 0.645 0 0 0.703 0 1.567 L 0 11.007 C 0 11.871 0.64 12.573 1.443 12.573 L 3.882 12.375 L 1.457 17.359 C 1.333 18.317 1.867 17.915 2.145 17.921 L 11.299 12.573 L 16.556 12.573 C 17.354 12.573 18 11.871 18 11.007 L 18 1.567 C 18 0.701 17.36 0 16.556 0 L 1.443 0 Z" style="fill: rgb(255, 255, 255);" transform="matrix(1, 0, 0, 1, 0, 0)"/>
</svg>