<?xml version="1.0" encoding="utf-8"?>
<svg viewBox="-1 -1 63 63" width="63" height="63" style="enable-background:new 0 0 61 61;" xmlns="http://www.w3.org/2000/svg">
  <defs>
    <style type="text/css">
	.st0{fill:#FFBF17;}
	.st1{fill:#FFFFFF;}
</style>
  </defs>
  <circle class="st0" cx="30.5" cy="30.5" r="30.5" transform="matrix(1, 0, 0, 1, 8.881784197001252e-16, 8.881784197001252e-16)"/>
  <g transform="matrix(1, 0, 0, 1, 8.881784197001252e-16, 8.881784197001252e-16)">
    <path class="st1" d="M30,17.8c-6.3,0-11.4,5-11.4,11.1c0,4,1.6,6.3,2.8,8c0.7,1.1,1.1,1.7,1.1,2.3c0,1.4,0.8,2.8,2.1,3.8&#10;&#9;&#9;c0,0.9,0.2,2.9,0.2,2.9v0c0,0.6,0.3,1.8,2.4,2.5c0.2,0.4,0.6,0.7,0.9,0.9c0.2,0.2,0.5,0.2,0.8,0.2h2.2c0.3,0,0.6-0.1,0.8-0.2&#10;&#9;&#9;c0.4-0.3,0.7-0.6,0.9-0.9c2-0.7,2.3-1.9,2.4-2.5c0,0,0.1-2.1,0.2-2.9c1.4-1,2.1-2.4,2.1-3.8c0-0.6,0.4-1.3,1.1-2.4&#10;&#9;&#9;c1.2-1.7,2.8-4.1,2.8-8C41.4,22.7,36.3,17.8,30,17.8L30,17.8z M36.3,35.3c-0.8,1.2-1.6,2.4-1.6,4c0,0.7-0.6,1.2-1.1,1.6h-7.1&#10;&#9;&#9;c-0.5-0.3-1.1-0.9-1.1-1.6c0-1.6-0.8-2.7-1.7-4c-1.1-1.6-2.3-3.3-2.3-6.4c0-4.5,3.8-8.2,8.5-8.2c4.7,0,8.5,3.7,8.5,8.2&#10;&#9;&#9;C38.6,31.9,37.3,33.7,36.3,35.3L36.3,35.3z M36.3,35.3"/>
    <path class="st1" d="M30,15.6c0.4,0,0.7-0.3,0.7-0.7v-2.2c0-0.4-0.3-0.7-0.7-0.7c-0.4,0-0.7,0.3-0.7,0.7v2.2&#10;&#9;&#9;C29.3,15.3,29.6,15.6,30,15.6L30,15.6z M30,15.6"/>
    <path class="st1" d="M22.3,17.1c0.1,0.2,0.4,0.4,0.6,0.4c0.1,0,0.2,0,0.4-0.1c0.3-0.2,0.5-0.6,0.3-1l-1.1-1.9&#10;&#9;&#9;c-0.2-0.3-0.6-0.5-1-0.3c-0.3,0.2-0.5,0.6-0.3,1L22.3,17.1z M22.3,17.1"/>
    <path class="st1" d="M18.1,21.3l-1.9-1.1c-0.3-0.2-0.8-0.1-1,0.3c-0.2,0.3-0.1,0.8,0.3,1l1.9,1.1c0.1,0.1,0.2,0.1,0.4,0.1&#10;&#9;&#9;c0.3,0,0.5-0.1,0.6-0.4C18.6,22,18.5,21.5,18.1,21.3L18.1,21.3z M18.1,21.3"/>
    <path class="st1" d="M16.6,29c0-0.4-0.3-0.7-0.7-0.7h-2.2c-0.4,0-0.7,0.3-0.7,0.7c0,0.4,0.3,0.7,0.7,0.7h2.2&#10;&#9;&#9;C16.3,29.7,16.6,29.4,16.6,29L16.6,29z M16.6,29"/>
    <path class="st1" d="M17.4,35.4l-1.9,1.1c-0.3,0.2-0.5,0.6-0.3,1c0.1,0.2,0.4,0.4,0.6,0.4c0.1,0,0.2,0,0.4-0.1l1.9-1.1&#10;&#9;&#9;c0.3-0.2,0.5-0.6,0.3-1C18.2,35.4,17.8,35.2,17.4,35.4L17.4,35.4z M17.4,35.4"/>
    <path class="st1" d="M44.5,36.5l-1.9-1.1c-0.3-0.2-0.8-0.1-1,0.3c-0.2,0.3-0.1,0.8,0.3,1l1.9,1.1c0.1,0.1,0.2,0.1,0.4,0.1&#10;&#9;&#9;c0.2,0,0.5-0.1,0.6-0.4C44.9,37.2,44.8,36.7,44.5,36.5L44.5,36.5z M44.5,36.5"/>
    <path class="st1" d="M46.3,28.3h-2.2c-0.4,0-0.7,0.3-0.7,0.7c0,0.4,0.3,0.7,0.7,0.7h2.2c0.4,0,0.7-0.3,0.7-0.7&#10;&#9;&#9;C47,28.6,46.7,28.3,46.3,28.3L46.3,28.3z M46.3,28.3"/>
    <path class="st1" d="M42.2,22.7c0.1,0,0.2,0,0.4-0.1l1.9-1.1c0.3-0.2,0.5-0.6,0.3-1c-0.2-0.3-0.6-0.5-1-0.3l-1.9,1.1&#10;&#9;&#9;c-0.3,0.2-0.5,0.6-0.3,1C41.7,22.5,42,22.7,42.2,22.7L42.2,22.7z M42.2,22.7"/>
    <path class="st1" d="M36.7,17.4c0.1,0.1,0.2,0.1,0.4,0.1c0.2,0,0.5-0.1,0.6-0.4l1.1-1.9c0.2-0.3,0.1-0.8-0.3-1&#10;&#9;&#9;c-0.3-0.2-0.8-0.1-1,0.3l-1.1,1.9C36.2,16.8,36.4,17.2,36.7,17.4L36.7,17.4z M36.7,17.4"/>
    <path class="st1" d="M29,33.4c0.1,0.6,0.4,0.8,1,0.8c0.6,0,0.9-0.2,1-0.8l0.7-5.2c0-0.4,0.1-0.7,0.1-1v-2.6c0-1.1-0.6-1.7-1.7-1.7&#10;&#9;&#9;c-1.1,0-1.7,0.6-1.7,1.7v2.6c0,0.3,0,0.7,0.1,1L29,33.4z M29,33.4"/>
    <path class="st1" d="M30,35.6c-1,0-1.8,0.8-1.8,1.8s0.8,1.8,1.8,1.8c1,0,1.8-0.8,1.8-1.8S31,35.6,30,35.6L30,35.6z M30,35.6"/>
  </g>
</svg>