<svg id="Layer_1" xmlns="http://www.w3.org/2000/svg" viewBox="0 0 100 86" fill="#ffffff" preserveAspectRatio="xMidYMid meet">
    <path d="M3.37,49.73l6.82,1.69,5.13-8.05L5.57,41a4.53,4.53,0,1,0-2.2,8.78Zm89,1.31L70,71.12,43.78,50.82A4.51,4.51,0,0,0,42.09,50l-3.5-.86-5.13,8L39,58.55l28.49,22a4.55,4.55,0,0,0,5.83-.22L98.42,57.75A4.53,4.53,0,1,0,92.33,51ZM43.34,29,67.78,44.62A4.55,4.55,0,0,0,74,43.39L99.12,7.18A4.54,4.54,0,0,0,91.64,2L69,34.64,44.41,18.9a4.57,4.57,0,0,0-6.3,1.38L.63,79.13a4.53,4.53,0,0,0,3.83,7A4.58,4.58,0,0,0,8.31,84Z"/>
</svg>