<?xml version="1.0" encoding="utf-8"?>
<svg viewBox="-1 -1 166 74" width="166" height="74" xmlns="http://www.w3.org/2000/svg">
  <defs>
    <style>.cls-1{isolation:isolate;}.cls-2{fill:#1e74a6;}.cls-3{fill:#823b8d;}.cls-4{fill:#606060;}.cls-5{fill:#00b4ba;}</style>
  </defs>
  <g class="cls-1" transform="matrix(0.16461798548698425, 0, 0, 0.16461798548698425, 0, 0)">
    <path class="cls-2" d="M0,187.60938V80.44434H24.08105v85.85449H70.083v21.31055Z"/>
    <path class="cls-2" d="M91.15283,94.62549a13.63024,13.63024,0,0,1,0-19.16406,13.86027,13.86027,0,0,1,19.2959,0,13.63024,13.63024,0,0,1,0,19.16406,13.859,13.859,0,0,1-19.2959,0Zm21.22559,92.98389H89.22314V105.12744h23.15527Z"/>
    <path class="cls-2" d="M160.54,187.60938l-32.88037-82.63525h24.08154l20.68555,51.97266,20.68506-51.97266h24.08154L184.313,187.60938Z"/>
    <path class="cls-2" d="M304.41064,175.65088a46.60078,46.60078,0,0,1-32.95752,13.18506q-18.91113,0-31.25928-11.5752-12.35229-11.57373-12.34961-31.04541,0-19.46851,12.58105-30.96924a42.59079,42.59079,0,0,1,29.71582-11.49854q17.135,0,29.09814,10.272,11.96118,10.27295,11.96387,28.20947v12.26514H250.69092a16.37664,16.37664,0,0,0,7.10059,11.03809,22.82412,22.82412,0,0,0,13.58447,4.293q12.19263,0,20.06787-8.12549Zm-22.229-48.90625a17.61389,17.61389,0,0,0-11.65479-3.98633,20.95681,20.95681,0,0,0-12.58105,4.13965,15.81259,15.81259,0,0,0-6.6377,11.19189h36.43066Q286.9646,130.73047,282.18164,126.74463Z"/>
  </g>
  <g class="cls-1" transform="matrix(0.16461798548698425, 0, 0, 0.16461798548698425, 0, 0)">
    <path class="cls-3" d="M397.60889,80.44434h24.08105v107.165H397.60889V145.44873H354.69434v42.16064H330.61328V80.44434h24.08105v44.76709h42.91455Z"/>
    <path class="cls-3" d="M521.72021,175.65088a46.60358,46.60358,0,0,1-32.958,13.18506q-18.91113,0-31.25928-11.5752-12.35229-11.57373-12.34961-31.04541,0-19.46851,12.58105-30.96924a42.59079,42.59079,0,0,1,29.71582-11.49854q17.135,0,29.09814,10.272,11.96191,10.27295,11.96387,28.20947v12.26514H468a16.37664,16.37664,0,0,0,7.10059,11.03809,22.82412,22.82412,0,0,0,13.58447,4.293q12.19336,0,20.06836-8.12549Zm-22.22949-48.90625a17.61389,17.61389,0,0,0-11.65479-3.98633,20.95682,20.95682,0,0,0-12.58105,4.13965,15.81259,15.81259,0,0,0-6.6377,11.19189h36.43115Q504.27344,130.73047,499.49072,126.74463Z"/>
    <path class="cls-3" d="M572.19678,187.60938h-23.1543V73.85205h23.1543Z"/>
    <path class="cls-3" d="M646.29248,103.74756q14.50781,0,25.85742,12.03516,11.34521,12.03735,11.3457,30.2793,0,18.24609-11.3457,30.50879-11.34668,12.26733-26.55176,12.26514a29.309,29.309,0,0,1-24.46777-12.11182v40.62793h-23.1543V105.12744h23.1543v9.19873A34.52461,34.52461,0,0,1,646.29248,103.74756Zm-25.4707,42.69775q0,10.043,5.63477,16.4043a17.59433,17.59433,0,0,0,13.66211,6.3623,18.76841,18.76841,0,0,0,14.04688-6.3623q6.02051-6.36035,6.02051-16.32764,0-9.9646-5.86621-16.71143-5.86816-6.74414-14.04687-6.74561a17.42412,17.42412,0,0,0-13.81641,6.66895Q620.81982,136.40332,620.82178,146.44531Z"/>
  </g>
  <g class="cls-1" transform="matrix(0.16461798548698425, 0, 0, 0.16461798548698425, 0, 0)">
    <path class="cls-4" d="M62.13672,304.3291a30.73772,30.73772,0,0,1-21.77686-8.54883q-9.123-8.54736-9.12158-22.36328,0-13.81348,9.52051-22.47656,9.51855-8.66162,23.20215-8.66211a31.59933,31.59933,0,0,1,23.14551,9.39844l-7.52539,9.17188q-7.86694-6.79395-15.84814-6.79395a20.072,20.072,0,0,0-13.853,5.26465,17.41162,17.41162,0,0,0-5.87158,13.58789,19.1121,19.1121,0,0,0,5.81445,14.09766,19.51834,19.51834,0,0,0,14.30908,5.77441q8.49243,0,16.01953-7.69922l7.5249,8.15234Q76.616,304.33154,62.13672,304.3291Z"/>
    <path class="cls-4" d="M149.58594,303.42383H137.95654v-8.04q-7.5249,8.94727-20.18066,8.94531-9.46509,0-15.67725-5.32129-6.21606-5.32178-6.21387-14.21094,0-8.88721,6.61279-13.30469,6.61084-4.4165,17.90039-4.416h16.53223v-2.26465q0-12.00146-13.45361-12.00293-8.439,0-17.55859,6.11523l-5.70068-7.92676a39.44384,39.44384,0,0,1,25.0835-8.71875q10.71533,0,17.50146,5.37891,6.78223,5.37891,6.78369,16.92773Zm-12.76953-22.41992v-5.0957H122.4502q-13.79663,0-13.7959,8.60547a7.6344,7.6344,0,0,0,3.42041,6.7373q3.42041,2.32178,9.52051,2.32129a17.35953,17.35953,0,0,0,10.66064-3.39648A10.84805,10.84805,0,0,0,136.81641,281.00391Z"/>
    <path class="cls-4" d="M180.14111,270.8125v32.61133H167.37158V243.18457h12.76953V254.168a23.0306,23.0306,0,0,1,20.18115-11.88965q10.26123,0,16.58936,6.22754,6.32739,6.22852,6.32764,18.00391v36.91406H210.46973V270.35938q0-16.645-13.91016-16.64453a16.77574,16.77574,0,0,0-11.51562,4.35937Q180.14038,262.43506,180.14111,270.8125Z"/>
    <path class="cls-4" d="M267.93311,304.3291a30.73772,30.73772,0,0,1-21.77686-8.54883q-9.123-8.54736-9.12158-22.36328,0-13.81348,9.52051-22.47656,9.51855-8.66162,23.20215-8.66211a31.59933,31.59933,0,0,1,23.14551,9.39844l-7.52539,9.17188q-7.86694-6.79395-15.84814-6.79395a20.072,20.072,0,0,0-13.853,5.26465,17.41163,17.41163,0,0,0-5.87158,13.58789,19.1121,19.1121,0,0,0,5.81445,14.09766,19.51834,19.51834,0,0,0,14.30908,5.77441q8.49243,0,16.01953-7.69922l7.5249,8.15234Q282.41235,304.33154,267.93311,304.3291Z"/>
    <path class="cls-4" d="M363.13525,278.85254H315.59033a13.69814,13.69814,0,0,0,6.043,10.58691,21.30237,21.30237,0,0,0,12.77,4.01953q11.39941,0,17.33008-7.13379l7.29736,7.92676q-9.80713,10.07959-25.53955,10.07715a30.50419,30.50419,0,0,1-21.72021-8.43555q-8.95239-8.43457-8.9502-22.64648,0-14.209,9.12109-22.58984a30.72922,30.72922,0,0,1,21.49219-8.37891q12.36987,0,21.03564,7.417,8.66382,7.4165,8.66553,20.43848Zm-47.54492-9.96484h34.7749q0-7.585-4.78857-11.66309a17.58174,17.58174,0,0,0-11.80078-4.07617,20.29368,20.29368,0,0,0-12.59863,4.24609A13.67751,13.67751,0,0,0,315.59033,268.8877Z"/>
    <path class="cls-4" d="M408.96924,255.07324q-9.46509,0-14.252,6.11523-4.78931,6.11426-4.78906,16.418v25.81738H377.15869V243.18457h12.76953V255.2998a26.33464,26.33464,0,0,1,8.38037-9.28516,20.29045,20.29045,0,0,1,11.23047-3.73633l.11426,12.79492Z"/>
    <path class="cls-4" d="M418.03223,301.83789a8.23694,8.23694,0,0,1-2.45166-6.001,8.05662,8.05662,0,0,1,2.45166-5.94434,8.16967,8.16967,0,0,1,5.98584-2.43457,8.366,8.366,0,0,1,6.04248,2.43457,7.97438,7.97438,0,0,1,2.50879,5.94434,8.15123,8.15123,0,0,1-2.50879,6.001,8.27,8.27,0,0,1-6.04248,2.49121A8.07769,8.07769,0,0,1,418.03223,301.83789Z"/>
    <path class="cls-4" d="M505.311,243.18457v52.53906q0,15.96533-8.72168,23.94922-8.72314,7.98193-22.40479,7.98242a39.62067,39.62067,0,0,1-24.74121-8.49219l6.043-9.625q8.89307,6.67969,17.95752,6.68066,9.06372,0,14.36572-4.64258,5.302-4.64355,5.30127-14.833V289.043a21.65758,21.65758,0,0,1-8.15137,8.49219,22.76442,22.76442,0,0,1-11.915,3.1709q-12.08643,0-19.83838-8.37891-7.75488-8.37891-7.75342-20.835,0-12.4541,7.75342-20.835,7.752-8.37744,19.78174-8.37891,12.02783,0,19.55371,9.85156v-8.94531Zm-47.31641,27.79785a18.99879,18.99879,0,0,0,4.61768,12.7959q4.61719,5.37891,12.42773,5.37793a16.485,16.485,0,0,0,12.65576-5.209,18.305,18.305,0,0,0,4.8457-12.96484,18.798,18.798,0,0,0-4.90283-13.13477,16.35043,16.35043,0,0,0-12.65576-5.37891,15.27106,15.27106,0,0,0-12.37061,5.54883A19.65192,19.65192,0,0,0,457.99463,270.98242Z"/>
    <path class="cls-4" d="M574.51807,295.32715q-9.12451,9.00293-22.80371,9.002-13.68164,0-22.80273-9.002a31.149,31.149,0,0,1,0-44.04687q9.12012-9.00146,22.80273-9.002,13.68164,0,22.80371,9.002a31.149,31.149,0,0,1,0,44.04688Zm-36.542-7.8125a19.93251,19.93251,0,0,0,27.47754,0q5.41406-5.4917,5.415-14.21094,0-8.71729-5.415-14.21094a19.93251,19.93251,0,0,0-27.47754,0q-5.417,5.49463-5.416,14.21094Q532.56006,282.02393,537.97607,287.51465Z"/>
    <path class="cls-4" d="M613.16943,303.42383,588.771,243.18457h13.22559l18.46973,45.51855,18.4707-45.51855h13.22656l-24.39941,60.23926Z"/>
    <path class="cls-4" d="M701.07568,211.59229H712.478L663.10889,316.67188H651.70654Z"/>
  </g>
  <g class="cls-1" transform="matrix(0.16461798548698425, 0, 0, 0.16461798548698425, 0, 0)">
    <path class="cls-4" d="M313.61621,388.97949H266.07129a13.6966,13.6966,0,0,0,6.043,10.58691,21.30237,21.30237,0,0,0,12.77,4.01953q11.39941,0,17.33008-7.13281l7.29736,7.92578q-9.80713,10.07959-25.53955,10.07813a30.50835,30.50835,0,0,1-21.72021-8.43555q-8.95239-8.43457-8.9502-22.64648,0-14.209,9.12109-22.58984a30.72581,30.72581,0,0,1,21.49219-8.37988q12.36987,0,21.03564,7.417,8.66382,7.418,8.66553,20.43848Zm-47.54492-9.96387h34.7749q0-7.585-4.78857-11.66406a17.58174,17.58174,0,0,0-11.80078-4.07617,20.29368,20.29368,0,0,0-12.59863,4.24609A13.6793,13.6793,0,0,0,266.07129,379.01563Z"/>
    <path class="cls-4" d="M370.85156,395.54688a16.89924,16.89924,0,0,1-6.271,13.75781q-6.27173,5.15332-16.07617,5.15234a43.30722,43.30722,0,0,1-13.73877-2.37891,41.321,41.321,0,0,1-12.59863-6.67969l6.15674-9.85156q10.60327,7.92773,20.52295,7.92578a10.75721,10.75721,0,0,0,6.84082-1.98047,6.15747,6.15747,0,0,0,2.5083-5.03906q0-4.52783-12.08545-8.15332-.91406-.33838-1.36816-.45215-18.928-5.09619-18.92676-16.98535a16.077,16.077,0,0,1,6.55566-13.418q6.55518-5.0376,17.04541-5.03906a35.63871,35.63871,0,0,1,19.83887,6.11426L364.4668,367.918a28.73087,28.73087,0,0,0-16.07617-4.86914,14.74715,14.74715,0,0,0-7.41113,1.64258,5.33313,5.33313,0,0,0-2.85059,4.92578,4.49868,4.49868,0,0,0,2.96436,4.30273,28.75569,28.75569,0,0,0,5.75781,1.9248q3.70386.90674,6.55615,1.81152,2.84839.9082,5.52979,2.03809a35.89268,35.89268,0,0,1,5.75781,3.1709Q370.85156,386.94043,370.85156,395.54688Z"/>
    <path class="cls-4" d="M417.82617,352.40527a28.93933,28.93933,0,0,1,20.86475,8.37988q8.66382,8.38037,8.665,22.30664,0,13.92773-8.60791,22.64648-8.61035,8.72021-20.06689,8.71875-11.45874,0-20.58008-9.96484v31.02539H385.33154V353.31152h12.76953V363.8418Q405.62671,352.40723,417.82617,352.40527ZM397.873,383.54492q0,8.60449,5.24512,14.09668a16.982,16.982,0,0,0,12.76953,5.49121,18.19538,18.19538,0,0,0,13.11182-5.43457q5.58545-5.436,5.58691-14.09668a19.96927,19.96927,0,0,0-5.47266-14.38086A17.52163,17.52163,0,0,0,416.002,363.502a16.80634,16.80634,0,0,0-12.88379,5.71875A20.38353,20.38353,0,0,0,397.873,383.54492Z"/>
    <path class="cls-4" d="M511.09033,413.55078H499.46045v-8.03906q-7.52344,8.9458-20.18018,8.94531-9.46509,0-15.67725-5.32227-6.21606-5.32031-6.21387-14.21094,0-8.88721,6.61279-13.30469,6.61084-4.415,17.90039-4.416h16.53271v-2.26465q0-12.00146-13.4541-12.00293-8.439,0-17.55859,6.11523l-5.70068-7.92578a39.43919,39.43919,0,0,1,25.0835-8.71973q10.71533,0,17.501,5.37891,6.78223,5.37891,6.78418,16.92871ZM498.3208,391.13086v-5.0957H483.95459q-13.79663,0-13.7959,8.60547a7.63719,7.63719,0,0,0,3.42041,6.73828q3.42041,2.32031,9.52051,2.32031a17.35953,17.35953,0,0,0,10.66064-3.39648A10.84805,10.84805,0,0,0,498.3208,391.13086Z"/>
    <path class="cls-4" d="M541.646,380.93945v32.61133H528.87646V353.31152H541.646v10.9834a23.02907,23.02907,0,0,1,20.18066-11.88965q10.26123,0,16.58887,6.22754,6.32813,6.22852,6.32813,18.00391v36.91406H571.97412V380.48633q0-16.64355-13.91016-16.64453a16.78117,16.78117,0,0,0-11.51562,4.35938Q541.644,372.562,541.646,380.93945Z"/>
    <path class="cls-4" d="M653.26709,405.45508q-9.123,9.00146-22.80273,9.002-13.68311,0-22.80371-9.002a31.14783,31.14783,0,0,1,0-44.04785q9.12012-9.00146,22.80371-9.002,13.68164,0,22.80273,9.002a31.15019,31.15019,0,0,1,0,44.04785Zm-36.543-7.81348a19.93373,19.93373,0,0,0,27.47852,0q5.41406-5.4917,5.416-14.21,0-8.71875-5.416-14.21094a19.93116,19.93116,0,0,0-27.47852,0q-5.41553,5.49316-5.415,14.21094Q611.30908,392.15039,616.72412,397.6416Z"/>
    <path class="cls-4" d="M689.63721,413.55078H676.86768V329.5332h12.76953Z"/>
  </g>
  <g id="Layer_5" data-name="Layer 5" transform="matrix(0.16461798548698425, 0, 0, 0.16461798548698425, 0, 0)">
    <path class="cls-5" d="M857.12548,0C780.32664,0,718.00626,61.83385,718.00626,138.03316a137.92663,137.92663,0,0,0,4.40649,33.85244l-.37768.37477a111.44882,111.44882,0,0,1,3.27336,35.10165,108.0255,108.0255,0,0,1-32.35617,70.07833,112.46393,112.46393,0,0,1,74.53259-21.86045,113.80165,113.80165,0,0,1,26.56489,5.37145,139.69064,139.69064,0,0,0,62.82393,14.8651c76.79885,0,139.11922-61.83385,139.11922-138.03314C996.24471,61.83385,933.92433,0,857.12548,0Zm18.75909,209.36066H845.291V181.12948h30.59362ZM905.471,112.4252a38.78033,38.78033,0,0,1-11.20511,18.86242c-8.93885,7.99471-21.15114,13.2412-18.25546,29.10565H845.41682c-2.76981-12.61661-1.259-23.48439,9.31661-31.604,6.169-4.87175,12.59-9.36877,18.00365-14.8651,4.78418-4.99667,5.2878-11.49233,1.38487-17.73819-3.651-6.12092-9.44248-8.86909-16.241-7.495-6.79862,1.24917-11.20511,5.74618-12.71592,12.61661a40.74,40.74,0,0,0-1.00718,6.74552H813.94188c.88131-6.74552.88131-13.36612,2.76981-19.487,7.30217-21.98538,32.8598-34.35214,56.9067-27.73156C896.15441,67.20528,910.88469,89.69032,905.471,112.4252Z"/>
    <path class="cls-5" d="M679.60684,288.93273l.50363-.49966c-.12595.24981-.37768.37474-.50363.49966Z"/>
  </g>
</svg>