<?xml version="1.0" encoding="utf-8"?>
<svg viewBox="-1 -1 112 112" width="112" height="112" xmlns="http://www.w3.org/2000/svg">
  <g transform="matrix(0.7834759950637817, 0, 0, 0.7834759950637817, 1.7763568394002505e-15, -1.7763568394002505e-15)">
    <g>
      <path fill="#479EBD" d="M81.4,79.7L81.4,79.7c-0.1,0-0.3-0.1-0.7-0.2c-0.8,2.5-3.4,8-10.5,8l-0.1,0l0,0c-6.8-0.2-9.8-4.3-11.2-7.8&#10;&#9;&#9;&#9;c-0.5,0.2-0.7,0.2-0.7,0.2c-8.5,2.9-14.9,8.8-17.7,16.2h59.2C96.5,88.4,89.8,82.4,81.4,79.7z"/>
    </g>
    <g>
      <g>
        <path fill="#479EBD" d="M70.2,0C31.4,0,0,31.4,0,70.2s31.4,70.2,70.2,70.2s70.2-31.4,70.2-70.2S109,0,70.2,0z M104.1,99.3&#10;&#9;&#9;&#9;&#9;c-0.4,0.5-1,0.8-1.6,0.8H37.9c-0.6,0-1.2-0.3-1.6-0.8c-0.4-0.5-0.5-1.1-0.4-1.7c2.6-10.4,11.4-18.9,23-22.1&#10;&#9;&#9;&#9;&#9;c1.9-2.1,2.6-3.4,2.9-4.1c-0.3-0.5-1.1-2-2.1-4L59,66.1l1.5,0.6c1.2,0.5,2.4,0.8,3.6,1.1l0.3,0.1l0.1,0.2&#10;&#9;&#9;&#9;&#9;c0.5,0.9,0.9,1.6,1.2,2.2c0.2,0.3,0.2,0.6,0.3,0.9c0,0.6-0.2,3-4.4,7.5c0,0.1-0.1,0.2-0.1,0.2L61.2,79l-0.1,0&#10;&#9;&#9;&#9;&#9;c1.1,2.6,4,6.4,9.1,6.4c5.6,0,7.8-4.7,8.5-6.4l-0.1,0l-0.1-0.1c-3.6-3.8-4.4-6.3-4.6-7.4c-0.1-0.5,0-1,0.3-1.4&#10;&#9;&#9;&#9;&#9;c2.3-3.5,8.2-13.4,8.2-17.7c0-0.3,0-0.7,0-1c-2.9-2-4.5-5.8-5.2-7.7c-4.4,3.6-14.3,7.8-18.6,9.5c0.2,1.9,1.2,4.7,2.8,8.3&#10;&#9;&#9;&#9;&#9;c1.8,0.9,4,1.5,6.5,1.7c0.6-0.6,1.3-0.9,2.1-0.9c1.7,0,3,1.3,3,3s-1.3,3-3,3c-0.9,0-1.7-0.4-2.3-1.1c-8.3-0.6-12.4-4.6-14.3-7.8&#10;&#9;&#9;&#9;&#9;c-2.5-0.9-3.9-2.9-3.9-5.6c0-1.4,0.5-2.7,1.4-3.7c0.6-10.2,6.9-21.1,19.5-21.1c7.2,0,11.9,3.8,14.5,7c3.3,4,5.3,9.4,5.5,14.9&#10;&#9;&#9;&#9;&#9;c0.5,0.9,0.8,1.9,0.8,2.9c0,3.7-2.6,6-6.5,6h-0.2c-2.1,5-5.3,10.2-6.4,11.8c0.3,0.6,0.9,1.9,2.6,3.8c11.6,2.9,20.6,11.2,24,22.3&#10;&#9;&#9;&#9;&#9;l0,0C104.6,98.2,104.5,98.8,104.1,99.3z"/>
      </g>
    </g>
    <g>
      <path fill="#479EBD" d="M85.9,48c-1.2-6.8-4.5-11.1-8.3-13.4c-2.1-1.2-4.6-1.9-7.4-1.9c-2.7,0-5.6,0.7-8.1,2.4&#10;&#9;&#9;&#9;c-3.4,2.4-6.2,6.6-7.2,12.9c0,0,0,0,0,0c0.6-2.5,1.8-5.1,3.7-7.2C61.2,37.5,65,35,70.3,35c5.4,0,9.2,2.4,11.7,5.7&#10;&#9;&#9;&#9;c1.9,2.1,3.1,4.6,3.7,7.2C85.8,47.9,85.9,47.9,85.9,48z"/>
    </g>
  </g>
</svg>