<?xml version="1.0" encoding="utf-8"?>
<svg viewBox="-1 -1 166 56" width="166" height="56" xmlns="http://www.w3.org/2000/svg">
  <g transform="matrix(0.2072539776563644, 0, 0, 0.20563597977161405, -1.5987211554602254e-14, -35.924598693847656)">
    <g id="Layer_5">
      <path fill="#00B4BA" d="M 680.8 174.7 C 619.8 174.7 570.3 224.2 570.3 285.2 C 570.3 294.5 571.6 303.5 573.8 312.3 L 573.5 312.6 C 575.7 321.5 576.8 330.9 576.1 340.7 C 574.6 362.8 565 382.4 550.4 396.8 C 566.8 384.6 587.5 377.8 609.6 379.3 C 617 379.9 624.1 381.4 630.7 383.6 C 645.7 391.2 662.7 395.5 680.6 395.5 C 741.6 395.5 791.1 346 791.1 285 C 791.3 224.2 741.8 174.7 680.8 174.7 Z M 695.7 342.3 C 687.5 342.3 679.7 342.3 671.4 342.3 C 671.4 334.8 671.4 327.6 671.4 319.7 C 679.3 319.7 687.2 319.7 695.7 319.7 C 695.7 327.5 695.7 334.6 695.7 342.3 Z M 719.2 264.7 C 717.9 270.1 714.5 276.1 710.3 279.8 C 703.2 286.2 693.5 290.4 695.8 303.1 C 686.8 303.1 679.3 303.1 671.5 303.1 C 669.3 293 670.5 284.3 678.9 277.8 C 683.8 273.9 688.9 270.3 693.2 265.9 C 697 261.9 697.4 256.7 694.3 251.7 C 691.4 246.8 686.8 244.6 681.4 245.7 C 676 246.7 672.5 250.3 671.3 255.8 C 670.9 257.3 670.7 259 670.5 261.2 C 663 261.2 655.5 261.2 646.5 261.2 C 647.2 255.8 647.2 250.5 648.7 245.6 C 654.5 228 674.8 218.1 693.9 223.4 C 711.8 228.5 723.5 246.5 719.2 264.7 Z"/>
      <path fill="#00B4BA" d="M 539.8 406 C 539.9 405.9 540.1 405.7 540.2 405.6 C 540.1 405.8 539.9 405.9 539.8 406 L 539.8 406 Z"/>
    </g>
    <g id="LiveHelp">
      <path fill="#1F74A6" d="M 0 326.4 L 0 240.5 L 19.2 240.5 L 19.2 309.3 L 55.6 309.3 L 55.6 326.4 L 0 326.4 L 0 326.4 Z"/>
      <path fill="#1F74A6" d="M 71.7 251.9 C 69.6 249.8 68.6 247.3 68.6 244.3 C 68.6 241.2 69.6 238.7 71.7 236.7 C 73.8 234.6 76.3 233.5 79.3 233.5 C 82.4 233.5 84.9 234.6 86.9 236.7 C 89 238.8 90 241.3 90 244.3 C 90 247.4 88.9 249.9 86.9 251.9 C 84.8 254 82.3 255.1 79.3 255.1 C 76.4 255 73.8 254 71.7 251.9 Z M 88.6 326.4 L 70.2 326.4 L 70.2 260.3 L 88.5 260.3 L 88.5 326.4 L 88.6 326.4 Z"/>
      <path fill="#1F74A6" d="M 126.2 326.4 L 100.2 260.1 L 119.4 260.1 L 135.8 301.8 L 152.2 260.1 L 171.4 260.1 L 145.3 326.4 L 126.2 326.4 Z"/>
      <path fill="#1F74A6" d="M 239.8 316.8 C 232.3 323.9 223.7 327.4 213.7 327.4 C 203.7 327.4 195.4 324.3 188.8 318.1 C 182.3 311.8 178.9 303.6 178.9 293.2 C 178.9 282.8 182.2 274.6 188.9 268.3 C 195.6 262.2 203.5 259.1 212.5 259.1 C 221.5 259.1 229.3 261.9 235.6 267.3 C 242 272.9 245 280.4 245 289.9 L 245 299.8 L 197 299.8 C 197.6 303.4 199.5 306.3 202.7 308.7 C 205.9 311.1 209.5 312.2 213.5 312.2 C 219.9 312.2 225.3 310 229.5 305.7 L 239.8 316.8 Z M 222.2 277.7 C 219.7 275.6 216.6 274.5 212.9 274.5 C 209.3 274.5 206 275.6 202.9 277.8 C 199.8 280 198.2 282.9 197.6 286.8 L 226.5 286.8 C 226.2 282.8 224.7 279.7 222.2 277.7 Z"/>
      <path fill="#833C8E" d="M 316 240.6 L 335.2 240.6 L 335.2 326.5 L 316 326.5 L 316 292.7 L 282 292.7 L 282 326.5 L 262.8 326.5 L 262.8 240.6 L 282 240.6 L 282 276.4 L 316 276.4 L 316 240.6 Z"/>
      <path fill="#833C8E" d="M 413.8 316.8 C 406.3 323.9 397.7 327.4 387.7 327.4 C 377.7 327.4 369.4 324.3 362.8 318.1 C 356.3 311.8 352.9 303.6 352.9 293.2 C 352.9 282.8 356.2 274.6 362.9 268.3 C 369.6 262.2 377.5 259.1 386.5 259.1 C 395.5 259.1 403.3 261.9 409.6 267.3 C 416 272.9 419 280.4 419 289.9 L 419 299.8 L 371 299.8 C 371.6 303.4 373.5 306.3 376.7 308.7 C 379.9 311.1 383.5 312.2 387.5 312.2 C 393.9 312.2 399.3 310 403.5 305.7 L 413.8 316.8 Z M 396.1 277.7 C 393.6 275.6 390.5 274.5 386.8 274.5 C 383.2 274.5 379.9 275.6 376.8 277.8 C 373.7 280 372.1 282.9 371.5 286.8 L 400.4 286.8 C 400.2 282.8 398.6 279.7 396.1 277.7 Z"/>
      <path fill="#833C8E" d="M 453.2 326.4 L 434.9 326.4 L 434.9 235.3 L 453.2 235.3 L 453.2 326.4 Z"/>
      <path fill="#833C8E" d="M 511.5 259.2 C 519.1 259.2 526.1 262.4 532.1 268.8 C 538.1 275.2 541.1 283.4 541.1 293.1 C 541.1 302.8 538 311 532.1 317.6 C 526.2 324.2 519 327.5 511 327.5 C 503 327.5 496.4 324.3 491.5 317.8 L 491.5 350.3 L 473.2 350.3 L 473.2 260.4 L 491.5 260.4 L 491.5 267.8 C 497.2 262.1 503.8 259.2 511.5 259.2 Z M 491.3 293.5 C 491.3 298.9 492.8 303.2 495.7 306.7 C 498.6 310 502.2 311.8 506.5 311.8 C 510.8 311.8 514.4 310.1 517.6 306.7 C 520.8 303.4 522.3 298.9 522.3 293.6 C 522.3 288.3 520.8 283.9 517.6 280.3 C 514.5 276.7 510.8 274.9 506.5 274.9 C 502.2 274.9 498.6 276.7 495.5 280.2 C 492.7 283.6 491.3 288.1 491.3 293.5 Z"/>
    </g>
    <g id="cancer.gov">
      <path fill="#606161" d="M 58.9 418.5 C 52.2 418.5 46.4 416.3 41.7 411.7 C 36.8 407.1 34.5 401.1 34.5 393.8 C 34.5 386.4 37 380.5 42 375.7 C 47 371.1 53.1 368.8 60.5 368.8 C 67.9 368.8 73.8 371.3 78.8 376.3 L 72.8 383.7 C 68.6 380.1 64.5 378.3 60.2 378.3 C 56 378.3 52.3 379.7 49.2 382.5 C 46.1 385.3 44.5 388.9 44.5 393.3 C 44.5 397.7 46 401.5 49.1 404.6 C 52.2 407.7 55.9 409.2 60.5 409.2 C 64.9 409.2 69.3 407.1 73.3 403.1 L 79.3 409.6 C 73.4 415.6 66.6 418.5 58.9 418.5 Z"/>
      <path fill="#606161" d="M 130.1 417.9 L 120.9 417.9 L 120.9 411.5 C 116.9 416.2 111.6 418.7 104.9 418.7 C 99.9 418.7 95.7 417.3 92.4 414.4 C 89.1 411.6 87.4 407.7 87.4 403 C 87.4 398.3 89.2 394.7 92.7 392.3 C 96.2 389.9 100.9 388.8 106.9 388.8 L 120 388.8 L 120 387 C 120 380.6 116.4 377.4 109.3 377.4 C 104.9 377.4 100.1 379.1 95.4 382.3 L 90.8 375.9 C 96.6 371.2 103.3 369 110.7 369 C 116.4 369 121 370.4 124.6 373.3 C 128.2 376.2 130 380.7 130 386.9 L 130 417.9 L 130.1 417.9 Z M 119.9 399.9 L 119.9 395.9 L 108.5 395.9 C 101.1 395.9 97.5 398.3 97.5 402.8 C 97.5 405.2 98.5 407 100.3 408.2 C 102.1 409.4 104.6 410 107.8 410 C 111 410 113.9 409 116.3 407.2 C 118.8 405.5 119.9 403 119.9 399.9 Z"/>
      <path fill="#606161" d="M 156.2 391.7 L 156.2 417.8 L 146 417.8 L 146 369.6 L 156.1 369.6 L 156.1 378.4 C 157.8 375.5 160 373.1 162.9 371.5 C 165.8 369.9 168.9 369 172.2 369 C 177.6 369 182.1 370.7 185.4 374 C 188.7 377.3 190.4 382.2 190.4 388.5 L 190.4 418 L 180.3 418 L 180.3 391.5 C 180.3 382.6 176.7 378.2 169.3 378.2 C 165.8 378.2 162.8 379.3 160.1 381.7 C 157.4 383.8 156.2 387.3 156.2 391.7 Z"/>
      <path fill="#606161" d="M 227.7 418.5 C 221 418.5 215.2 416.3 210.5 411.7 C 205.6 407.1 203.3 401.1 203.3 393.8 C 203.3 386.4 205.8 380.5 210.8 375.7 C 215.8 371.1 221.9 368.8 229.3 368.8 C 236.7 368.8 242.6 371.3 247.6 376.3 L 241.6 383.7 C 237.4 380.1 233.3 378.3 229 378.3 C 224.8 378.3 221.1 379.7 218 382.5 C 214.9 385.3 213.3 388.9 213.3 393.3 C 213.3 397.7 214.8 401.5 217.9 404.6 C 221 407.7 224.7 409.2 229.3 409.2 C 233.7 409.2 238.1 407.1 242.1 403.1 L 248.1 409.6 C 242 415.6 235.4 418.5 227.7 418.5 Z"/>
      <path fill="#606161" d="M 305 398.1 L 267.2 398.1 C 267.5 401.6 269 404.5 272.1 406.6 C 275 408.7 278.5 409.8 282.2 409.8 C 288.2 409.8 292.8 407.9 296 404.1 L 301.8 410.5 C 296.7 415.9 289.9 418.6 281.5 418.6 C 274.7 418.6 269 416.4 264.3 411.8 C 259.6 407.4 257.2 401.2 257.2 393.6 C 257.2 386 259.6 380 264.4 375.5 C 269.3 371.1 275 368.8 281.5 368.8 C 288 368.8 293.6 370.7 298.2 374.8 C 302.8 378.9 305.1 384.2 305.1 391.2 L 305.1 398.1 L 305 398.1 Z M 267.3 390.2 L 295 390.2 C 295 386.2 293.7 383 291.2 380.9 C 288.7 378.8 285.5 377.6 281.9 377.6 C 278.1 377.6 274.8 378.7 271.9 380.9 C 268.7 383.3 267.3 386.3 267.3 390.2 Z"/>
      <path fill="#606161" d="M 343.2 379.1 C 338.2 379.1 334.4 380.8 331.9 384 C 329.4 387.3 328.1 391.6 328.1 397.2 L 328.1 417.9 L 318 417.9 L 318 369.7 L 328.1 369.7 L 328.1 379.4 C 329.8 376.3 332 373.8 334.8 371.9 C 337.6 370 340.6 369 343.7 368.8 L 343.8 379.1 C 343.6 379.1 343.5 379.1 343.2 379.1 Z"/>
      <path fill="#606161" d="M 352.2 416.6 C 350.9 415.2 350.3 413.7 350.3 411.7 C 350.3 409.7 351 408.2 352.2 407 C 353.4 405.8 355.1 405.1 356.9 405.1 C 358.7 405.1 360.4 405.8 361.8 407 C 363.2 408.2 363.7 409.9 363.7 411.7 C 363.7 413.5 363 415.2 361.8 416.6 C 360.4 418 358.9 418.5 356.9 418.5 C 355.1 418.5 353.5 417.9 352.2 416.6 Z"/>
      <path fill="#606161" d="M 423.4 369.6 L 423.4 411.7 C 423.4 420.2 421 426.6 416.5 430.9 C 411.9 435.2 405.9 437.3 398.7 437.3 C 391.5 437.3 384.9 435.1 379.1 430.5 L 384 422.7 C 388.7 426.3 393.4 428.1 398.3 428.1 C 403.2 428.1 406.9 426.8 409.7 424.3 C 412.5 421.8 413.9 417.9 413.9 412.4 L 413.9 406.3 C 412.4 409.1 410.3 411.4 407.4 413.1 C 404.6 414.8 401.4 415.6 398 415.6 C 391.6 415.6 386.3 413.4 382.3 408.9 C 378.1 404.5 376.2 398.9 376.2 392.2 C 376.2 385.5 378.3 380 382.3 375.5 C 386.5 371.1 391.6 368.8 398 368.8 C 404.4 368.8 409.5 371.4 413.6 376.7 L 413.6 369.5 L 423.4 369.5 Z M 385.7 391.9 C 385.7 395.9 387 399.3 389.3 402.2 C 391.8 405.1 395 406.5 399.2 406.5 C 403.4 406.5 406.7 405.1 409.2 402.3 C 411.7 399.5 413.1 396 413.1 391.9 C 413.1 387.8 411.8 384.3 409.2 381.3 C 406.6 378.4 403.2 377 399.2 377 C 395 377 391.8 378.5 389.3 381.4 C 387 384.4 385.7 387.8 385.7 391.9 Z"/>
      <path fill="#606161" d="M 480.1 411.3 C 475.2 416.2 469.3 418.5 462 418.5 C 454.7 418.5 448.7 416.1 443.9 411.3 C 439 406.4 436.7 400.6 436.7 393.7 C 436.7 386.8 439.1 380.9 443.9 376.1 C 448.7 371.3 454.7 368.9 462 368.9 C 469.3 368.9 475.3 371.3 480.1 376.1 C 485 381 487.3 386.8 487.3 393.7 C 487.3 400.6 484.9 406.6 480.1 411.3 Z M 451 405.1 C 453.9 408 457.5 409.5 461.8 409.5 C 466.1 409.5 469.9 408 472.6 405.1 C 475.5 402.2 476.9 398.4 476.9 393.7 C 476.9 389 475.5 385.2 472.6 382.3 C 469.7 379.4 466.1 377.9 461.8 377.9 C 457.5 377.9 453.7 379.4 451 382.3 C 448.1 385.2 446.7 389 446.7 393.7 C 446.9 398.4 448.2 402.2 451 405.1 Z"/>
      <path fill="#606161" d="M 512.6 417.9 L 493.3 369.7 L 503.9 369.7 L 518.6 406.2 L 533.3 369.7 L 543.9 369.7 L 524.2 417.9 L 512.6 417.9 Z"/>
    </g>
  </g>
</svg>