<?xml version="1.0" encoding="utf-8"?>
<svg viewBox="-11 -1 48 20.010000228881836" width="48" height="20.010000228881836" style="enable-background:new 0 0 25 18;" xmlns="http://www.w3.org/2000/svg">
  <defs>
    <style type="text/css">
	.st0{fill:#FFFFFF;}
</style>
  </defs>
  <path class="st0" d="M 36 4 L 11 4 L 11 0 L 36 0 Z M 36 11 L 11 11 L 11 7 L 36 7 Z M 36 18.01 L 11 18.01 L 11 14.01 L 36 14.01 Z M 0.013 0.492 C 0.705 1.168 0.759 2.11 0.013 2.936 L -5.802 9.002 L 0.013 15.065 C 0.759 15.893 0.705 16.836 0.013 17.508 C -0.677 18.186 -1.845 18.142 -2.494 17.508 C -3.142 16.878 -9.479 10.222 -9.479 10.222 C -9.826 9.885 -10 9.444 -10 9.002 C -10 8.559 -9.826 8.117 -9.479 7.778 C -9.479 7.778 -3.142 1.124 -2.494 0.492 C -1.845 -0.142 -0.677 -0.186 0.013 0.492 Z" transform="matrix(1, 0, 0, 1, 0, 4.440892098500626e-16)"/>
</svg>