<?xml version="1.0" encoding="utf-8"?>
<svg viewBox="-1 -1 22 22" width="22" height="22" xmlns="http://www.w3.org/2000/svg">
  <path d="M 14.778 9.014 L 5.156 9.014 C 4.632 9.014 4.203 9.443 4.203 9.967 C 4.203 10.491 4.632 10.92 5.156 10.92 L 14.778 10.92 C 15.302 10.92 15.731 10.491 15.731 9.967 C 15.731 9.443 15.302 9.014 14.778 9.014 Z" style="fill: rgb(43, 123, 186);" transform="matrix(1, 0, 0, 1, 0, 8.881784197001252e-16)"/>
  <path d="M 10 10 M 0 10 C 0 17.687 8.334 22.491 15 18.647 C 18.095 16.864 20 13.567 20 10 C 20 2.313 11.667 -2.49 5 1.353 C 1.906 3.136 0 6.433 0 10 Z M 10 10 M 0.91 10 C 0.91 3.012 8.485 -1.355 14.545 2.139 C 17.357 3.76 19.09 6.757 19.09 10 C 19.09 16.988 11.515 21.355 5.455 17.862 C 2.643 16.24 0.91 13.244 0.91 10 Z" transform="matrix(1, 0.000017000003936118446, -0.000017000003936118446, 1, 0.00017000002844724804, -0.00017000002844724804)" style="fill: rgb(43, 123, 186);"/>
</svg>