<?xml version="1.0" encoding="utf-8"?>
<svg viewBox="-1 -1 87 87" width="87" height="87" xmlns="http://www.w3.org/2000/svg">
  <path fill="#319FBE" d="M42.5,85C19.1,85,0,65.9,0,42.5S19.1,0,42.5,0S85,19.1,85,42.5S65.9,85,42.5,85z M42.5,5&#10;&#9;C21.8,5,5,21.8,5,42.5S21.8,80,42.5,80S80,63.2,80,42.5S63.2,5,42.5,5z" transform="matrix(1, 0, 0, 1, 0, 1.7763568394002505e-15)"/>
  <path fill="#319FBE" d="M36.6,19.2h11.7v8.2l-2,23.8h-7.8l-1.9-23.8V19.2z M38.3,64.3c-1.1-1.1-1.7-2.5-1.7-4.1c0-1.6,0.6-3,1.7-4.1&#10;&#9;c1.1-1.1,2.5-1.7,4.1-1.7c1.6,0,3,0.6,4.1,1.7s1.7,2.5,1.7,4.1c0,1.6-0.6,3-1.7,4.1s-2.5,1.7-4.1,1.7C40.8,65.9,39.5,65.4,38.3,64.3&#10;&#9;z" transform="matrix(1, 0, 0, 1, 0, 1.7763568394002505e-15)"/>
</svg>