<?xml version="1.0" encoding="utf-8"?>
<svg viewBox="-1 -1 19 22" width="19" height="22" xmlns="http://www.w3.org/2000/svg">
  <g id="icomoon-ignore" transform="matrix(1, 0, 0, 1, 1.7763568394002505e-15, 6.661338147750939e-16)"/>
  <path d="M 3.4 13.043 L 13.6 13.043 L 13.6 7.826 L 3.4 7.826 L 3.4 13.043 Z M 4.25 8.696 L 12.75 8.696 L 12.75 12.174 L 4.25 12.174 L 4.25 8.696 Z M 3.4 6.087 L 13.6 6.087 L 13.6 6.957 L 3.4 6.957 Z M 3.4 13.913 L 7.65 13.913 L 7.65 14.783 L 3.4 14.783 Z M 3.4 15.652 L 5.95 15.652 L 5.95 16.522 L 3.4 16.522 Z M 6.83 15.703 L 7.68 15.703 L 7.68 16.573 L 6.83 16.573 Z M 9.35 13.913 L 13.6 13.913 L 13.6 14.783 L 9.35 14.783 Z M 9.35 15.652 L 13.6 15.652 L 13.6 16.522 L 9.35 16.522 Z M 15.3 2.609 L 15.3 1.79 C 15.3 0.783 14.452 0 12.355 0 L 2.155 0 C 0.749 0 0 1.22 0 2.66 L 0 17.442 C 0 18.881 0.749 20 2.155 20 L 14.055 20 C 15.461 20 15.3 20 17 20 L 17 2.609 L 15.3 2.609 Z M 15.3 18.261 L 2.155 18.261 C 1.686 18.261 1.7 17.921 1.7 17.442 L 1.7 2.66 C 1.7 2.181 1.686 1.739 2.155 1.739 L 13.6 1.739 L 13.6 2.609 L 3.4 2.609 L 3.4 4.348 L 15.3 4.348 L 15.3 18.261 Z" style="fill: rgb(255, 255, 255);" transform="matrix(1, 0, 0, 1, 1.7763568394002505e-15, 6.661338147750939e-16)"/>
</svg>