<?xml version="1.0" encoding="utf-8"?>
<svg viewBox="-0.9990000128746033 -1 15 14.99899959564209" width="15" height="14.99899959564209" xmlns="http://www.w3.org/2000/svg">
  <path d="M 13 10.266 C 13 10.598 12.852 11.244 12.714 11.549 C 12.52 12.002 12.003 12.297 11.588 12.528 C 11.043 12.823 10.489 12.999 9.871 12.999 C 9.012 12.999 8.236 12.648 7.451 12.362 C 6.888 12.159 6.344 11.909 5.836 11.595 C 4.267 10.626 2.374 8.733 1.404 7.164 C 1.091 6.656 0.841 6.111 0.638 5.548 C 0.352 4.764 0.001 3.988 0.001 3.129 C 0.001 2.511 0.176 1.957 0.472 1.412 C 0.703 0.997 0.998 0.48 1.45 0.286 C 1.755 0.148 2.401 0 2.734 0 C 2.798 0 2.863 0 2.928 0.028 C 3.121 0.092 3.325 0.545 3.417 0.73 C 3.712 1.256 3.998 1.792 4.303 2.309 C 4.451 2.548 4.728 2.844 4.728 3.13 C 4.728 3.694 3.057 4.516 3.057 5.014 C 3.057 5.263 3.288 5.586 3.417 5.808 C 4.349 7.488 5.513 8.652 7.193 9.584 C 7.415 9.714 7.738 9.944 7.987 9.944 C 8.486 9.944 9.307 8.273 9.871 8.273 C 10.156 8.273 10.452 8.55 10.692 8.698 C 11.209 9.003 11.745 9.289 12.271 9.584 C 12.456 9.676 12.908 9.88 12.973 10.073 C 13.001 10.138 13.001 10.203 13.001 10.267 Z" transform="matrix(0.9999999999999999, 0, 0, 0.9999999999999999, 0, -1.7763568394002505e-15)" style="fill: rgb(255, 255, 255);"/>
</svg>