<?xml version="1.0" encoding="utf-8"?>
<!-- Generator: Adobe Illustrator 24.1.3, SVG Export Plug-In . SVG Version: 6.00 Build 0)  -->
<svg version="1.1" id="Capa_1" xmlns="http://www.w3.org/2000/svg" xmlns:xlink="http://www.w3.org/1999/xlink" x="0px" y="0px"
	 viewBox="0 0 26 26" style="enable-background:new 0 0 26 26;" xml:space="preserve">
<style type="text/css">
	.st0{fill:#2B7BBA;}
</style>
<g>
	<path class="st0" d="M16.8,17.1H9.2c-0.2,0-0.3,0.1-0.3,0.3c0,0.2,0.1,0.3,0.3,0.3h7.6c0.2,0,0.3-0.1,0.3-0.3
		C17.1,17.2,17,17.1,16.8,17.1z"/>
	<path class="st0" d="M16.8,18.7H9.2c-0.2,0-0.3,0.1-0.3,0.3c0,0.2,0.1,0.3,0.3,0.3h7.6c0.2,0,0.3-0.1,0.3-0.3
		C17.1,18.8,17,18.7,16.8,18.7z"/>
	<g>
		<path class="st0" d="M19.6,8.9V3.5H6.3v5.4H3.5v10.8h1.9v1h0.9v1.9h13.3v-1.9h1v-1h1.9V8.9H19.6z M7,4.1h12v4.8H7V4.1z M19,20.6
			v1.3H7v-1.3v-5.4h12V20.6z M19.3,13.6c-0.9,0-1.6-0.7-1.6-1.6s0.7-1.6,1.6-1.6c0.9,0,1.6,0.7,1.6,1.6S20.2,13.6,19.3,13.6z"/>
		<circle class="st0" cx="19.3" cy="12.1" r="0.9"/>
	</g>
</g>
</svg>
