<?xml version="1.0" encoding="utf-8"?>
<svg viewBox="-1 -1 112 112" width="112" height="112" xmlns="http://www.w3.org/2000/svg">
  <g transform="matrix(0.7834759950637817, 0, 0, 0.7834759950637817, 0, -3.552713678800501e-15)">
    <path fill="none" d="M70.2,31.6c-21.3,0-38.7,17.3-38.7,38.7c0,21.3,17.3,38.7,38.7,38.7c21.3,0,38.7-17.3,38.7-38.7&#10;&#9;&#9;C108.9,48.9,91.5,31.6,70.2,31.6z M70.2,104.9c-19.1,0-34.7-15.6-34.7-34.7s15.6-34.7,34.7-34.7s34.7,15.6,34.7,34.7&#10;&#9;&#9;S89.3,104.9,70.2,104.9z"/>
    <path fill="#3873A5" d="M70.2,35.6c-19.1,0-34.7,15.6-34.7,34.7s15.6,34.7,34.7,34.7s34.7-15.6,34.7-34.7S89.3,35.6,70.2,35.6z&#10;&#9;&#9; M70.2,90.3c-1,0-1.8-0.8-1.8-1.8c0-1,0.8-1.8,1.8-1.8c1,0,1.8,0.8,1.8,1.8C72,89.5,71.2,90.3,70.2,90.3z M76.5,72.3l-0.3,0.3&#10;&#9;&#9;c-1.2,1.1-2.3,2.2-3.1,3.3c-1,1.3-1.4,2.5-1.4,3.9v0.9c0,0.4-0.2,0.8-0.5,1c-0.3,0.3-0.7,0.4-1.1,0.4c-0.4,0-0.8-0.2-1-0.5&#10;&#9;&#9;c-0.3-0.3-0.4-0.7-0.4-1.1v-0.9c0-2,0.7-3.9,1.9-5.7c1-1.4,2.2-2.5,3.4-3.6l0.4-0.4c2.5-2.3,4.8-4.5,4.7-8.7c0-4.9-4-9-9-9&#10;&#9;&#9;s-9,4-9,9c0,0.4-0.2,0.8-0.5,1c-0.3,0.3-0.6,0.4-1,0.4c0,0,0,0,0,0c-0.4,0-0.8-0.2-1-0.5c-0.3-0.3-0.4-0.7-0.4-1.1&#10;&#9;&#9;c0-6.6,5.4-12,12-12c6.6,0,11.9,5.3,12,12C82.2,66.5,79.3,69.7,76.5,72.3z"/>
    <path fill="#3873A5" d="M70.2,0C31.4,0,0,31.4,0,70.2s31.4,70.2,70.2,70.2s70.2-31.4,70.2-70.2S109,0,70.2,0z M70.2,108.9&#10;&#9;&#9;c-21.3,0-38.7-17.3-38.7-38.7c0-21.3,17.3-38.7,38.7-38.7c21.3,0,38.7,17.3,38.7,38.7C108.9,91.5,91.5,108.9,70.2,108.9z"/>
  </g>
</svg>