<?xml version="1.0" encoding="utf-8"?>
<svg viewBox="-1 -1 19 19" width="19" height="19" xmlns="http://www.w3.org/2000/svg">
  <path d="M 13.6 17 C 13.6 9.539 7.461 3.4 0 3.4 L 0 0 C 9.325 0 17 7.675 17 17 L 13.6 17 Z M 2.331 12.335 C 3.616 12.335 4.664 13.382 4.664 14.669 C 4.664 15.955 3.612 17 2.326 17 C 1.041 17 0 15.955 0 14.669 C 0 13.383 1.045 12.336 2.331 12.336 Z M 11.269 17 L 7.965 17 C 7.965 12.63 4.37 9.035 0 9.035 L 0 5.73 C 6.181 5.73 11.269 10.82 11.269 17 Z" style="fill: rgb(255, 255, 255);" transform="matrix(1, 0, 0, 1, 0, 0)"/>
</svg>