<?xml version="1.0" encoding="utf-8"?>
<svg viewBox="0 0 44 44" width="44" height="44" xmlns="http://www.w3.org/2000/svg" xmlns:bx="https://boxy-svg.com">
  <g id="SYMBOLS" stroke="none" stroke-width="1" fill="none" fill-rule="evenodd" transform="matrix(1.0083450078964233, 0, 0, 1.0096449851989746, 1.0000000000000004, 0.5939160585403442)" bx:origin="0.5 0.5">
    <g id="social-calendar">
      <g id="Page-1">
        <g id="Group-3">
          <mask id="mask-2" fill="white">
            <polygon id="" points="41.6523947 21.2011395 41.6523947 0.402315789 0 0.402315789 0 21.2011395 0 41.9999632 41.6523947 41.9999632" transform="matrix(1, 0, 0, 1, 0, 0)"/>
          </mask>
          <g id="Clip-2"/>
          <path d="M37.7563421,39.4080474 L20.8259211,39.4141263 L3.89605263,39.4080474 C3.1815,39.4080474 2.59736842,38.8316526 2.59736842,38.1093632 L2.59736842,26.2543105 C2.59957895,26.2532053 2.60178947,26.2521 2.60068421,26.2526526 L2.60068421,14.7949421 L39.0522632,14.7949421 L39.0522632,26.2526526 C39.0511579,26.2521 39.0528158,26.2532053 39.0550263,26.2543105 L39.0550263,38.1093632 C39.0550263,38.8316526 38.4708947,39.4080474 37.7563421,39.4080474 L37.7563421,39.4080474 Z M31.2170526,6.18881053 L31.2170526,8.30152105 C31.2170526,9.02436316 31.8011842,9.60020526 32.5157368,9.60020526 L32.5179474,9.60020526 L32.5196053,9.60020526 C33.2347105,9.60020526 33.8188421,9.02436316 33.8188421,8.30152105 L33.8188421,6.18881053 L37.7640789,6.18881053 C38.4863684,6.18881053 39.0622105,6.77238947 39.0622105,7.48749474 L39.0622105,12.1903895 L2.58963158,12.1903895 L2.58963158,7.48749474 C2.58963158,6.77238947 3.16602632,6.18881053 3.88831579,6.18881053 L7.83355263,6.18881053 L7.83355263,8.30152105 C7.83355263,9.02436316 8.41768421,9.60020526 9.13223684,9.60020526 L9.13444737,9.60020526 L9.13665789,9.60020526 C9.85121053,9.60020526 10.4353421,9.02436316 10.4353421,8.30152105 L10.4353421,6.18881053 L31.2170526,6.18881053 Z M39.2661316,3.90920526 C38.7991579,3.70970526 38.2846579,3.59917895 37.7452895,3.59917895 L33.8216053,3.59917895 L33.8216053,1.70862632 C33.8216053,1.11399474 33.4308947,0.619389474 32.8893158,0.462442105 C32.7660789,0.423757895 32.634,0.402205263 32.4969474,0.402205263 C31.7823947,0.402205263 31.1988158,0.9786 31.1988158,1.70088947 L31.1988158,3.60636316 L10.4541316,3.60636316 L10.4541316,1.70088947 C10.4541316,0.9786 9.86944737,0.402205263 9.15489474,0.402205263 C9.01784211,0.402205263 8.88631579,0.423757895 8.76252632,0.462442105 C8.2215,0.619389474 7.83078947,1.11399474 7.83078947,1.70862632 L7.83078947,3.59917895 L3.90655263,3.59917895 C3.36718421,3.59917895 2.85323684,3.70970526 2.38571053,3.90920526 C0.985894737,4.49831053 0,5.88320526 0,7.49467895 L0,38.1093632 C0,40.2530211 1.74465789,41.9976789 3.88831579,41.9976789 L14.6707105,41.9976789 C14.6701579,42.0004421 14.6707105,42.0009947 14.6723684,41.9976789 L26.9800263,41.9976789 C26.9822368,42.0009947 26.9822368,42.0004421 26.9816842,41.9976789 L37.7640789,41.9976789 C39.9082895,41.9976789 41.6523947,40.2530211 41.6523947,38.1093632 L41.6523947,7.49467895 C41.6523947,5.88320526 40.6665,4.49831053 39.2661316,3.90920526 L39.2661316,3.90920526 Z" id="Fill-1" mask="url(#mask-2)" style="fill: rgb(255, 255, 255);"/>
        </g>
        <path d="M14.4,14.4 L14.4,38.4" id="Stroke-4" stroke="#FFFFFF" stroke-width="2" style="fill: rgb(255, 255, 255);"/>
        <path d="M27.6,14.4 L27.6,38.4" id="Stroke-6" stroke="#FFFFFF" stroke-width="2" style="fill: rgb(255, 255, 255);"/>
        <path d="M26.4,23.794469 C26.0023837,23.963085 25.5753144,24.0774097 25.1275188,24.1285688 C25.5845866,23.8659872 25.9358416,23.4504506 26.1016514,22.9550432 C25.6734912,23.1983096 25.1995152,23.3747561 24.6944498,23.4697657 C24.2902884,23.0573613 23.7143175,22.8 23.0772587,22.8 C21.853866,22.8 20.8617343,23.7495743 20.8617343,24.9204897 C20.8617343,25.0870176 20.8813696,25.2488472 20.9190041,25.4038904 C19.0776425,25.3156671 17.4451795,24.4710211 16.3521438,23.188391 C16.1617898,23.5010876 16.052159,23.8654652 16.052159,24.2543782 C16.052159,24.9899198 16.4432301,25.6393263 17.0377456,26.0193649 C16.6744912,26.0084022 16.3330539,25.9128705 16.0341599,25.7541731 L16.0341599,25.7807967 C16.0341599,26.8081536 16.7983031,27.6653284 17.8117065,27.860046 C17.6257159,27.9085949 17.4299076,27.9346964 17.2280996,27.9346964 C17.0851977,27.9346964 16.9461138,27.9211236 16.8108479,27.8965882 C17.0928337,28.7391461 17.9115196,29.3520104 18.8807434,29.3692375 C18.1220544,29.9382512 17.1670118,30.2770493 16.1290642,30.2770493 C15.9501641,30.2770493 15.7739912,30.2666087 15.6,30.2472935 C16.5806777,30.8491952 17.7457098,31.2 18.9969193,31.2 C23.0718045,31.2 25.3004192,27.9691505 25.3004192,25.1663663 C25.3004192,25.0744888 25.2982375,24.9831334 25.2944195,24.8923 C25.7274885,24.5931763 26.1027423,24.2194022 26.4,23.794469" id="Fill-8" style="fill: rgb(255, 255, 255);"/>
        <path d="M4.8,24.7654217 L6.08621276,24.7654217 L6.08621276,24.1464312 L6.08621276,23.5394102 L6.08621276,23.437955 C6.08621276,22.8543029 6.10016999,21.9520359 6.50009842,21.3934626 C6.92096269,20.8018308 7.49965107,20.4 8.49490919,20.4 C10.1160956,20.4 10.8,20.6450883 10.8,20.6450883 L10.47791,22.6673518 C10.47791,22.6673518 9.94270377,22.5031996 9.44239062,22.5031996 C8.9426143,22.5031996 8.49490919,22.6924306 8.49490919,23.2230753 L8.49490919,23.437955 L8.49490919,24.1464312 L8.49490919,24.7654217 L10.5444753,24.7654217 L10.4022188,26.7398074 L8.49490919,26.7398074 L8.49490919,33.6 L6.08621276,33.6 L6.08621276,26.7398074 L4.8,26.7398074 L4.8,24.7654217" id="Fill-10" style="fill: rgb(255, 255, 255);"/>
        <path d="M32.0367385,25.3583845 L32.6507966,25.3583845 L32.651359,23.3362044 L33.3773196,21.6037487 L32.7053421,21.6037487 L32.3195876,22.8901038 L31.9287723,21.6 L31.2635426,21.6 L32.0356139,23.3372755 L32.0367385,25.3583845 Z M33.8378632,24.6493362 C33.8378632,24.799286 33.9548266,24.9208524 34.0970947,24.9208524 C34.2393627,24.9208524 34.3552015,24.799286 34.3552015,24.6493362 L34.3552015,23.2462345 C34.3552015,23.0968203 34.2393627,22.9747183 34.0970947,22.9747183 C33.9548266,22.9747183 33.8378632,23.0968203 33.8378632,23.2462345 L33.8378632,24.6493362 Z M33.3283974,23.6023653 C33.3283974,23.3490572 33.3508903,23.1514448 33.3947516,23.0089925 C33.4386129,22.8665402 33.5190253,22.7524713 33.6343018,22.6667857 C33.7490159,22.5805645 33.8963449,22.5366507 34.075164,22.5366507 C34.2258669,22.5366507 34.3546392,22.565034 34.4620431,22.6201941 C34.5716963,22.6753542 34.654358,22.7476515 34.7128397,22.8365503 C34.7713215,22.9254491 34.8118088,23.0170255 34.8337395,23.1107442 C34.8551078,23.2060694 34.8652296,23.3495928 34.8652296,23.5429209 L34.8652296,24.2096619 C34.8652296,24.4544014 34.8556701,24.6343412 34.8359888,24.7484101 C34.8157451,24.8630146 34.7730084,24.9690505 34.7072165,25.06866 C34.6419869,25.167734 34.5582006,25.2411023 34.4569822,25.2882294 C34.3535145,25.335892 34.2359888,25.35892 34.1032802,25.35892 C33.9548266,25.35892 33.8294283,25.3396407 33.7270853,25.2984046 C33.6236176,25.2582394 33.5437676,25.1971884 33.4869728,25.1157871 C33.4296157,25.0343858 33.3891284,24.9353118 33.3643861,24.8201718 C33.3396439,24.7044963 33.3283974,24.5315185 33.3283974,24.3007029 L33.3283974,23.6023653 Z M35.3015933,25.0916881 C35.3313964,25.1607721 35.3780694,25.2175388 35.4421743,25.2603816 C35.50403,25.3026888 35.5850047,25.3235747 35.6805998,25.3235747 C35.7655108,25.3235747 35.8397376,25.3021533 35.9049672,25.2577039 C35.9690722,25.212719 36.0241799,25.1463126 36.0680412,25.0579493 L36.0573571,25.2759121 L36.7090909,25.2759121 L36.7090909,22.6389379 L36.1956888,22.6389379 L36.1956888,24.6911079 C36.1956888,24.8024992 36.1000937,24.8930046 35.9825679,24.8930046 C35.8656045,24.8930046 35.769447,24.8024992 35.769447,24.6911079 L35.769447,22.6389379 L35.2346767,22.6389379 L35.2346767,24.417985 C35.2346767,24.6445163 35.2386129,24.7955372 35.2459231,24.8721187 C35.2532334,24.9476291 35.2712277,25.0209974 35.3015933,25.0916881 L35.3015933,25.0916881 Z M37.5480787,29.3823943 L37.1094658,29.385072 C37.1094658,29.401138 37.1089035,29.4198817 37.1089035,29.4413031 L37.1089035,29.6742609 C37.1089035,29.798505 37.0003749,29.8991855 36.8693533,29.8991855 L36.7833177,29.8991855 C36.6522962,29.8991855 36.5443299,29.798505 36.5443299,29.6742609 L36.5443299,29.0616088 L37.5469541,29.0616088 L37.5469541,28.7022649 C37.5469541,28.4393172 37.5396439,28.1769051 37.5171509,28.0264197 C37.4451734,27.5514002 36.7450797,27.4758898 36.3913777,27.7195582 C36.2805998,27.7950686 36.1956888,27.8968203 36.1467666,28.0339172 C36.0967198,28.1699431 36.0719775,28.3568448 36.0719775,28.5940868 L36.0719775,29.3845364 C36.0719775,30.6982037 37.7477038,30.5123731 37.5480787,29.3823943 L37.5480787,29.3823943 Z M35.7199625,29.5580498 L35.7188379,28.2320652 C35.7182755,27.7275912 35.3212746,27.4250139 34.7825679,27.8336271 L34.7853796,26.8477072 L34.2022493,26.8487783 L34.1988754,30.2504965 L34.678538,30.2435345 L34.7218369,30.0319982 C35.3353327,30.5675332 35.7210872,30.2006917 35.7199625,29.5580498 L35.7199625,29.5580498 Z M33.851359,27.7345532 L33.267104,27.7345532 L33.267104,29.3272342 C33.267104,29.5569787 33.2817245,29.6721187 33.267104,29.7128194 C33.2193065,29.8365279 33.0061856,29.967734 32.9218369,29.7262077 C32.9083411,29.684436 32.92015,29.5564432 32.92015,29.3379449 L32.9179007,27.7345532 L32.3370197,27.7345532 L32.339269,29.3122392 C32.3398313,29.554301 32.3330834,29.7347763 32.3415183,29.8172487 C32.3550141,29.9618431 32.3499531,30.1305367 32.4910965,30.2269329 C32.753702,30.4074082 33.2581068,30.2001562 33.3840675,29.9420283 L33.3829428,30.2713823 L33.8519213,30.2719179 L33.8519213,27.7345532 L33.851359,27.7345532 Z M31.7510778,30.2724534 L31.7510778,27.2900591 L32.4517338,27.2900591 L32.4517338,26.8482428 L30.5842549,26.8455651 L30.5842549,27.2804195 L31.1668229,27.2814906 L31.1668229,30.2724534 L31.7510778,30.2724534 Z M38.4,27.1336829 L38.4,29.9650563 C38.4,30.6441147 37.7814433,31.2 37.0256795,31.2 L31.3743205,31.2 C30.6185567,31.2 30,30.6441147 30,29.9650563 L30,27.1336829 C30,26.4546246 30.6185567,25.8987393 31.3743205,25.8987393 L37.0256795,25.8987393 C37.7814433,25.8987393 38.4,26.4546246 38.4,27.1336829 L38.4,27.1336829 Z M35.0299906,27.9659043 C34.8899719,27.9659043 34.7752577,28.0564097 34.7752577,28.1661944 L34.7752577,29.6539105 C34.7752577,29.7642307 34.8899719,29.8536651 35.0299906,29.8536651 C35.171134,29.8536651 35.2858482,29.7642307 35.2858482,29.6539105 L35.2858482,28.1661944 C35.2858482,28.0564097 35.171134,27.9659043 35.0299906,27.9659043 L35.0299906,27.9659043 Z M37.1060918,28.6219346 L36.5522024,28.6219346 L36.5550141,28.3161441 C36.5550141,28.1801183 36.6719775,28.068727 36.8153702,28.068727 L36.851359,28.068727 C36.993627,28.068727 37.1111528,28.1801183 37.1111528,28.3161441 L37.1060918,28.6219346 Z" id="Fill-12" style="fill: rgb(255, 255, 255);"/>
      </g>
    </g>
  </g>
</svg>