<?xml version="1.0" encoding="utf-8"?>
<svg viewBox="0 0 24 24" width="24" height="24" xmlns="http://www.w3.org/2000/svg" xmlns:bx="https://boxy-svg.com">
  <circle cx="12" cy="12" r="10" style="fill: rgb(255, 255, 255);" transform="matrix(1, 0, 0, 1, -3.552713678800501e-15, 0)" bx:origin="0.45 0.45"/>
  <path d="M 13.746 8.5 C 13.448 8.802 13.034 8.825 12.671 8.5 L 10.006 5.957 L 7.341 8.5 C 6.978 8.825 6.563 8.802 6.268 8.5 C 5.971 8.197 5.99 7.687 6.268 7.403 C 6.545 7.12 9.469 4.348 9.469 4.348 C 9.617 4.197 9.811 4.121 10.006 4.121 C 10.201 4.121 10.394 4.197 10.545 4.348 C 10.545 4.348 13.467 7.12 13.746 7.403 C 14.023 7.687 14.043 8.197 13.746 8.5 Z" transform="matrix(-1, 0, 0, -1, 22.00670051574707, 22.001556396484375)" bx:origin="0.626 1.491"/>
</svg>