<?xml version="1.0" encoding="utf-8"?>
<svg viewBox="0 0 24 24" width="24" height="24" xmlns="http://www.w3.org/2000/svg" xmlns:bx="https://boxy-svg.com">
  <circle cx="12" cy="12" r="10" style="fill: rgb(255, 255, 255);" transform="matrix(1, 0, 0, 1, 0, 0)"/>
  <path d="M 15.739 10.497 C 15.441 10.799 15.027 10.822 14.664 10.497 L 12 7.953 L 9.334 10.497 C 8.971 10.822 8.556 10.799 8.261 10.497 C 7.964 10.194 7.984 9.684 8.261 9.4 C 8.538 9.117 11.462 6.345 11.462 6.345 C 11.611 6.194 11.804 6.119 12 6.119 C 12.194 6.119 12.387 6.194 12.538 6.345 C 12.538 6.345 15.46 9.117 15.739 9.4 C 16.017 9.684 16.036 10.194 15.739 10.497 Z" transform="matrix(1, 0, 0, 1, 0, 0)" bx:origin="0.5 0"/>
  <path d="M 15.739 22.26 C 15.442 22.562 15.027 22.585 14.664 22.26 L 12 19.716 L 9.335 22.26 C 8.971 22.585 8.556 22.562 8.262 22.26 C 7.964 21.957 7.984 21.447 8.262 21.163 C 8.538 20.88 11.463 18.108 11.463 18.108 C 11.611 17.957 11.805 17.882 12 17.882 C 12.194 17.882 12.388 17.957 12.538 18.108 C 12.538 18.108 15.461 20.88 15.739 21.163 C 16.017 21.447 16.036 21.957 15.739 22.26 Z" transform="matrix(-1, 0, 0, -1, 24.00061988830566, 35.76399612426758)" bx:origin="0.5 0"/>
</svg>