<?xml version="1.0" encoding="utf-8"?>
<svg viewBox="0 0 172 60.25">
<path fill="#2DA9D1"
d="M2.75 2.234h164.734v39.054H2.75z"/><g fill="#FFF" ><path d="M59.147 16.759v10.638h-2.124V16.759h-3.816v-1.944h9.756v1.944h-3.816zM68.291 27.397h-2.304l-3.312-9.576h2.088l2.376 7.236 2.376-7.236h2.088l2.376 7.236 2.376-7.236h2.088l-3.312 9.576h-2.304l-2.268-6.552-2.268 6.552zM89.135 23.49h-7.506c.048.696.366 1.258.954 1.684s1.26.639 2.016.639c1.2 0 2.112-.378 2.736-1.134l1.152 1.26c-1.032 1.068-2.376 1.602-4.032 1.602-1.345 0-2.487-.446-3.43-1.341-.942-.894-1.413-2.094-1.413-3.6s.479-2.703 1.44-3.591c.96-.889 2.091-1.332 3.394-1.332 1.302 0 2.408.393 3.32 1.179s1.368 1.869 1.368 3.249v1.385zm-7.506-1.583h5.49c0-.804-.252-1.422-.756-1.854-.505-.433-1.125-.648-1.863-.648s-1.401.226-1.989.675c-.588.45-.882 1.059-.882 1.827zM100.259 23.49h-7.506c.048.696.366 1.258.954 1.684s1.26.639 2.016.639c1.2 0 2.112-.378 2.736-1.134l1.152 1.26c-1.032 1.068-2.376 1.602-4.032 1.602-1.345 0-2.487-.446-3.43-1.341-.941-.894-1.412-2.094-1.412-3.6s.479-2.703 1.439-3.591c.96-.889 2.091-1.332 3.394-1.332 1.302 0 2.408.393 3.32 1.179s1.368 1.869 1.368 3.249v1.385zm-7.506-1.583h5.49c0-.804-.252-1.422-.756-1.854-.505-.433-1.125-.648-1.863-.648s-1.401.226-1.989.675c-.588.45-.882 1.059-.882 1.827zM104.885 19.441v4.86c0 .456.12.818.359 1.089.24.27.576.405 1.009.405.432 0 .846-.21 1.241-.631l.828 1.423c-.708.636-1.491.953-2.349.953-.858 0-1.59-.297-2.196-.891-.605-.594-.909-1.395-.909-2.403V19.44h-1.205v-1.62h1.205v-3.006h2.017v3.006h2.52v1.62h-2.52zM119.896 16.759v10.638h-2.124V16.759h-3.816v-1.944h9.757v1.944h-3.817zM127.654 22.213v5.184h-2.016V14.059h2.016v5.508c.288-.588.724-1.05 1.306-1.386s1.209-.504 1.881-.504c1.08 0 1.953.33 2.619.989.666.66.999 1.614.999 2.862v5.868h-2.017V22.14c0-1.764-.731-2.646-2.195-2.646-.696 0-1.303.231-1.818.693-.517.463-.775 1.137-.775 2.026zM137.393 15.912c-.252-.252-.378-.552-.378-.899s.126-.648.378-.9.552-.378.9-.378.647.126.899.378.378.553.378.9-.126.647-.378.899-.552.378-.899.378c-.349 0-.648-.126-.9-.378zm1.889 11.485h-2.016v-9.576h2.016v9.576zM149.02 24.534c0 .912-.33 1.642-.99 2.188s-1.506.818-2.538.818c-.696 0-1.419-.126-2.169-.378s-1.413-.605-1.989-1.062l.973-1.566c1.115.841 2.195 1.261 3.239 1.261.456 0 .816-.105 1.08-.315s.396-.477.396-.801c0-.48-.637-.912-1.908-1.296a2.036 2.036 0 0 0-.216-.072c-1.992-.54-2.988-1.44-2.988-2.7 0-.888.345-1.599 1.035-2.133.689-.534 1.587-.801 2.691-.801 1.104 0 2.147.323 3.132.972l-.756 1.494a4.513 4.513 0 0 0-2.538-.774c-.48 0-.87.088-1.17.262a.847.847 0 0 0-.45.782c0 .312.155.54.468.685.216.107.519.21.909.306.39.097.734.192 1.035.288.3.097.591.204.873.324.281.12.585.288.908.504.649.43.973 1.103.973 2.014z" /></g>
<path fill="#1E6881" d="M152.016 41.247l15.468.009.009 15.469z"/><path fill="#FFF"
d="M40.406 13.517c-.922.409-1.915.686-2.955.81a5.175 5.175 0 0 0 2.264-2.847 10.315 10.315 0 0 1-3.269 1.248 5.139 5.139 0 0 0-3.758-1.625 5.146 5.146 0 0 0-5.146 5.146c0 .403.045.797.133 1.174a14.61 14.61 0 0 1-10.608-5.379 5.118 5.118 0 0 0-.697 2.588c0 1.786.909 3.362 2.288 4.284a5.117 5.117 0 0 1-2.331-.645v.066a5.15 5.15 0 0 0 4.129 5.045 5.129 5.129 0 0 1-2.324.09 5.153 5.153 0 0 0 4.809 3.574 10.325 10.325 0 0 1-6.393 2.202c-.416 0-.827-.023-1.228-.071a14.565 14.565 0 0 0 7.888 2.313c9.467 0 14.645-7.843 14.645-14.644 0-.223-.006-.444-.015-.665a10.44 10.44 0 0 0 2.568-2.664z" />
</svg>