<?xml version="1.0" encoding="utf-8"?>
<!-- Generator: Adobe Illustrator 24.1.3, SVG Export Plug-In . SVG Version: 6.00 Build 0)  -->
<svg version="1.1" id="Layer_1" xmlns="http://www.w3.org/2000/svg" xmlns:xlink="http://www.w3.org/1999/xlink" x="0px" y="0px"
	 viewBox="0 0 26 26" style="enable-background:new 0 0 26 26;" xml:space="preserve">
<style type="text/css">
	.st0{fill:#2B7BBA;}
</style>
<path class="st0" d="M20.5,11.1c0,0.2,0,0.3,0,0.5c0,5.1-3.9,11.1-11.1,11.1c-2.2,0-4.3-0.6-6-1.7c0.3,0,0.6,0,0.9,0
	c1.8,0,3.5-0.6,4.8-1.7c-1.7,0-3.1-1.2-3.6-2.7c0.2,0,0.5,0.1,0.7,0.1c0.3,0,0.7,0,1-0.1c-1.8-0.4-3.1-1.9-3.1-3.8l0,0
	C4.8,13,5.4,13.2,6,13.2c-1-0.7-1.7-1.9-1.7-3.2c0-0.7,0.2-1.4,0.5-2c1.9,2.4,4.8,3.9,8,4.1c-0.1-0.3-0.1-0.6-0.1-0.9
	c0-2.1,1.7-3.9,3.9-3.9c1.1,0,2.1,0.5,2.8,1.2c1-0.2,1.8-0.5,2.6-0.9c-0.3,0.9-0.9,1.7-1.7,2.1c0.8-0.1,1.5-0.3,2.2-0.6
	C22,9.9,21.3,10.6,20.5,11.1L20.5,11.1z"/>
</svg>
