<?xml version="1.0" encoding="utf-8"?>
<svg viewBox="-1 -1 28 21" width="28" height="21" xmlns="http://www.w3.org/2000/svg">
  <path d="M 12.002 2.522 L 12.002 18.956 C 12.002 19.484 11.547 19.922 11 19.922 C 10.734 19.922 10.484 19.817 10.297 19.635 L 5.094 14.607 L 0.998 14.607 C 0.451 14.607 0 14.168 0 13.64 L 0 7.841 C 0 7.31 0.451 6.871 0.998 6.871 L 5.094 6.871 L 10.297 1.843 C 10.484 1.662 10.735 1.556 11 1.556 C 11.547 1.556 12.002 1.994 12.002 2.522 Z M 17.999 10.739 C 17.999 12.25 17.048 13.713 15.578 14.29 C 15.452 14.35 15.312 14.363 15.186 14.363 C 14.64 14.363 14.188 13.94 14.188 13.397 C 14.188 12.249 15.999 12.566 15.999 10.739 C 15.999 8.912 14.188 9.228 14.188 8.081 C 14.188 7.538 14.64 7.115 15.186 7.115 C 15.312 7.115 15.452 7.129 15.578 7.191 C 17.048 7.748 17.999 9.228 17.999 10.739 Z M 22 10.739 C 22 13.806 20.095 16.661 17.156 17.854 C 17.031 17.897 16.892 17.93 16.766 17.93 C 16.202 17.93 15.75 17.491 15.75 16.961 C 15.75 16.538 15.998 16.252 16.358 16.07 C 16.779 15.859 17.169 15.678 17.547 15.407 C 19.093 14.319 19.998 12.581 19.998 10.738 C 19.998 8.895 19.093 7.157 17.547 6.069 C 17.17 5.799 16.779 5.617 16.358 5.406 C 15.998 5.225 15.75 4.938 15.75 4.516 C 15.75 3.985 16.201 3.546 16.748 3.546 C 16.892 3.546 17.03 3.579 17.155 3.622 C 20.094 4.815 21.999 7.672 21.999 10.737 Z M 26 10.739 C 26 15.375 23.141 19.576 18.736 21.402 C 18.61 21.448 18.467 21.478 18.328 21.478 C 17.782 21.478 17.327 21.04 17.327 20.512 C 17.327 20.073 17.56 19.833 17.937 19.621 C 18.155 19.499 18.406 19.424 18.64 19.302 C 19.079 19.078 19.516 18.82 19.921 18.533 C 22.484 16.703 23.999 13.821 23.999 10.739 C 23.999 7.66 22.484 4.774 19.921 2.945 C 19.516 2.658 19.078 2.401 18.64 2.176 C 18.406 2.054 18.155 1.979 17.937 1.857 C 17.56 1.645 17.327 1.405 17.327 0.966 C 17.327 0.438 17.782 0 18.328 0 C 18.468 0 18.61 0.03 18.736 0.076 C 23.14 1.903 26 6.103 26 10.739 Z" style="fill: rgb(255, 255, 255);"/>
</svg>