<?xml version="1.0" encoding="UTF-8" standalone="no"?>
<svg width="150px" height="150px" viewBox="0 0 150 150" version="1.1" xmlns="http://www.w3.org/2000/svg" xmlns:xlink="http://www.w3.org/1999/xlink">
    <!-- Generator: Sketch 46.2 (44496) - http://www.bohemiancoding.com/sketch -->
    <title>linkedin-circle-icon</title>
    <desc>Created with Sketch.</desc>
    <defs>
        <circle id="path-1" cx="75" cy="75" r="75"></circle>
        <polygon id="path-3" points="51.5293 102.882 0 102.882 0 0 51.5293 0 103.0586 0 103.0586 102.882"></polygon>
    </defs>
    <g id="COMPS" stroke="none" stroke-width="1" fill="none" fill-rule="evenodd">
        <g id="Desktop-HD---1441" transform="translate(-798.000000, -1548.000000)">
            <g id="SOCIAL-MEDIA-ROW" transform="translate(121.000000, 1466.000000)">
                <g id="LinkedIN" transform="translate(608.000000, 52.000000)">
                    <g id="linkedin-circle-icon" transform="translate(69.000000, 30.000000)">
                        <g id="LinkedIn">
                            <mask id="mask-2" fill="white">
                                <use xlink:href="#path-1"></use>
                            </mask>
                            <use id="Mask" fill="#0077B5" xlink:href="#path-1"></use>
                            <g id="Page-1" mask="url(#mask-2)">
                                <g transform="translate(23.000000, 23.000000)">
                                    <mask id="mask-4" fill="white">
                                        <use xlink:href="#path-3"></use>
                                    </mask>
                                    <g id="Clip-2" stroke="none" fill="none"></g>
                                    <path d="M88.9728733,89.8458277 L73.6527459,89.8458277 L73.6527459,65.8586023 C73.6527459,60.1358055 73.5479512,52.7786416 65.6869113,52.7786416 C57.7081568,52.7786416 56.4865087,59.0103389 56.4865087,65.4444479 L56.4865087,89.8458277 L41.1670991,89.8458277 L41.1670991,40.5198122 L55.8742492,40.5198122 L55.8742492,47.2596921 L56.0780964,47.2596921 C58.1237469,43.3815695 63.124465,39.2924219 70.5828347,39.2924219 C86.1068094,39.2924219 88.9728733,49.508472 88.9728733,62.7894089 L88.9728733,89.8458277 Z M23.890325,33.7770612 C18.9771751,33.7770612 15,29.7934262 15,24.8860184 C15,19.9829173 18.9771751,16 23.890325,16 C28.7919906,16 32.7749079,19.9829173 32.7749079,24.8860184 C32.7749079,29.7934262 28.7919906,33.7770612 23.890325,33.7770612 L23.890325,33.7770612 Z M16.2223659,89.8458277 L31.5525421,89.8458277 L31.5525421,40.5198122 L16.2223659,40.5198122 L16.2223659,89.8458277 Z" id="Fill-1" stroke="none" fill="#FEFEFE" fill-rule="evenodd" mask="url(#mask-4)"></path>
                                </g>
                            </g>
                        </g>
                    </g>
                </g>
            </g>
        </g>
    </g>
</svg>