<svg xmlns="http://www.w3.org/2000/svg" viewBox="0 0 150 150"><style>.st3{fill-rule:evenodd;clip-rule:evenodd;fill:#fff}</style><g id="Layer_1"><g id="HOMEPAGE"><g id="Annotated-Homepage---Desktop" transform="translate(-493 -1641)"><g id="SOCIAL-MEDIA-ROW" transform="translate(121 1559)"><g id="Facebook" transform="translate(303 52)"><g id="facebook-circle-icon" transform="translate(69 30)"><circle cx="75" cy="75" r="75" fill-rule="evenodd" clip-rule="evenodd" fill="#91b992" id="Mask"/></g></g></g></g></g><path class="st3" d="M98.7 50.9c0-1.8-.7-3.4-1.9-4.7l-6.2-6.3c-1.2-1.2-3-1.9-4.7-1.9h-.4v13.3h13.3l-.1-.4z"/><path class="st3" d="M93.1 93l-6.8 2.3-1 .1c-1.7 0-3.3-.8-4.4-2.2-1-1.4-1.3-3.2-.7-4.8l2-6.1c.4-1.2 1.1-2.4 2.1-3.3l14.5-14.4v-9.3H83.7c-1.2 0-2.1-1-2.1-2.1V38H49.4c-3.5 0-6.4 2.9-6.4 6.4v60.2c0 3.5 2.9 6.4 6.4 6.4h42.8c3.5 0 6.5-2.9 6.5-6.4v-16l-2.4 2.3c-.9 1-2 1.6-3.2 2.1M53.7 59.4h30c1.2 0 2.1 1 2.1 2.1 0 1.2-1 2.1-2.1 2.1h-30c-1.2 0-2.1-1-2.1-2.1 0-1.2.9-2.1 2.1-2.1m0 8.5h21.4c1.2 0 2.1 1 2.1 2.1s-1 2.1-2.1 2.1H53.7c-1.2 0-2.1-1-2.1-2.1s.9-2.1 2.1-2.1m0 8.6h21.4c1.2 0 2.1 1 2.1 2.1s-1 2.1-2.1 2.1H53.7c-1.2 0-2.1-1-2.1-2.1s.9-2.1 2.1-2.1m-2.1 10.7c0-1.2 1-2.1 2.1-2.1h21.4c1.2 0 2.1 1 2.1 2.1s-1 2.1-2.1 2.1H53.7c-1.2 0-2.1-.9-2.1-2.1m32.1 15H70.8c-1.2 0-2.1-1-2.1-2.1 0-1.2 1-2.1 2.1-2.1h12.9c1.2 0 2.1 1 2.1 2.1s-.9 2.1-2.1 2.1"/><path class="st3" d="M85.5 91l5.3-1.8-4.8-4.7-1.8 5.3c-.3.7.5 1.5 1.3 1.2M88.1 79.8l6 6L108 71.9l-6-6-13.9 13.9zM114.7 60.5c-.8-.8-1.9-1.2-3.1-1.2-1.2 0-2.3.4-3.1 1.2l-3.2 3.2 6.2 6.2 3.2-3.2c1.7-1.7 1.7-4.5 0-6.2M114.7 65.9"/></g></svg>