<?xml version="1.0" standalone="no"?>
<!DOCTYPE svg PUBLIC "-//W3C//DTD SVG 20010904//EN"
 "http://www.w3.org/TR/2001/REC-SVG-20010904/DTD/svg10.dtd">
<svg version="1.0" xmlns="http://www.w3.org/2000/svg"
 width="16.000000pt" height="16.000000pt" viewBox="0 0 16.000000 16.000000"
 preserveAspectRatio="xMidYMid meet">
<metadata>
Created by potrace 1.11, written by Peter Selinger 2001-2013
</metadata>
<g transform="translate(0.000000,16.000000) scale(0.002721,-0.002721)"
fill="#000000" stroke="none">
<path d="M584 5415 c-74 -22 -124 -45 -206 -95 -162 -98 -312 -329 -335 -514
-4 -28 -7 -895 -7 -1926 -1 -1566 1 -1882 13 -1915 42 -124 107 -228 202 -325
137 -140 284 -223 433 -246 30 -4 2136 -8 2459 -5 39 1 49 5 57 24 6 12 14 29
20 37 10 15 156 279 225 405 37 68 112 204 152 275 22 39 64 115 113 205 18
33 49 89 70 125 21 36 51 91 69 123 31 57 72 132 119 217 14 25 78 140 142
255 64 116 134 242 155 280 21 39 100 182 177 318 76 137 138 255 138 263 0 9
-12 36 -27 62 -14 26 -42 76 -61 112 -19 36 -49 90 -67 120 -18 30 -74 132
-125 225 -51 94 -102 186 -113 205 -11 19 -33 60 -50 90 -16 30 -38 69 -47 85
-10 17 -29 50 -42 75 -33 60 -87 160 -168 305 -37 66 -82 147 -100 180 -57
105 -281 508 -307 555 -14 25 -37 65 -50 89 -13 24 -36 65 -50 90 -14 25 -41
75 -60 111 -20 36 -56 100 -80 143 l-45 77 -1262 -1 -1261 0 -81 -24z"/>
<path d="M3796 5408 c9 -18 36 -67 59 -108 39 -70 72 -129 133 -240 14 -25 57
-104 97 -175 40 -72 87 -157 105 -190 17 -32 76 -138 129 -234 54 -97 149
-268 211 -381 62 -113 154 -279 205 -370 50 -91 109 -196 130 -235 20 -38 45
-83 55 -100 9 -16 31 -55 47 -85 17 -30 42 -76 56 -101 37 -66 115 -209 133
-245 l16 -30 -157 -285 c-87 -156 -190 -342 -230 -414 -40 -71 -120 -215 -177
-320 -58 -104 -221 -399 -363 -655 -142 -256 -270 -487 -285 -515 -15 -27 -62
-111 -104 -187 -42 -75 -76 -140 -76 -145 0 -7 169 -8 359 -2 88 3 195 33 256
71 169 108 204 147 328 374 54 98 102 186 107 194 5 8 42 76 83 150 111 203
133 243 215 390 103 184 101 180 172 310 35 63 72 131 83 150 11 19 38 69 60
110 22 41 51 92 64 112 13 21 23 39 23 41 0 2 28 53 61 113 34 60 76 136 94
169 71 129 84 153 135 244 l53 94 -26 51 c-15 28 -39 74 -55 101 -16 28 -42
75 -59 105 -30 54 -241 437 -343 620 -65 118 -82 148 -212 385 -58 105 -161
291 -230 415 -69 124 -138 250 -155 280 -16 30 -39 71 -50 90 -11 19 -41 75
-67 123 -100 184 -268 312 -455 347 -29 5 -141 10 -248 10 l-194 0 17 -32z"/>
</g>
</svg>
