<svg id="Layer_1" xmlns="http://www.w3.org/2000/svg" xmlns:xlink="http://www.w3.org/1999/xlink" viewBox="0 0 150 150"><style>.st1{fill-rule:evenodd;clip-rule:evenodd;fill:#fff}</style><g id="HOMEPAGE"><g id="Annotated-Homepage---Desktop" transform="translate(-798 -1641)"><g id="SOCIAL-MEDIA-ROW" transform="translate(121 1559)"><g id="LinkedIN" transform="translate(608 52)"><g id="linkedin-circle-icon" transform="translate(69 30)"><g id="LinkedIn"><circle cx="75" cy="75" r="75" fill-rule="evenodd" clip-rule="evenodd" fill="#4b734c" id="Mask"/></g></g></g></g></g></g><path class="st1" d="M64.5 76c0-1-.8-1.8-1.8-1.8h-6.2c-1 0-1.8.8-1.8 1.8v6.2c0 1 .8 1.8 1.8 1.8h6.2c1 0 1.8-.8 1.8-1.8V76zM79.8 76c0-1-.8-1.8-1.8-1.8h-6.2c-1 0-1.8.8-1.8 1.8v6.2c0 1 .8 1.8 1.8 1.8H78c1 0 1.8-.8 1.8-1.8V76zM95.2 76c0-1-.8-1.8-1.8-1.8h-6.2c-1 0-1.8.8-1.8 1.8v6.2c0 1 .8 1.8 1.8 1.8h6.2c1 0 1.8-.8 1.8-1.8V76zM64.5 91.4c0-1-.8-1.8-1.8-1.8h-6.2c-1 0-1.8.8-1.8 1.8v6.2c0 1 .8 1.8 1.8 1.8h6.2c1 0 1.8-.8 1.8-1.8v-6.2zM79.8 91.4c0-1-.8-1.8-1.8-1.8h-6.2c-1 0-1.8.8-1.8 1.8v6.2c0 1 .8 1.8 1.8 1.8H78c1 0 1.8-.8 1.8-1.8v-6.2zM95.2 91.4c0-1-.8-1.8-1.8-1.8h-6.2c-1 0-1.8.8-1.8 1.8v6.2c0 1 .8 1.8 1.8 1.8h6.2c1 0 1.8-.8 1.8-1.8v-6.2z"/><path id="SVGID_19_" class="st1" d="M106.2 41.8v9.4c0 4.2-3.4 7.7-7.7 7.7h-4.9c-4.2 0-7.7-3.4-7.7-7.7v-9.4H64.1v9.4c0 4.2-3.5 7.7-7.7 7.7h-4.9c-4.2 0-7.7-3.4-7.7-7.7v-9.4c-3.7.1-6.8 3.2-6.8 7v55.1c0 3.8 3.1 7 7 7h62c3.8 0 7-3.2 7-7V48.8c0-3.8-3.1-6.9-6.8-7zm-2.2 58.6c0 1.7-1.3 3-3 3H49c-1.7 0-3-1.3-3-3V72c0-1.7 1.3-3 3-3h52c1.7 0 3 1.3 3 3v28.4z"/><defs><path id="SVGID_1_" d="M106.2 41.8v9.4c0 4.2-3.4 7.7-7.7 7.7h-4.9c-4.2 0-7.7-3.4-7.7-7.7v-9.4H64.1v9.4c0 4.2-3.5 7.7-7.7 7.7h-4.9c-4.2 0-7.7-3.4-7.7-7.7v-9.4c-3.7.1-6.8 3.2-6.8 7v55.1c0 3.8 3.1 7 7 7h62c3.8 0 7-3.2 7-7V48.8c0-3.8-3.1-6.9-6.8-7zm-2.2 58.6c0 1.7-1.3 3-3 3H49c-1.7 0-3-1.3-3-3V72c0-1.7 1.3-3 3-3h52c1.7 0 3 1.3 3 3v28.4z"/></defs><clipPath id="SVGID_2_"><use xlink:href="#SVGID_1_" overflow="visible"/></clipPath><path class="st1" d="M51.5 53.8h4.8c1.5 0 2.6-1.2 2.6-2.6V35.8c0-1.5-1.2-2.6-2.6-2.6h-4.8c-1.5 0-2.6 1.2-2.6 2.6v15.4c-.1 1.5 1.1 2.6 2.6 2.6M93.6 53.8h4.8c1.5 0 2.6-1.2 2.6-2.6V35.8c0-1.5-1.2-2.6-2.6-2.6h-4.8c-1.5 0-2.6 1.2-2.6 2.6v15.4c0 1.5 1.2 2.6 2.6 2.6"/></svg>