<?xml version="1.0" encoding="UTF-8" standalone="no"?>
<svg width="150px" height="150px" viewBox="0 0 150 150" version="1.1" xmlns="http://www.w3.org/2000/svg" xmlns:xlink="http://www.w3.org/1999/xlink">
    <!-- Generator: Sketch 46.2 (44496) - http://www.bohemiancoding.com/sketch -->
    <title>instagram-circle-icon</title>
    <desc>Created with Sketch.</desc>
    <defs>
        <circle id="path-1" cx="75" cy="75" r="75"></circle>
    </defs>
    <g id="COMPS" stroke="none" stroke-width="1" fill="none" fill-rule="evenodd">
        <g id="Desktop-HD---1441" transform="translate(-1101.000000, -1548.000000)">
            <g id="SOCIAL-MEDIA-ROW" transform="translate(121.000000, 1466.000000)">
                <g id="Instagram" transform="translate(911.000000, 52.000000)">
                    <g id="instagram-circle-icon" transform="translate(69.000000, 30.000000)">
                        <mask id="mask-2" fill="white">
                            <use xlink:href="#path-1"></use>
                        </mask>
                        <use id="Mask" fill="#7F3CB1" xlink:href="#path-1"></use>
                        <g id="instagram-logo" mask="url(#mask-2)" fill-rule="nonzero" fill="#FFFFFF">
                            <g transform="translate(39.000000, 39.000000)" id="Shape">
                                <path d="M52.1301771,0 L19.8689711,0 C8.9132271,0 0,8.91365298 0,19.869397 L0,52.130603 C0,63.0867729 8.9132271,72 19.8689711,72 L52.1301771,72 C63.0867729,72 72,63.086347 72,52.130603 L72,19.869397 C72.0004259,8.91365298 63.0867729,0 52.1301771,0 Z M65.6122369,52.130603 C65.6122369,59.5643255 59.5643255,65.6118111 52.130603,65.6118111 L19.8689711,65.6118111 C12.4356745,65.6122369 6.38818895,59.5643255 6.38818895,52.130603 L6.38818895,19.869397 C6.38818895,12.4361004 12.4356745,6.38818895 19.8689711,6.38818895 L52.1301771,6.38818895 C59.5638996,6.38818895 65.6118111,12.4361004 65.6118111,19.869397 L65.6118111,52.130603 L65.6122369,52.130603 Z"></path>
                                <path d="M35.5,17 C25.2989464,17 17,25.2991369 17,35.5004247 C17,45.7012878 25.2989464,54 35.5,54 C45.7010536,54 54,45.7012878 54,35.5004247 C54,25.2991369 45.7010536,17 35.5,17 Z M35.5,47.6293444 C28.8118357,47.6293444 23.3700847,42.1883178 23.3700847,35.5 C23.3700847,28.8112575 28.8114111,23.3698063 35.5,23.3698063 C42.1885889,23.3698063 47.6299153,28.8112575 47.6299153,35.5 C47.6299153,42.1883178 42.1881643,47.6293444 35.5,47.6293444 Z"></path>
                                <path d="M54.5,12 C53.3177273,12 52.1563182,12.4786364 51.3213636,13.3172727 C50.4823182,14.1518182 50,15.3136364 50,16.5 C50,17.6826818 50.4827273,18.8440909 51.3213636,19.6827273 C52.1559091,20.5172727 53.3177273,21 54.5,21 C55.6863636,21 56.8440909,20.5172727 57.6827273,19.6827273 C58.5213636,18.8440909 59,17.6822727 59,16.5 C59,15.3136364 58.5213636,14.1518182 57.6827273,13.3172727 C56.8481818,12.4786364 55.6863636,12 54.5,12 Z"></path>
                            </g>
                        </g>
                    </g>
                </g>
            </g>
        </g>
    </g>
</svg>