<?xml version="1.0" encoding="UTF-8"?><svg id="Layer_1" xmlns="http://www.w3.org/2000/svg" viewBox="0 0 600 600"><defs><style>.cls-1,.cls-2,.cls-3,.cls-4,.cls-5{stroke-miterlimit:10;}.cls-1,.cls-2,.cls-3,.cls-5{stroke-width:8px;}.cls-1,.cls-2,.cls-4{stroke-linecap:round;}.cls-1,.cls-2,.cls-4,.cls-5{fill:none;}.cls-1,.cls-3,.cls-5{stroke:#333;}.cls-2,.cls-4{stroke:#fff;}.cls-3,.cls-6{fill:#fff;}.cls-4{stroke-width:10px;}.cls-7{fill:#333;}.cls-7,.cls-6{stroke-width:0px;}</style></defs><path class="cls-3" d="m468.51,66.03l50,12.5c3.56.89,6.06,4.09,6.06,7.76v50.58c0,3.67-2.5,6.87-6.06,7.76l-50,12.5v-91.1Z"/><path class="cls-3" d="m468.51,138.78l50,12.5c3.56.89,6.06,4.09,6.06,7.76v50.58c0,3.67-2.5,6.87-6.06,7.76l-50,12.5v-91.1Z"/><path class="cls-3" d="m468.51,211.53l50,12.5c3.56.89,6.06,4.09,6.06,7.76v50.58c0,3.67-2.5,6.87-6.06,7.76l-50,12.5v-91.1Z"/><path class="cls-3" d="m468.51,284.28l50,12.5c3.56.89,6.06,4.09,6.06,7.76v50.58c0,3.67-2.5,6.87-6.06,7.76l-50,12.5v-91.1Z"/><path class="cls-3" d="m468.51,357.03l50,12.5c3.56.89,6.06,4.09,6.06,7.76v50.58c0,3.67-2.5,6.87-6.06,7.76l-50,12.5v-91.1Z"/><path class="cls-6" d="m488.13,422.52v128.26s2.76,11.21-17.54,11.21H119.75s-47.9-4.42-47.9-26.74v-112.74h416.27Z"/><path class="cls-7" d="m488.13,38v417.75l-385.13-.86s-27-1.89-27,33.11l-4.14-413.31s1.4-36.69,35.04-36.69h381.23Z"/><path class="cls-5" d="m488.13,462.57v88.43c0,6.19-6.13,10.99-11.21,10.99H109.75s-37.9,1.01-37.9-33.44V74.69s1.65-35.86,35.86-35.86h369.19c6.19,0,11.21,5.02,11.21,11.21v412.54Z"/><path class="cls-5" d="m488.13,541.17H120.91s-28.03-4.2-28.03-33.64,28.03-32.24,28.03-32.24h367.21"/><line class="cls-1" x1="116.34" y1="498.78" x2="440.63" y2="498.78"/><line class="cls-1" x1="116.34" y1="519.8" x2="440.63" y2="519.8"/><line class="cls-2" x1="116.34" y1="455.06" x2="116.34" y2="379.4"/><line class="cls-2" x1="116.34" y1="334.72" x2="116.34" y2="52.02"/><path class="cls-4" d="m169.97,277.67l41.28-82.57c2.06-4.12,7.92-4.14,10.01-.04l42.07,82.6"/><line class="cls-4" x1="190.99" y1="245.43" x2="243.23" y2="245.43"/><line class="cls-4" x1="277.89" y1="228.61" x2="324.14" y2="228.61"/><path class="cls-4" d="m350.05,185.17h63.18c4.86,0,7.42,5.76,4.16,9.37l-66.75,73.77c-3.26,3.6-.7,9.37,4.16,9.37h68.85"/></svg>