<?xml version="1.0" encoding="UTF-8" standalone="no"?>
<svg width="150px" height="150px" viewBox="0 0 150 150" version="1.1" xmlns="http://www.w3.org/2000/svg" xmlns:xlink="http://www.w3.org/1999/xlink">
    <!-- Generator: Sketch 46.2 (44496) - http://www.bohemiancoding.com/sketch -->
    <title>twitter-circle-icon</title>
    <desc>Created with Sketch.</desc>
    <defs>
        <circle id="path-1" cx="75" cy="75" r="75"></circle>
    </defs>
    <g id="COMPS" stroke="none" stroke-width="1" fill="none" fill-rule="evenodd">
        <g id="Desktop-HD---1441" transform="translate(-190.000000, -1548.000000)">
            <g id="SOCIAL-MEDIA-ROW" transform="translate(121.000000, 1466.000000)">
                <g id="Twitter" transform="translate(0.000000, 52.000000)">
                    <g id="twitter-circle-icon" transform="translate(69.000000, 30.000000)">
                        <mask id="mask-2" fill="white">
                            <use xlink:href="#path-1"></use>
                        </mask>
                        <use id="Mask" fill="#55ACEE" xlink:href="#path-1"></use>
                        <path d="M124.698775,48.1347127 C121.396605,49.599259 117.839354,50.5918188 114.113784,51.0360414 C117.919175,48.7524597 120.839592,45.1414161 122.222581,40.8380099 C118.658389,42.9463319 114.710708,44.4837584 110.514887,45.3097348 C107.151984,41.7247198 102.359239,39.489725 97.0563316,39.489725 C86.8739173,39.489725 78.6245653,47.746018 78.6245653,57.9214912 C78.6245653,59.3652146 78.7842078,60.7759683 79.1017575,62.1242532 C63.7830198,61.3520695 50.1977912,54.015456 41.1085809,42.8595697 C39.5173618,45.5839034 38.6115642,48.7524597 38.6115642,52.1275101 C38.6115642,58.5253563 41.8668828,64.1701064 46.8071236,67.4740118 C43.7860631,67.3785733 40.9472032,66.5473913 38.4571275,65.1644015 L38.4571275,65.3986595 C38.4571275,74.326492 44.8133278,81.7776315 53.2448804,83.4694949 C51.7005129,83.8928945 50.0711184,84.1219468 48.3914018,84.1219468 C47.2044946,84.1219468 46.0488218,84.0056854 44.9209129,83.7922503 C47.2704339,91.1149818 54.0777977,96.4439174 62.1449491,96.5914132 C55.8356003,101.538595 47.8881809,104.479834 39.2501342,104.479834 C37.757824,104.479834 36.2880719,104.398278 34.8530248,104.224753 C43.0086736,109.45478 52.6948079,112.507075 63.1045392,112.507075 C97.00948,112.507075 115.557508,84.4152031 115.557508,60.0575771 C115.557508,59.2576294 115.536685,58.466358 115.503715,57.6733513 C119.107818,55.0756904 122.229522,51.8273128 124.698775,48.1347127" id="Fill-4" fill="#FFFFFF" mask="url(#mask-2)"></path>
                    </g>
                </g>
            </g>
        </g>
    </g>
</svg>