<svg xmlns="http://www.w3.org/2000/svg" xmlns:xlink="http://www.w3.org/1999/xlink" viewBox="0 0 150 150"><circle cx="75" cy="75" r="75" fill-rule="evenodd" clip-rule="evenodd" fill="#586c31"/><g><defs><path id="a" d="M-957-1419h2065v2987H-957z"/></defs></g><g><defs><path id="b" d="M119.9 47.1c-3.3 1.5-6.9 2.5-10.6 2.9 3.8-2.3 6.7-5.9 8.1-10.2-3.6 2.1-7.5 3.6-11.7 4.5-3.4-3.6-8.2-5.8-13.5-5.8-10.2 0-18.4 8.3-18.4 18.4 0 1.4.2 2.9.5 4.2-15.3-.7-28.9-8.1-38-19.2-1.6 2.7-2.5 5.9-2.5 9.3 0 6.4 3.3 12 8.2 15.3-3-.1-5.9-.9-8.3-2.3v.2c0 8.9 6.4 16.4 14.8 18.1-1.5.4-3.2.7-4.9.7-1.2 0-2.3-.1-3.5-.3 2.3 7.3 9.2 12.7 17.2 12.8-6.3 4.9-14.3 7.9-22.9 7.9-1.5 0-3-.1-4.4-.3 8.2 5.2 17.8 8.3 28.3 8.3 33.9 0 52.5-28.1 52.5-52.4 0-.8 0-1.6-.1-2.4 3.6-2.7 6.8-6 9.2-9.7"/></defs><use xlink:href="#b" overflow="visible" fill-rule="evenodd" clip-rule="evenodd" fill="#fff"/><clipPath id="c"><use xlink:href="#b" overflow="visible"/></clipPath></g></svg>