<?xml version="1.0" encoding="UTF-8"?><svg id="Layer_1" xmlns="http://www.w3.org/2000/svg" viewBox="0 0 600 600"><defs><style>.cls-1{fill:#333;stroke-width:0px;}</style></defs><path class="cls-1" d="m290,72.13c0-4.5-3.71-8.14-8.2-8-134.94,4.33-245.8,114.99-245.8,250.87,0,138.28,112.72,251,251,251,135.88,0,246.54-107.97,250.87-242.8.14-4.5-3.5-8.2-8-8.2h-239.87V72.13Z"/><path class="cls-1" d="m317,40.1v239.9c0,4.42,3.58,8,8,8h236.98c1.67,0,3.03-1.36,3.01-3.03-1.6-135.21-110.1-244.68-244.92-247.88-1.68-.04-3.06,1.33-3.06,3.01Z"/></svg>