<svg id="Layer_1" data-name="Layer 1" xmlns="http://www.w3.org/2000/svg" viewBox="0 0 297 285"><defs><style>.cls-1{fill:#2a72a5;}.cls-2{fill:#ffbf17;}.cls-3{fill:#fff;}</style></defs><path class="cls-1" d="M276,259.52V139l0-.41s0-.06,0-.09a9.9,9.9,0,0,0-.29-1.9C274,127.46,266.88,113,249.41,113H212V69.55a.77.77,0,0,0-.19-.49c-3.49-3.89-7.81-1.36-7.81,2.22V113H153V69.55a.77.77,0,0,0-.19-.49c-3.49-3.89-7.81-1.36-7.81,2.22V113H94V69.55a.77.77,0,0,0-.19-.49C90.32,65.17,86,67.7,86,71.28V113H47.78c-18.34.3-24.92,17-25.78,25.7V260Z"/><path class="cls-1" d="M22,268H9.92a4.17,4.17,0,0,0-4.14,3.19A4.06,4.06,0,0,0,9.87,276H287.6a4.17,4.17,0,0,0,4.14-3.19,4.06,4.06,0,0,0-4.1-4.81H276"/><path class="cls-2" d="M90.49,53.06a11.74,11.74,0,0,0,11.35-5.7C107,37.82,96.21,20.41,94,17a4.35,4.35,0,0,0-6.08-.92A4.46,4.46,0,0,0,87,17c-2.22,3.4-13,20.81-7.85,30.35A11.74,11.74,0,0,0,90.49,53.06Z"/><path class="cls-2" d="M149,53.06a11.73,11.73,0,0,0,11.35-5.7c5.17-9.54-5.63-26.95-7.85-30.35a4.34,4.34,0,0,0-6.07-.92,4.46,4.46,0,0,0-.92.92c-2.22,3.4-13,20.82-7.85,30.35A11.72,11.72,0,0,0,149,53.06Z"/><path class="cls-2" d="M216.1,50.25A14.39,14.39,0,0,0,219,47.36c5.16-9.54-5.64-26.95-7.86-30.35a4.34,4.34,0,0,0-6.07-.92,4.46,4.46,0,0,0-.92.92c-2.22,3.4-13,20.81-7.85,30.35A14.15,14.15,0,0,0,216.1,50.25Z"/><path class="cls-3" d="M84.49,189V197H77.42v11.55H68.74V197H45.29V190.1l16-30.52h9L55.3,189H68.74V177.64h8.68V189Z"/><path class="cls-3" d="M127.12,165.6q5.46,6.43,5.46,18.48t-5.46,18.41q-5.46,6.44-15.61,6.44T95.9,202.49q-5.46-6.45-5.46-18.41T95.9,165.6q5.46-6.45,15.61-6.44T127.12,165.6Zm-24.22,5.21q-2.81,4.23-2.8,13.27t2.8,13.23q2.79,4.26,8.61,4.27t8.61-4.27q2.79-4.27,2.8-13.23t-2.8-13.27q-2.81-4.23-8.61-4.23T102.9,170.81Z"/><path class="cls-3" d="M136.15,184.15h28.42v6.23H136.15Z"/><path class="cls-3" d="M195.61,167.59a20.66,20.66,0,0,0-5.71-.8q-6.57,0-9.9,4.41t-3.12,12a12.32,12.32,0,0,1,5.15-4.87,16.92,16.92,0,0,1,7.73-1.64q7.29,0,11.55,4.27t4.27,11.41a17.17,17.17,0,0,1-2.17,8.78,14.6,14.6,0,0,1-6.12,5.78,21.78,21.78,0,0,1-20-.84,18.38,18.38,0,0,1-7-8.26A31.36,31.36,0,0,1,167.92,185a33,33,0,0,1,2.63-13.62,20.56,20.56,0,0,1,7.45-9,20.15,20.15,0,0,1,11.34-3.18,31.72,31.72,0,0,1,7.81,1,27.07,27.07,0,0,1,7,2.77l-3.57,7A16.13,16.13,0,0,0,195.61,167.59ZM180.8,186.46a8,8,0,0,0-2.59,6.23,7.78,7.78,0,0,0,1,4,8.19,8.19,0,0,0,3.19,3.15,10.42,10.42,0,0,0,5.28,1.23,9.56,9.56,0,0,0,6.72-2.31,8.3,8.3,0,0,0,2.52-6.44,8,8,0,0,0-2.41-6.13,9.14,9.14,0,0,0-6.55-2.27A10,10,0,0,0,180.8,186.46Z"/><path class="cls-3" d="M240.72,179.39a15,15,0,0,1,6.48,5.28,13.5,13.5,0,0,1,2.27,7.67,16.05,16.05,0,0,1-2.38,8.75,15.62,15.62,0,0,1-6.72,5.84A23.15,23.15,0,0,1,230.29,209a32,32,0,0,1-9.62-1.58,32.89,32.89,0,0,1-8.86-4.23l3.71-7.35a26.16,26.16,0,0,0,6.72,3.81,19.88,19.88,0,0,0,7.14,1.37,11.51,11.51,0,0,0,7.32-2.14,7,7,0,0,0,2.69-5.84,6.44,6.44,0,0,0-2.66-5.53q-2.65-2-7.91-2c-1.68,0-3.89,0-6.65.17s-4.87.25-6.37.39V159.58h31.5v8.19H224.48v9.73H231A23.49,23.49,0,0,1,240.72,179.39Z"/></svg>