<svg xmlns="http://www.w3.org/2000/svg" style="display: none;">
  <symbol id="en" viewBox="0 0 565.83002 54">
    <title>National Cancer Institute</title>
    <path fill="#bb0e3d" d="M114.666 16.157h4.68v20.97h-4.68l-9.99-13.14v13.14h-4.68v-20.97h4.38l10.29 13.5v-13.5zM139.445 37.127l-1.949-4.53h-8.79l-1.95 4.53h-4.98l9.061-20.97h4.53l9.06 20.97h-4.982zm-6.329-14.73-2.641 6.09h5.25l-2.609-6.09zM154.205 20.208v16.92h-4.68v-16.92h-5.94v-4.05h16.561v4.05h-5.941zM163.564 16.157h4.68v20.97h-4.68v-20.97zM191.044 34.232c-2.12 2.07-4.729 3.105-7.83 3.105-3.1 0-5.71-1.035-7.83-3.105-2.12-2.07-3.18-4.645-3.18-7.725s1.06-5.655 3.18-7.725c2.12-2.07 4.73-3.105 7.83-3.105 3.101 0 5.71 1.035 7.83 3.105 2.12 2.07 3.181 4.646 3.181 7.725 0 3.08-1.061 5.656-3.181 7.725zm-1.59-7.71c0-1.87-.6-3.465-1.8-4.785-1.2-1.32-2.675-1.98-4.425-1.98-1.751 0-3.226.66-4.425 1.98-1.2 1.32-1.801 2.916-1.801 4.785 0 1.87.601 3.46 1.801 4.77 1.199 1.31 2.674 1.965 4.425 1.965 1.75 0 3.225-.655 4.425-1.965 1.2-1.309 1.8-2.899 1.8-4.77zM212.854 16.157h4.68v20.97h-4.68l-9.99-13.14v13.14h-4.68v-20.97h4.38l10.29 13.5v-13.5zM237.633 37.127l-1.949-4.53h-8.79l-1.95 4.53h-4.98l9.061-20.97h4.53l9.06 20.97h-4.982zm-6.329-14.73-2.641 6.09h5.25l-2.609-6.09zM245.043 37.127v-20.97h4.68v16.8h8.94v4.17h-13.62zM279.633 32.987c2.3 0 4.18-.91 5.64-2.73l3 3.09c-2.38 2.68-5.185 4.02-8.415 4.02-3.229 0-5.89-1.02-7.979-3.06-2.089-2.04-3.135-4.615-3.135-7.725 0-3.11 1.064-5.705 3.194-7.785s4.735-3.12 7.815-3.12c3.439 0 6.319 1.311 8.64 3.93l-2.91 3.3c-1.479-1.84-3.319-2.76-5.52-2.76-1.76 0-3.266.575-4.515 1.725-1.251 1.15-1.875 2.7-1.875 4.65 0 1.95.589 3.515 1.77 4.695 1.179 1.181 2.61 1.77 4.29 1.77zM306.753 37.127l-1.949-4.53h-8.79l-1.95 4.53h-4.98l9.061-20.97h4.53l9.06 20.97h-4.982zm-6.329-14.73-2.641 6.09h5.25l-2.609-6.09zM328.833 16.157h4.68v20.97h-4.68l-9.99-13.14v13.14h-4.68v-20.97h4.38l10.29 13.5v-13.5zM348.303 32.987c2.3 0 4.18-.91 5.64-2.73l3 3.09c-2.38 2.68-5.185 4.02-8.415 4.02-3.229 0-5.89-1.02-7.979-3.06-2.089-2.04-3.135-4.615-3.135-7.725 0-3.11 1.064-5.705 3.194-7.785s4.735-3.12 7.815-3.12c3.439 0 6.319 1.311 8.64 3.93l-2.91 3.3c-1.479-1.84-3.319-2.76-5.52-2.76-1.76 0-3.266.575-4.515 1.725-1.251 1.15-1.875 2.7-1.875 4.65 0 1.95.589 3.515 1.77 4.695 1.179 1.181 2.61 1.77 4.29 1.77zM375.753 16.157v4.17h-10.44v4.32h9.391v3.99h-9.391v4.35h10.771v4.14h-15.45v-20.97h15.119zM397.263 23.118c0 3.36-1.33 5.53-3.99 6.51l5.311 7.5h-5.76l-4.65-6.69h-3.24v6.69h-4.68v-20.97h7.95c3.26 0 5.584.55 6.975 1.65 1.388 1.1 2.084 2.87 2.084 5.31zm-5.64 2.489c.58-.52.87-1.345.87-2.475 0-1.129-.301-1.905-.9-2.325-.6-.42-1.65-.63-3.15-.63h-3.51v6.21h3.42c1.6 0 2.69-.259 3.27-.78zM409.982 16.157h4.68v20.97h-4.68v-20.97zM434.492 16.157h4.68v20.97h-4.68l-9.99-13.14v13.14h-4.68v-20.97h4.38l10.29 13.5v-13.5zM449.237 20.342c-.45.371-.676.86-.676 1.47s.275 1.095.825 1.455c.55.36 1.82.785 3.811 1.275 1.989.49 3.534 1.225 4.635 2.205 1.1.98 1.65 2.41 1.65 4.29s-.705 3.405-2.115 4.575c-1.41 1.17-3.266 1.755-5.565 1.755-3.32 0-6.311-1.23-8.97-3.69l2.79-3.42c2.26 1.98 4.35 2.97 6.27 2.97.86 0 1.535-.185 2.025-.555.49-.37.735-.87.735-1.5s-.261-1.129-.78-1.5c-.521-.37-1.55-.745-3.09-1.125-2.44-.58-4.226-1.335-5.355-2.265-1.13-.93-1.694-2.39-1.694-4.38 0-1.99.715-3.525 2.145-4.605 1.43-1.08 3.215-1.62 5.355-1.62 1.399 0 2.8.24 4.199.72 1.4.48 2.62 1.16 3.66 2.04l-2.37 3.42c-1.82-1.38-3.7-2.07-5.64-2.07-.78.001-1.395.186-1.845.555zM472.172 20.208v16.92h-4.68v-16.92h-5.94v-4.05h16.561v4.05h-5.941zM481.531 16.157h4.68v20.97h-4.68v-20.97zM500.251 20.208v16.92h-4.68v-16.92h-5.94v-4.05h16.561v4.05h-5.941zM515.16 31.712c.78.97 1.83 1.455 3.15 1.455 1.319 0 2.364-.485 3.135-1.455.77-.97 1.155-2.295 1.155-3.975v-11.58h4.68v11.73c0 3.041-.84 5.375-2.52 7.005-1.681 1.63-3.831 2.445-6.45 2.445-2.62 0-4.775-.82-6.465-2.46-1.69-1.64-2.535-3.97-2.535-6.99v-11.73h4.68v11.58c0 1.68.39 3.006 1.17 3.975zM541.02 20.208v16.92h-4.68v-16.92h-5.94v-4.05h16.561v4.05h-5.941zM565.499 16.157v4.17h-10.44v4.32h9.391v3.99h-9.391v4.35h10.771v4.14h-15.45v-20.97h15.119z" />
    <path fill="#606060" d="M75 27 60 0H5.769C2.583 0 0 2.59 0 5.786v42.428C0 51.41 2.583 54 5.769 54H60l15-27Z" />
    <path fill="#bb0e3d" d="M73.501 2.815C72.446 1.069 70.541 0 68.486 0H64l15.201 27L64 54h4.486c2.055 0 3.96-1.069 5.015-2.815L87 27 73.501 2.815Z" />
    <path fill="#fff" d="M32 15h4v24h-4zM9 15v24h4V21.4L24 39h4V15h-4v17.6L13 15zM44 15h-4v24h4V29h11v10h4V15h-4v10H44z" />
  </symbol>
  <symbol id="es" viewBox="0 0 644.15997 54">
    <title>Instituto Nacional del Cáncer</title>
    <path fill="#bb0e3d" d="M99.996 16.157h4.68v20.97h-4.68v-20.97zM124.506 16.157h4.68v20.97h-4.68l-9.99-13.14v13.14h-4.68v-20.97h4.38l10.29 13.5v-13.5zM139.251 20.342c-.45.371-.676.86-.676 1.47s.275 1.095.825 1.455c.55.36 1.82.785 3.811 1.275 1.989.49 3.534 1.225 4.635 2.205 1.1.98 1.65 2.41 1.65 4.29s-.705 3.405-2.115 4.575c-1.41 1.17-3.266 1.755-5.565 1.755-3.32 0-6.311-1.23-8.97-3.69l2.79-3.42c2.26 1.98 4.35 2.97 6.27 2.97.86 0 1.535-.185 2.025-.555.49-.37.735-.87.735-1.5s-.261-1.129-.78-1.5c-.521-.37-1.55-.745-3.09-1.125-2.44-.58-4.226-1.335-5.355-2.265-1.13-.93-1.694-2.39-1.694-4.38 0-1.99.715-3.525 2.145-4.605 1.43-1.08 3.215-1.62 5.355-1.62 1.399 0 2.8.24 4.199.72 1.4.48 2.62 1.16 3.66 2.04l-2.37 3.42c-1.82-1.38-3.7-2.07-5.64-2.07-.781.001-1.396.186-1.845.555zM162.186 20.208v16.92h-4.68v-16.92h-5.94v-4.05h16.561v4.05h-5.941zM171.545 16.157h4.68v20.97h-4.68v-20.97zM190.265 20.208v16.92h-4.68v-16.92h-5.94v-4.05h16.561v4.05h-5.941zM205.174 31.712c.78.97 1.83 1.455 3.15 1.455 1.319 0 2.364-.485 3.135-1.455.77-.97 1.155-2.295 1.155-3.975v-11.58h4.68v11.73c0 3.041-.84 5.375-2.52 7.005-1.681 1.63-3.831 2.445-6.45 2.445-2.62 0-4.775-.82-6.465-2.46-1.69-1.64-2.535-3.97-2.535-6.99v-11.73h4.68v11.58c0 1.68.39 3.006 1.17 3.975zM231.033 20.208v16.92h-4.68v-16.92h-5.94v-4.05h16.561v4.05h-5.941zM257.462 34.232c-2.12 2.07-4.729 3.105-7.83 3.105-3.1 0-5.71-1.035-7.83-3.105-2.12-2.07-3.18-4.645-3.18-7.725s1.06-5.655 3.18-7.725c2.12-2.07 4.73-3.105 7.83-3.105 3.101 0 5.71 1.035 7.83 3.105 2.12 2.07 3.181 4.646 3.181 7.725 0 3.08-1.061 5.656-3.181 7.725zm-1.59-7.71c0-1.87-.6-3.465-1.8-4.785-1.2-1.32-2.675-1.98-4.425-1.98-1.751 0-3.226.66-4.425 1.98-1.2 1.32-1.801 2.916-1.801 4.785 0 1.87.601 3.46 1.801 4.77 1.199 1.31 2.674 1.965 4.425 1.965 1.75 0 3.225-.655 4.425-1.965 1.2-1.309 1.8-2.899 1.8-4.77zM287.191 16.157h4.68v20.97h-4.68l-9.99-13.14v13.14h-4.68v-20.97h4.38l10.29 13.5v-13.5zM311.971 37.127l-1.949-4.53h-8.79l-1.95 4.53h-4.98l9.061-20.97h4.53l9.06 20.97h-4.982zm-6.329-14.73-2.641 6.09h5.25l-2.609-6.09zM329.011 32.987c2.3 0 4.18-.91 5.64-2.73l3 3.09c-2.38 2.68-5.185 4.02-8.415 4.02-3.229 0-5.89-1.02-7.979-3.06-2.089-2.04-3.135-4.615-3.135-7.725 0-3.11 1.064-5.705 3.194-7.785s4.735-3.12 7.815-3.12c3.439 0 6.319 1.311 8.64 3.93l-2.91 3.3c-1.479-1.84-3.319-2.76-5.52-2.76-1.76 0-3.266.575-4.515 1.725-1.251 1.15-1.875 2.7-1.875 4.65 0 1.95.589 3.515 1.77 4.695 1.179 1.181 2.61 1.77 4.29 1.77zM341.341 16.157h4.68v20.97h-4.68v-20.97zM368.82 34.232c-2.12 2.07-4.729 3.105-7.83 3.105-3.1 0-5.71-1.035-7.83-3.105-2.12-2.07-3.18-4.645-3.18-7.725s1.06-5.655 3.18-7.725c2.12-2.07 4.73-3.105 7.83-3.105 3.101 0 5.71 1.035 7.83 3.105 2.12 2.07 3.181 4.646 3.181 7.725 0 3.08-1.061 5.656-3.181 7.725zm-1.59-7.71c0-1.87-.6-3.465-1.8-4.785-1.2-1.32-2.675-1.98-4.425-1.98-1.751 0-3.226.66-4.425 1.98-1.2 1.32-1.801 2.916-1.801 4.785 0 1.87.601 3.46 1.801 4.77 1.199 1.31 2.674 1.965 4.425 1.965 1.75 0 3.225-.655 4.425-1.965 1.201-1.309 1.8-2.899 1.8-4.77zM390.63 16.157h4.68v20.97h-4.68l-9.99-13.14v13.14h-4.68v-20.97h4.38l10.29 13.5v-13.5zM415.409 37.127l-1.949-4.53h-8.79l-1.95 4.53h-4.98l9.061-20.97h4.53l9.06 20.97h-4.982zm-6.329-14.73-2.641 6.09h5.25l-2.609-6.09zM422.819 37.127v-20.97h4.68v16.8h8.94v4.17h-13.62zM463.799 18.902c2 1.83 3 4.375 3 7.635s-.975 5.84-2.925 7.74c-1.95 1.9-4.925 2.85-8.925 2.85h-7.17v-20.97h7.41c3.74 0 6.61.915 8.61 2.745zm-3.435 12.466c1.149-1.08 1.725-2.65 1.725-4.71s-.575-3.645-1.725-4.755c-1.15-1.11-2.915-1.665-5.295-1.665h-2.61v12.75h2.971c2.139-.001 3.784-.541 4.934-1.62zM485.97 16.157v4.17h-10.44v4.32h9.391v3.99h-9.391v4.35h10.77v4.14h-15.45v-20.97h15.12zM490.47 37.127v-20.97h4.68v16.8h8.94v4.17h-13.62zM525.06 32.987c2.3 0 4.18-.91 5.64-2.73l3 3.09c-2.38 2.68-5.185 4.02-8.415 4.02-3.229 0-5.89-1.02-7.979-3.06-2.089-2.04-3.135-4.615-3.135-7.725 0-3.11 1.064-5.705 3.194-7.785s4.735-3.12 7.815-3.12c3.439 0 6.319 1.311 8.64 3.93l-2.91 3.3c-1.479-1.84-3.319-2.76-5.52-2.76-1.76 0-3.266.575-4.515 1.725-1.251 1.15-1.875 2.7-1.875 4.65 0 1.95.589 3.515 1.77 4.695 1.179 1.181 2.61 1.77 4.29 1.77zM552.329 37.127l-1.949-4.53h-8.79l-1.95 4.53h-4.98l9.061-20.97h4.53l9.06 20.97h-4.982zM546 22.397l-2.641 6.09h5.25L546 22.397zm1.979-8.399h-4.29l3.811-5.31 4.649 1.95-4.17 3.36zM574.409 16.157h4.68v20.97h-4.68l-9.99-13.14v13.14h-4.68v-20.97h4.38l10.29 13.5v-13.5zM593.879 32.987c2.3 0 4.18-.91 5.64-2.73l3 3.09c-2.38 2.68-5.185 4.02-8.415 4.02-3.229 0-5.89-1.02-7.979-3.06-2.089-2.04-3.135-4.615-3.135-7.725 0-3.11 1.064-5.705 3.194-7.785s4.735-3.12 7.815-3.12c3.439 0 6.319 1.311 8.64 3.93l-2.91 3.3c-1.479-1.84-3.319-2.76-5.52-2.76-1.76 0-3.266.575-4.515 1.725-1.251 1.15-1.875 2.7-1.875 4.65 0 1.95.589 3.515 1.77 4.695 1.18 1.181 2.61 1.77 4.29 1.77zM621.329 16.157v4.17h-10.44v4.32h9.391v3.99h-9.391v4.35h10.771v4.14h-15.45v-20.97h15.119zM642.839 23.118c0 3.36-1.33 5.53-3.99 6.51l5.311 7.5h-5.76l-4.65-6.69h-3.24v6.69h-4.68v-20.97h7.95c3.26 0 5.584.55 6.975 1.65 1.389 1.1 2.084 2.87 2.084 5.31zm-5.64 2.489c.58-.52.87-1.345.87-2.475 0-1.129-.301-1.905-.9-2.325-.6-.42-1.65-.63-3.15-.63h-3.51v6.21h3.42c1.6 0 2.69-.259 3.27-.78z" />
    <path fill="#606060" d="M75 27 60 0H5.769C2.583 0 0 2.59 0 5.786v42.428C0 51.41 2.583 54 5.769 54H60l15-27Z" />
    <path fill="#bb0e3d" d="M73.501 2.815C72.446 1.069 70.541 0 68.486 0H64l15.201 27L64 54h4.486c2.055 0 3.96-1.069 5.015-2.815L87 27 73.501 2.815Z" />
    <path fill="#fff" d="M32 15h4v24h-4zM9 15v24h4V21.4L24 39h4V15h-4v17.6L13 15zM44 15h-4v24h4V29h11v10h4V15h-4v10H44z" />
  </symbol>
</svg>
