<?xml version="1.0" encoding="UTF-8"?>
<svg width="150px" height="150px" viewBox="0 0 150 150" version="1.1" xmlns="http://www.w3.org/2000/svg" xmlns:xlink="http://www.w3.org/1999/xlink">
    <!-- Generator: Sketch 51.1 (57501) - http://www.bohemiancoding.com/sketch -->
    <title>govdelivery-circle-icon</title>
    <desc>Created with Sketch.</desc>
    <defs>
        <circle id="path-1" cx="75" cy="75" r="75"></circle>
    </defs>
    <g id="COMPS" stroke="none" stroke-width="1" fill="none" fill-rule="evenodd">
        <g id="Desktop-HD---1441" transform="translate(-798.000000, -1548.000000)">
            <g id="SOCIAL-MEDIA-ROW" transform="translate(121.000000, 1466.000000)">
                <g id="GovDelivery" transform="translate(608.000000, 52.000000)">
                    <g id="govdelivery-circle-icon" transform="translate(69.000000, 30.000000)">
                        <g id="govdelivery">
                            <mask id="mask-2" fill="white">
                                <use xlink:href="#path-1"></use>
                            </mask>
                            <use id="Mask" fill="#A92F26" xlink:href="#path-1"></use>
                            <path d="M43.0926667,38 C39.7233333,38 37,40.9682222 37,44.6162222 L37,84.474 C37,88.122 39.7022222,91.086 43.0926667,91.086 L53.3906667,90.25 L43.1517778,111.293556 C42.6282222,115.338444 44.8828889,113.641111 46.0566667,113.666444 L84.7068889,91.086 L106.903111,91.086 C110.272444,91.086 113,88.122 113,84.474 L113,44.6162222 C113,40.9597778 110.297778,38 106.903111,38 L43.0926667,38 Z M103.905333,79.9688889 C103.901111,81.1764444 102.659778,82.65 101.448,82.6457778 L83.2417778,61.978 L76.3891111,67.7371111 C75.6291111,68.0157778 74.7255556,68.0242222 73.9613333,67.7582222 L66.6273333,61.978 L48.286,82.8991111 C47.0742222,82.916 45.854,81.434 45.8371111,80.2222222 L63.4522222,60.0062222 L44.0173333,44.8484444 C43.916,43.6451111 45.2628889,42.2897778 46.4662222,42.1673333 L75.1266667,63.2995556 L102.355778,42.2982222 C103.563333,42.4037778 104.906,43.7717778 104.813111,44.9751111 L86.0284444,60.1413333 L103.905333,79.9688889 Z" id="Fill-1" fill="#FFFFFF" mask="url(#mask-2)"></path>
                        </g>
                    </g>
                </g>
            </g>
        </g>
    </g>
</svg>