<?xml version="1.0" encoding="utf-8"?>
<svg viewBox="-1 -1 36 26.8700008392334" width="36" height="26.8700008392334" style="enable-background:new 0 0 34 25;" xmlns="http://www.w3.org/2000/svg">
  <defs>
    <style type="text/css">
	.st0{fill:#ffffff;}
</style>
  </defs>
  <path class="st0" d="M 2.152 1.459 C 8.998 -2.544 16.224 2.961 16.224 2.961 L 16.224 21.357 C 16.224 21.357 11.16 17.043 2.152 19.605 Z M 31.798 19.605 C 22.79 17.043 17.726 21.357 17.726 21.357 L 17.726 2.961 C 17.726 2.961 24.952 -2.544 31.798 1.459 Z M 16.995 24.87 L 16.635 24.53 C 10.449 18.745 0.751 21.817 0.661 21.847 L 0 22.067 L 0 2.79 L 1.001 2.79 L 1.001 20.696 C 3.363 20.046 11.24 18.494 16.965 23.469 C 22.039 18.624 30.577 20.276 32.999 20.876 L 32.999 2.961 L 34 2.961 L 34 22.208 L 33.359 22.017 C 33.249 21.987 22.68 18.925 17.345 24.51 Z" transform="matrix(0.9999999999999999, 0, 0, 0.9999999999999999, -7.105427357601002e-15, 0)"/>
</svg>