<?xml version="1.0" encoding="utf-8"?>
<svg version="1.1" id="chevron-circle-lemon" x="0px" y="0px" viewBox="0 0 21 21" style="enable-background:new 0 0 20 20;" xmlns="http://www.w3.org/2000/svg">
    <style type="text/css">
	.st0{fill: #1C5E86;}
	.st1{fill:#FFFFFF;}
	</style>
  <g transform="matrix(1, 0, 0, 1, 0.5, 0.5)">
    <circle class="st0" cx="10" cy="10" r="10"/>
    <path class="st1" d="M15.48,12.55c-0.44,0.45-1.04,0.48-1.58,0L10,8.8l-3.91,3.75c-0.53,0.48-1.14,0.45-1.57,0c-0.44-0.44-0.41-1.2,0-1.61&#10;&#9;&#9;c0.41-0.42,4.69-4.5,4.69-4.5C9.42,6.21,9.71,6.1,9.99,6.1c0.29,0,0.57,0.11,0.79,0.34c0,0,4.29,4.08,4.7,4.5&#10;&#9;&#9;C15.9,11.36,15.92,12.11,15.48,12.55z"/>
  </g>
</svg>