<?xml version="1.0" encoding="UTF-8"?>
<svg width="167px" height="49px" viewBox="0 0 167 49" version="1.1" xmlns="http://www.w3.org/2000/svg" xmlns:xlink="http://www.w3.org/1999/xlink">
    <title>NCI LOGO-FA-Whie-yellow-Added-study_Artboard 1</title>
    <g id="SYMBOLS" stroke="none" stroke-width="1" fill="none" fill-rule="evenodd">
        <g id="Mobile-/-Tomorrow-Open-Vertical" transform="translate(-17.000000, -61.000000)" fill-rule="nonzero">
            <g id="NCI-LOGO-FA-Whie-yellow-Added-study_Artboard-1" transform="translate(17.000000, 61.000000)">
                <g id="Group">
                    <path d="M18.8099462,15.1277275 C17.2836022,13.5761657 15.5327957,12.7572859 13.4228495,12.7572859 C11.3577957,12.7572859 9.60698925,13.360671 8.17043011,14.5243424 C6.68897849,15.7311126 5.97069892,17.3257734 5.97069892,19.3083246 C5.97069892,21.2908757 6.73387097,22.9286354 8.26021505,24.2216036 C9.74166667,25.4283739 11.4924731,26.031759 13.6024194,26.031759 C15.8021505,26.074858 17.8223118,24.9973845 19.6180108,22.8855365 L25.4540323,22.8855365 C24.9602151,24.2216036 24.5112903,25.2128792 24.197043,25.8162643 C23.1645161,27.5833208 21.638172,29.0486847 19.6629032,30.1261582 C17.7325269,31.1605327 15.6674731,31.67772 13.5126344,31.67772 C9.92123656,31.67772 6.82365591,30.5140486 4.21989247,28.143607 C1.52634409,25.6869675 0.179569892,22.7993386 0.179569892,19.3945224 C0.179569892,15.9897063 1.48145161,13.1020774 4.13010753,10.6885368 C6.68897849,8.31809518 9.78655914,7.15442383 13.377957,7.15442383 C16.1612903,7.15442383 18.7201613,8.01640261 21.0096774,9.65416228 C23.0747312,11.1626251 24.6010753,13.2744731 25.5438172,16.0328052 L19.7077957,16.0328052 L18.8099462,15.1277275 Z" id="Path" fill="#FFFFFF"></path>
                    <path d="M51.6263441,7.6716111 L57.4623656,7.6716111 L57.4623656,9.7834591 C57.9112903,9.39556865 58.3153226,9.05077714 58.6744624,8.79218351 C60.2008065,7.6716111 61.861828,7.1113249 63.7922043,7.15442383 C67.0244624,7.19752277 69.5384409,8.49049094 71.3790323,11.0764273 C72.5013441,12.671088 73.0849462,15.4294201 73.0849462,19.3514235 L73.0849462,31.1174338 L67.2489247,31.1174338 L67.2489247,19.4376214 C67.2489247,17.1533776 67.0244624,15.6449148 66.6204301,14.9122328 C65.8123656,13.4468689 64.5104839,12.7572859 62.625,12.7572859 C60.7395161,12.7572859 59.3478495,13.3175721 58.4948925,14.5243424 C58.0010753,15.1708264 57.686828,16.1190031 57.5521505,17.3688723 C57.4623656,18.0584553 57.4174731,18.7480384 57.4623656,19.4376214 L57.4623656,31.1174338 L51.6263441,31.1174338 L51.6263441,7.6716111 L51.6263441,7.6716111 Z" id="Path" fill="#FFFFFF"></path>
                    <path d="M75.4193548,7.6716111 L81.2553763,7.6716111 L81.2553763,9.7834591 C81.7043011,9.39556865 82.1083333,9.05077714 82.4674731,8.79218351 C83.9938172,7.6716111 85.6548387,7.1113249 87.5852151,7.15442383 C90.8174731,7.19752277 93.3314516,8.49049094 95.172043,11.0764273 C96.2943548,12.671088 96.877957,15.4294201 96.877957,19.3514235 L96.877957,31.1174338 L91.0419355,31.1174338 L91.0419355,19.4376214 C91.0419355,17.1533776 90.8174731,15.6449148 90.4134409,14.9122328 C89.6053763,13.4468689 88.3034946,12.7572859 86.4180108,12.7572859 C84.5325269,12.7572859 83.1408602,13.3175721 82.2879032,14.5243424 C81.794086,15.1708264 81.4798387,16.1190031 81.3451613,17.3688723 C81.2553763,18.0584553 81.2104839,18.7480384 81.2553763,19.4376214 L81.2553763,31.1174338 L75.4193548,31.1174338 L75.4193548,7.6716111 L75.4193548,7.6716111 Z" id="Path" fill="#FFFFFF"></path>
                    <path d="M110.570161,26.5489463 C112.90457,26.5489463 114.924731,25.6869675 116.675538,23.96301 L122.511559,23.96301 C122.107527,24.8249887 121.79328,25.4714728 121.568817,25.8593633 C120.53629,27.5402219 118.965054,28.9193879 116.855108,30.0830593 C114.924731,31.1605327 112.859677,31.67772 110.659946,31.6346211 C107.248118,31.6346211 104.375,30.5571476 101.950806,28.4022006 C99.3021505,26.031759 97.9553763,23.0579322 97.9553763,19.5238193 C97.9553763,16.0759042 99.2123656,13.1882753 101.771237,10.7316358 C104.285215,8.36119412 107.293011,7.15442383 110.884409,7.15442383 C114.475806,7.15442383 117.483602,8.36119412 119.907796,10.7747347 C122.331989,13.1882753 123.544086,16.1190031 123.544086,19.5669182 L123.499194,20.8167874 L123.364516,21.8942609 L103.83629,21.8942609 C104.689247,24.9973845 106.978763,26.5489463 110.570161,26.5489463 Z M103.566935,17.4550702 L117.573387,17.4550702 L117.393817,16.5068935 C117.034677,15.1708264 116.18172,14.093353 114.834946,13.3175721 C113.622849,12.6279891 112.276075,12.2831975 110.749731,12.2831975 C109.133602,12.2831975 107.741935,12.671088 106.484946,13.40377 C105.09328,14.2226498 104.19543,15.3001233 103.791398,16.6792893 L103.566935,17.4550702 Z" id="Shape" fill="#FFFFFF"></path>
                    <path d="M143.296774,15.1277275 C141.77043,13.5761657 140.019624,12.7572859 137.909677,12.7572859 C135.844624,12.7572859 134.093817,13.360671 132.657258,14.5243424 C131.175806,15.7311126 130.457527,17.3257734 130.457527,19.3083246 C130.457527,21.2908757 131.220699,22.9286354 132.747043,24.2216036 C134.228495,25.4283739 135.979301,26.031759 138.089247,26.031759 C140.288978,26.074858 142.30914,24.9973845 144.104839,22.8855365 L149.94086,22.8855365 C149.447043,24.2216036 148.998118,25.2128792 148.683871,25.8162643 C147.651344,27.5833208 146.125,29.0486847 144.149731,30.1261582 C142.219355,31.1605327 140.154301,31.67772 137.999462,31.67772 C134.408065,31.67772 131.310484,30.5140486 128.70672,28.143607 C126.013172,25.6869675 124.666398,22.7993386 124.666398,19.3945224 C124.666398,15.9897063 125.96828,13.1020774 128.616935,10.6885368 C131.175806,8.31809518 134.273387,7.15442383 137.864785,7.15442383 C140.648118,7.15442383 143.206989,8.01640261 145.496505,9.65416228 C147.561559,11.1626251 149.087903,13.2744731 150.030645,16.0328052 L144.194624,16.0328052 L143.296774,15.1277275 Z" id="Path" fill="#FFFFFF"></path>
                    <path d="M164.934946,25.8162643 C164.081989,26.2472537 163.00457,26.5058473 162.061828,26.5058473 C160.221237,26.5058473 158.964247,25.4283739 158.964247,23.230328 L158.964247,19.4376214 C158.964247,19.4376214 158.964247,19.4376214 158.964247,19.4376214 L158.964247,13.2744731 L163.812634,13.2744731 L163.812634,7.6716111 L158.964247,7.6716111 L158.964247,0.215494694 L153.128226,0.215494694 L153.128226,7.6716111 L149.851075,7.6716111 L149.851075,13.2744731 L153.128226,13.2744731 L153.128226,20.5581938 C153.128226,20.5581938 153.128226,20.5581938 153.128226,20.5581938 L153.128226,23.230328 C153.128226,28.9624868 156.540054,31.8070168 161.702688,31.5915221 C163.498387,31.5484232 164.890054,31.2467306 166.595968,30.6002465 L164.934946,25.8162643 Z" id="Path" fill="#FFFFFF"></path>
                    <g transform="translate(26.037634, 6.895830)" id="Path">
                        <path d="M6.82365591,12.2400986 C6.82365591,8.61978775 9.56209677,5.60286204 13.1534946,4.95637796 C11.9862903,4.30989388 10.6844086,3.87890449 9.24784946,3.74960767 C3.59139785,3.18932147 0.0897849462,8.40429306 0.224462366,12.5848901 C0.359139785,17.2826744 4.39946237,21.0322821 9.33763441,21.0322821 C10.1008065,21.0322821 10.819086,20.9460842 11.5373656,20.7736885 C12.3454301,20.5150949 13.0637097,20.1272044 13.7819892,19.6531161 C9.87634409,19.2221267 6.82365591,16.0759042 6.82365591,12.2400986 Z" fill="#FEBE19"></path>
                        <path d="M24.197043,11.3781198 C23.7930108,5.60286204 18.9446237,0.905077714 12.9290323,0.430989388 C8.8438172,0.129296816 5.16263441,1.72395755 2.69354839,4.35299281 C4.53413978,3.14622253 6.86854839,2.45663951 9.33763441,2.6721342 C14.3206989,3.06002465 18.3610215,6.98202808 18.6752688,11.8091092 C19.0344086,17.4981691 14.3206989,22.2390524 8.48467742,22.2390524 C6.86854839,22.2390524 5.3422043,21.8942609 3.99543011,21.2477768 C6.15026882,22.9717344 8.93360215,24.0492078 11.9413978,24.0492078 C19.0344086,24.0492078 24.6908602,18.317049 24.197043,11.3781198 Z" fill="#FFFFFF"></path>
                    </g>
                </g>
                <g id="Group" transform="translate(3.000000, 36.000000)">
                    <path d="M0.723805127,10.5857143 L0.723805127,4.17857143 L0,4.17857143 L0,3.06428571 L0.723805127,3.06428571 L0.723805127,2.78571429 C0.723805127,2.46071429 0.723805127,2.18214286 0.769042947,1.99642857 C0.814280767,1.81071429 0.859518588,1.57857143 0.904756408,1.34642857 C0.949994229,1.11428571 1.08570769,0.975 1.17618333,0.835714286 C1.26665897,0.696428571 1.44761025,0.603571429 1.67379936,0.557142857 C1.89998846,0.510714286 2.12617756,0.464285714 2.39760448,0.464285714 C2.62379358,0.464285714 2.94045833,0.510714286 3.30236089,0.557142857 L3.30236089,1.67142857 C3.25712307,1.67142857 3.16664743,1.67142857 3.07617179,1.625 C2.98569615,1.57857143 2.84998269,1.57857143 2.80474487,1.57857143 C2.57855576,1.57857143 2.39760448,1.67142857 2.30712884,1.81071429 C2.2166532,1.95 2.17141538,2.18214286 2.17141538,2.50714286 L2.17141538,3.06428571 L3.25712307,3.06428571 L3.25712307,4.17857143 L2.17141538,4.17857143 L2.17141538,10.5857143 L0.723805127,10.5857143 L0.723805127,10.5857143 Z" id="Path" fill="#FFFFFF"></path>
                    <path d="M7.59995383,9.98214286 C7.23805127,10.4464286 6.69519742,10.6785714 5.92615447,10.6785714 C5.15711153,10.6785714 4.56901986,10.4464286 4.25235512,9.98214286 C3.93569038,9.51785714 3.75473909,8.82142857 3.75473909,7.93928571 L3.75473909,5.66428571 C3.75473909,4.78214286 3.93569038,4.08571429 4.25235512,3.62142857 C4.56901986,3.15714286 5.15711153,2.925 5.92615447,2.925 C6.69519742,2.925 7.28328909,3.15714286 7.59995383,3.62142857 C7.91661857,4.08571429 8.09756985,4.78214286 8.09756985,5.66428571 L8.09756985,7.93928571 C8.14280767,8.82142857 7.96185639,9.51785714 7.59995383,9.98214286 Z M5.65472755,9.37857143 C5.74520319,9.425 5.83567883,9.425 5.92615447,9.425 C6.01663011,9.425 6.10710576,9.425 6.1975814,9.37857143 C6.28805704,9.33214286 6.33329486,9.28571429 6.37853268,9.28571429 C6.4237705,9.28571429 6.46900832,9.19285714 6.51424614,9.1 C6.55948396,9.00714286 6.55948396,8.91428571 6.60472178,8.86785714 C6.6499596,8.82142857 6.6499596,8.68214286 6.6499596,8.58928571 C6.6499596,8.49642857 6.6499596,8.35714286 6.6499596,8.31071429 C6.6499596,8.26428571 6.6499596,8.125 6.6499596,7.98571429 L6.6499596,5.71071429 C6.6499596,5.57142857 6.6499596,5.47857143 6.6499596,5.38571429 C6.6499596,5.29285714 6.6499596,5.2 6.6499596,5.10714286 C6.6499596,5.01428571 6.6499596,4.875 6.60472178,4.82857143 C6.55948396,4.78214286 6.55948396,4.68928571 6.51424614,4.59642857 C6.46900832,4.50357143 6.4237705,4.45714286 6.37853268,4.41071429 C6.33329486,4.36428571 6.24281922,4.31785714 6.1975814,4.31785714 C6.15234358,4.31785714 6.01663011,4.27142857 5.92615447,4.27142857 C5.83567883,4.27142857 5.74520319,4.27142857 5.65472755,4.31785714 C5.56425191,4.36428571 5.51901409,4.41071429 5.47377627,4.41071429 C5.42853845,4.41071429 5.38330063,4.50357143 5.33806281,4.59642857 C5.29282499,4.68928571 5.29282499,4.78214286 5.24758717,4.82857143 C5.20234935,4.875 5.20234935,5.01428571 5.20234935,5.10714286 C5.20234935,5.2 5.20234935,5.33928571 5.20234935,5.38571429 C5.20234935,5.43214286 5.20234935,5.57142857 5.20234935,5.71071429 L5.20234935,7.98571429 C5.20234935,8.125 5.20234935,8.21785714 5.20234935,8.31071429 C5.20234935,8.40357143 5.20234935,8.49642857 5.20234935,8.58928571 C5.20234935,8.68214286 5.20234935,8.82142857 5.24758717,8.86785714 C5.29282499,8.91428571 5.29282499,9.00714286 5.33806281,9.1 C5.38330063,9.19285714 5.42853845,9.23928571 5.47377627,9.28571429 C5.51901409,9.33214286 5.56425191,9.37857143 5.65472755,9.37857143 Z" id="Shape" fill="#FFFFFF"></path>
                    <path d="M9.22851536,10.5857143 L9.22851536,3.06428571 L10.6761256,3.06428571 L10.6761256,4.08571429 C10.8118391,3.80714286 11.0380282,3.52857143 11.3094551,3.29642857 C11.580882,3.06428571 11.8975468,2.97142857 12.2594493,2.97142857 C12.2594493,2.97142857 12.349925,2.97142857 12.4856384,3.01785714 L12.4856384,4.68928571 C12.2142115,4.59642857 11.9427846,4.50357143 11.6713577,4.50357143 C11.3546929,4.50357143 11.1285038,4.59642857 10.9475525,4.78214286 C10.7666013,4.96785714 10.6761256,5.2 10.6761256,5.525 L10.6761256,10.6321429 L9.22851536,10.6321429 L9.22851536,10.5857143 Z" id="Path" fill="#FFFFFF"></path>
                    <path d="M17.2356096,10.6785714 C16.873707,10.6785714 16.5570423,10.6321429 16.2856153,10.4928571 C16.0141884,10.3535714 15.8332371,10.2142857 15.6522859,10.0285714 C15.4713346,9.84285714 15.3808589,9.56428571 15.2903833,9.28571429 C15.1999077,9.00714286 15.109432,8.68214286 15.109432,8.35714286 C15.109432,8.03214286 15.0641942,7.70714286 15.0641942,7.28928571 C15.0641942,6.96428571 15.0641942,6.63928571 15.0641942,6.31428571 C15.0641942,5.89642857 15.109432,5.57142857 15.109432,5.24642857 C15.109432,4.92142857 15.1999077,4.64285714 15.2903833,4.31785714 C15.3808589,3.99285714 15.5165724,3.76071429 15.6522859,3.575 C15.7879993,3.38928571 16.0141884,3.20357143 16.2856153,3.11071429 C16.5570423,3.01785714 16.873707,2.925 17.2356096,2.925 C18.0046525,2.925 18.5475064,3.15714286 18.9094089,3.575 C19.2713115,3.99285714 19.407025,4.64285714 19.4522628,5.47857143 L19.4522628,5.66428571 L18.0046525,5.66428571 L18.0046525,5.43214286 C18.0046525,5.24642857 18.0046525,5.06071429 17.9594147,4.92142857 C17.9141769,4.78214286 17.9141769,4.64285714 17.8689391,4.50357143 C17.8237012,4.36428571 17.7332256,4.27142857 17.64275,4.17857143 C17.5522743,4.08571429 17.4165609,4.08571429 17.2808474,4.08571429 C17.1451339,4.08571429 17.0094205,4.13214286 16.9189448,4.225 C16.8284692,4.31785714 16.7379936,4.45714286 16.6927557,4.59642857 C16.6475179,4.73571429 16.6022801,4.92142857 16.6022801,5.10714286 C16.6022801,5.29285714 16.5570423,5.47857143 16.5570423,5.71071429 C16.5570423,6.175 16.5570423,6.91785714 16.5570423,7.89285714 C16.5570423,8.125 16.6022801,8.31071429 16.6022801,8.45 C16.6022801,8.58928571 16.6475179,8.775 16.6927557,8.91428571 C16.7379936,9.05357143 16.8284692,9.19285714 16.9189448,9.28571429 C17.0094205,9.37857143 17.1451339,9.425 17.2808474,9.425 C17.4165609,9.425 17.5070365,9.37857143 17.5975121,9.33214286 C17.6879878,9.28571429 17.7784634,9.23928571 17.8237012,9.14642857 C17.8689391,9.05357143 17.9141769,8.96071429 17.9594147,8.86785714 C18.0046525,8.775 18.0046525,8.63571429 18.0046525,8.49642857 C18.0046525,8.35714286 18.0046525,8.26428571 18.0046525,8.07857143 L18.0046525,7.89285714 L19.4522628,7.89285714 L19.4522628,8.07857143 C19.4522628,8.49642857 19.407025,8.82142857 19.3165493,9.14642857 C19.2260737,9.47142857 19.0903602,9.70357143 18.9546468,9.93571429 C18.8189333,10.1678571 18.5475064,10.3535714 18.2760794,10.4464286 C18.0046525,10.5392857 17.5975121,10.6785714 17.2356096,10.6785714 Z" id="Path" fill="#FFBF17"></path>
                    <path d="M21.5332025,10.6785714 C21.1260621,10.6785714 20.7641596,10.4928571 20.4927326,10.1214286 C20.2213057,9.75 20.0855923,9.33214286 20.0855923,8.91428571 C20.0855923,8.54285714 20.1308301,8.21785714 20.2665435,7.93928571 C20.402257,7.66071429 20.4927326,7.38214286 20.6284461,7.24285714 C20.7641596,7.10357143 20.9903487,6.87142857 21.3070134,6.68571429 C21.6236782,6.5 21.8498673,6.36071429 22.0308185,6.31428571 C22.2117698,6.26785714 22.4831967,6.12857143 22.8903371,5.98928571 C22.9808128,5.94285714 23.0260506,5.94285714 23.0260506,5.94285714 L23.0260506,5.38571429 C23.0260506,5.01428571 22.9808128,4.68928571 22.8903371,4.50357143 C22.7998615,4.31785714 22.5736724,4.17857143 22.3022455,4.17857143 C22.0308185,4.17857143 21.8498673,4.27142857 21.7593916,4.45714286 C21.668916,4.64285714 21.5784403,4.875 21.5784403,5.2 C21.5784403,5.24642857 21.5784403,5.29285714 21.5784403,5.38571429 L20.1308301,5.38571429 C20.1308301,4.64285714 20.3570192,4.08571429 20.7189217,3.66785714 C21.0808243,3.25 21.6236782,3.01785714 22.3474833,3.01785714 C23.0260506,3.01785714 23.5689044,3.25 23.9760448,3.66785714 C24.3831852,4.08571429 24.5641365,4.68928571 24.5641365,5.38571429 L24.5641365,8.775 C24.5641365,9.56428571 24.6093743,10.1678571 24.7450878,10.6785714 L23.2974775,10.6785714 L23.1165262,9.56428571 C23.0260506,9.70357143 22.9808128,9.84285714 22.9355749,9.93571429 C22.8903371,10.0285714 22.7998615,10.1214286 22.7093858,10.2607143 C22.6189102,10.4 22.5284346,10.4928571 22.4379589,10.5392857 C22.3474833,10.5857143 22.2117698,10.6785714 22.0760564,10.725 C21.9403429,10.7714286 21.668916,10.6785714 21.5332025,10.6785714 Z M22.2570076,9.425 C22.3474833,9.425 22.4831967,9.37857143 22.5736724,9.33214286 C22.664148,9.28571429 22.7546237,9.19285714 22.7998615,9.14642857 C22.8450993,9.1 22.8903371,9.00714286 22.9808128,8.91428571 C22.9808128,8.91428571 22.9808128,8.86785714 23.0260506,8.86785714 L23.0260506,6.77857143 C22.9808128,6.825 22.8450993,6.87142857 22.7093858,6.96428571 C22.5736724,7.05714286 22.4379589,7.15 22.3927211,7.19642857 C22.3474833,7.24285714 22.2117698,7.33571429 22.0760564,7.42857143 C21.9403429,7.52142857 21.8498673,7.61428571 21.8046294,7.70714286 C21.7593916,7.8 21.668916,7.89285714 21.6236782,8.03214286 C21.5784403,8.17142857 21.5332025,8.31071429 21.5332025,8.45 C21.5332025,9.14642857 21.7593916,9.425 22.2570076,9.425 Z" id="Shape" fill="#FFBF17"></path>
                    <path d="M25.6046064,10.5857143 L25.6046064,3.06428571 L27.0522166,3.06428571 L27.0522166,3.9 C27.2784057,3.71428571 27.459357,3.52857143 27.5950704,3.43571429 C27.7307839,3.34285714 27.9117352,3.20357143 28.1831621,3.11071429 C28.454589,3.01785714 28.6807781,2.97142857 28.9522051,2.97142857 C29.2688698,2.97142857 29.5402967,3.11071429 29.721248,3.34285714 C29.9021993,3.575 29.9926749,3.85357143 29.9926749,4.225 L29.9926749,10.6785714 L28.5450647,10.6785714 L28.5450647,5.01428571 C28.5450647,4.73571429 28.4998269,4.55 28.454589,4.45714286 C28.4093512,4.36428571 28.2283999,4.27142857 28.0022108,4.27142857 C27.8664974,4.27142857 27.7307839,4.31785714 27.6403083,4.36428571 C27.5498326,4.41071429 27.4141192,4.45714286 27.3688813,4.50357143 C27.3236435,4.55 27.2331679,4.64285714 27.0974544,4.73571429 L27.0974544,10.725 L25.6046064,10.725 L25.6046064,10.5857143 Z" id="Path" fill="#FFBF17"></path>
                    <path d="M33.0236089,10.6785714 C32.6617063,10.6785714 32.3450416,10.6321429 32.0736147,10.4928571 C31.8021877,10.3535714 31.6212365,10.2142857 31.4402852,10.0285714 C31.2593339,9.84285714 31.1688583,9.56428571 31.0783826,9.28571429 C30.987907,9.00714286 30.8974313,8.68214286 30.8974313,8.35714286 C30.8974313,8.03214286 30.8521935,7.70714286 30.8521935,7.28928571 C30.8521935,6.96428571 30.8521935,6.63928571 30.8521935,6.31428571 C30.8521935,5.89642857 30.8974313,5.57142857 30.8974313,5.24642857 C30.8974313,4.92142857 30.987907,4.64285714 31.0783826,4.31785714 C31.1688583,3.99285714 31.3045717,3.76071429 31.4402852,3.575 C31.5759986,3.38928571 31.8021877,3.20357143 32.0736147,3.11071429 C32.3450416,3.01785714 32.6617063,2.925 33.0236089,2.925 C33.7926518,2.925 34.3355057,3.15714286 34.6974083,3.575 C35.0593108,3.99285714 35.1950243,4.64285714 35.2402621,5.47857143 L35.2402621,5.66428571 L33.7926518,5.66428571 L33.7926518,5.43214286 C33.7926518,5.24642857 33.7926518,5.06071429 33.747414,4.92142857 C33.7021762,4.78214286 33.7021762,4.64285714 33.6569384,4.50357143 C33.6117006,4.36428571 33.5212249,4.27142857 33.4307493,4.17857143 C33.3402736,4.08571429 33.2045602,4.08571429 33.0688467,4.08571429 C32.9331333,4.08571429 32.7974198,4.13214286 32.7069442,4.225 C32.6164685,4.31785714 32.5259929,4.45714286 32.4807551,4.59642857 C32.4355172,4.73571429 32.3902794,4.92142857 32.3902794,5.10714286 C32.3902794,5.29285714 32.3450416,5.47857143 32.3450416,5.71071429 C32.3450416,6.175 32.3450416,6.91785714 32.3450416,7.89285714 C32.3450416,8.125 32.3902794,8.31071429 32.3902794,8.45 C32.3902794,8.58928571 32.4355172,8.775 32.4807551,8.91428571 C32.5259929,9.05357143 32.6164685,9.19285714 32.7069442,9.28571429 C32.7974198,9.37857143 32.9331333,9.425 33.0688467,9.425 C33.2045602,9.425 33.2950358,9.37857143 33.3855115,9.33214286 C33.4759871,9.28571429 33.5664627,9.23928571 33.6117006,9.14642857 C33.6569384,9.05357143 33.7021762,8.96071429 33.747414,8.86785714 C33.7926518,8.775 33.7926518,8.63571429 33.7926518,8.49642857 C33.7926518,8.35714286 33.7926518,8.26428571 33.7926518,8.07857143 L33.7926518,7.89285714 L35.2402621,7.89285714 L35.2402621,8.07857143 C35.2402621,8.49642857 35.1950243,8.82142857 35.1045486,9.14642857 C35.014073,9.47142857 34.8783595,9.70357143 34.7426461,9.93571429 C34.6069326,10.1678571 34.3355057,10.3535714 34.0640788,10.4464286 C33.7926518,10.5392857 33.4307493,10.6785714 33.0236089,10.6785714 Z" id="Path" fill="#FFBF17"></path>
                    <path d="M38.1354826,10.6785714 C37.77358,10.6785714 37.4569153,10.6321429 37.1854884,10.4928571 C36.9140615,10.3535714 36.7331102,10.2142857 36.5521589,9.98214286 C36.3712076,9.75 36.280732,9.51785714 36.1902563,9.19285714 C36.0997807,8.86785714 36.009305,8.54285714 36.009305,8.26428571 C36.009305,7.98571429 35.9640672,7.56785714 35.9640672,7.15 C35.9640672,6.825 35.9640672,6.5 35.9640672,6.175 C35.9640672,5.80357143 36.009305,5.43214286 36.0545429,5.10714286 C36.0997807,4.78214286 36.1450185,4.50357143 36.280732,4.225 C36.4164454,3.94642857 36.5069211,3.71428571 36.6878724,3.52857143 C36.8688236,3.34285714 37.0497749,3.20357143 37.3212018,3.06428571 C37.5926288,2.925 37.8640557,2.87857143 38.2259582,2.87857143 C38.542623,2.87857143 38.8140499,2.925 39.040239,3.01785714 C39.2664281,3.11071429 39.4926172,3.25 39.6283307,3.38928571 C39.7640441,3.52857143 39.8997576,3.76071429 40.0354711,3.94642857 C40.1711845,4.13214286 40.2164223,4.41071429 40.2616602,4.68928571 C40.306898,4.96785714 40.3521358,5.29285714 40.3521358,5.57142857 C40.3521358,5.85 40.3973736,6.175 40.3973736,6.54642857 L40.3973736,6.73214286 L37.4569153,6.73214286 L37.4569153,7.10357143 C37.4569153,7.15 37.4569153,7.24285714 37.4569153,7.33571429 C37.4569153,7.475 37.4569153,7.61428571 37.4569153,7.8 C37.4569153,7.98571429 37.4569153,8.125 37.4569153,8.26428571 C37.4569153,8.40357143 37.5021531,8.54285714 37.5021531,8.68214286 C37.5021531,8.82142857 37.5926288,8.91428571 37.6378666,9.05357143 C37.6831044,9.19285714 37.77358,9.23928571 37.8640557,9.28571429 C37.9545313,9.33214286 38.045007,9.37857143 38.1807204,9.37857143 C38.3164339,9.37857143 38.4521473,9.33214286 38.542623,9.28571429 C38.6330986,9.23928571 38.7235743,9.14642857 38.7688121,9.00714286 C38.8140499,8.86785714 38.8592877,8.775 38.8592877,8.63571429 C38.8592877,8.49642857 38.9045256,8.35714286 38.9045256,8.17142857 L38.9045256,7.84642857 L40.3521358,7.84642857 L40.3521358,8.125 C40.306898,8.91428571 40.1259467,9.51785714 39.7640441,9.93571429 C39.4021416,10.3535714 38.8592877,10.6785714 38.1354826,10.6785714 Z M37.4116775,6.03571429 L38.8592877,6.03571429 L38.8592877,5.57142857 C38.8592877,5.38571429 38.8592877,5.2 38.8140499,5.06071429 C38.7688121,4.92142857 38.7688121,4.78214286 38.7235743,4.59642857 C38.6783364,4.41071429 38.5878608,4.31785714 38.4973852,4.27142857 C38.4069095,4.225 38.2711961,4.13214286 38.1354826,4.13214286 C37.9997691,4.13214286 37.8640557,4.17857143 37.77358,4.27142857 C37.6831044,4.36428571 37.5926288,4.45714286 37.5473909,4.64285714 C37.5021531,4.82857143 37.4569153,4.96785714 37.4569153,5.10714286 C37.4569153,5.24642857 37.4116775,5.43214286 37.4116775,5.66428571 L37.4116775,6.03571429 Z" id="Shape" fill="#FFBF17"></path>
                    <path d="M41.30213,10.5857143 L41.30213,3.06428571 L42.7497403,3.06428571 L42.7497403,4.08571429 C42.8854537,3.80714286 43.1116428,3.52857143 43.3830698,3.29642857 C43.6544967,3.06428571 43.9711614,2.97142857 44.333064,2.97142857 C44.333064,2.97142857 44.4235396,2.97142857 44.5592531,3.01785714 L44.5592531,4.68928571 C44.2878262,4.59642857 44.0163993,4.50357143 43.7449723,4.50357143 C43.4283076,4.50357143 43.2021185,4.59642857 43.0211672,4.78214286 C42.8402159,4.96785714 42.7497403,5.2 42.7497403,5.525 L42.7497403,10.6321429 L41.30213,10.6321429 L41.30213,10.5857143 Z" id="Path" fill="#FFBF17"></path>
                    <path d="M47.4544736,12.8142857 L47.4544736,3.01785714 L48.9020839,3.01785714 L48.9020839,3.76071429 C49.0377973,3.62142857 49.0830351,3.52857143 49.128273,3.48214286 C49.1735108,3.43571429 49.2639864,3.34285714 49.3544621,3.25 C49.4449377,3.15714286 49.5806512,3.06428571 49.625889,3.06428571 C49.6711268,3.06428571 49.8068403,2.97142857 49.9425537,2.97142857 C50.0782672,2.97142857 50.2139807,2.925 50.3496941,2.925 C50.621121,2.925 50.8020723,2.97142857 51.0282614,3.06428571 C51.2544505,3.15714286 51.390164,3.25 51.5258774,3.38928571 C51.6615909,3.52857143 51.7520665,3.71428571 51.8425422,3.94642857 C51.9330178,4.17857143 51.9782556,4.41071429 52.0234935,4.59642857 C52.0687313,4.78214286 52.1139691,5.06071429 52.1139691,5.38571429 C52.1139691,5.71071429 52.1592069,5.98928571 52.1592069,6.175 C52.1592069,6.36071429 52.1592069,6.68571429 52.1592069,7.01071429 L52.1592069,7.10357143 C52.1592069,7.42857143 52.1592069,7.75357143 52.1139691,8.07857143 C52.0687313,8.40357143 52.0234935,8.68214286 51.9330178,9.00714286 C51.8425422,9.33214286 51.7520665,9.61071429 51.6163531,9.84285714 C51.4806396,10.075 51.2996883,10.2607143 51.0734992,10.4 C50.8473101,10.5392857 50.621121,10.6321429 50.3044563,10.6321429 C49.8068403,10.6321429 49.3092242,10.3535714 48.856846,9.84285714 L48.856846,12.7678571 L47.4544736,12.7678571 L47.4544736,12.8142857 Z M50.0330294,9.425 C50.1687428,9.425 50.3044563,9.37857143 50.4401698,9.23928571 C50.5758832,9.1 50.621121,8.96071429 50.6663589,8.72857143 C50.7115967,8.49642857 50.7568345,8.31071429 50.7568345,8.07857143 C50.7568345,7.84642857 50.8020723,7.61428571 50.8020723,7.33571429 L50.8020723,6.36071429 C50.8020723,6.175 50.8020723,6.03571429 50.8020723,5.94285714 C50.8020723,5.85 50.8020723,5.71071429 50.8020723,5.525 C50.8020723,5.33928571 50.7568345,5.2 50.7568345,5.10714286 C50.7568345,5.01428571 50.7115967,4.875 50.6663589,4.73571429 C50.621121,4.59642857 50.5758832,4.50357143 50.5306454,4.41071429 C50.4854076,4.31785714 50.3949319,4.27142857 50.3044563,4.225 C50.2139807,4.17857143 50.123505,4.13214286 49.9877916,4.13214286 C49.9425537,4.13214286 49.8973159,4.13214286 49.8068403,4.13214286 C49.7163646,4.13214286 49.7163646,4.13214286 49.625889,4.17857143 C49.5354133,4.225 49.5354133,4.225 49.4901755,4.225 C49.4449377,4.225 49.3996999,4.27142857 49.3544621,4.27142857 C49.3092242,4.27142857 49.2639864,4.31785714 49.2187486,4.31785714 C49.1735108,4.31785714 49.128273,4.36428571 49.0830351,4.41071429 C49.0377973,4.45714286 48.9925595,4.45714286 48.9473217,4.50357143 L48.9473217,9.19285714 C49.2639864,9.33214286 49.625889,9.425 50.0330294,9.425 Z" id="Shape" fill="#FFFFFF"></path>
                    <path d="M53.3353903,10.5857143 L53.3353903,3.06428571 L54.7830005,3.06428571 L54.7830005,4.08571429 C54.918714,3.80714286 55.1449031,3.52857143 55.41633,3.29642857 C55.6877569,3.06428571 56.0044217,2.97142857 56.3663242,2.97142857 C56.3663242,2.97142857 56.4567999,2.97142857 56.5925133,3.01785714 L56.5925133,4.68928571 C56.3210864,4.59642857 56.0496595,4.50357143 55.7782326,4.50357143 C55.4615678,4.50357143 55.2353787,4.59642857 55.0544274,4.78214286 C54.8734762,4.96785714 54.7830005,5.2 54.7830005,5.525 L54.7830005,10.6321429 L53.3353903,10.6321429 L53.3353903,10.5857143 Z" id="Path" fill="#FFFFFF"></path>
                    <path d="M59.2163069,10.6785714 C58.8544044,10.6785714 58.5377396,10.6321429 58.2663127,10.4928571 C57.9948858,10.3535714 57.8139345,10.2142857 57.6329832,9.98214286 C57.4520319,9.75 57.3615563,9.51785714 57.2710806,9.19285714 C57.180605,8.86785714 57.0901294,8.54285714 57.0901294,8.26428571 C57.0901294,7.98571429 57.0448915,7.56785714 57.0448915,7.15 C57.0448915,6.825 57.0448915,6.5 57.0448915,6.175 C57.0448915,5.80357143 57.0901294,5.43214286 57.1353672,5.10714286 C57.180605,4.78214286 57.2258428,4.50357143 57.3615563,4.225 C57.4972697,3.94642857 57.5877454,3.71428571 57.7686967,3.52857143 C57.9496479,3.34285714 58.1305992,3.20357143 58.4020261,3.06428571 C58.6734531,2.925 58.94488,2.87857143 59.3067826,2.87857143 C59.6234473,2.87857143 59.8948742,2.925 60.1210633,3.01785714 C60.3472524,3.11071429 60.5734415,3.25 60.709155,3.38928571 C60.8901063,3.575 60.9805819,3.76071429 61.1162954,3.94642857 C61.206771,4.13214286 61.2972467,4.41071429 61.3424845,4.68928571 C61.3877223,4.96785714 61.4329601,5.29285714 61.4329601,5.57142857 C61.4329601,5.85 61.4781979,6.175 61.4781979,6.54642857 L61.4781979,6.73214286 L58.5377396,6.73214286 L58.5377396,7.10357143 C58.5377396,7.15 58.5377396,7.24285714 58.5377396,7.33571429 C58.5377396,7.475 58.5377396,7.61428571 58.5377396,7.8 C58.5377396,7.98571429 58.5377396,8.125 58.5377396,8.26428571 C58.5377396,8.40357143 58.5829774,8.54285714 58.5829774,8.68214286 C58.5829774,8.82142857 58.6734531,8.91428571 58.7186909,9.05357143 C58.7639287,9.19285714 58.8544044,9.23928571 58.94488,9.28571429 C59.0353556,9.33214286 59.1258313,9.37857143 59.2615447,9.37857143 C59.3972582,9.37857143 59.5329717,9.33214286 59.6234473,9.28571429 C59.7139229,9.23928571 59.8043986,9.14642857 59.8496364,9.00714286 C59.8948742,8.86785714 59.940112,8.775 59.940112,8.63571429 C59.940112,8.49642857 59.9853499,8.35714286 59.9853499,8.17142857 L59.9853499,7.84642857 L61.4329601,7.84642857 L61.4329601,8.125 C61.3877223,8.91428571 61.206771,9.51785714 60.8448684,9.93571429 C60.4829659,10.3535714 59.9853499,10.6785714 59.2163069,10.6785714 Z M58.4925018,6.03571429 L59.940112,6.03571429 L59.940112,5.57142857 C59.940112,5.38571429 59.940112,5.2 59.8948742,5.06071429 C59.8496364,4.92142857 59.8496364,4.78214286 59.8043986,4.59642857 C59.7591608,4.45714286 59.6686851,4.31785714 59.5782095,4.27142857 C59.4877338,4.17857143 59.3520204,4.13214286 59.2163069,4.13214286 C59.0805935,4.13214286 58.94488,4.17857143 58.8544044,4.27142857 C58.7639287,4.36428571 58.6734531,4.45714286 58.6282152,4.64285714 C58.5829774,4.82857143 58.5377396,4.96785714 58.5377396,5.10714286 C58.5377396,5.24642857 58.4925018,5.43214286 58.4925018,5.66428571 L58.4925018,6.03571429 Z" id="Shape" fill="#FFFFFF"></path>
                    <polygon id="Path" fill="#FFFFFF" points="63.5138999 10.5857143 61.8401005 3.06428571 63.2424729 3.06428571 64.2829428 8.72857143 65.232937 3.06428571 66.6353095 3.06428571 65.0067479 10.5857143"></polygon>
                    <path d="M69.3043409,10.6785714 C68.9424383,10.6785714 68.6257736,10.6321429 68.3995845,10.4928571 C68.1281575,10.3535714 67.9472063,10.2142857 67.766255,9.98214286 C67.6305415,9.79642857 67.494828,9.51785714 67.4043524,9.19285714 C67.3138768,8.86785714 67.2234011,8.54285714 67.2234011,8.26428571 C67.1781633,7.93928571 67.1781633,7.56785714 67.1781633,7.15 C67.1781633,6.825 67.1781633,6.5 67.1781633,6.175 C67.1781633,5.80357143 67.2234011,5.43214286 67.2686389,5.10714286 C67.3138768,4.78214286 67.3591146,4.50357143 67.494828,4.225 C67.6305415,3.94642857 67.7210172,3.71428571 67.9019684,3.52857143 C68.0829197,3.34285714 68.263871,3.20357143 68.5352979,3.06428571 C68.8067248,2.97142857 69.0781518,2.87857143 69.4400543,2.87857143 C69.7567191,2.87857143 70.028146,2.925 70.2543351,3.01785714 C70.4805242,3.11071429 70.7067133,3.25 70.8424268,3.38928571 C71.023378,3.575 71.1138537,3.76071429 71.2495671,3.94642857 C71.3400428,4.13214286 71.4305184,4.41071429 71.4757562,4.68928571 C71.5209941,4.96785714 71.5662319,5.29285714 71.5662319,5.57142857 C71.5662319,5.85 71.6114697,6.175 71.6114697,6.54642857 L71.6114697,6.73214286 L68.6710114,6.73214286 L68.6710114,7.10357143 C68.6710114,7.15 68.6710114,7.24285714 68.6710114,7.33571429 C68.6710114,7.475 68.6710114,7.61428571 68.6710114,7.8 C68.6710114,7.93928571 68.6710114,8.125 68.6710114,8.26428571 C68.6710114,8.40357143 68.7162492,8.54285714 68.7162492,8.68214286 C68.7162492,8.82142857 68.8067248,8.91428571 68.8519627,9.05357143 C68.8972005,9.19285714 68.9876761,9.23928571 69.0781518,9.28571429 C69.1686274,9.33214286 69.259103,9.37857143 69.3948165,9.37857143 C69.53053,9.37857143 69.6662434,9.33214286 69.7567191,9.28571429 C69.8471947,9.23928571 69.9376704,9.14642857 69.9829082,9.00714286 C70.028146,8.86785714 70.0733838,8.775 70.0733838,8.63571429 C70.0733838,8.49642857 70.1186216,8.35714286 70.1186216,8.17142857 L70.1186216,7.84642857 L71.5662319,7.84642857 L71.5662319,8.125 C71.5209941,8.91428571 71.3400428,9.51785714 70.9781402,9.93571429 C70.6162377,10.3535714 70.028146,10.6785714 69.3043409,10.6785714 Z M68.5805357,6.03571429 L70.028146,6.03571429 L70.028146,5.57142857 C70.028146,5.38571429 70.028146,5.2 69.9829082,5.06071429 C69.9376704,4.92142857 69.9376704,4.78214286 69.8924325,4.59642857 C69.8471947,4.45714286 69.7567191,4.31785714 69.6662434,4.27142857 C69.5757678,4.225 69.4400543,4.13214286 69.3043409,4.13214286 C69.1686274,4.13214286 69.0329139,4.17857143 68.9424383,4.27142857 C68.8519627,4.36428571 68.761487,4.45714286 68.7162492,4.64285714 C68.6710114,4.78214286 68.6257736,4.96785714 68.6257736,5.10714286 C68.6257736,5.24642857 68.5805357,5.43214286 68.5805357,5.66428571 L68.5805357,6.03571429 Z" id="Shape" fill="#FFFFFF"></path>
                    <path d="M72.4709883,10.5857143 L72.4709883,3.06428571 L73.9185985,3.06428571 L73.9185985,3.9 C74.1447876,3.71428571 74.3257389,3.52857143 74.4614524,3.43571429 C74.5971659,3.34285714 74.7781171,3.20357143 75.0495441,3.11071429 C75.2757332,3.01785714 75.5471601,2.97142857 75.818587,2.97142857 C76.1352517,2.97142857 76.4066787,3.11071429 76.58763,3.34285714 C76.7685812,3.575 76.8590569,3.85357143 76.8590569,4.225 L76.8590569,10.6785714 L75.4114466,10.6785714 L75.4114466,5.01428571 C75.4114466,4.73571429 75.3662088,4.55 75.320971,4.45714286 C75.2757332,4.36428571 75.0947819,4.27142857 74.8685928,4.27142857 C74.7328793,4.27142857 74.5971659,4.31785714 74.5066902,4.36428571 C74.3709768,4.41071429 74.2805011,4.45714286 74.2352633,4.50357143 C74.1900255,4.55 74.0995498,4.64285714 73.9638364,4.73571429 L73.9638364,10.725 L72.4709883,10.725 L72.4709883,10.5857143 Z" id="Path" fill="#FFFFFF"></path>
                    <path d="M80.1161799,10.6785714 C79.5280883,10.6785714 79.1209479,10.5392857 78.849521,10.2142857 C78.578094,9.88928571 78.4423806,9.47142857 78.4423806,8.82142857 L78.4423806,4.13214286 L77.7185755,4.13214286 L77.7185755,3.01785714 L78.4423806,3.01785714 L78.4423806,0.371428571 L79.8899908,0.371428571 L79.8899908,3.01785714 L80.9756985,3.01785714 L80.9756985,4.13214286 L79.8899908,4.13214286 L79.8899908,8.54285714 C79.8899908,8.86785714 79.9352287,9.05357143 80.0257043,9.19285714 C80.1161799,9.33214286 80.2518934,9.425 80.5233203,9.425 C80.613796,9.425 80.7947472,9.425 81.0209364,9.37857143 L81.0209364,10.5857143 C80.6590338,10.6321429 80.342369,10.6785714 80.1161799,10.6785714 Z" id="Path" fill="#FFFFFF"></path>
                    <path d="M82.0614062,1.90357143 L82.0614062,0.417857143 L83.5090165,0.417857143 L83.5090165,1.90357143 L82.0614062,1.90357143 Z M82.0614062,10.5857143 L82.0614062,3.06428571 L83.5090165,3.06428571 L83.5090165,10.5857143 L82.0614062,10.5857143 Z" id="Shape" fill="#FFFFFF"></path>
                    <path d="M88.5756524,9.98214286 C88.2137498,10.4464286 87.670896,10.6785714 86.901853,10.6785714 C86.1328101,10.6785714 85.5447184,10.4464286 85.2280536,9.98214286 C84.9113889,9.51785714 84.7304376,8.82142857 84.7304376,7.93928571 L84.7304376,5.66428571 C84.7304376,4.78214286 84.9113889,4.08571429 85.2280536,3.62142857 C85.5447184,3.15714286 86.1328101,2.925 86.901853,2.925 C87.670896,2.925 88.2589876,3.15714286 88.5756524,3.62142857 C88.8923171,4.08571429 89.0732684,4.78214286 89.0732684,5.66428571 L89.0732684,7.93928571 C89.0732684,8.82142857 88.8923171,9.51785714 88.5756524,9.98214286 Z M86.5851883,9.37857143 C86.6756639,9.425 86.7661395,9.425 86.8566152,9.425 C86.9470908,9.425 87.0375665,9.425 87.1280421,9.37857143 C87.2185177,9.33214286 87.2637556,9.28571429 87.3089934,9.28571429 C87.3542312,9.23928571 87.399469,9.19285714 87.4447068,9.1 C87.4899447,9.00714286 87.4899447,8.91428571 87.5351825,8.86785714 C87.5804203,8.82142857 87.5804203,8.68214286 87.5804203,8.58928571 C87.5804203,8.49642857 87.5804203,8.35714286 87.5804203,8.31071429 C87.5804203,8.21785714 87.5804203,8.125 87.5804203,7.98571429 L87.5804203,5.71071429 C87.5804203,5.57142857 87.5804203,5.47857143 87.5804203,5.38571429 C87.5804203,5.29285714 87.5804203,5.2 87.5804203,5.10714286 C87.5804203,5.01428571 87.5804203,4.875 87.5351825,4.82857143 C87.4899447,4.78214286 87.4899447,4.68928571 87.4447068,4.59642857 C87.399469,4.50357143 87.3542312,4.45714286 87.3089934,4.41071429 C87.2637556,4.36428571 87.1732799,4.31785714 87.1280421,4.31785714 C87.0375665,4.27142857 86.9470908,4.27142857 86.8566152,4.27142857 C86.7661395,4.27142857 86.6756639,4.27142857 86.5851883,4.31785714 C86.4947126,4.36428571 86.4494748,4.41071429 86.404237,4.41071429 C86.3589992,4.45714286 86.3137613,4.50357143 86.2685235,4.59642857 C86.2232857,4.68928571 86.2232857,4.78214286 86.1780479,4.82857143 C86.1328101,4.875 86.1328101,5.01428571 86.1328101,5.10714286 C86.1328101,5.2 86.1328101,5.33928571 86.1328101,5.38571429 C86.1328101,5.47857143 86.1328101,5.57142857 86.1328101,5.71071429 L86.1328101,7.98571429 C86.1328101,8.125 86.1328101,8.21785714 86.1328101,8.31071429 C86.1328101,8.40357143 86.1328101,8.49642857 86.1328101,8.58928571 C86.1328101,8.68214286 86.1328101,8.82142857 86.1780479,8.86785714 C86.2232857,8.91428571 86.2232857,9.00714286 86.2685235,9.1 C86.3137613,9.19285714 86.3589992,9.23928571 86.404237,9.28571429 C86.4494748,9.33214286 86.5399504,9.37857143 86.5851883,9.37857143 Z" id="Shape" fill="#FFFFFF"></path>
                    <path d="M90.2042139,10.5857143 L90.2042139,3.06428571 L91.6518241,3.06428571 L91.6518241,3.9 C91.8780132,3.71428571 92.0589645,3.52857143 92.194678,3.43571429 C92.3303915,3.34285714 92.5113427,3.20357143 92.7827697,3.11071429 C93.0089588,3.01785714 93.2803857,2.97142857 93.5518126,2.97142857 C93.8684773,2.97142857 94.1399043,3.11071429 94.3208556,3.34285714 C94.5018068,3.575 94.5922825,3.85357143 94.5922825,4.225 L94.5922825,10.6785714 L93.1446722,10.6785714 L93.1446722,5.01428571 C93.1446722,4.73571429 93.0994344,4.55 93.0541966,4.45714286 C93.0089588,4.36428571 92.8280075,4.27142857 92.6018184,4.27142857 C92.4661049,4.27142857 92.3303915,4.31785714 92.2399158,4.36428571 C92.1042024,4.41071429 92.0137267,4.45714286 91.9684889,4.50357143 C91.9232511,4.55 91.8327754,4.64285714 91.697062,4.73571429 L91.697062,10.725 L90.2042139,10.725 L90.2042139,10.5857143 Z" id="Path" fill="#FFFFFF"></path>
                    <g transform="translate(97.261314, 0.000000)" fill="#FFFFFF">
                        <path d="M0.995232049,10.075 C0.588091665,9.75 0.316664743,9.23928571 0.180951282,8.58928571 L1.44761025,8.07857143 C1.62856153,8.91428571 1.9904641,9.33214286 2.4428423,9.33214286 C2.62379358,9.33214286 2.80474487,9.28571429 2.89522051,9.14642857 C3.03093397,9.05357143 3.07617179,8.86785714 3.07617179,8.68214286 C3.07617179,8.54285714 2.98569615,8.35714286 2.84998269,8.17142857 C2.71426922,7.98571429 2.53331794,7.8 2.26189102,7.56785714 L1.40237243,6.77857143 C1.04046987,6.45357143 0.769042947,6.175 0.588091665,5.89642857 C0.407140384,5.61785714 0.316664743,5.24642857 0.316664743,4.875 C0.316664743,4.27142857 0.497616024,3.80714286 0.904756408,3.43571429 C1.31189679,3.06428571 1.764275,2.87857143 2.39760448,2.87857143 C2.98569615,2.87857143 3.43807435,3.06428571 3.79997691,3.38928571 C4.16187948,3.71428571 4.38806858,4.225 4.52378204,4.78214286 L3.39283653,5.29285714 C3.34759871,4.96785714 3.21188525,4.68928571 3.07617179,4.45714286 C2.94045833,4.225 2.71426922,4.13214286 2.48808012,4.13214286 C2.30712884,4.13214286 2.17141538,4.17857143 2.08093974,4.31785714 C1.9904641,4.41071429 1.94522628,4.55 1.94522628,4.73571429 C1.94522628,4.875 1.9904641,5.01428571 2.12617756,5.15357143 C2.26189102,5.29285714 2.39760448,5.47857143 2.6690314,5.71071429 L3.52854999,6.54642857 C3.89045256,6.87142857 4.2071173,7.19642857 4.38806858,7.52142857 C4.61425768,7.84642857 4.70473332,8.17142857 4.70473332,8.63571429 C4.70473332,9.28571429 4.47854422,9.75 4.07140384,10.075 C3.66426345,10.4 3.12140961,10.5857143 2.53331794,10.5857143 C1.89998846,10.5857143 1.40237243,10.4 0.995232049,10.075 Z" id="Path"></path>
                        <path d="M6.24281922,9.98214286 C6.01663011,9.61071429 5.88091665,9.05357143 5.88091665,8.31071429 L5.88091665,4.17857143 L5.15711153,4.17857143 L5.15711153,3.01785714 L5.88091665,3.01785714 L5.88091665,0.789285714 L7.59995383,0.789285714 L7.59995383,3.01785714 L8.68566152,3.01785714 L8.68566152,4.17857143 L7.59995383,4.17857143 L7.59995383,8.45 C7.59995383,8.68214286 7.64519165,8.86785714 7.73566729,9.00714286 C7.82614293,9.1 8.00709421,9.19285714 8.23328331,9.19285714 C8.36899678,9.19285714 8.54994806,9.19285714 8.77613716,9.14642857 L8.77613716,10.4928571 C8.36899678,10.5392857 7.96185639,10.5857143 7.59995383,10.5857143 C6.92138652,10.5392857 6.46900832,10.3535714 6.24281922,9.98214286 Z" id="Path"></path>
                        <path d="M9.99755831,10.1214286 C9.81660703,9.79642857 9.68089357,9.425 9.68089357,8.96071429 L9.68089357,3.01785714 L11.3546929,3.01785714 L11.3546929,8.63571429 C11.3546929,8.86785714 11.3999307,9.05357143 11.4451686,9.14642857 C11.5356442,9.28571429 11.6713577,9.33214286 11.8523089,9.33214286 C12.078498,9.33214286 12.3046872,9.19285714 12.6213519,9.00714286 L12.6213519,3.06428571 L14.3403891,3.06428571 L14.3403891,10.4928571 L12.6665897,10.4928571 L12.6665897,9.75 C12.1237359,10.3071429 11.5356442,10.5857143 10.9023147,10.5857143 C10.4951743,10.5857143 10.1785096,10.4464286 9.99755831,10.1214286 Z" id="Path"></path>
                        <path d="M15.9689506,9.93571429 C15.6975237,9.51785714 15.5618102,8.82142857 15.5618102,7.93928571 L15.5618102,5.66428571 C15.5618102,4.82857143 15.6975237,4.17857143 15.9689506,3.66785714 C16.2403775,3.15714286 16.6927557,2.925 17.2808474,2.925 C17.7332256,2.925 18.1856038,3.11071429 18.5927442,3.52857143 L18.5927442,0.0464285714 L20.3117814,0.0464285714 L20.3117814,10.4928571 L18.5927442,10.4928571 L18.5927442,9.98214286 C18.1856038,10.4 17.7332256,10.6321429 17.2808474,10.6321429 C16.6927557,10.5857143 16.2856153,10.3535714 15.9689506,9.93571429 Z M18.5927442,9.14642857 L18.5927442,4.36428571 C18.3665551,4.17857143 18.140366,4.13214286 17.9141769,4.13214286 C17.4617987,4.13214286 17.2808474,4.50357143 17.2808474,5.29285714 L17.2808474,8.07857143 C17.2808474,8.49642857 17.3260852,8.82142857 17.4165609,9.05357143 C17.5070365,9.28571429 17.6879878,9.37857143 17.9141769,9.37857143 C18.140366,9.37857143 18.3665551,9.28571429 18.5927442,9.14642857 Z" id="Shape"></path>
                        <path d="M21.668916,11.2357143 C22.1212942,11.2357143 22.4379589,11.1892857 22.6189102,11.1428571 C22.7998615,11.05 22.8903371,10.9107143 22.8903371,10.6785714 C22.8903371,10.5857143 22.8903371,10.4928571 22.8903371,10.4464286 C22.8903371,10.3535714 22.8450993,10.1214286 22.7093858,9.70357143 L22.6189102,9.37857143 L21.9403429,6.63928571 C21.4427269,4.64285714 21.1260621,3.43571429 21.0355865,3.06428571 L22.7093858,3.06428571 L23.6593801,7.98571429 L24.4736608,3.06428571 L26.1022224,3.06428571 L24.3831852,10.9107143 C24.2474717,11.5142857 23.9760448,11.8857143 23.5689044,12.1642857 C23.161764,12.3964286 22.5736724,12.5357143 21.8951051,12.5357143 L21.668916,12.5357143 L21.668916,11.2357143 L21.668916,11.2357143 Z" id="Path"></path>
                    </g>
                </g>
            </g>
        </g>
    </g>
</svg>