<?xml version="1.0" encoding="UTF-8"?>
<svg width="456px" height="50px" viewBox="0 0 456 50" version="1.1" xmlns="http://www.w3.org/2000/svg" xmlns:xlink="http://www.w3.org/1999/xlink">
    <title>Connect_DCEG_Logo WHITE-01</title>
    <g id="SYMBOLS" stroke="none" stroke-width="1" fill="none" fill-rule="evenodd">
        <g id="Header-/-3" transform="translate(-141.000000, -22.000000)" fill="#FFFFFF" fill-rule="nonzero">
            <g id="Connect_DCEG_Logo-WHITE-01" transform="translate(141.000000, 22.000000)">
                <path d="M67.673913,2.59259259 C66.6695652,1.01851852 64.9347826,0 63.1086957,0 L59,0 L72.8782609,25 L59,50 L63.1086957,50 C65.026087,50 66.7608696,48.9814815 67.673913,47.4074074 L80,25 L67.673913,2.59259259 Z" id="Path"></path>
                <path d="M55.2,0 L5.336,0 C2.392,0 0,2.40740741 0,5.37037037 L0,44.6296296 C0,47.5925926 2.392,50 5.336,50 L55.2,50 L69,25 L55.2,0 Z M25.76,36.1111111 L22.08,36.1111111 L11.96,19.8148148 L11.96,36.1111111 L8.28,36.1111111 L8.28,13.8888889 L11.96,13.8888889 L22.08,30.1851852 L22.08,13.8888889 L25.76,13.8888889 L25.76,36.1111111 Z M33.12,36.1111111 L29.44,36.1111111 L29.44,13.8888889 L33.12,13.8888889 L33.12,36.1111111 Z M54.28,36.1111111 L50.6,36.1111111 L50.6,26.8518519 L40.48,26.8518519 L40.48,36.1111111 L36.8,36.1111111 L36.8,13.8888889 L40.48,13.8888889 L40.48,23.1481481 L50.6,23.1481481 L50.6,13.8888889 L54.28,13.8888889 L54.28,36.1111111 Z" id="Shape"></path>
                <g id="Group" transform="translate(93.000000, 7.000000)">
                    <polygon id="Path" points="7.20481928 0.923076923 9.51405622 0.923076923 9.51405622 11.2615385 7.20481928 11.2615385 2.30923695 4.8 2.30923695 11.2615385 0 11.2615385 0 0.923076923 2.12449799 0.923076923 7.20481928 7.56923077"></polygon>
                    <path d="M19.4899598,11.2615385 L18.5662651,9.04615385 L14.2248996,9.04615385 L13.3012048,11.2615385 L10.8072289,11.2615385 L15.2409639,0.923076923 L17.4578313,0.923076923 L21.8915663,11.2615385 L19.4899598,11.2615385 L19.4899598,11.2615385 Z M16.3493976,3.96923077 L15.0562249,6.92307692 L17.6425703,6.92307692 L16.3493976,3.96923077 Z" id="Shape"></path>
                    <polygon id="Path" points="26.6947791 2.95384615 26.6947791 11.2615385 24.3855422 11.2615385 24.3855422 2.95384615 21.4297189 2.95384615 21.4297189 0.923076923 29.5582329 0.923076923 29.5582329 2.95384615"></polygon>
                    <polygon id="Path" points="31.313253 0.923076923 33.62249 0.923076923 33.62249 11.2615385 31.313253 11.2615385"></polygon>
                    <path d="M44.8915663,9.78461538 C43.875502,10.8 42.5823293,11.3538462 41.0120482,11.3538462 C39.4417671,11.3538462 38.2409639,10.8 37.1325301,9.78461538 C36.1164659,8.76923077 35.562249,7.47692308 35.562249,6 C35.562249,4.52307692 36.1164659,3.23076923 37.1325301,2.21538462 C38.1485944,1.2 39.4417671,0.646153846 41.0120482,0.646153846 C42.5823293,0.646153846 43.7831325,1.2 44.8915663,2.21538462 C45.9076305,3.23076923 46.4618474,4.52307692 46.4618474,6 C46.4618474,7.47692308 45.9076305,8.76923077 44.8915663,9.78461538 Z M44.060241,6 C44.060241,5.07692308 43.7831325,4.33846154 43.1365462,3.6 C42.5823293,2.95384615 41.8433735,2.58461538 40.9196787,2.58461538 C40.0883534,2.58461538 39.3493976,2.95384615 38.7028112,3.6 C38.0562249,4.24615385 37.7791165,5.07692308 37.7791165,6 C37.7791165,6.92307692 38.0562249,7.66153846 38.7028112,8.30769231 C39.2570281,8.95384615 39.9959839,9.23076923 40.9196787,9.23076923 C41.8433735,9.23076923 42.4899598,8.95384615 43.1365462,8.30769231 C43.7831325,7.75384615 44.060241,6.92307692 44.060241,6 Z" id="Shape"></path>
                    <polygon id="Path" points="55.6064257 0.923076923 57.9156627 0.923076923 57.9156627 11.2615385 55.6064257 11.2615385 50.7108434 4.8 50.7108434 11.2615385 48.4016064 11.2615385 48.4016064 0.923076923 50.5261044 0.923076923 55.6064257 7.56923077"></polygon>
                    <path d="M67.7991968,11.2615385 L66.875502,9.04615385 L62.5341365,9.04615385 L61.6104418,11.2615385 L59.1164659,11.2615385 L63.5502008,0.923076923 L65.7670683,0.923076923 L70.2008032,11.2615385 L67.7991968,11.2615385 L67.7991968,11.2615385 Z M64.751004,3.96923077 L63.4578313,6.92307692 L66.0441767,6.92307692 L64.751004,3.96923077 Z" id="Shape"></path>
                    <polygon id="Path" points="71.4939759 11.2615385 71.4939759 0.923076923 73.8032129 0.923076923 73.8032129 9.23076923 78.2369478 9.23076923 78.2369478 11.2615385"></polygon>
                    <path d="M88.4899598,9.23076923 C89.5983936,9.23076923 90.5220884,8.76923077 91.2610442,7.84615385 L92.7389558,9.32307692 C91.5381526,10.6153846 90.1526104,11.2615385 88.5823293,11.2615385 C87.0120482,11.2615385 85.7188755,10.8 84.6104418,9.78461538 C83.5943775,8.76923077 83.0401606,7.47692308 83.0401606,6 C83.0401606,4.43076923 83.5943775,3.23076923 84.6104418,2.12307692 C85.626506,1.10769231 86.9196787,0.553846154 88.4899598,0.553846154 C90.1526104,0.553846154 91.6305221,1.2 92.7389558,2.49230769 L91.2610442,4.15384615 C90.5220884,3.23076923 89.5983936,2.76923077 88.5823293,2.76923077 C87.751004,2.76923077 87.0120482,3.04615385 86.3654618,3.6 C85.7188755,4.15384615 85.4417671,4.89230769 85.4417671,5.90769231 C85.4417671,6.92307692 85.7188755,7.66153846 86.2730924,8.21538462 C87.0120482,8.95384615 87.6586345,9.23076923 88.4899598,9.23076923 Z" id="Path"></path>
                    <path d="M101.883534,11.2615385 L100.959839,9.04615385 L96.6184739,9.04615385 L95.6947791,11.2615385 L93.2008032,11.2615385 L97.6345382,0.923076923 L99.8514056,0.923076923 L104.285141,11.2615385 L101.883534,11.2615385 L101.883534,11.2615385 Z M98.7429719,3.96923077 L97.4497992,6.92307692 L100.036145,6.92307692 L98.7429719,3.96923077 Z" id="Shape"></path>
                    <polygon id="Path" points="112.783133 0.923076923 115.092369 0.923076923 115.092369 11.2615385 112.783133 11.2615385 107.88755 4.8 107.88755 11.2615385 105.578313 11.2615385 105.578313 0.923076923 107.702811 0.923076923 112.783133 7.56923077"></polygon>
                    <path d="M122.389558,9.23076923 C123.497992,9.23076923 124.421687,8.76923077 125.160643,7.84615385 L126.638554,9.32307692 C125.437751,10.6153846 124.052209,11.2615385 122.481928,11.2615385 C120.911647,11.2615385 119.618474,10.8 118.51004,9.78461538 C117.493976,8.76923077 116.939759,7.47692308 116.939759,6 C116.939759,4.43076923 117.493976,3.23076923 118.51004,2.12307692 C119.526104,1.10769231 120.819277,0.553846154 122.389558,0.553846154 C124.052209,0.553846154 125.53012,1.2 126.638554,2.49230769 L125.160643,4.15384615 C124.421687,3.23076923 123.497992,2.76923077 122.481928,2.76923077 C121.650602,2.76923077 120.911647,3.04615385 120.26506,3.6 C119.618474,4.15384615 119.341365,4.89230769 119.341365,5.90769231 C119.341365,6.92307692 119.618474,7.66153846 120.172691,8.21538462 C120.819277,8.95384615 121.558233,9.23076923 122.389558,9.23076923 Z" id="Path"></path>
                    <polygon id="Path" points="135.875502 0.923076923 135.875502 2.95384615 130.702811 2.95384615 130.702811 5.07692308 135.321285 5.07692308 135.321285 7.01538462 130.702811 7.01538462 130.702811 9.23076923 135.967871 9.23076923 135.967871 11.2615385 128.393574 11.2615385 128.393574 0.923076923"></polygon>
                    <path d="M146.497992,4.33846154 C146.497992,6 145.851406,7.01538462 144.558233,7.56923077 L147.144578,11.2615385 L144.281124,11.2615385 L141.971888,7.93846154 L140.401606,7.93846154 L140.401606,11.2615385 L138.092369,11.2615385 L138.092369,0.923076923 L141.971888,0.923076923 C143.542169,0.923076923 144.742972,1.2 145.389558,1.75384615 C146.036145,2.30769231 146.497992,3.13846154 146.497992,4.33846154 Z M143.726908,5.53846154 C144.004016,5.26153846 144.188755,4.89230769 144.188755,4.33846154 C144.188755,3.78461538 144.004016,3.41538462 143.726908,3.23076923 C143.449799,3.04615385 142.895582,2.95384615 142.156627,2.95384615 L140.401606,2.95384615 L140.401606,6 L142.064257,6 C142.895582,6 143.35743,5.81538462 143.726908,5.53846154 Z" id="Shape"></path>
                    <polygon id="Path" points="152.779116 0.923076923 155.088353 0.923076923 155.088353 11.2615385 152.779116 11.2615385"></polygon>
                    <polygon id="Path" points="164.787149 0.923076923 167.096386 0.923076923 167.096386 11.2615385 164.787149 11.2615385 159.891566 4.8 159.891566 11.2615385 157.582329 11.2615385 157.582329 0.923076923 159.706827 0.923076923 164.787149 7.56923077"></polygon>
                    <path d="M172.084337,2.95384615 C171.899598,3.13846154 171.714859,3.41538462 171.714859,3.69230769 C171.714859,3.96923077 171.807229,4.24615385 172.084337,4.43076923 C172.361446,4.61538462 173.008032,4.8 173.931727,5.07692308 C174.855422,5.35384615 175.686747,5.72307692 176.240964,6.18461538 C176.795181,6.64615385 177.072289,7.38461538 177.072289,8.30769231 C177.072289,9.23076923 176.702811,9.96923077 176.056225,10.5230769 C175.409639,11.0769231 174.485944,11.3538462 173.285141,11.3538462 C171.62249,11.3538462 170.144578,10.7076923 168.851406,9.50769231 L170.236948,7.84615385 C171.345382,8.86153846 172.361446,9.32307692 173.285141,9.32307692 C173.746988,9.32307692 174.024096,9.23076923 174.301205,9.04615385 C174.578313,8.86153846 174.670683,8.58461538 174.670683,8.30769231 C174.670683,8.03076923 174.578313,7.75384615 174.301205,7.56923077 C174.024096,7.38461538 173.562249,7.2 172.823293,7.01538462 C171.62249,6.73846154 170.698795,6.36923077 170.144578,5.90769231 C169.590361,5.44615385 169.313253,4.70769231 169.313253,3.78461538 C169.313253,2.86153846 169.682731,2.03076923 170.329317,1.47692308 C171.068273,0.923076923 171.899598,0.646153846 173.008032,0.646153846 C173.654618,0.646153846 174.393574,0.738461538 175.040161,1.01538462 C175.686747,1.29230769 176.333333,1.56923077 176.88755,2.03076923 L175.686747,3.69230769 C174.763052,3.04615385 173.839357,2.67692308 172.915663,2.67692308 C172.638554,2.67692308 172.269076,2.76923077 172.084337,2.95384615 Z" id="Path"></path>
                    <polygon id="Path" points="183.353414 2.95384615 183.353414 11.2615385 181.044177 11.2615385 181.044177 2.95384615 178.088353 2.95384615 178.088353 0.923076923 186.216867 0.923076923 186.216867 2.95384615"></polygon>
                    <polygon id="Path" points="187.971888 0.923076923 190.281124 0.923076923 190.281124 11.2615385 187.971888 11.2615385"></polygon>
                    <polygon id="Path" points="197.208835 2.95384615 197.208835 11.2615385 194.899598 11.2615385 194.899598 2.95384615 191.943775 2.95384615 191.943775 0.923076923 200.072289 0.923076923 200.072289 2.95384615"></polygon>
                    <path d="M204.506024,8.58461538 C204.875502,9.04615385 205.429719,9.32307692 206.076305,9.32307692 C206.722892,9.32307692 207.277108,9.04615385 207.646586,8.58461538 C208.016064,8.12307692 208.200803,7.47692308 208.200803,6.64615385 L208.200803,0.923076923 L210.51004,0.923076923 L210.51004,6.73846154 C210.51004,8.21538462 210.140562,9.41538462 209.309237,10.1538462 C208.477912,10.9846154 207.461847,11.3538462 206.168675,11.3538462 C204.875502,11.3538462 203.859438,10.9846154 203.028112,10.1538462 C202.196787,9.32307692 201.73494,8.21538462 201.73494,6.73846154 L201.73494,0.923076923 L204.044177,0.923076923 L204.044177,6.64615385 C203.951807,7.47692308 204.136546,8.12307692 204.506024,8.58461538 Z" id="Path"></path>
                    <polygon id="Path" points="217.253012 2.95384615 217.253012 11.2615385 214.943775 11.2615385 214.943775 2.95384615 211.987952 2.95384615 211.987952 0.923076923 220.116466 0.923076923 220.116466 2.95384615"></polygon>
                    <polygon id="Path" points="229.353414 0.923076923 229.353414 2.95384615 224.180723 2.95384615 224.180723 5.07692308 228.799197 5.07692308 228.799197 7.01538462 224.180723 7.01538462 224.180723 9.23076923 229.445783 9.23076923 229.445783 11.2615385 221.871486 11.2615385 221.871486 0.923076923"></polygon>
                </g>
                <g id="Group" transform="translate(92.000000, 27.000000)">
                    <path d="M9.42335025,5.36363636 C8.77664975,5 8.22233503,4.90909091 7.57563452,4.90909091 C6.92893401,4.90909091 6.2822335,5.09090909 5.72791878,5.45454545 C5.17360406,5.81818182 4.71167513,6.27272727 4.43451777,6.81818182 C4.06497462,7.45454545 3.97258883,8.09090909 3.97258883,8.81818182 C3.97258883,9.54545455 4.15736041,10.1818182 4.43451777,10.8181818 C4.71167513,11.4545455 5.17360406,11.9090909 5.72791878,12.1818182 C6.2822335,12.5454545 6.92893401,12.7272727 7.57563452,12.7272727 C8.12994924,12.7272727 8.68426396,12.5454545 9.33096447,12.2727273 C9.97766497,12 10.4395939,11.6363636 10.9939086,11.0909091 L13.0263959,13.2727273 C12.2873096,14 11.4558376,14.6363636 10.4395939,15.0909091 C9.42335025,15.5454545 8.4071066,15.7272727 7.39086294,15.7272727 C6.00507614,15.7272727 4.80406091,15.4545455 3.78781726,14.8181818 C2.67918782,14.1818182 1.84771574,13.3636364 1.20101523,12.2727273 C0.554314721,11.1818182 0.27715736,10 0.27715736,8.72727273 C0.27715736,7.45454545 0.554314721,6.27272727 1.20101523,5.18181818 C1.84771574,4.18181818 2.67918782,3.27272727 3.78781726,2.72727273 C4.8964467,2.09090909 6.09746193,1.81818182 7.48324873,1.81818182 C8.49949239,1.81818182 9.51573604,2 10.4395939,2.45454545 C11.3634518,2.90909091 12.2873096,3.45454545 12.9340102,4.18181818 L10.9015228,6.63636364 C10.5319797,6.09090909 9.97766497,5.63636364 9.42335025,5.36363636 Z" id="Path"></path>
                    <path d="M22.1725888,5.72727273 C23.0040609,6.18181818 23.7431472,6.81818182 24.2050761,7.54545455 C24.6670051,8.36363636 24.9441624,9.27272727 24.9441624,10.2727273 C24.9441624,11.3636364 24.6670051,12.2727273 24.2050761,13.0909091 C23.7431472,13.9090909 23.0964467,14.5454545 22.1725888,14.9090909 C21.3411168,15.3636364 20.3248731,15.5454545 19.1238579,15.5454545 C18.0152284,15.5454545 16.9989848,15.3636364 16.0751269,14.9090909 C15.2436548,14.4545455 14.5045685,13.8181818 14.0426396,13.0909091 C13.5807107,12.2727273 13.3035533,11.3636364 13.3035533,10.2727273 C13.3035533,9.27272727 13.5807107,8.27272727 14.0426396,7.54545455 C14.5045685,6.72727273 15.151269,6.09090909 16.0751269,5.72727273 C16.906599,5.27272727 17.9228426,5.09090909 19.1238579,5.09090909 C20.3248731,5 21.3411168,5.27272727 22.1725888,5.72727273 Z M17.5532995,8.45454545 C17.1837563,8.90909091 16.906599,9.54545455 16.906599,10.2727273 C16.906599,11.0909091 17.0913706,11.6363636 17.5532995,12.1818182 C17.9228426,12.6363636 18.4771574,12.9090909 19.2162437,12.9090909 C19.8629442,12.9090909 20.4172589,12.6363636 20.8791878,12.1818182 C21.3411168,11.7272727 21.5258883,11.0909091 21.5258883,10.2727273 C21.5258883,9.54545455 21.3411168,8.90909091 20.8791878,8.45454545 C20.4172589,8 19.9553299,7.72727273 19.2162437,7.72727273 C18.4771574,7.81818182 18.0152284,8 17.5532995,8.45454545 Z" id="Shape"></path>
                    <path d="M36.4,6.09090909 C37.0467005,6.81818182 37.4162437,7.72727273 37.4162437,9 L37.4162437,15.4545455 L33.9979695,15.4545455 L33.9979695,9.90909091 C33.9979695,9.36363636 33.813198,8.81818182 33.5360406,8.54545455 C33.2588832,8.27272727 32.7969543,8 32.2426396,8 C31.6883249,8 31.2263959,8.18181818 30.8568528,8.54545455 C30.4873096,8.90909091 30.3025381,9.36363636 30.2101523,10 L30.2101523,15.4545455 L26.7918782,15.4545455 L26.7918782,5.18181818 L30.2101523,5.18181818 L30.2101523,6.81818182 C30.5796954,6.18181818 31.0416244,5.72727273 31.6883249,5.45454545 C32.2426396,5.18181818 32.9817259,5 33.7208122,5 C34.7370558,5 35.6609137,5.36363636 36.4,6.09090909 Z" id="Path"></path>
                    <path d="M49.4263959,6.09090909 C50.0730964,6.81818182 50.4426396,7.72727273 50.4426396,9 L50.4426396,15.4545455 L47.1167513,15.4545455 L47.1167513,9.90909091 C47.1167513,9.36363636 46.9319797,8.81818182 46.6548223,8.54545455 C46.377665,8.27272727 45.915736,8 45.3614213,8 C44.8071066,8 44.3451777,8.18181818 43.9756345,8.54545455 C43.6060914,8.90909091 43.4213198,9.36363636 43.328934,10 L43.328934,15.4545455 L39.9106599,15.4545455 L39.9106599,5.18181818 L43.328934,5.18181818 L43.328934,6.81818182 C43.6984772,6.18181818 44.1604061,5.72727273 44.8071066,5.45454545 C45.3614213,5.18181818 46.1005076,5 46.8395939,5 C47.8558376,5 48.7796954,5.36363636 49.4263959,6.09090909 Z" id="Path"></path>
                    <path d="M61.4365482,6.54545455 C62.3604061,7.54545455 62.822335,8.90909091 62.822335,10.6363636 C62.822335,10.9090909 62.822335,11.0909091 62.822335,11.2727273 L55.4314721,11.2727273 C55.6162437,11.8181818 55.893401,12.2727273 56.2629442,12.6363636 C56.6324873,12.9090909 57.186802,13.0909091 57.7411168,13.0909091 C58.2030457,13.0909091 58.6649746,13 59.0345178,12.8181818 C59.4964467,12.6363636 59.8659898,12.3636364 60.1431472,12 L61.9908629,13.8181818 C61.4365482,14.4545455 60.7898477,14.9090909 60.0507614,15.1818182 C59.3116751,15.4545455 58.3878173,15.6363636 57.4639594,15.6363636 C56.3553299,15.6363636 55.3390863,15.4545455 54.5076142,15 C53.6761421,14.5454545 53.0294416,14 52.5675127,13.1818182 C52.1055838,12.3636364 51.9208122,11.4545455 51.9208122,10.4545455 C51.9208122,9.36363636 52.1055838,8.45454545 52.5675127,7.63636364 C53.0294416,6.81818182 53.6761421,6.18181818 54.5076142,5.72727273 C55.3390863,5.27272727 56.2629442,5.09090909 57.3715736,5.09090909 C59.2192893,5 60.5126904,5.54545455 61.4365482,6.54545455 Z M59.4040609,9.36363636 C59.4040609,8.72727273 59.2192893,8.27272727 58.8497462,7.90909091 C58.480203,7.54545455 58.0182741,7.36363636 57.4639594,7.36363636 C56.9096447,7.36363636 56.4477157,7.54545455 56.0781726,7.90909091 C55.7086294,8.27272727 55.4314721,8.72727273 55.3390863,9.36363636 L59.4040609,9.36363636 Z" id="Shape"></path>
                    <path d="M69.2893401,7.81818182 C68.6426396,7.81818182 68.1807107,8.09090909 67.8111675,8.54545455 C67.4416244,9 67.2568528,9.63636364 67.2568528,10.3636364 C67.2568528,11.0909091 67.4416244,11.7272727 67.8111675,12.1818182 C68.1807107,12.6363636 68.7350254,12.9090909 69.2893401,12.9090909 C70.213198,12.9090909 70.9522843,12.5454545 71.3218274,11.7272727 L73.9086294,13.1818182 C73.5390863,14 72.8923858,14.5454545 72.0609137,15 C71.2294416,15.4545455 70.3055838,15.6363636 69.1045685,15.6363636 C67.9959391,15.6363636 67.0720812,15.4545455 66.2406091,15 C65.4091371,14.5454545 64.7624365,14 64.3928934,13.1818182 C64.0233503,12.3636364 63.7461929,11.4545455 63.7461929,10.4545455 C63.7461929,9.36363636 63.9309645,8.45454545 64.3928934,7.63636364 C64.8548223,6.81818182 65.5015228,6.18181818 66.3329949,5.72727273 C67.164467,5.27272727 68.0883249,5.09090909 69.1969543,5.09090909 C70.213198,5.09090909 71.1370558,5.27272727 71.9685279,5.72727273 C72.8,6.18181818 73.4467005,6.72727273 73.9086294,7.54545455 L71.4142132,9 C70.8598985,8.18181818 70.1208122,7.81818182 69.2893401,7.81818182 Z" id="Path"></path>
                    <path d="M82.315736,14.9090909 C81.9461929,15.0909091 81.484264,15.2727273 81.022335,15.4545455 C80.5604061,15.6363636 80.0060914,15.6363636 79.4517766,15.6363636 C78.435533,15.6363636 77.6040609,15.3636364 76.9573604,14.7272727 C76.3106599,14.1818182 76.0335025,13.3636364 76.0335025,12.2727273 L76.0335025,7.81818182 L74.5553299,7.81818182 L74.5553299,5.54545455 L76.0335025,5.54545455 L76.0335025,2.72727273 L79.4517766,2.72727273 L79.4517766,5.54545455 L82.1309645,5.54545455 L82.1309645,7.81818182 L79.4517766,7.81818182 L79.4517766,11.8181818 C79.4517766,12.5454545 79.728934,12.9090909 80.3756345,12.9090909 C80.7451777,12.9090909 81.2071066,12.8181818 81.6690355,12.5454545 L82.315736,14.9090909 Z" id="Path"></path>
                    <path d="M92.6629442,4.18181818 C92.4781726,4.36363636 92.293401,4.63636364 92.293401,5 L92.293401,5.63636364 L94.6030457,5.63636364 L94.6030457,7.90909091 L92.293401,7.90909091 L92.293401,15.4545455 L88.8751269,15.4545455 L88.8751269,7.90909091 L87.4893401,7.90909091 L87.4893401,5.63636364 L88.8751269,5.63636364 L88.8751269,4.72727273 C88.8751269,3.63636364 89.2446701,2.72727273 89.9837563,2.18181818 C90.7228426,1.54545455 91.6467005,1.27272727 92.8477157,1.27272727 C93.586802,1.27272727 94.3258883,1.36363636 95.0649746,1.63636364 L94.6030457,4.18181818 C94.048731,4 93.6791878,3.90909091 93.4020305,3.90909091 C93.1248731,3.90909091 92.8477157,4 92.6629442,4.18181818 Z" id="Path"></path>
                    <path d="M103.564467,5.72727273 C104.395939,6.18181818 105.135025,6.81818182 105.596954,7.54545455 C106.058883,8.36363636 106.336041,9.27272727 106.336041,10.2727273 C106.336041,11.3636364 106.058883,12.2727273 105.596954,13.0909091 C105.135025,13.9090909 104.488325,14.5454545 103.564467,14.9090909 C102.732995,15.3636364 101.716751,15.5454545 100.515736,15.5454545 C99.4071066,15.5454545 98.3908629,15.3636364 97.4670051,14.9090909 C96.635533,14.4545455 95.8964467,13.8181818 95.4345178,13.0909091 C94.9725888,12.2727273 94.6954315,11.3636364 94.6954315,10.2727273 C94.6954315,9.27272727 94.9725888,8.27272727 95.4345178,7.54545455 C95.8964467,6.72727273 96.5431472,6.09090909 97.4670051,5.72727273 C98.2984772,5.27272727 99.3147208,5.09090909 100.515736,5.09090909 C101.716751,5 102.732995,5.27272727 103.564467,5.72727273 Z M98.9451777,8.45454545 C98.5756345,8.90909091 98.2984772,9.54545455 98.2984772,10.2727273 C98.2984772,11.0909091 98.4832487,11.6363636 98.9451777,12.1818182 C99.3147208,12.6363636 99.8690355,12.9090909 100.608122,12.9090909 C101.254822,12.9090909 101.809137,12.6363636 102.271066,12.1818182 C102.732995,11.7272727 102.917766,11.0909091 102.917766,10.2727273 C102.917766,9.54545455 102.732995,8.90909091 102.271066,8.45454545 C101.809137,8 101.347208,7.72727273 100.608122,7.72727273 C99.9614213,7.81818182 99.4071066,8 98.9451777,8.45454545 Z" id="Shape"></path>
                    <path d="M112.987817,5.45454545 C113.542132,5.18181818 114.188832,5 114.927919,5 L114.927919,8.09090909 C114.835533,8.09090909 114.650761,8.09090909 114.373604,8.09090909 C113.542132,8.09090909 112.895431,8.27272727 112.433503,8.63636364 C111.971574,9 111.60203,9.54545455 111.60203,10.1818182 L111.60203,15.4545455 L108.091371,15.4545455 L108.091371,5.18181818 L111.509645,5.18181818 L111.509645,6.90909091 C111.879188,6.27272727 112.433503,5.81818182 112.987817,5.45454545 Z" id="Path"></path>
                    <path d="M129.062944,5.36363636 C128.416244,5 127.861929,4.90909091 127.215228,4.90909091 C126.568528,4.90909091 125.921827,5.09090909 125.367513,5.45454545 C124.813198,5.81818182 124.351269,6.27272727 124.074112,6.81818182 C123.704569,7.45454545 123.612183,8.09090909 123.612183,8.81818182 C123.612183,9.54545455 123.796954,10.1818182 124.074112,10.8181818 C124.351269,11.4545455 124.813198,11.9090909 125.367513,12.1818182 C125.921827,12.4545455 126.568528,12.7272727 127.215228,12.7272727 C127.769543,12.7272727 128.323858,12.5454545 128.970558,12.2727273 C129.617259,12 130.079188,11.6363636 130.633503,11.0909091 L132.66599,13.2727273 C131.926904,14 131.095431,14.6363636 130.079188,15.0909091 C129.062944,15.5454545 128.046701,15.7272727 127.030457,15.7272727 C125.64467,15.7272727 124.443655,15.4545455 123.427411,14.8181818 C122.318782,14.1818182 121.48731,13.3636364 120.840609,12.2727273 C120.193909,11.1818182 119.916751,10 119.916751,8.72727273 C119.916751,7.45454545 120.193909,6.27272727 120.840609,5.18181818 C121.48731,4.18181818 122.318782,3.27272727 123.427411,2.72727273 C124.536041,2.09090909 125.737056,1.81818182 127.122843,1.81818182 C128.139086,1.81818182 129.15533,2 130.079188,2.45454545 C131.003046,2.90909091 131.926904,3.45454545 132.573604,4.18181818 L130.541117,6.63636364 C130.171574,6.09090909 129.617259,5.63636364 129.062944,5.36363636 Z" id="Path"></path>
                    <path d="M142.181726,6 C143.013198,6.63636364 143.382741,7.54545455 143.382741,8.72727273 L143.382741,15.4545455 L139.964467,15.4545455 L139.964467,14.2727273 C139.225381,15.1818182 138.209137,15.5454545 136.82335,15.5454545 C135.714721,15.5454545 134.790863,15.2727273 134.236548,14.6363636 C133.682234,14 133.31269,13.2727273 133.31269,12.2727273 C133.31269,11.2727273 133.682234,10.5454545 134.328934,10 C134.975635,9.45454545 135.991878,9.18181818 137.285279,9.18181818 L140.056853,9.18181818 L140.056853,9.09090909 C140.056853,8.63636364 139.872081,8.18181818 139.502538,7.90909091 C139.132995,7.63636364 138.671066,7.54545455 138.024365,7.54545455 C137.562437,7.54545455 137.100508,7.63636364 136.546193,7.72727273 C135.991878,7.90909091 135.437563,8.09090909 134.883249,8.36363636 L133.959391,6.09090909 C134.790863,5.72727273 135.622335,5.45454545 136.453807,5.27272727 C137.192893,5.09090909 138.024365,5 138.855838,5 C140.241624,5 141.350254,5.36363636 142.181726,6 Z M139.225381,12.9090909 C139.594924,12.6363636 139.872081,12.3636364 139.964467,11.9090909 L139.964467,11 L137.93198,11 C137.008122,11 136.453807,11.3636364 136.453807,12.0909091 C136.453807,12.4545455 136.546193,12.7272727 136.82335,12.9090909 C137.100508,13.0909091 137.377665,13.1818182 137.839594,13.1818182 C138.393909,13.2727273 138.855838,13.1818182 139.225381,12.9090909 Z" id="Shape"></path>
                    <path d="M155.392893,6.09090909 C156.039594,6.81818182 156.409137,7.72727273 156.409137,9 L156.409137,15.4545455 L152.990863,15.4545455 L152.990863,9.90909091 C152.990863,9.36363636 152.806091,8.81818182 152.528934,8.54545455 C152.251777,8.27272727 151.789848,8 151.235533,8 C150.681218,8 150.219289,8.18181818 149.849746,8.54545455 C149.480203,8.90909091 149.295431,9.36363636 149.203046,10 L149.203046,15.4545455 L145.784772,15.4545455 L145.784772,5.18181818 L149.203046,5.18181818 L149.203046,6.81818182 C149.572589,6.18181818 150.034518,5.72727273 150.681218,5.45454545 C151.235533,5.18181818 151.974619,5 152.713706,5 C153.822335,5 154.746193,5.36363636 155.392893,6.09090909 Z" id="Path"></path>
                    <path d="M163.522843,7.81818182 C162.876142,7.81818182 162.414213,8.09090909 162.04467,8.54545455 C161.675127,9 161.490355,9.63636364 161.490355,10.3636364 C161.490355,11.0909091 161.675127,11.7272727 162.04467,12.1818182 C162.414213,12.6363636 162.968528,12.9090909 163.522843,12.9090909 C164.446701,12.9090909 165.185787,12.5454545 165.55533,11.7272727 L168.142132,13.1818182 C167.772589,14 167.125888,14.5454545 166.294416,15 C165.462944,15.4545455 164.539086,15.6363636 163.338071,15.6363636 C162.229442,15.6363636 161.305584,15.4545455 160.474112,15 C159.64264,14.5454545 158.995939,14 158.626396,13.1818182 C158.256853,12.3636364 157.979695,11.4545455 157.979695,10.4545455 C157.979695,9.36363636 158.164467,8.45454545 158.626396,7.63636364 C159.088325,6.81818182 159.735025,6.18181818 160.566497,5.72727273 C161.39797,5.27272727 162.321827,5.09090909 163.430457,5.09090909 C164.446701,5.09090909 165.370558,5.27272727 166.20203,5.72727273 C167.033503,6.18181818 167.680203,6.72727273 168.142132,7.54545455 L165.647716,9 C165.093401,8.18181818 164.354315,7.81818182 163.522843,7.81818182 Z" id="Path"></path>
                    <path d="M177.935025,6.54545455 C178.858883,7.54545455 179.320812,8.90909091 179.320812,10.6363636 C179.320812,10.9090909 179.320812,11.0909091 179.320812,11.2727273 L172.022335,11.2727273 C172.207107,11.8181818 172.484264,12.2727273 172.853807,12.6363636 C173.22335,13 173.777665,13.0909091 174.33198,13.0909091 C174.793909,13.0909091 175.255838,13 175.625381,12.8181818 C176.08731,12.6363636 176.456853,12.3636364 176.73401,12 L178.581726,13.8181818 C178.027411,14.4545455 177.380711,14.9090909 176.641624,15.1818182 C175.902538,15.4545455 174.97868,15.6363636 174.054822,15.6363636 C172.946193,15.6363636 171.929949,15.4545455 171.098477,15 C170.267005,14.5454545 169.620305,14 169.158376,13.1818182 C168.696447,12.3636364 168.511675,11.4545455 168.511675,10.4545455 C168.511675,9.36363636 168.696447,8.45454545 169.158376,7.63636364 C169.620305,6.81818182 170.267005,6.18181818 171.098477,5.72727273 C171.929949,5.27272727 172.853807,5.09090909 173.962437,5.09090909 C175.717766,5 177.011168,5.54545455 177.935025,6.54545455 Z M175.994924,9.36363636 C175.994924,8.72727273 175.810152,8.27272727 175.440609,7.90909091 C175.071066,7.54545455 174.609137,7.36363636 174.054822,7.36363636 C173.500508,7.36363636 173.038579,7.54545455 172.669036,7.90909091 C172.299492,8.27272727 172.022335,8.72727273 171.929949,9.36363636 L175.994924,9.36363636 Z" id="Shape"></path>
                    <path d="M185.972589,5.45454545 C186.526904,5.18181818 187.173604,5 187.91269,5 L187.91269,8.09090909 C187.820305,8.09090909 187.635533,8.09090909 187.358376,8.09090909 C186.526904,8.09090909 185.880203,8.27272727 185.418274,8.63636364 C184.956345,9 184.586802,9.54545455 184.586802,10.1818182 L184.586802,15.4545455 L181.076142,15.4545455 L181.076142,5.18181818 L184.494416,5.18181818 L184.494416,6.90909091 C184.956345,6.27272727 185.418274,5.81818182 185.972589,5.45454545 Z" id="Path"></path>
                    <path d="M203.803046,3.36363636 C204.726904,4.18181818 205.281218,5.36363636 205.281218,6.81818182 C205.281218,8.36363636 204.819289,9.63636364 203.803046,10.4545455 C202.786802,11.2727273 201.493401,11.7272727 199.738071,11.7272727 L197.336041,11.7272727 L197.336041,15.4545455 L193.825381,15.4545455 L193.825381,2.09090909 L199.830457,2.09090909 C201.493401,2.09090909 202.786802,2.54545455 203.803046,3.36363636 Z M201.216244,8.45454545 C201.585787,8.09090909 201.770558,7.54545455 201.770558,6.90909091 C201.770558,6.27272727 201.585787,5.72727273 201.216244,5.45454545 C200.846701,5.18181818 200.292386,4.90909091 199.553299,4.90909091 L197.336041,4.90909091 L197.336041,9 L199.553299,9 C200.292386,9 200.846701,8.81818182 201.216244,8.45454545 Z" id="Shape"></path>
                    <path d="M211.840609,5.45454545 C212.394924,5.18181818 213.041624,5 213.780711,5 L213.780711,8.09090909 C213.688325,8.09090909 213.503553,8.09090909 213.226396,8.09090909 C212.394924,8.09090909 211.748223,8.27272727 211.286294,8.63636364 C210.824365,9 210.454822,9.54545455 210.454822,10.1818182 L210.454822,15.4545455 L206.944162,15.4545455 L206.944162,5.18181818 L210.362437,5.18181818 L210.362437,6.90909091 C210.73198,6.27272727 211.193909,5.81818182 211.840609,5.45454545 Z" id="Path"></path>
                    <path d="M223.850761,6.54545455 C224.774619,7.54545455 225.236548,8.90909091 225.236548,10.6363636 C225.236548,10.9090909 225.236548,11.0909091 225.236548,11.2727273 L217.938071,11.2727273 C218.122843,11.8181818 218.4,12.2727273 218.769543,12.6363636 C219.139086,13 219.693401,13.0909091 220.247716,13.0909091 C220.709645,13.0909091 221.171574,13 221.541117,12.8181818 C222.003046,12.6363636 222.372589,12.3636364 222.649746,12 L224.497462,13.8181818 C223.943147,14.4545455 223.296447,14.9090909 222.55736,15.1818182 C221.818274,15.4545455 220.894416,15.6363636 219.970558,15.6363636 C218.861929,15.6363636 217.845685,15.4545455 217.014213,15 C216.182741,14.5454545 215.536041,14 215.074112,13.1818182 C214.612183,12.3636364 214.427411,11.4545455 214.427411,10.4545455 C214.427411,9.36363636 214.612183,8.45454545 215.074112,7.63636364 C215.536041,6.81818182 216.182741,6.18181818 217.014213,5.72727273 C217.845685,5.27272727 218.769543,5.09090909 219.878173,5.09090909 C221.633503,5 222.926904,5.54545455 223.850761,6.54545455 Z M221.91066,9.36363636 C221.91066,8.72727273 221.725888,8.27272727 221.356345,7.90909091 C220.986802,7.54545455 220.524873,7.36363636 219.970558,7.36363636 C219.416244,7.36363636 218.954315,7.54545455 218.584772,7.90909091 C218.215228,8.27272727 217.938071,8.72727273 217.845685,9.36363636 L221.91066,9.36363636 Z" id="Shape"></path>
                    <polygon id="Path" points="225.236548 5.18181818 228.747208 5.18181818 230.964467 12.3636364 233.181726 5.18181818 236.6 5.18181818 232.719797 15.4545455 229.209137 15.4545455"></polygon>
                    <path d="M246.02335,6.54545455 C246.947208,7.54545455 247.409137,8.90909091 247.409137,10.6363636 C247.409137,10.9090909 247.409137,11.0909091 247.409137,11.2727273 L240.11066,11.2727273 C240.295431,11.8181818 240.572589,12.2727273 240.942132,12.6363636 C241.311675,13 241.86599,13.0909091 242.420305,13.0909091 C242.882234,13.0909091 243.344162,13 243.713706,12.8181818 C244.175635,12.6363636 244.545178,12.3636364 244.822335,12 L246.670051,13.8181818 C246.115736,14.4545455 245.469036,14.9090909 244.729949,15.1818182 C243.990863,15.4545455 243.067005,15.6363636 242.143147,15.6363636 C241.034518,15.6363636 240.018274,15.4545455 239.186802,15 C238.35533,14.5454545 237.708629,14 237.246701,13.1818182 C236.784772,12.3636364 236.6,11.4545455 236.6,10.4545455 C236.6,9.36363636 236.784772,8.45454545 237.246701,7.63636364 C237.708629,6.81818182 238.35533,6.18181818 239.186802,5.72727273 C240.018274,5.27272727 240.942132,5.09090909 242.050761,5.09090909 C243.806091,5 245.099492,5.54545455 246.02335,6.54545455 Z M244.083249,9.36363636 C244.083249,8.72727273 243.898477,8.27272727 243.528934,7.90909091 C243.159391,7.54545455 242.697462,7.36363636 242.143147,7.36363636 C241.588832,7.36363636 241.126904,7.54545455 240.75736,7.90909091 C240.387817,8.27272727 240.11066,8.72727273 240.018274,9.36363636 L244.083249,9.36363636 Z" id="Shape"></path>
                    <path d="M258.864975,6.09090909 C259.511675,6.81818182 259.881218,7.72727273 259.881218,9 L259.881218,15.4545455 L256.462944,15.4545455 L256.462944,9.90909091 C256.462944,9.36363636 256.278173,8.81818182 256.001015,8.54545455 C255.723858,8.27272727 255.261929,8 254.707614,8 C254.153299,8 253.691371,8.18181818 253.321827,8.54545455 C252.952284,8.90909091 252.767513,9.36363636 252.675127,10 L252.675127,15.4545455 L249.256853,15.4545455 L249.256853,5.18181818 L252.675127,5.18181818 L252.675127,6.81818182 C253.04467,6.18181818 253.506599,5.72727273 254.153299,5.45454545 C254.8,5.18181818 255.446701,5 256.185787,5 C257.294416,5 258.218274,5.36363636 258.864975,6.09090909 Z" id="Path"></path>
                    <path d="M269.119797,14.9090909 C268.750254,15.0909091 268.288325,15.2727273 267.826396,15.4545455 C267.364467,15.6363636 266.810152,15.6363636 266.255838,15.6363636 C265.239594,15.6363636 264.408122,15.3636364 263.761421,14.7272727 C263.114721,14.1818182 262.837563,13.3636364 262.837563,12.2727273 L262.837563,7.81818182 L261.359391,7.81818182 L261.359391,5.54545455 L262.837563,5.54545455 L262.837563,2.72727273 L266.255838,2.72727273 L266.255838,5.54545455 L268.935025,5.54545455 L268.935025,7.81818182 L266.255838,7.81818182 L266.255838,11.8181818 C266.255838,12.5454545 266.532995,12.9090909 267.179695,12.9090909 C267.549239,12.9090909 268.011168,12.8181818 268.473096,12.5454545 L269.119797,14.9090909 Z" id="Path"></path>
                    <path d="M273.739086,0.909090909 C274.108629,1.27272727 274.293401,1.72727273 274.293401,2.18181818 C274.293401,2.72727273 274.108629,3.09090909 273.739086,3.45454545 C273.369543,3.81818182 273,4 272.445685,4 C271.891371,4 271.521827,3.81818182 271.152284,3.45454545 C270.782741,3.09090909 270.59797,2.63636364 270.59797,2.18181818 C270.59797,1.63636364 270.782741,1.18181818 271.152284,0.909090909 C271.521827,0.545454545 271.891371,0.363636364 272.445685,0.363636364 C273,0.363636364 273.369543,0.545454545 273.739086,0.909090909 Z M270.782741,5.18181818 L274.201015,5.18181818 L274.201015,15.4545455 L270.782741,15.4545455 L270.782741,5.18181818 Z" id="Shape"></path>
                    <path d="M284.732995,5.72727273 C285.564467,6.18181818 286.303553,6.81818182 286.765482,7.54545455 C287.227411,8.36363636 287.504569,9.27272727 287.504569,10.2727273 C287.504569,11.3636364 287.227411,12.2727273 286.765482,13.0909091 C286.303553,13.9090909 285.656853,14.5454545 284.732995,14.9090909 C283.901523,15.3636364 282.885279,15.5454545 281.684264,15.5454545 C280.575635,15.5454545 279.559391,15.3636364 278.635533,14.9090909 C277.804061,14.4545455 277.064975,13.8181818 276.603046,13.0909091 C276.141117,12.3636364 275.863959,11.3636364 275.863959,10.2727273 C275.863959,9.27272727 276.141117,8.27272727 276.603046,7.54545455 C277.064975,6.81818182 277.711675,6.09090909 278.635533,5.72727273 C279.467005,5.27272727 280.483249,5.09090909 281.684264,5.09090909 C282.792893,5 283.809137,5.27272727 284.732995,5.72727273 Z M280.02132,8.45454545 C279.651777,8.90909091 279.374619,9.54545455 279.374619,10.2727273 C279.374619,11.0909091 279.559391,11.6363636 280.02132,12.1818182 C280.483249,12.7272727 280.945178,12.9090909 281.684264,12.9090909 C282.330964,12.9090909 282.885279,12.6363636 283.347208,12.1818182 C283.716751,11.7272727 283.993909,11.0909091 283.993909,10.2727273 C283.993909,9.54545455 283.809137,8.90909091 283.347208,8.45454545 C282.885279,8 282.42335,7.72727273 281.684264,7.72727273 C281.037563,7.81818182 280.483249,8 280.02132,8.45454545 Z" id="Shape"></path>
                    <path d="M298.86802,6.09090909 C299.514721,6.81818182 299.884264,7.72727273 299.884264,9 L299.884264,15.4545455 L296.46599,15.4545455 L296.46599,9.90909091 C296.46599,9.36363636 296.281218,8.81818182 296.004061,8.54545455 C295.726904,8.27272727 295.264975,8 294.71066,8 C294.156345,8 293.694416,8.18181818 293.324873,8.54545455 C292.95533,8.90909091 292.770558,9.36363636 292.678173,10 L292.678173,15.4545455 L289.167513,15.4545455 L289.167513,5.18181818 L292.585787,5.18181818 L292.585787,6.81818182 C292.95533,6.18181818 293.417259,5.72727273 294.063959,5.45454545 C294.71066,5.18181818 295.35736,5 296.096447,5 C297.297462,5 298.22132,5.36363636 298.86802,6.09090909 Z" id="Path"></path>
                    <path d="M313.649746,5.09090909 C312.818274,4.81818182 312.171574,4.72727273 311.617259,4.72727273 C311.15533,4.72727273 310.785787,4.81818182 310.601015,5 C310.323858,5.18181818 310.231472,5.36363636 310.231472,5.72727273 C310.231472,6 310.323858,6.27272727 310.601015,6.45454545 C310.785787,6.63636364 311.062944,6.81818182 311.432487,6.90909091 C311.709645,7 312.263959,7.18181818 312.91066,7.36363636 C313.834518,7.63636364 314.66599,7.90909091 315.220305,8.18181818 C315.867005,8.45454545 316.328934,8.81818182 316.790863,9.45454545 C317.252792,10 317.437563,10.7272727 317.437563,11.6363636 C317.437563,12.5454545 317.160406,13.2727273 316.698477,13.9090909 C316.236548,14.5454545 315.589848,15 314.758376,15.3636364 C313.926904,15.6363636 313.003046,15.8181818 311.986802,15.8181818 C310.878173,15.8181818 309.769543,15.6363636 308.660914,15.2727273 C307.552284,14.9090909 306.536041,14.3636364 305.796954,13.6363636 L307.182741,10.9090909 C307.829442,11.5454545 308.660914,12 309.584772,12.3636364 C310.508629,12.7272727 311.340102,12.9090909 312.079188,12.9090909 C312.633503,12.9090909 313.003046,12.8181818 313.372589,12.6363636 C313.742132,12.4545455 313.834518,12.1818182 313.834518,11.8181818 C313.834518,11.5454545 313.742132,11.2727273 313.464975,11.0909091 C313.280203,10.9090909 312.91066,10.7272727 312.633503,10.6363636 C312.263959,10.5454545 311.80203,10.3636364 311.15533,10.1818182 C310.231472,9.90909091 309.492386,9.63636364 308.845685,9.36363636 C308.198985,9.09090909 307.737056,8.72727273 307.275127,8.18181818 C306.813198,7.63636364 306.628426,6.90909091 306.628426,6.09090909 C306.628426,5.27272727 306.813198,4.54545455 307.275127,3.90909091 C307.737056,3.27272727 308.383756,2.81818182 309.215228,2.45454545 C310.046701,2.09090909 310.970558,1.90909091 312.079188,1.90909091 C313.095431,1.90909091 314.019289,2.09090909 315.035533,2.36363636 C316.051777,2.63636364 316.790863,3 317.529949,3.45454545 L316.236548,6.27272727 C315.220305,5.72727273 314.481218,5.36363636 313.649746,5.09090909 Z" id="Path"></path>
                    <path d="M325.937056,14.9090909 C325.567513,15.0909091 325.105584,15.2727273 324.643655,15.4545455 C324.181726,15.6363636 323.627411,15.6363636 323.073096,15.6363636 C322.056853,15.6363636 321.225381,15.3636364 320.57868,14.7272727 C319.93198,14.1818182 319.654822,13.3636364 319.654822,12.2727273 L319.654822,7.81818182 L318.17665,7.81818182 L318.17665,5.54545455 L319.654822,5.54545455 L319.654822,2.72727273 L323.073096,2.72727273 L323.073096,5.54545455 L325.752284,5.54545455 L325.752284,7.81818182 L323.073096,7.81818182 L323.073096,11.8181818 C323.073096,12.5454545 323.350254,12.9090909 323.996954,12.9090909 C324.366497,12.9090909 324.828426,12.8181818 325.290355,12.5454545 L325.937056,14.9090909 Z" id="Path"></path>
                    <path d="M337.854822,5.18181818 L337.854822,15.4545455 L334.436548,15.4545455 L334.436548,13.8181818 C333.697462,15 332.588832,15.6363636 331.11066,15.6363636 C330.00203,15.6363636 329.078173,15.2727273 328.339086,14.5454545 C327.692386,13.8181818 327.322843,12.9090909 327.322843,11.6363636 L327.322843,5.09090909 L330.741117,5.09090909 L330.741117,10.6363636 C330.741117,11.1818182 330.925888,11.6363636 331.203046,12 C331.480203,12.3636364 331.942132,12.4545455 332.404061,12.4545455 C333.050761,12.4545455 333.51269,12.1818182 333.882234,11.8181818 C334.251777,11.3636364 334.436548,10.8181818 334.436548,10.1818182 L334.436548,5.09090909 L337.854822,5.09090909 L337.854822,5.18181818 Z" id="Path"></path>
                    <path d="M351.06599,1.27272727 L351.06599,15.4545455 L347.647716,15.4545455 L347.647716,14.0909091 C347.278173,14.5454545 346.816244,14.9090909 346.354315,15.1818182 C345.8,15.4545455 345.245685,15.5454545 344.598985,15.5454545 C343.675127,15.5454545 342.751269,15.3636364 342.012183,14.9090909 C341.273096,14.4545455 340.718782,13.8181818 340.256853,13 C339.88731,12.1818182 339.610152,11.2727273 339.610152,10.1818182 C339.610152,9.18181818 339.794924,8.18181818 340.256853,7.45454545 C340.626396,6.63636364 341.180711,6.09090909 341.919797,5.63636364 C342.658883,5.18181818 343.490355,5 344.414213,5 C345.060914,5 345.707614,5.09090909 346.261929,5.36363636 C346.816244,5.63636364 347.278173,6 347.647716,6.45454545 L347.647716,1.27272727 L351.06599,1.27272727 L351.06599,1.27272727 Z M347.001015,12.1818182 C347.370558,11.7272727 347.647716,11.0909091 347.647716,10.3636364 C347.647716,9.54545455 347.462944,9 347.001015,8.45454545 C346.631472,8 346.077157,7.72727273 345.338071,7.72727273 C344.691371,7.72727273 344.137056,8 343.675127,8.45454545 C343.213198,8.90909091 343.028426,9.54545455 343.028426,10.2727273 C343.028426,11 343.213198,11.6363636 343.675127,12.0909091 C344.137056,12.5454545 344.598985,12.8181818 345.338071,12.8181818 C345.984772,12.9090909 346.539086,12.7272727 347.001015,12.1818182 Z" id="Shape"></path>
                    <path d="M357.810152,18.6363636 C357.163452,19.0909091 356.33198,19.3636364 355.315736,19.3636364 C354.761421,19.3636364 354.207107,19.2727273 353.652792,19.0909091 C353.190863,18.9090909 352.636548,18.6363636 352.174619,18.2727273 L353.652792,15.9090909 C353.929949,16.0909091 354.114721,16.2727273 354.391878,16.3636364 C354.669036,16.4545455 354.853807,16.4545455 355.130964,16.4545455 C355.685279,16.4545455 356.147208,16.1818182 356.424365,15.6363636 L356.701523,15.1818182 L352.359391,5.09090909 L355.870051,5.09090909 L358.364467,11.8181818 L360.581726,5.09090909 L364,5.09090909 L359.473096,16.4545455 C359.103553,17.4545455 358.549239,18.1818182 357.810152,18.6363636 Z" id="Path"></path>
                </g>
            </g>
        </g>
    </g>
</svg>