<?xml version="1.0" encoding="utf-8"?>
<svg viewBox="-1 -0.9990000128746033 15.003000259399414 13" width="15.003000259399414" height="13" xmlns="http://www.w3.org/2000/svg">
  <path d="M 13.003 6.449 L 13.003 8.937 C 13.003 10.076 12.067 11 10.914 11 L 2.089 11.001 C 0.936 11.001 0 10.077 0 8.938 L 0 2.807 C 0 1.669 0.936 0.745 2.089 0.745 L 6.474 0.745 C 6.604 0.745 6.706 0.845 6.706 0.975 L 6.706 1.672 C 6.706 1.801 6.604 1.901 6.474 1.901 L 2.089 1.901 C 1.646 1.879 1.095 2.109 1.095 2.739 L 1.095 8.87 C 1.095 9.352 1.549 9.887 2.089 9.887 L 10.914 9.886 C 11.256 9.864 11.829 9.493 11.829 8.937 L 11.829 6.449 C 11.829 6.319 11.93 6.219 12.06 6.219 L 12.771 6.219 C 12.902 6.219 13.003 6.319 13.003 6.449 Z M 13 0.459 L 13 4.494 C 13 4.745 12.79 4.953 12.536 4.953 C 12.411 4.953 12.296 4.903 12.209 4.817 L 10.834 3.533 L 5.784 8.226 C 5.74 8.269 5.675 8.297 5.618 8.297 C 5.56 8.297 5.495 8.268 5.451 8.226 L 4.281 7.015 C 4.237 6.972 4.208 6.908 4.208 6.85 C 4.208 6.793 4.237 6.729 4.281 6.686 L 9.305 2.066 L 7.905 0.781 C 7.819 0.697 7.768 0.581 7.768 0.46 C 7.768 0.208 7.978 0.001 8.231 0.001 L 12.536 0.001 C 12.79 0.001 13 0.208 13 0.46 L 13 0.459 Z" 
  style="fill: #2A72A5;" transform="matrix(0.9999999999999999, 0, 0, 0.9999999999999999, 0, 7.105427357601002e-15)"/>
</svg>