<?xml version="1.0" encoding="utf-8"?>
<svg viewBox="-1 -1 24 17" width="24" height="17" xmlns="http://www.w3.org/2000/svg">
  <path d="M 5.098 6.224 L 6.756 10.524 L 3.717 10.514 L 5.098 6.224 Z M 2.259 15 L 3.282 11.983 L 7.1 12.021 L 8.297 15 L 10.434 15 L 6.442 4.04 L 4.066 4.04 L 0 15 L 2.259 15 Z" style="stroke-width: 0; stroke: rgb(178, 34, 34); fill: #319FBE;" transform="matrix(1, 0, 0, 1, -2.842170943040401e-14, 2.220446049250313e-16)"/>
  <path d="M 14.699 2.989 L 16.966 8.873 L 12.808 8.86 L 14.699 2.989 Z M 10.813 15 L 12.212 10.871 L 17.438 10.923 L 19.076 15 L 22 15 L 16.536 0 L 13.286 0 L 7.721 15 L 10.813 15 Z" style="stroke-width: 0; stroke: rgb(178, 34, 34); fill: #2A72A5;" transform="matrix(1, 0, 0, 1, -2.842170943040401e-14, 2.220446049250313e-16)"/>
</svg>