<?xml version="1.0" encoding="utf-8"?>
<svg viewBox="-1 -1 24 24" width="24" height="24" xmlns="http://www.w3.org/2000/svg">
  <path d="M 19.367 12.148 C 19.366 12.498 19.007 12.926 18.656 12.923 L 13.385 6.941 L 11.402 8.608 C 11.182 8.689 10.92 8.691 10.699 8.615 L 8.577 6.941 L 3.267 12.998 C 2.917 13.002 2.562 12.573 2.558 12.223 L 7.657 6.371 L 2.031 1.982 C 2.002 1.633 2.392 1.241 2.741 1.207 L 11.037 7.324 L 18.919 1.245 C 19.269 1.275 19.656 1.671 19.63 2.02 L 14.192 6.409 L 19.367 12.148 Z M 1.763 0 C 0.789 0 0 0.859 0 1.915 L 0 13.452 C 0 14.51 0.783 15.367 1.763 15.367 L 4.745 15.125 L 1.781 21.216 C 1.629 22.388 2.283 21.896 2.621 21.904 L 13.811 15.367 L 20.236 15.367 C 21.21 15.367 22 14.508 22 13.452 L 22 1.915 C 22 0.857 21.217 0 20.236 0 L 1.763 0 Z" style="fill: #f9a921;" transform="matrix(0.9999999999999999, 0, 0, 0.9999999999999999, -8.881784197001252e-16, -8.881784197001252e-16)"/>
</svg>