<svg id="Layer_1" data-name="Layer 1" xmlns="http://www.w3.org/2000/svg" viewBox="0 0 297 285"><defs><style>.cls-1{fill:#2a72a5;}.cls-2{fill:#ffbf17;}</style></defs><path class="cls-1" d="M195.8,138.59a67.87,67.87,0,0,0-54.17,27.08l-31.69-22.12a47.66,47.66,0,0,0,3-48.9L150.6,71.47a37.92,37.92,0,1,0-5.78-8.63L107.2,86a47.91,47.91,0,1,0-6.46,67.45c.86-.71,1.7-1.46,2.52-2.23L136,174.28a67.91,67.91,0,1,0,59.83-35.81ZM179.64,18.2a28,28,0,1,1-28,28h0a28,28,0,0,1,28-28ZM70.52,154.3a37.65,37.65,0,1,1,37.53-37.77v.12A37.68,37.68,0,0,1,70.52,154.3Z"/><path class="cls-2" d="M209.39,236.94H182.62V220.33H166V192.64h16.61V176h26.77v16.61H226v27.69H209.39Z"/><circle class="cls-1" cx="69.63" cy="115.17" r="14.73"/><rect class="cls-1" x="44.5" y="133.37" width="52" height="25.13" rx="12.57"/><circle class="cls-1" cx="179.49" cy="45.15" r="10.15"/><rect class="cls-1" x="162.18" y="57.69" width="35.82" height="17.31" rx="8.66"/></svg>