<?xml version="1.0" encoding="utf-8"?>
<svg viewBox="-1 -1 27 27" width="27" height="27" style="enable-background:new 0 0 25 25;" xmlns="http://www.w3.org/2000/svg">
  <defs>
    <style type="text/css">
	.st0{fill:#ffffff;}
</style>
  </defs>
  <path class="st0" d="M 11.705 0.024 C 5.495 0.414 0.415 5.492 0.025 11.7 C -0.445 19.258 5.745 25.436 13.305 24.976 C 19.514 24.596 24.595 19.508 24.975 13.31 C 25.445 5.742 19.264 -0.436 11.705 0.024 Z M 14.455 22.017 L 10.555 22.017 L 10.555 10.131 L 14.455 10.131 L 14.455 22.017 Z M 15.084 6.442 C 15.084 7.871 13.925 9.021 12.505 9.021 C 11.084 9.021 9.925 7.861 9.925 6.442 L 9.925 6.322 C 9.925 4.892 11.084 3.743 12.505 3.743 C 13.925 3.743 15.084 4.902 15.084 6.322 L 15.084 6.442 Z" transform="matrix(1, 0, 0, 1, 0, 0)"/>
</svg>