<?xml version="1.0" encoding="utf-8"?>
<svg viewBox="-1 -1 20 20" width="20" height="20" xmlns="http://www.w3.org/2000/svg" xmlns:bx="https://boxy-svg.com">
  <path d="M 9 0 C 6.555 0 6.249 0.011 5.29 0.054 C 4.331 0.099 3.679 0.25 3.105 0.472 C 2.513 0.702 2.01 1.01 1.511 1.511 C 1.01 2.01 0.701 2.512 0.472 3.105 C 0.25 3.679 0.098 4.331 0.054 5.29 C 0.009 6.249 0 6.555 0 9 C 0 11.445 0.011 11.751 0.054 12.71 C 0.099 13.669 0.25 14.322 0.472 14.895 C 0.702 15.487 1.01 15.99 1.511 16.489 C 2.01 16.99 2.512 17.299 3.105 17.527 C 3.679 17.75 4.331 17.902 5.29 17.946 C 6.249 17.991 6.555 18 9 18 C 11.445 18 11.751 17.989 12.71 17.946 C 13.669 17.901 14.322 17.75 14.895 17.527 C 15.487 17.298 15.99 16.99 16.489 16.489 C 16.99 15.99 17.299 15.488 17.527 14.895 C 17.75 14.321 17.902 13.669 17.946 12.71 C 17.991 11.751 18 11.445 18 9 C 18 6.555 17.989 6.249 17.946 5.29 C 17.901 4.331 17.75 3.678 17.527 3.105 C 17.298 2.513 16.99 2.01 16.489 1.511 C 15.99 1.01 15.488 0.701 14.895 0.472 C 14.321 0.25 13.669 0.098 12.71 0.054 C 11.751 0.009 11.445 0 9 0 Z M 5.32 1.641 C 6.276 1.608 11.689 1.631 12.637 1.674 C 13.515 1.714 13.99 1.861 14.308 1.984 C 14.728 2.148 15.028 2.342 15.343 2.657 C 15.658 2.972 15.852 3.271 16.015 3.692 C 16.139 4.009 16.285 4.485 16.326 5.363 C 16.369 6.312 16.379 6.597 16.379 9 C 16.379 11.403 16.368 11.689 16.323 12.637 C 16.278 13.515 16.131 13.99 16.008 14.308 C 15.839 14.728 15.648 15.028 15.333 15.343 C 15.018 15.658 14.714 15.852 14.298 16.015 C 13.983 16.139 13.499 16.285 12.621 16.326 C 11.665 16.369 11.384 16.379 8.976 16.379 C 6.569 16.379 6.288 16.368 5.331 16.323 C 4.454 16.278 3.97 16.131 3.655 16.008 C 3.228 15.839 2.935 15.648 2.62 15.333 C 2.305 15.018 2.103 14.714 1.945 14.298 C 1.821 13.983 1.675 13.499 1.63 12.621 C 1.596 11.676 1.585 11.384 1.585 8.988 C 1.585 6.591 1.596 6.299 1.63 5.343 C 1.675 4.465 1.821 3.981 1.945 3.666 C 2.103 3.239 2.305 2.946 2.62 2.631 C 2.935 2.316 3.228 2.114 3.655 1.956 C 3.97 1.833 4.443 1.686 5.32 1.641 Z M 9 4.378 C 6.446 4.378 4.378 6.448 4.378 9 C 4.378 11.554 6.448 13.621 9 13.621 C 11.554 13.621 13.621 11.551 13.621 9 C 13.621 6.446 11.551 4.378 9 4.378 Z M 9 12 C 7.343 12 6 10.657 6 9 C 6 7.343 7.343 6 9 6 C 10.657 6 12 7.343 12 9 C 12 10.657 10.657 12 9 12 Z M 14.884 4.196 C 14.884 4.792 14.4 5.276 13.804 5.276 C 13.207 5.276 12.724 4.792 12.724 4.196 C 12.724 3.6 13.207 3.116 13.804 3.116 C 14.4 3.116 14.884 3.6 14.884 4.196 Z" style="fill: #2A72A5;" transform="matrix(0.9999999999999999, 0, 0, 0.9999999999999999, -2.220446049250313e-16, -2.220446049250313e-16)" bx:origin="0.5 0.5"/>
</svg>