<?xml version="1.0" encoding="utf-8"?>
<svg viewBox="-1 -1 16 15" width="16" height="15" xmlns="http://www.w3.org/2000/svg">
  <path d="M 5 4 L 7.767 4 L 7.767 5.418 L 7.807 5.418 C 8.192 4.727 9.134 4 10.539 4 C 13.46 4 14 5.818 14 8.183 L 14 13 L 11.115 13 L 11.115 8.73 C 11.115 7.712 11.094 6.401 9.615 6.401 C 8.113 6.401 7.883 7.51 7.883 8.656 L 7.883 13 L 5 13 L 5 4 Z" 
  style="fill: #f9a921" transform="matrix(1, 0, 0, 1, 0, 0)"/>
  <path d="M 0 4 L 3 4 L 3 13 L 0 13 L 0 4 Z" 
  style="fill: #f9a921;" transform="matrix(1, 0, 0, 1, 0, 0)"/>
  <path d="M 3 1.5 C 3 2.328 2.328 3 1.5 3 C 0.672 3 0 2.328 0 1.5 C 0 0.672 0.672 0 1.5 0 C 2.328 0 3 0.672 3 1.5 Z" 
  style="fill: #f9a921;" transform="matrix(1, 0, 0, 1, 0, 0)"/>
</svg>