<?xml version="1.0" encoding="utf-8"?>
<svg viewBox="-1 -1 25 16" width="25" height="16" style="enable-background:new 0 0 23 14;" xmlns="http://www.w3.org/2000/svg">
  <defs>
    <style type="text/css">
	.st0{fill: #2A72A5;}
</style>
  </defs>
  <path class="st0" d="M21.5,0l-10,8.7L1.5,0H21.5z M0.31,13.73C0.12,13.54,0,13.28,0,12.99V1.01&#10;&#9;c0-0.29,0.12-0.55,0.32-0.73L8.05,7L0.31,13.73z M1.5,14l7.3-6.35L11.5,10l2.7-2.35L21.5,14H1.5z M23,12.99&#10;&#9;c0,0.29-0.12,0.55-0.32,0.73L14.95,7l7.74-6.73C22.88,0.46,23,0.72,23,1.01V12.99z" transform="matrix(1, 0, 0, 1, 0, 0)"/>
</svg>