<?xml version="1.0" encoding="utf-8"?>
<svg viewBox="-1 -1 16.850000381469727 21.139999389648438" width="16.850000381469727" height="21.139999389648438" style="enable-background:new -11.5 9.09 15 20;" xmlns="http://www.w3.org/2000/svg">
  <path style="fill: #f9a921;" d="M 7.85 0 C 2.7 0 0 3.68 0 6.86 C 0 8.7 0.74 10.41 2.21 11.03 C 2.46 11.15 2.7 11.03 2.7 10.78 C 2.7 10.53 2.82 10.04 2.95 9.92 C 3.07 9.67 2.95 9.55 2.83 9.31 C 2.34 8.82 2.09 8.08 2.09 7.23 C 2.09 4.53 4.17 1.96 7.48 1.96 C 10.42 1.96 12.02 3.8 12.02 6.13 C 12.02 9.32 10.67 11.89 8.59 11.89 C 7.49 11.89 6.63 10.91 6.87 9.81 C 7.24 8.46 7.85 6.99 7.85 5.89 C 7.85 5.03 7.36 4.3 6.38 4.3 C 5.15 4.3 4.3 5.53 4.3 7.12 C 4.3 8.1 4.67 8.84 4.67 8.84 C 4.67 8.84 3.44 13.87 3.32 14.85 C 2.95 16.57 3.2 18.77 3.32 19.02 C 3.32 19.14 3.44 19.14 3.57 19.14 C 3.69 19.02 5.04 17.3 5.53 15.59 C 5.65 15.1 6.27 12.65 6.27 12.65 C 6.64 13.39 7.74 14 8.97 14 C 12.52 14 14.85 10.81 14.85 6.52 C 14.71 2.94 12.01 0 7.85 0 Z" transform="matrix(0.9999999999999999, 0, 0, 0.9999999999999999, 0, 8.881784197001252e-16)"/>
</svg>