<?xml version="1.0" encoding="utf-8"?>
<svg viewBox="-1 -1 25 21" width="25" height="21" style="enable-background:new 0 0 23 19;" xmlns="http://www.w3.org/2000/svg">
  <defs>
    <style type="text/css">
	.st0{fill: #2A72A5;}
</style>
  </defs>
  <g transform="matrix(1, 0, 0, 1, 0, 0)">
    <path class="st0" d="M 19.03 14.25 L 23 14.25 L 23 4.75 L 19.03 4.75 L 19.03 0 L 3.98 0 L 3.98 4.75 L 0 4.75 L 0 14.25 L 3.97 14.25 L 3.97 19 L 19.04 19 L 19.04 14.25 Z M 18.24 0.79 L 18.24 4.75 L 4.77 4.75 L 4.77 0.79 M 4.77 8.84 L 18.26 8.84 L 18.26 18.21 L 4.77 18.21 L 4.77 8.84 Z"/>
    <rect x="5.56" y="13.46" class="st0" width="11.9" height="0.79"/>
    <rect x="5.56" y="15.84" class="st0" width="11.9" height="0.79"/>
    <rect x="5.56" y="11.08" class="st0" width="11.9" height="0.79"/>
  </g>
</svg>