<?xml version="1.0" encoding="utf-8"?>
<svg viewBox="-1 -1 28 28" width="28" height="28" style="enable-background:new 0 0 16 16;" xmlns="http://www.w3.org/2000/svg">
  <defs>
    <style type="text/css">
	.st0{fill:#ffffff;}
</style>
  </defs>
  <path class="st0" d="M 25.283 25.281 C 24.325 26.24 22.781 26.24 21.838 25.281 L 17.533 20.976 C 15.762 22.113 13.666 22.795 11.407 22.795 C 5.103 22.779 0 17.693 0 11.39 C 0 5.085 5.103 0 11.391 0 C 17.678 0 22.781 5.102 22.781 11.39 C 22.781 13.648 22.098 15.743 20.962 17.515 L 25.267 21.82 C 26.242 22.779 26.242 24.323 25.283 25.281 Z M 11.391 3.25 C 6.906 3.25 3.25 6.888 3.25 11.39 C 3.25 15.89 6.889 19.53 11.391 19.53 C 15.892 19.53 19.532 15.89 19.532 11.39 C 19.532 6.888 15.892 3.25 11.391 3.25 Z" transform="matrix(1, 0, 0, 1, 0, 0)"/>
</svg>