<?xml version="1.0" encoding="utf-8"?>
<svg viewBox="-1 -1 18.000999450683594 18.003000259399414" width="18.000999450683594" height="18.003000259399414" style="enable-background:new 0 0 16 16;" xmlns="http://www.w3.org/2000/svg">
  <defs>
    <style type="text/css">
	.st0{fill:#ffffff;}
</style>
  </defs>
  <path class="st0" d="M 15.56 15.56 C 14.97 16.15 14.02 16.15 13.44 15.56 L 10.79 12.91 C 9.7 13.61 8.41 14.03 7.02 14.03 C 3.14 14.02 0 10.89 0 7.01 C 0 3.13 3.14 0 7.01 0 C 10.88 0 14.02 3.14 14.02 7.01 C 14.02 8.4 13.6 9.69 12.9 10.78 L 15.55 13.43 C 16.15 14.02 16.15 14.97 15.56 15.56 Z M 7.01 2 C 4.25 2 2 4.24 2 7.01 C 2 9.78 4.24 12.02 7.01 12.02 C 9.78 12.02 12.02 9.78 12.02 7.01 C 12.02 4.24 9.78 2 7.01 2 Z" transform="matrix(1, 0, 0, 1, 0, 2.220446049250313e-16)"/>
</svg>