<?xml version="1.0" encoding="utf-8"?>
<svg viewBox="-1 -1 21 17.524999618530273" width="21" height="17.524999618530273" style="enable-background:new 0 0 19 16;" xmlns="http://www.w3.org/2000/svg">
  <path style="fill: #2A72A5;" d="M 19 1.848 C 18.283 2.141 17.576 2.384 16.737 2.444 C 17.566 1.97 18.162 1.192 18.465 0.303 C 17.697 0.717 16.859 1.071 15.97 1.253 C 15.253 0.485 14.242 0 13.121 0 C 10.98 0 9.202 1.727 9.202 3.919 C 9.202 4.212 9.263 4.515 9.323 4.808 C 6.051 4.626 3.202 3.081 1.303 0.768 C 0.939 1.374 0.758 2.02 0.758 2.737 C 0.758 4.101 1.475 5.293 2.485 6.01 C 1.828 6.01 1.232 5.828 0.707 5.535 L 0.707 5.596 C 0.707 7.495 2.071 9.04 3.859 9.394 C 3.505 9.455 3.202 9.515 2.848 9.515 C 2.606 9.515 2.374 9.515 2.131 9.455 C 2.606 11 4.091 12.131 5.758 12.192 C 4.455 13.263 2.727 13.859 0.949 13.859 C 0.657 13.859 0.354 13.859 0 13.798 C 1.727 14.929 3.798 15.525 6 15.525 C 13.192 15.525 17.111 9.586 17.111 4.414 C 17.111 4.232 17.111 4.061 17.111 3.939 C 17.869 3.333 18.525 2.616 19 1.848 L 19 1.848 Z" transform="matrix(1, 0, 0, 1, 0, 0)"/>
</svg>