<?xml version="1.0" encoding="utf-8"?>
<svg viewBox="-1 -1.0010000467300415 20 23.766000747680664" width="20" height="23.766000747680664" xmlns="http://www.w3.org/2000/svg">
  <path d="M 11.466 15.108 L 11.466 17.672 C 11.466 18.218 11.308 18.486 10.993 18.486 C 10.811 18.486 10.627 18.4 10.445 18.218 L 10.445 14.562 C 10.627 14.38 10.811 14.295 10.993 14.295 C 11.308 14.295 11.466 14.575 11.466 15.108 Z M 15.571 15.121 L 15.571 15.68 L 14.477 15.68 L 14.477 15.121 C 14.477 14.575 14.659 14.295 15.025 14.295 C 15.389 14.295 15.571 14.575 15.571 15.121 Z M 3.838 12.474 L 5.136 12.474 L 5.136 11.333 L 1.348 11.333 L 1.348 12.474 L 2.624 12.474 L 2.624 19.385 L 3.838 19.385 L 3.838 12.474 Z M 7.337 19.385 L 8.418 19.385 L 8.418 13.386 L 7.337 13.386 L 7.337 17.977 C 7.092 18.317 6.862 18.486 6.643 18.486 C 6.498 18.486 6.412 18.4 6.388 18.231 C 6.376 18.194 6.376 18.059 6.376 17.805 L 6.376 13.385 L 5.294 13.385 L 5.294 18.132 C 5.294 18.558 5.331 18.838 5.393 19.021 C 5.489 19.325 5.744 19.47 6.097 19.47 C 6.484 19.47 6.897 19.226 7.336 18.729 L 7.336 19.384 Z M 12.546 17.587 L 12.546 15.194 C 12.546 14.635 12.523 14.235 12.437 13.991 C 12.304 13.542 12.001 13.313 11.575 13.313 C 11.174 13.313 10.797 13.531 10.444 13.968 L 10.444 11.333 L 9.364 11.333 L 9.364 19.384 L 10.444 19.384 L 10.444 18.802 C 10.811 19.252 11.185 19.47 11.575 19.47 C 12.001 19.47 12.305 19.238 12.437 18.802 C 12.522 18.545 12.546 18.145 12.546 17.586 Z M 16.652 17.465 L 16.652 17.309 L 15.548 17.309 C 15.548 17.745 15.534 17.987 15.522 18.049 C 15.462 18.34 15.304 18.486 15.036 18.486 C 14.662 18.486 14.477 18.208 14.477 17.649 L 14.477 16.591 L 16.652 16.591 L 16.652 15.34 C 16.652 14.698 16.542 14.235 16.324 13.931 C 16.007 13.518 15.584 13.313 15.036 13.313 C 14.477 13.313 14.054 13.518 13.737 13.931 C 13.505 14.235 13.396 14.697 13.396 15.34 L 13.396 17.442 C 13.396 18.085 13.518 18.559 13.749 18.85 C 14.063 19.263 14.49 19.471 15.061 19.471 C 15.63 19.471 16.08 19.253 16.372 18.827 C 16.505 18.633 16.601 18.414 16.627 18.172 C 16.651 18.06 16.651 17.819 16.651 17.466 Z M 9.267 6.375 L 9.267 3.827 C 9.267 3.268 9.11 2.988 8.745 2.988 C 8.392 2.988 8.223 3.268 8.223 3.827 L 8.223 6.375 C 8.223 6.934 8.392 7.228 8.745 7.228 C 9.11 7.228 9.267 6.934 9.267 6.375 Z M 18 15.498 C 18 16.896 17.987 18.39 17.683 19.749 C 17.455 20.71 16.675 21.415 15.742 21.511 C 13.505 21.765 11.247 21.765 9 21.765 C 6.753 21.765 4.495 21.765 2.26 21.511 C 1.325 21.415 0.535 20.711 0.317 19.749 C 0 18.39 0 16.896 0 15.498 L 0 15.498 C 0 14.089 0.013 12.606 0.317 11.247 C 0.545 10.289 1.325 9.582 2.271 9.473 C 4.495 9.231 6.753 9.231 9 9.231 C 11.247 9.231 13.505 9.231 15.742 9.473 C 16.675 9.583 17.465 10.289 17.683 11.247 C 18 12.606 18 14.089 18 15.498 Z M 5.879 0 L 7.116 0 L 5.648 4.845 L 5.648 8.137 L 4.432 8.137 L 4.432 4.845 C 4.323 4.25 4.081 3.401 3.692 2.27 C 3.424 1.516 3.156 0.752 2.902 -0.001 L 4.19 -0.001 L 5.052 3.192 Z M 10.372 4.045 L 10.372 6.169 C 10.372 6.814 10.263 7.3 10.031 7.602 C 9.727 8.015 9.303 8.222 8.745 8.222 C 8.2 8.222 7.773 8.015 7.469 7.602 C 7.239 7.287 7.129 6.814 7.129 6.169 L 7.129 4.045 C 7.129 3.401 7.239 2.928 7.469 2.623 C 7.773 2.211 8.2 2.003 8.745 2.003 C 9.304 2.003 9.73 2.211 10.031 2.623 C 10.263 2.928 10.372 3.401 10.372 4.045 Z M 14.44 2.076 L 14.44 8.138 L 13.336 8.138 L 13.336 7.47 C 12.9 7.979 12.487 8.223 12.084 8.223 C 11.733 8.223 11.479 8.078 11.37 7.774 C 11.308 7.592 11.271 7.302 11.271 6.862 L 11.271 2.079 L 12.378 2.079 L 12.378 6.535 C 12.378 6.789 12.378 6.935 12.388 6.961 C 12.414 7.13 12.498 7.228 12.643 7.228 C 12.864 7.228 13.092 7.057 13.337 6.706 L 13.337 2.079 L 14.441 2.079 Z" transform="matrix(1, 0, 0, 1, 0, 0)" style="fill: #2A72A5"/>
</svg>